<svg width="25" height="18" viewBox="0 0 25 18" fill="none" xmlns="http://www.w3.org/2000/svg">
<path d="M17.0436 0.442686L24.1017 7.50081C24.6864 8.08552 24.6864 9.03353 24.1017 9.61824L17.0436 16.6764C16.4588 17.2611 15.5108 17.2611 14.9261 16.6764C14.3414 16.0916 14.3414 15.1436 14.9261 14.5589L19.4275 10.0557L2.07928 10.0568C1.32128 10.0568 0.694842 9.4935 0.5957 8.76269L0.582031 8.55952C0.582031 7.73261 1.25237 7.06227 2.07928 7.06227L19.4275 7.0612L14.9261 2.56012C14.3414 1.97541 14.3414 1.0274 14.9261 0.442686C15.5108 -0.142028 16.4588 -0.142028 17.0436 0.442686Z" fill="black"/>
</svg>