<svg width="18" height="19" viewBox="0 0 18 19" fill="none" xmlns="http://www.w3.org/2000/svg">
<path d="M14.75 0.755371C16.5449 0.755371 18 2.21045 18 4.00537V15.5054C18 17.3003 16.5449 18.7554 14.75 18.7554H3.25C1.45507 18.7554 0 17.3003 0 15.5054V4.00537C0 2.21045 1.45507 0.755371 3.25 0.755371H14.75ZM4.75 11.2554C4.05964 11.2554 3.5 11.815 3.5 12.5054C3.5 13.1957 4.05964 13.7554 4.75 13.7554C5.44036 13.7554 6 13.1957 6 12.5054C6 11.815 5.44036 11.2554 4.75 11.2554ZM9 11.2554C8.30964 11.2554 7.75 11.815 7.75 12.5054C7.75 13.1957 8.30964 13.7554 9 13.7554C9.69036 13.7554 10.25 13.1957 10.25 12.5054C10.25 11.815 9.69036 11.2554 9 11.2554ZM4.75 6.25537C4.05964 6.25537 3.5 6.81502 3.5 7.50537C3.5 8.19573 4.05964 8.75537 4.75 8.75537C5.44036 8.75537 6 8.19573 6 7.50537C6 6.81502 5.44036 6.25537 4.75 6.25537ZM9 6.25537C8.30964 6.25537 7.75 6.81502 7.75 7.50537C7.75 8.19573 8.30964 8.75537 9 8.75537C9.69036 8.75537 10.25 8.19573 10.25 7.50537C10.25 6.81502 9.69036 6.25537 9 6.25537ZM13.25 6.25537C12.5596 6.25537 12 6.81502 12 7.50537C12 8.19573 12.5596 8.75537 13.25 8.75537C13.9404 8.75537 14.5 8.19573 14.5 7.50537C14.5 6.81502 13.9404 6.25537 13.25 6.25537Z" fill="#0D2C36"/>
</svg>