<svg width="38" height="39" viewBox="0 0 38 39" fill="none" xmlns="http://www.w3.org/2000/svg">
<circle opacity="0.1" cx="19.1611" cy="19.0815" r="18.5791" fill="url(#paint0_linear_7676_29509)"/>
<path d="M21.9996 25.0825C22.8354 25.7106 23.8746 26.0828 25.0006 26.0828C26.1258 26.0828 27.1642 25.7112 27.9997 25.084L28.0002 28.3302C28.0002 28.901 27.3957 29.2496 26.9101 28.9991L26.8206 28.945L25.0003 27.6727L23.1806 28.945C22.7127 29.2719 22.0807 28.9761 22.008 28.4345L22.0011 28.3302L21.9996 25.0825ZM26.25 10.0857C27.7125 10.0857 28.9084 11.2274 28.995 12.6682L29 12.8357L29.0014 18.0816C28.5971 17.5433 28.0867 17.0894 27.5013 16.7507L27.5 12.8357C27.5 12.1885 27.0081 11.6562 26.3778 11.5921L26.25 11.5857H11.75C11.1028 11.5857 10.5705 12.0776 10.5065 12.7079L10.5 12.8357V22.3357C10.5 22.9829 10.9919 23.5152 11.6222 23.5792L11.75 23.5857L20.6709 23.5858C20.7707 23.758 20.8805 23.9238 20.9995 24.0822L21 25.0857H11.75C10.2875 25.0857 9.0916 23.944 9.00502 22.5032L9 22.3357V12.8357C9 11.3732 10.1417 10.1773 11.5825 10.0907L11.75 10.0857H26.25ZM25.0006 17.0815C27.2101 17.0815 29.0013 18.8726 29.0013 21.0821C29.0013 23.2916 27.2101 25.0828 25.0006 25.0828C22.7911 25.0828 21 23.2916 21 21.0821C21 18.8726 22.7911 17.0815 25.0006 17.0815ZM18.25 19.5815C18.6642 19.5815 19 19.9173 19 20.3315C19 20.7112 18.7178 21.025 18.3518 21.0746L18.25 21.0815H13.75C13.3358 21.0815 13 20.7457 13 20.3315C13 19.9518 13.2822 19.638 13.6482 19.5883L13.75 19.5815H18.25ZM24.25 14.0815C24.6642 14.0815 25 14.4173 25 14.8315C25 15.2112 24.7178 15.525 24.3518 15.5746L24.25 15.5815H13.75C13.3358 15.5815 13 15.2457 13 14.8315C13 14.4518 13.2822 14.138 13.6482 14.0883L13.75 14.0815H24.25Z" fill="url(#paint1_linear_7676_29509)"/>
<defs>
<linearGradient id="paint0_linear_7676_29509" x1="41.7499" y1="0.502442" x2="3.30938" y2="40.2953" gradientUnits="userSpaceOnUse">
<stop stop-color="#6E72EE"/>
<stop offset="1" stop-color="#595DDC"/>
</linearGradient>
<linearGradient id="paint1_linear_7676_29509" x1="31.1597" y1="10.0857" x2="11.5694" y2="31.4387" gradientUnits="userSpaceOnUse">
<stop stop-color="#6E72EE"/>
<stop offset="1" stop-color="#595DDC"/>
</linearGradient>
</defs>
</svg>