<svg width="38" height="39" viewBox="0 0 38 39" fill="none" xmlns="http://www.w3.org/2000/svg">
<circle opacity="0.1" cx="19.1611" cy="19.0815" r="18.5791" fill="#2E2E36"/>
<path d="M23.25 20.5815H18.25C17.836 20.5815 17.5 20.2455 17.5 19.8315V12.8315C17.5 12.4175 17.836 12.0815 18.25 12.0815C18.664 12.0815 19 12.4175 19 12.8315V19.0815H23.25C23.664 19.0815 24 19.4175 24 19.8315C24 20.2455 23.664 20.5815 23.25 20.5815ZM19 7.08154C12.372 7.08154 7 12.4545 7 19.0815C7 25.7085 12.372 31.0815 19 31.0815C25.627 31.0815 31 25.7085 31 19.0815C31 12.4545 25.627 7.08154 19 7.08154Z" fill="#4E4E5C"/>
</svg>