<svg width="27" height="28" viewBox="0 0 27 28" fill="none" xmlns="http://www.w3.org/2000/svg">
<circle opacity="0.1" cx="13.1572" cy="14.0815" r="13.1494" fill="#00BA70"/>
<path d="M18.2446 20.5793C18.6589 20.5793 18.9946 20.915 18.9946 21.3293C18.9946 21.7089 18.7125 22.0227 18.3464 22.0724L18.2446 22.0793H7.75C7.33579 22.0793 7 21.7435 7 21.3293C7 20.9496 7.28215 20.6358 7.64823 20.5861L7.75 20.5793H18.2446ZM13.0036 6.08105C13.3833 6.08105 13.6971 6.36321 13.7468 6.72928L13.7536 6.83105L13.753 17.0241L16.7192 14.0535C16.9852 13.787 17.4019 13.7624 17.6957 13.98L17.7799 14.0525C18.0464 14.3185 18.071 14.7352 17.8534 15.029L17.7809 15.1132L13.538 19.3638L13.4674 19.4263L13.3764 19.4849L13.34 19.5061L13.2488 19.544L13.1283 19.5741L13.0591 19.582L12.999 19.5839C12.9489 19.5839 12.898 19.5784 12.8483 19.5679L12.7674 19.5448C12.6714 19.5138 12.5843 19.4635 12.5101 19.3987L8.22056 15.114C7.92746 14.8213 7.92712 14.3465 8.21981 14.0534C8.48588 13.7869 8.90253 13.7624 9.1963 13.98L9.28047 14.0526L12.253 17.0201L12.2536 6.83105C12.2536 6.41684 12.5894 6.08105 13.0036 6.08105Z" fill="#00BA70"/>
</svg>