<svg width="18" height="20" viewBox="0 0 18 20" fill="none" xmlns="http://www.w3.org/2000/svg">
<path d="M4 14.1562C4.55228 14.1562 5 13.7085 5 13.1562C5 12.604 4.55228 12.1562 4 12.1562C3.44772 12.1562 3 12.604 3 13.1562C3 13.7085 3.44772 14.1562 4 14.1562ZM5 16.1562C5 16.7085 4.55228 17.1562 4 17.1562C3.44772 17.1562 3 16.7085 3 16.1562C3 15.604 3.44772 15.1562 4 15.1562C4.55228 15.1562 5 15.604 5 16.1562ZM4 11.1562C4.55228 11.1562 5 10.7085 5 10.1562C5 9.60396 4.55228 9.15625 4 9.15625C3.44772 9.15625 3 9.60396 3 10.1562C3 10.7085 3.44772 11.1562 4 11.1562ZM5 7.15625C5 7.70853 4.55228 8.15625 4 8.15625C3.44772 8.15625 3 7.70853 3 7.15625C3 6.60396 3.44772 6.15625 4 6.15625C4.55228 6.15625 5 6.60396 5 7.15625ZM4 5.15625C4.55228 5.15625 5 4.70853 5 4.15625C5 3.60397 4.55228 3.15625 4 3.15625C3.44772 3.15625 3 3.60397 3 4.15625C3 4.70853 3.44772 5.15625 4 5.15625ZM11 2.40625V3.15625H15.75C16.9926 3.15625 18 4.16361 18 5.40625V18.9062C18 19.3205 17.6642 19.6562 17.25 19.6562H14.25V16.9062C14.25 16.6301 14.0261 16.4062 13.75 16.4062H11.25C10.9739 16.4062 10.75 16.6301 10.75 16.9062V19.6562H0.75C0.335786 19.6562 0 19.3205 0 18.9062V2.40625C0 1.16361 1.00736 0.15625 2.25 0.15625H8.75C9.99264 0.15625 11 1.16361 11 2.40625ZM2.25 1.65625C1.83579 1.65625 1.5 1.99204 1.5 2.40625V18.1562H7V5.40625C7 4.16361 8.00736 3.15625 9.25 3.15625H9.5V2.40625C9.5 1.99204 9.16421 1.65625 8.75 1.65625H2.25ZM15 13.1562C15 12.604 14.5523 12.1562 14 12.1562C13.4477 12.1562 13 12.604 13 13.1562C13 13.7085 13.4477 14.1562 14 14.1562C14.5523 14.1562 15 13.7085 15 13.1562ZM11 14.1562C11.5523 14.1562 12 13.7085 12 13.1562C12 12.604 11.5523 12.1562 11 12.1562C10.4477 12.1562 10 12.604 10 13.1562C10 13.7085 10.4477 14.1562 11 14.1562ZM15 10.1562C15 9.60397 14.5523 9.15625 14 9.15625C13.4477 9.15625 13 9.60397 13 10.1562C13 10.7085 13.4477 11.1562 14 11.1562C14.5523 11.1562 15 10.7085 15 10.1562ZM11 11.1562C11.5523 11.1562 12 10.7085 12 10.1562C12 9.60397 11.5523 9.15625 11 9.15625C10.4477 9.15625 10 9.60397 10 10.1562C10 10.7085 10.4477 11.1562 11 11.1562ZM15 7.15625C15 6.60397 14.5523 6.15625 14 6.15625C13.4477 6.15625 13 6.60397 13 7.15625C13 7.70853 13.4477 8.15625 14 8.15625C14.5523 8.15625 15 7.70853 15 7.15625ZM11 8.15625C11.5523 8.15625 12 7.70853 12 7.15625C12 6.60397 11.5523 6.15625 11 6.15625C10.4477 6.15625 10 6.60397 10 7.15625C10 7.70853 10.4477 8.15625 11 8.15625Z" fill="#0D2C36"/>
</svg>