<svg width="24" height="24" viewBox="0 0 24 24" fill="none" xmlns="http://www.w3.org/2000/svg">
<path d="M17.3376 14.9527H16.2837L15.9101 14.5924C17.373 12.888 18.1187 10.683 17.9906 8.44049C17.8624 6.19795 16.8704 4.09228 15.2229 2.56556C13.5753 1.03884 11.4003 0.209816 9.15451 0.25255C6.90872 0.295285 4.76684 1.20645 3.17854 2.79475C1.59024 4.38305 0.679074 6.52493 0.636339 8.77072C0.593605 11.0165 1.42263 13.1915 2.94935 14.8391C4.47607 16.4867 6.58174 17.4786 8.82428 17.6068C11.0668 17.7349 13.2718 16.9893 14.9762 15.5263L15.3364 15.8999V16.9538L22.0069 23.611L23.9947 21.6231L17.3376 14.9527ZM9.333 14.9527C8.14564 14.9527 6.98493 14.6006 5.99767 13.9409C5.01041 13.2812 4.24094 12.3436 3.78655 11.2466C3.33216 10.1496 3.21328 8.94256 3.44492 7.778C3.67656 6.61345 4.24834 5.54374 5.08793 4.70414C5.92753 3.86455 6.99724 3.29277 8.16179 3.06113C9.32635 2.82949 10.5334 2.94837 11.6304 3.40276C12.7274 3.85715 13.665 4.62662 14.3247 5.61388C14.9843 6.60114 15.3364 7.76185 15.3364 8.94922C15.3375 9.7379 15.1829 10.519 14.8816 11.2479C14.5803 11.9767 14.1381 12.639 13.5804 13.1966C13.0227 13.7543 12.3605 14.1965 11.6317 14.4978C10.9028 14.7991 10.1217 14.9537 9.333 14.9527Z" fill="#0D2C36"/>
</svg>