<svg width="18" height="19" viewBox="0 0 18 19" fill="none" xmlns="http://www.w3.org/2000/svg">
<path d="M0 3.60156C0 1.80664 1.45507 0.351562 3.25 0.351562H14.75C16.5449 0.351562 18 1.80664 18 3.60156V15.1016C18 16.8965 16.5449 18.3516 14.75 18.3516H3.25C1.45507 18.3516 0 16.8965 0 15.1016V3.60156ZM3.25 1.85156C2.2835 1.85156 1.5 2.63506 1.5 3.60156V5.85156H5.5V1.85156H3.25ZM1.5 7.35156V11.3516H5.5L5.5 7.35156H1.5ZM7 7.35156L7 11.3516H11L11 7.35156H7ZM12.5 7.35156L12.5 11.3516H16.5V7.35156H12.5ZM11 12.8516H7V16.8516H11V12.8516ZM12.5 16.8516H14.75C15.7165 16.8516 16.5 16.0681 16.5 15.1016V12.8516H12.5V16.8516ZM12.5 5.85156H16.5V3.60156C16.5 2.63506 15.7165 1.85156 14.75 1.85156H12.5V5.85156ZM11 1.85156H7V5.85156H11V1.85156ZM1.5 12.8516V15.1016C1.5 16.0681 2.2835 16.8516 3.25 16.8516H5.5V12.8516H1.5Z" fill="#595DDC"/>
</svg>