<svg width="38" height="39" viewBox="0 0 38 39" fill="none" xmlns="http://www.w3.org/2000/svg">
<circle opacity="0.1" cx="19.1611" cy="19.0815" r="18.5791" fill="#3B95CD"/>
<path d="M12.25 10.5771H25.7477C26.1619 10.5771 26.4977 10.2414 26.4977 9.82715C26.4977 9.44745 26.2155 9.13366 25.8494 9.084L25.7477 9.07715H12.25C11.8358 9.07715 11.5 9.41294 11.5 9.82715C11.5 10.2068 11.7822 10.5206 12.1482 10.5703L12.25 10.5771ZM18.8834 29.0748L19 29.0815C19.5128 29.0815 19.9355 28.6955 19.9933 28.1982L20 28.0815V15.4915L23.2941 18.7843C23.6546 19.1448 24.2218 19.1724 24.6141 18.8674L24.7083 18.7842C25.0687 18.4237 25.0964 17.8564 24.7913 17.4642L24.7081 17.37L19.7105 12.3734C19.3502 12.0131 18.7833 11.9852 18.391 12.2899L18.2968 12.3729L13.2934 17.3696C12.9026 17.7598 12.9022 18.393 13.2924 18.7838C13.6526 19.1445 14.2199 19.1726 14.6124 18.8679L14.7066 18.7847L18 15.4965V28.0815C18 28.5944 18.386 29.0171 18.8834 29.0748Z" fill="#3B95CD"/>
</svg>