<svg width="21" height="22" viewBox="0 0 21 22" fill="none" xmlns="http://www.w3.org/2000/svg">
<path d="M15.5004 10.3548C18.5379 10.3548 21.0004 12.8172 21.0004 15.8548C21.0004 18.8923 18.5379 21.3547 15.5004 21.3547C12.4628 21.3547 10.0004 18.8923 10.0004 15.8548C10.0004 12.8172 12.4628 10.3548 15.5004 10.3548ZM10.0226 12.3541C9.37553 13.3645 9.00036 14.5658 9.00036 15.8548C9.00036 17.4851 9.60059 18.9752 10.5921 20.1162C9.79657 20.2764 8.93168 20.3558 8.00036 20.3558C4.5794 20.3558 2.05643 19.2837 0.514274 17.1193C0.182312 16.6534 0.00390625 16.0956 0.00390625 15.5235V14.6035C0.00390625 13.3615 1.01076 12.3547 2.25278 12.3547L10.0226 12.3541ZM12.8539 15.5012C12.6587 15.3059 12.3421 15.3059 12.1468 15.5012C11.9515 15.6965 11.9515 16.013 12.1468 16.2083L14.1468 18.2083C14.3421 18.4036 14.6587 18.4036 14.8539 18.2083L18.8539 14.2083C19.0492 14.013 19.0492 13.6965 18.8539 13.5012C18.6587 13.3059 18.3421 13.3059 18.1468 13.5012L14.5004 17.1476L12.8539 15.5012ZM8.00036 0.359375C10.7618 0.359375 13.0004 2.59795 13.0004 5.35938C13.0004 8.1208 10.7618 10.3594 8.00036 10.3594C5.23894 10.3594 3.00036 8.1208 3.00036 5.35938C3.00036 2.59795 5.23894 0.359375 8.00036 0.359375Z" fill="#0D2C36"/>
</svg>