<svg width="432" height="330" viewBox="0 0 432 330" fill="none" xmlns="http://www.w3.org/2000/svg">
<path d="M216 328.593C157.485 328.593 103.517 325.67 64.1838 321.018C44.5142 318.692 28.5225 315.935 17.4573 312.902C11.9208 311.384 7.64603 309.804 4.76577 308.189C3.32533 307.381 2.25787 306.578 1.55577 305.789C0.856098 305.003 0.542969 304.259 0.542969 303.553C0.542969 302.847 0.856097 302.103 1.55576 301.317C2.25787 300.528 3.32532 299.725 4.76576 298.917C7.64603 297.302 11.9208 295.722 17.4573 294.204C28.5225 291.171 44.5142 288.415 64.1838 286.089C103.517 281.437 157.485 278.514 216 278.514C274.514 278.514 328.483 281.438 367.816 286.09C387.486 288.417 403.477 291.173 414.543 294.206C420.079 295.724 424.354 297.304 427.234 298.918C428.675 299.726 429.742 300.529 430.444 301.318C431.144 302.104 431.457 302.847 431.457 303.553C431.457 304.259 431.144 305.002 430.444 305.788C429.742 306.577 428.675 307.38 427.234 308.188C424.354 309.802 420.079 311.382 414.543 312.9C403.477 315.933 387.486 318.69 367.816 321.016C328.483 325.668 274.514 328.593 216 328.593Z" fill="#EFEFFC" stroke="#595DDC"/>
<path d="M80.0189 302.395C75.9997 302.391 72.1464 300.792 69.3044 297.95C66.4625 295.108 64.8641 291.254 64.8599 287.235V84.375C64.8583 80.3498 66.4534 76.4883 69.2952 73.6376C72.1371 70.7869 75.9936 69.1799 80.0189 69.169H344.419C348.444 69.1799 352.301 70.7869 355.142 73.6376C357.984 76.4883 359.579 80.3498 359.578 84.375V287.235C359.574 291.254 357.975 295.108 355.133 297.95C352.291 300.792 348.438 302.391 344.419 302.395H80.0189Z" fill="#F3F5F8" stroke="#595DDC" stroke-width="2"/>
<path d="M344.419 69.754C348.289 69.7646 351.997 71.3099 354.729 74.0509C357.461 76.7919 358.995 80.5048 358.993 84.375V287.236C358.989 291.1 357.452 294.805 354.72 297.537C351.988 300.27 348.283 301.807 344.419 301.812H80.0189C76.1547 301.807 72.4503 300.27 69.7181 297.537C66.9859 294.805 65.4491 291.1 65.4449 287.236V84.375C65.443 80.5048 66.9764 76.7919 69.7086 74.0509C72.4408 71.3099 76.1487 69.7646 80.0189 69.754H344.419ZM344.419 68.585H80.0189C75.8376 68.5921 71.8304 70.2595 68.8782 73.2205C65.926 76.1815 64.2706 80.1937 64.2759 84.375V287.236C64.2742 289.304 64.6802 291.352 65.4708 293.263C66.2613 295.174 67.4208 296.91 68.883 298.372C70.3452 299.834 72.0814 300.994 73.9922 301.785C75.903 302.575 77.951 302.982 80.0189 302.98H344.419C346.487 302.982 348.535 302.575 350.446 301.785C352.356 300.994 354.093 299.834 355.555 298.372C357.017 296.91 358.176 295.174 358.967 293.263C359.758 291.352 360.164 289.304 360.162 287.236V84.375C360.167 80.1937 358.512 76.1815 355.56 73.2205C352.607 70.2595 348.6 68.5921 344.419 68.585Z" fill="#EFEFFC" stroke="#595DDC" stroke-width="4"/>
<path d="M64.8599 121.715V84.376C64.8583 80.3508 66.4534 76.4893 69.2952 73.6386C72.1371 70.7879 75.9936 69.1809 80.0189 69.17H344.419C348.444 69.1806 352.301 70.7876 355.143 73.6383C357.985 76.489 359.58 80.3506 359.579 84.376V121.716L64.8599 121.715Z" fill="#EFEFFC" stroke="#595DDC" stroke-width="2"/>
<path d="M344.419 69.754C348.289 69.7646 351.997 71.3099 354.729 74.0509C357.461 76.7919 358.995 80.5048 358.993 84.375V121.13H65.4449V84.375C65.443 80.5048 66.9764 76.7919 69.7086 74.0509C72.4408 71.3099 76.1487 69.7646 80.0189 69.754H344.419ZM344.419 68.585H80.0189C75.8376 68.5921 71.8304 70.2595 68.8782 73.2205C65.926 76.1815 64.2706 80.1937 64.2759 84.375V122.299H360.162V84.375C360.167 80.1937 358.512 76.1815 355.56 73.2205C352.607 70.2595 348.6 68.5921 344.419 68.585Z" fill="black" stroke="#595DDC" stroke-width="2"/>
<path d="M139.477 101.841C140.546 102.555 141.802 102.936 143.088 102.936L139.477 101.841ZM139.477 101.841C138.408 101.126 137.575 100.111 137.083 98.9235M139.477 101.841L137.083 98.9235M137.083 98.9235C136.591 97.7358 136.462 96.4288 136.713 95.1679M137.083 98.9235L136.713 95.1679M136.713 95.1679C136.964 93.9071 137.583 92.7489 138.492 91.8398M136.713 95.1679L138.492 91.8398M138.492 91.8398C139.401 90.9308 140.559 90.3117 141.82 90.0609M138.492 91.8398L141.82 90.0609M141.82 90.0609C143.081 89.8101 144.388 89.9389 145.575 90.4308M141.82 90.0609L145.575 90.4308M145.575 90.4308C146.763 90.9228 147.778 91.7559 148.492 92.8248M145.575 90.4308L148.492 92.8248M148.492 92.8248C149.207 93.8937 149.588 95.1504 149.588 96.436L148.492 92.8248ZM149.588 96.436C149.585 98.1591 148.9 99.8109 147.681 101.029C146.463 102.248 144.811 102.933 143.088 102.936L149.588 96.436Z" fill="#EFEFFC" stroke="#595DDC"/>
<path d="M143.088 90.013C144.357 90.013 145.598 90.3893 146.653 91.0945C147.708 91.7996 148.531 92.8018 149.016 93.9743C149.502 95.1469 149.629 96.4371 149.382 97.6819C149.134 98.9267 148.523 100.07 147.625 100.967C146.728 101.865 145.585 102.476 144.34 102.724C143.095 102.971 141.805 102.844 140.632 102.359C139.46 101.873 138.458 101.05 137.752 99.9951C137.047 98.9398 136.671 97.6992 136.671 96.43C136.673 94.7287 137.35 93.0978 138.553 91.8948C139.756 90.6919 141.387 90.0151 143.088 90.013ZM143.088 88.844C141.588 88.844 140.121 89.2889 138.873 90.1225C137.626 90.956 136.654 92.1408 136.079 93.527C135.505 94.9131 135.355 96.4384 135.648 97.91C135.94 99.3815 136.663 100.733 137.724 101.794C138.785 102.855 140.136 103.578 141.608 103.87C143.08 104.163 144.605 104.013 145.991 103.439C147.377 102.864 148.562 101.892 149.395 100.645C150.229 99.397 150.674 97.9304 150.674 96.43C150.674 94.4181 149.874 92.4888 148.452 91.0662C147.029 89.6436 145.1 88.8443 143.088 88.844Z" fill="black" stroke="#595DDC" stroke-width="2"/>
<path d="M116.453 101.841C117.522 102.555 118.778 102.936 120.064 102.936L116.453 101.841ZM116.453 101.841C115.384 101.126 114.551 100.111 114.059 98.9235M116.453 101.841L114.059 98.9235M114.059 98.9235C113.567 97.7358 113.438 96.4288 113.689 95.1679M114.059 98.9235L113.689 95.1679M113.689 95.1679C113.94 93.9071 114.559 92.7489 115.468 91.8398M113.689 95.1679L115.468 91.8398M115.468 91.8398C116.377 90.9308 117.535 90.3117 118.796 90.0609M115.468 91.8398L118.796 90.0609M118.796 90.0609C120.057 89.8101 121.364 89.9389 122.551 90.4308M118.796 90.0609L122.551 90.4308M122.551 90.4308C123.739 90.9228 124.754 91.7559 125.469 92.8248M122.551 90.4308L125.469 92.8248M125.469 92.8248C126.183 93.8937 126.564 95.1504 126.564 96.436L125.469 92.8248ZM126.564 96.436C126.561 98.1591 125.876 99.8109 124.657 101.029C123.439 102.248 121.787 102.933 120.064 102.936L126.564 96.436Z" fill="#EFEFFC" stroke="#595DDC"/>
<path d="M120.063 90.013C121.332 90.013 122.573 90.3893 123.628 91.0945C124.683 91.7996 125.506 92.8018 125.992 93.9743C126.477 95.1469 126.604 96.4371 126.357 97.6819C126.109 98.9267 125.498 100.07 124.601 100.967C123.703 101.865 122.56 102.476 121.315 102.724C120.07 102.971 118.78 102.844 117.607 102.359C116.435 101.873 115.433 101.05 114.728 99.9951C114.022 98.9398 113.646 97.6992 113.646 96.43C113.648 94.7287 114.325 93.0978 115.528 91.8948C116.731 90.6919 118.362 90.0151 120.063 90.013ZM120.063 88.844C118.563 88.844 117.096 89.2889 115.848 90.1225C114.601 90.956 113.629 92.1408 113.055 93.527C112.48 94.9131 112.33 96.4384 112.623 97.91C112.916 99.3815 113.638 100.733 114.699 101.794C115.76 102.855 117.112 103.578 118.583 103.87C120.055 104.163 121.58 104.013 122.966 103.439C124.352 102.864 125.537 101.892 126.371 100.645C127.204 99.397 127.649 97.9304 127.649 96.43C127.649 94.4181 126.849 92.4888 125.427 91.0662C124.004 89.6436 122.075 88.8443 120.063 88.844Z" fill="black" stroke="#595DDC" stroke-width="2"/>
<path d="M93.4279 101.841C94.4968 102.555 95.7534 102.936 97.039 102.936L93.4279 101.841ZM93.4279 101.841C92.3589 101.126 91.5258 100.111 91.0338 98.9235M93.4279 101.841L91.0338 98.9235M91.0338 98.9235C90.5419 97.7358 90.4132 96.4288 90.664 95.1679M91.0338 98.9235L90.664 95.1679M90.664 95.1679C90.9148 93.9071 91.5338 92.7489 92.4429 91.8398M90.664 95.1679L92.4429 91.8398M92.4429 91.8398C93.3519 90.9308 94.5101 90.3117 95.771 90.0609M92.4429 91.8398L95.771 90.0609M95.771 90.0609C97.0319 89.8101 98.3388 89.9389 99.5265 90.4308M95.771 90.0609L99.5265 90.4308M99.5265 90.4308C100.714 90.9228 101.729 91.7559 102.444 92.8248M99.5265 90.4308L102.444 92.8248M102.444 92.8248C103.158 93.8937 103.539 95.1504 103.539 96.436L102.444 92.8248ZM103.539 96.436C103.536 98.1591 102.851 99.8109 101.632 101.029C100.414 102.248 98.7621 102.933 97.0391 102.936L103.539 96.436Z" fill="#EFEFFC" stroke="#595DDC"/>
<path d="M97.0391 90.013C98.3083 90.013 99.5489 90.3893 100.604 91.0945C101.659 91.7996 102.482 92.8018 102.968 93.9743C103.453 95.1469 103.58 96.4371 103.333 97.6819C103.085 98.9267 102.474 100.07 101.577 100.967C100.679 101.865 99.5358 102.476 98.291 102.724C97.0462 102.971 95.756 102.844 94.5834 102.359C93.4109 101.873 92.4087 101.05 91.7036 99.9951C90.9985 98.9398 90.6221 97.6992 90.6221 96.43C90.6242 94.7287 91.301 93.0978 92.504 91.8948C93.7069 90.6919 95.3379 90.0151 97.0391 90.013ZM97.0391 88.844C95.5388 88.844 94.0721 89.2889 92.8246 90.1225C91.5771 90.956 90.6047 92.1408 90.0306 93.527C89.4564 94.9131 89.3062 96.4384 89.5989 97.91C89.8916 99.3815 90.6141 100.733 91.675 101.794C92.7359 102.855 94.0876 103.578 95.5592 103.87C97.0307 104.163 98.556 104.013 99.9422 103.439C101.328 102.864 102.513 101.892 103.347 100.645C104.18 99.397 104.625 97.9304 104.625 96.43C104.625 94.4181 103.826 92.4888 102.403 91.0662C100.98 89.6436 99.051 88.8443 97.0391 88.844Z" fill="black" stroke="#595DDC" stroke-width="2"/>
<path d="M319.895 106.013L319.72 105.806C309.887 94.19 304.632 79.3844 304.942 64.1686C305.252 48.9529 311.105 34.3733 321.402 23.1671C331.7 11.9609 345.733 4.89859 360.869 3.30608C376.004 1.71356 391.2 5.70034 403.604 14.518C416.009 23.3356 424.768 36.3776 428.238 51.1958C431.708 66.0139 429.649 81.5889 422.449 94.9971C415.25 108.405 403.403 118.724 389.134 124.017C374.865 129.31 359.155 129.212 344.953 123.743L344.729 123.658L314.797 136.658L319.895 106.013Z" fill="#EFEFFC" stroke="#595DDC" stroke-width="4"/>
<path d="M367.479 3.169C376.59 3.17437 385.588 5.18506 393.835 9.05836C402.082 12.9317 409.375 18.5726 415.197 25.581C421.019 32.5893 425.227 40.7931 427.523 49.6103C429.818 58.4275 430.145 67.6418 428.48 76.5994C426.814 85.557 423.198 94.0383 417.887 101.441C412.576 108.844 405.7 114.988 397.749 119.435C389.797 123.883 380.964 126.526 371.876 127.176C362.788 127.827 353.668 126.469 345.164 123.2L344.717 123.028L344.278 123.219L315.55 135.7L320.429 106.379L320.518 105.844L320.167 105.431C312.493 96.4019 307.564 85.3647 305.963 73.6238C304.361 61.8829 306.155 49.9289 311.13 39.1745C316.106 28.4201 324.056 19.3147 334.041 12.9344C344.026 6.55408 355.629 3.16547 367.479 3.169ZM367.479 2C355.407 1.9979 343.587 5.45117 333.415 11.9518C323.243 18.4525 315.144 27.7289 310.075 38.685C305.007 49.6411 303.18 61.8191 304.811 73.7803C306.442 85.7414 311.462 96.9858 319.279 106.185L314.048 137.625L344.748 124.29C353.414 127.627 362.709 129.016 371.972 128.356C381.236 127.697 390.24 125.006 398.346 120.475C406.453 115.944 413.462 109.683 418.876 102.138C424.29 94.5932 427.977 85.9486 429.674 76.8183C431.371 67.688 431.037 58.296 428.696 49.3093C426.354 40.3226 422.063 31.9616 416.126 24.8202C410.19 17.6788 402.754 11.932 394.346 7.98805C385.939 4.04409 376.766 1.99968 367.479 2Z" fill="black" stroke="#595DDC" stroke-width="2"/>
<path d="M351.003 38.291C355.468 35.2803 360.668 33.5412 366.046 33.2599C371.424 32.9787 376.777 34.166 381.532 36.6945C386.286 39.2231 390.264 42.9977 393.037 47.6138C395.811 52.23 397.276 57.5137 397.276 62.899C397.276 65.14 397.747 70.607 397.276 72.705" stroke="#595DDC" stroke-width="3" stroke-miterlimit="10"/>
<path d="M384.737 87.128C379.724 90.6679 373.738 92.5675 367.601 92.5654C361.464 92.5634 355.479 90.6598 350.469 87.1167C345.458 83.5735 341.669 78.5648 339.622 72.7796C337.574 66.9944 337.37 60.717 339.037 54.811" stroke="#595DDC" stroke-width="3" stroke-miterlimit="10"/>
<path d="M386.481 61.679L395.491 74.018L407.439 63.637" stroke="#595DDC" stroke-width="3" stroke-miterlimit="10"/>
<path d="M327.518 62.615L340.136 53.999L347.925 67.777" stroke="#595DDC" stroke-width="3" stroke-miterlimit="10"/>
<path d="M36.7236 75.993C38.128 68.4077 41.6869 61.3873 46.9749 55.7708C52.263 50.1543 59.0566 46.1793 66.5436 44.321" fill="#F3F5F8"/>
<path d="M36.7236 75.993C38.128 68.4077 41.6869 61.3873 46.9749 55.7708C52.263 50.1543 59.0566 46.1793 66.5436 44.321" stroke="#595DDC" stroke-width="2"/>
<path d="M36.7236 75.993C38.128 68.4077 41.6869 61.3873 46.9749 55.7708C52.263 50.1543 59.0566 46.1793 66.5436 44.321" stroke="#595DDC" stroke-width="4" stroke-miterlimit="10"/>
<path d="M10.0068 71.595C12.1858 59.2651 17.7667 47.7894 26.1201 38.4623C34.4734 29.1352 45.2668 22.3278 57.2828 18.808" fill="#F3F5F8"/>
<path d="M10.0068 71.595C12.1858 59.2651 17.7667 47.7894 26.1201 38.4623C34.4734 29.1352 45.2668 22.3278 57.2828 18.808" stroke="#595DDC" stroke-width="2"/>
<path d="M10.0068 71.595C12.1858 59.2651 17.7667 47.7894 26.1201 38.4623C34.4734 29.1352 45.2668 22.3278 57.2828 18.808" stroke="#595DDC" stroke-width="4" stroke-miterlimit="10"/>
<path d="M265.43 176.171C266.902 176.171 268.341 176.608 269.565 177.425C270.789 178.243 271.743 179.406 272.306 180.766C272.87 182.126 273.017 183.622 272.73 185.066C272.443 186.51 271.734 187.836 270.693 188.877C269.652 189.918 268.326 190.627 266.882 190.914C265.438 191.201 263.942 191.054 262.582 190.49C261.222 189.927 260.059 188.973 259.241 187.749C258.423 186.525 257.987 185.086 257.987 183.614C257.989 181.641 258.774 179.749 260.17 178.354C261.565 176.958 263.457 176.173 265.43 176.171ZM265.43 174.815C263.689 174.815 261.988 175.331 260.541 176.298C259.094 177.265 257.966 178.639 257.3 180.247C256.634 181.855 256.459 183.625 256.799 185.332C257.139 187.039 257.977 188.607 259.207 189.838C260.438 191.068 262.006 191.906 263.713 192.246C265.42 192.585 267.19 192.411 268.797 191.745C270.405 191.079 271.78 189.951 272.747 188.504C273.714 187.057 274.23 185.355 274.23 183.615C274.23 182.459 274.002 181.315 273.56 180.247C273.118 179.18 272.47 178.21 271.652 177.392C270.835 176.575 269.865 175.927 268.797 175.485C267.73 175.043 266.586 174.815 265.43 174.815Z" stroke="#595DDC" stroke-width="3"/>
<path d="M158.889 176.171C160.361 176.171 161.8 176.608 163.024 177.425C164.248 178.243 165.202 179.406 165.765 180.766C166.329 182.126 166.476 183.622 166.189 185.066C165.902 186.51 165.193 187.836 164.152 188.877C163.111 189.918 161.785 190.627 160.341 190.914C158.897 191.201 157.401 191.054 156.041 190.49C154.681 189.927 153.518 188.973 152.7 187.749C151.882 186.525 151.446 185.086 151.446 183.614C151.448 181.641 152.233 179.749 153.629 178.354C155.024 176.958 156.916 176.173 158.889 176.171ZM158.889 174.815C157.148 174.815 155.447 175.331 154 176.298C152.553 177.265 151.425 178.639 150.759 180.247C150.093 181.855 149.918 183.625 150.258 185.332C150.598 187.039 151.436 188.607 152.666 189.838C153.897 191.068 155.465 191.906 157.172 192.246C158.879 192.585 160.649 192.411 162.256 191.745C163.864 191.079 165.239 189.951 166.206 188.504C167.173 187.057 167.689 185.355 167.689 183.615C167.689 182.459 167.461 181.315 167.019 180.247C166.577 179.18 165.929 178.21 165.111 177.392C164.294 176.575 163.324 175.927 162.256 175.485C161.189 175.043 160.045 174.815 158.889 174.815Z" stroke="#595DDC" stroke-width="3"/>
<path d="M237.201 242.778C234.743 238.081 231.047 234.147 226.512 231.401C221.977 228.656 216.777 227.205 211.476 227.205C206.175 227.205 200.976 228.656 196.441 231.401C191.906 234.147 188.21 238.081 185.752 242.778" fill="#F3F5F8"/>
<path d="M237.201 242.778C234.743 238.081 231.047 234.147 226.512 231.401C221.977 228.656 216.777 227.205 211.476 227.205C206.175 227.205 200.976 228.656 196.441 231.401C191.906 234.147 188.21 238.081 185.752 242.778" stroke="#595DDC" stroke-width="4"/>
<rect width="191" height="121" transform="translate(120 152)" fill="#F3F5F8"/>
<path d="M125.824 234.085V226.841L157.784 176.273H163.04V187.494H159.489L135.341 225.705V226.273H178.381V234.085H125.824ZM160.057 249V231.884V228.51V176.273H168.438V249H160.057ZM215.41 249.994C210.06 249.994 205.502 248.538 201.738 245.626C197.974 242.691 195.098 238.441 193.109 232.878C191.12 227.291 190.126 220.544 190.126 212.636C190.126 204.777 191.12 198.065 193.109 192.501C195.121 186.914 198.01 182.653 201.774 179.717C205.562 176.758 210.107 175.278 215.41 175.278C220.713 175.278 225.247 176.758 229.011 179.717C232.799 182.653 235.687 186.914 237.676 192.501C239.688 198.065 240.694 204.777 240.694 212.636C240.694 220.544 239.7 227.291 237.711 232.878C235.723 238.441 232.846 242.691 229.082 245.626C225.318 248.538 220.761 249.994 215.41 249.994ZM215.41 242.182C220.713 242.182 224.833 239.625 227.768 234.511C230.704 229.398 232.172 222.106 232.172 212.636C232.172 206.339 231.497 200.977 230.147 196.55C228.822 192.123 226.904 188.749 224.395 186.429C221.909 184.109 218.914 182.949 215.41 182.949C210.154 182.949 206.047 185.541 203.088 190.726C200.128 195.887 198.649 203.19 198.649 212.636C198.649 218.934 199.312 224.284 200.637 228.688C201.963 233.091 203.869 236.441 206.355 238.737C208.864 241.034 211.883 242.182 215.41 242.182ZM252.484 234.085V226.841L284.444 176.273H289.7V187.494H286.149L262.001 225.705V226.273H305.041V234.085H252.484ZM286.717 249V231.884V228.51V176.273H295.098V249H286.717Z" fill="#595DDC"/>
</svg>
