<svg width="504" height="174" viewBox="0 0 504 174" fill="none" xmlns="http://www.w3.org/2000/svg">
<path d="M374.916 49.3216C377.978 50.4597 381.322 50.5356 384.505 49.8034C397.841 46.7436 443.696 38.6379 435.729 74.1717C433.993 81.2207 407.138 120.704 445.382 135.115C448.186 136.185 451.149 136.769 454.148 136.841C465.925 137.084 489.259 134.303 499.025 124.363C510.824 112.354 497.934 118.048 497.934 118.048C497.934 118.048 453.082 137.621 437.239 116.855C435.477 114.545 434.354 111.189 434.033 108.3C433.475 103.292 435.698 96.6733 438.62 90.9104C442.575 83.112 461.558 48.0316 420.341 37.8127C410.846 35.5516 397.056 33.5218 379.275 41.0072C368.903 45.374 371.2 47.9406 374.916 49.3216Z" fill="#EEEFFF"/>
<path d="M384.093 36.2248L372.156 40.6941C368.036 42.2363 365.945 46.8269 367.488 50.9471L368.079 52.5292C369.622 56.6494 374.212 58.7398 378.332 57.1976L390.272 52.7303C394.392 51.188 396.482 46.5974 394.94 42.4753L394.348 40.8951C392.806 36.7731 388.216 34.6826 384.093 36.2248Z" fill="#D6D7F9"/>
<path d="M310.814 49.1547L271.445 63.8902C269.383 64.6604 268.338 66.9557 269.11 69.0158L269.265 69.4312C270.035 71.4913 272.331 72.5366 274.393 71.7664L313.762 57.0308C315.824 56.2588 316.869 53.9635 316.097 51.9034L315.942 51.4879C315.172 49.4278 312.876 48.3826 310.814 49.1547Z" fill="white"/>
<path d="M321.803 78.5136L282.432 93.2472C280.372 94.0193 279.326 96.3146 280.099 98.3747L280.252 98.7901C281.024 100.85 283.32 101.895 285.38 101.123L324.751 86.3897C326.811 85.6177 327.856 83.3224 327.086 81.2623L326.931 80.8468C326.16 78.7867 323.863 77.7415 321.803 78.5136Z" fill="white"/>
<path d="M358.152 29.1194L326.244 41.0607C322.122 42.6029 320.031 47.1955 321.573 51.3157L332.47 80.4244C334.012 84.5446 338.602 86.635 342.723 85.0928L374.633 73.1515C378.753 71.6093 380.844 67.0187 379.302 62.8966L368.407 33.7878C366.865 29.6676 362.275 27.5772 358.152 29.1194Z" fill="#5E5F8B"/>
<path d="M329.541 36.7541L297.63 48.6974C293.51 50.2396 291.419 54.8302 292.962 58.9523L305.96 93.6799C307.502 97.8001 312.092 99.8905 316.213 98.3483L348.123 86.4069C352.243 84.8647 354.334 80.2741 352.792 76.152L339.794 41.4244C338.251 37.3024 333.661 35.2119 329.541 36.7541Z" fill="#41437C"/>
<path d="M334.535 29.707L334.285 29.7999C331.538 30.8281 330.144 33.8897 331.172 36.6365L349.381 85.2877C350.409 88.0345 353.469 89.4288 356.215 88.4006L356.466 88.3058C359.215 87.2776 360.607 84.2178 359.579 81.471L341.372 32.8199C340.344 30.0731 337.282 28.6788 334.535 29.707Z" fill="#343965"/>
<path d="M9.1638 60.8118C9.1638 60.8118 73.2488 42.8021 63.9448 84.2961C62.329 90.8615 39.0702 124.665 66.7749 140.896C72.7237 144.38 79.5888 145.924 86.4829 145.888C98.8434 145.824 118.439 143.445 127.242 134.486C139.04 122.476 126.151 128.171 126.151 128.171C126.151 128.171 89.3458 143.31 70.4109 131.242C63.9456 127.122 61.015 119.143 62.7706 111.679C63.668 107.972 65.0344 104.394 66.8371 101.033C70.955 93.3199 89.7752 58.1542 48.5582 47.9353C39.0634 45.6741 25.2729 43.6444 7.49144 51.1298C-10.29 58.617 9.1638 60.8118 9.1638 60.8118Z" fill="#EEEFFF"/>
<path d="M135.858 118.885L123.92 123.354C119.799 124.896 117.709 129.487 119.251 133.609L119.843 135.189C121.385 139.311 125.976 141.402 130.098 139.858L142.035 135.39C146.157 133.848 148.247 129.258 146.705 125.135L146.113 123.555C144.571 119.433 139.979 117.343 135.858 118.885Z" fill="#D6D7F9"/>
<path d="M156.029 99.2439L138.336 105.866C134.215 107.408 132.124 111.999 133.667 116.121L142.198 138.915C143.741 143.037 148.332 145.127 152.453 143.585L170.145 136.963C174.266 135.421 176.356 130.83 174.814 126.708L166.283 103.914C164.741 99.7921 160.15 97.7017 156.029 99.2439Z" fill="#5E5F8B"/>
<path d="M185.483 81.6931L159.099 91.5686C154.978 93.1109 152.887 97.7015 154.43 101.824L167.427 136.551C168.969 140.673 173.56 142.764 177.681 141.221L204.065 131.346C208.188 129.804 210.278 125.213 208.736 121.091L195.738 86.3634C194.196 82.2413 189.605 80.1509 185.483 81.6931Z" fill="#41437C"/>
<path d="M191.073 74.5019L190.823 74.5948C188.074 75.623 186.681 78.6847 187.71 81.4315L205.917 130.083C206.945 132.83 210.006 134.224 212.753 133.196L213.004 133.101C215.75 132.073 217.145 129.013 216.117 126.264L197.908 77.6148C196.88 74.868 193.82 73.4737 191.073 74.5019Z" fill="#343965"/>
<path d="M258.447 43.5074C257.496 43.4012 256.624 42.9327 256.013 42.1966C255.404 41.4606 255.102 40.5179 255.173 39.5637L257.142 3.60502C257.259 1.4571 259.073 -0.174851 261.131 0.0150336L263.999 0.280606C266.057 0.470491 267.531 2.40519 267.243 4.53832L262.406 40.2314C262.296 41.1818 261.821 42.0525 261.083 42.6633C260.346 43.2741 259.401 43.5757 258.447 43.5074Z" fill="#5EBBB3" fill-opacity="0.23"/>
<path d="M241.449 46.6071C241.153 46.6943 240.844 46.7228 240.536 46.6905C240.231 46.6564 239.933 46.5634 239.664 46.4155C239.393 46.2694 239.155 46.0702 238.962 45.8293C238.768 45.5903 238.624 45.3133 238.537 45.0193L231.507 22.6504C231.302 22.015 231.359 21.3226 231.662 20.7288C231.968 20.1332 232.495 19.6836 233.133 19.4787L234.952 18.9286C235.265 18.8376 235.593 18.8129 235.915 18.8546C236.238 18.8964 236.547 19.0045 236.826 19.1733C237.105 19.3403 237.346 19.5641 237.534 19.8297C237.721 20.0952 237.852 20.3969 237.917 20.7155L243.128 43.6345C243.274 44.2492 243.181 44.8979 242.87 45.4499C242.559 46 242.052 46.4136 241.449 46.6071Z" fill="#5EBBB3" fill-opacity="0.23"/>
<path d="M231.962 59.5063C230.702 61.0675 228.168 61.0485 226.218 59.4645L191.596 31.3346C189.527 29.6539 188.918 26.8729 190.253 25.2188L192.116 22.9121C193.453 21.2561 196.196 21.3926 198.154 23.2099L230.915 53.6485C232.76 55.3614 233.221 57.947 231.962 59.5063Z" fill="#5EBBB3" fill-opacity="0.23"/>
<path d="M247.966 132.164C248.858 132.509 249.581 133.186 249.983 134.053C250.387 134.92 250.436 135.91 250.125 136.813L239.037 171.076C238.375 173.123 236.205 174.236 234.263 173.527L231.556 172.538C229.615 171.829 228.684 169.581 229.507 167.595L243.3 134.32C243.651 133.429 244.33 132.708 245.201 132.306C246.069 131.904 247.06 131.853 247.966 132.164Z" fill="#5EBBB3" fill-opacity="0.23"/>
<path d="M265.192 133.508C265.499 133.499 265.806 133.552 266.095 133.662C266.381 133.772 266.645 133.937 266.869 134.15C267.093 134.36 267.273 134.614 267.398 134.895C267.523 135.176 267.593 135.479 267.601 135.789L268.686 159.21C268.72 159.878 268.491 160.53 268.043 161.027C267.597 161.526 266.971 161.826 266.305 161.862L264.405 161.929C264.078 161.936 263.756 161.877 263.454 161.754C263.153 161.631 262.881 161.447 262.654 161.213C262.428 160.98 262.252 160.703 262.138 160.398C262.026 160.092 261.976 159.768 261.994 159.444L262.809 135.955C262.826 135.322 263.082 134.719 263.522 134.265C263.964 133.812 264.56 133.543 265.192 133.508Z" fill="#5EBBB3" fill-opacity="0.23"/>
<path d="M277.659 123.458C279.275 122.271 281.72 122.937 283.2 124.967L309.492 161.005C311.061 163.158 310.941 166.001 309.226 167.261L306.836 169.016C305.121 170.275 302.502 169.443 301.073 167.185L277.172 129.39C275.829 127.264 276.043 124.646 277.659 123.458Z" fill="#5EBBB3" fill-opacity="0.23"/>
</svg>
