<svg width="169" height="129" viewBox="0 0 169 129" fill="none" xmlns="http://www.w3.org/2000/svg">
<path d="M84.043 127.728C61.2914 127.728 40.3117 126.591 25.0275 124.784C17.3821 123.88 11.1795 122.81 6.89734 121.636C4.75238 121.048 3.11756 120.441 2.02941 119.831C1.48503 119.525 1.10167 119.233 0.859632 118.961C0.620038 118.691 0.542969 118.471 0.542969 118.294C0.542969 118.117 0.620038 117.897 0.85963 117.627C1.10166 117.355 1.48503 117.062 2.02941 116.757C3.11756 116.147 4.75237 115.54 6.89733 114.952C11.1795 113.778 17.3821 112.708 25.0275 111.804C40.3117 109.997 61.2914 108.86 84.043 108.86C106.795 108.86 127.774 109.997 143.058 111.805C150.704 112.709 156.906 113.779 161.189 114.953C163.334 115.541 164.968 116.148 166.057 116.758C166.601 117.063 166.984 117.356 167.226 117.628C167.466 117.897 167.543 118.117 167.543 118.294C167.543 118.471 167.466 118.691 167.226 118.96C166.984 119.232 166.601 119.525 166.057 119.83C164.968 120.44 163.334 121.047 161.189 121.635C156.906 122.809 150.704 123.879 143.058 124.783C127.774 126.591 106.795 127.728 84.043 127.728Z" fill="#EFEFFC" stroke="#595DDC"/>
<path d="M31.151 117.844C29.5876 117.842 28.0888 117.22 26.9834 116.115C25.878 115.009 25.2563 113.51 25.2546 111.947V33.0411C25.254 31.4755 25.8745 29.9735 26.9798 28.8646C28.0852 27.7558 29.5853 27.1307 31.151 27.1265H133.994C135.559 27.1307 137.059 27.7558 138.165 28.8646C139.27 29.9735 139.891 31.4755 139.89 33.0411V111.947C139.888 113.51 139.267 115.009 138.161 116.115C137.056 117.22 135.557 117.842 133.994 117.844H31.151Z" fill="#F3F5F8" stroke="#595DDC" stroke-width="2"/>
<path d="M133.994 27.3541C135.499 27.3582 136.941 27.9593 138.004 29.0254C139.067 30.0916 139.663 31.5358 139.662 33.0411V111.947C139.661 113.45 139.063 114.891 138 115.954C136.937 117.017 135.497 117.615 133.994 117.617H31.1508C29.6478 117.615 28.2069 117.017 27.1442 115.954C26.0814 114.891 25.4837 113.45 25.482 111.947V33.0411C25.4813 31.5358 26.0778 30.0916 27.1405 29.0254C28.2032 27.9593 29.6455 27.3582 31.1508 27.3541H133.994ZM133.994 26.8994H31.1508C29.5245 26.9021 27.9658 27.5507 26.8175 28.7024C25.6692 29.8541 25.0253 31.4148 25.0273 33.0411V111.947C25.0267 112.752 25.1846 113.548 25.4921 114.291C25.7996 115.035 26.2506 115.71 26.8194 116.279C27.3881 116.848 28.0634 117.299 28.8067 117.606C29.5499 117.914 30.3465 118.072 31.1508 118.071H133.994C134.798 118.072 135.594 117.914 136.338 117.606C137.081 117.299 137.756 116.848 138.325 116.279C138.894 115.71 139.345 115.035 139.652 114.291C139.96 113.548 140.118 112.752 140.117 111.947V33.0411C140.119 31.4148 139.475 29.8541 138.327 28.7024C137.179 27.5507 135.62 26.9021 133.994 26.8994Z" fill="#EFEFFC" stroke="#595DDC" stroke-width="2"/>
<path d="M25.2546 47.5651V33.0415C25.254 31.4758 25.8745 29.9738 26.9798 28.865C28.0852 27.7562 29.5853 27.1311 31.151 27.1269H133.994C135.559 27.131 137.06 27.7561 138.165 28.8649C139.271 29.9737 139.891 31.4758 139.89 33.0415V47.5655L25.2546 47.5651Z" fill="#EFEFFC" stroke="#595DDC" stroke-width="2"/>
<path d="M133.994 27.3541C135.499 27.3582 136.941 27.9593 138.004 29.0254C139.067 30.0916 139.663 31.5358 139.662 33.0411V47.3376H25.482V33.0411C25.4813 31.5358 26.0778 30.0916 27.1405 29.0254C28.2032 27.9593 29.6455 27.3582 31.1508 27.3541H133.994ZM133.994 26.8994H31.1508C29.5245 26.9021 27.9658 27.5507 26.8175 28.7024C25.6692 29.8541 25.0253 31.4148 25.0273 33.0411V47.7923H140.117V33.0411C140.119 31.4148 139.475 29.8541 138.327 28.7024C137.179 27.5507 135.62 26.9021 133.994 26.8994Z" fill="black" stroke="#595DDC"/>
<path d="M55.6824 39.9552C55.2429 39.9552 54.8133 39.8248 54.4478 39.5806C54.0823 39.3364 53.7974 38.9892 53.6292 38.5831C53.4609 38.1769 53.4169 37.73 53.5027 37.2988C53.5884 36.8677 53.8001 36.4716 54.111 36.1607C54.4219 35.8499 54.8179 35.6382 55.2491 35.5524C55.6803 35.4666 56.1272 35.5107 56.5333 35.6789C56.9395 35.8471 57.2866 36.132 57.5309 36.4976C57.7751 36.863 57.9054 37.2926 57.9055 37.7321C57.9046 38.3214 57.67 38.8863 57.2533 39.3031C56.8366 39.7198 56.2717 39.9543 55.6824 39.9552Z" fill="#EFEFFC" stroke="#595DDC"/>
<path d="M46.7268 39.9552C46.2873 39.9552 45.8577 39.8248 45.4923 39.5806C45.1267 39.3364 44.8418 38.9892 44.6736 38.5831C44.5054 38.1769 44.4613 37.73 44.5471 37.2988C44.6329 36.8677 44.8446 36.4716 45.1554 36.1607C45.4663 35.8499 45.8623 35.6382 46.2935 35.5524C46.7247 35.4666 47.1716 35.5107 47.5778 35.6789C47.9839 35.8471 48.3311 36.132 48.5753 36.4976C48.8195 36.863 48.9498 37.2926 48.9499 37.7321C48.949 38.3214 48.7145 38.8863 48.2978 39.3031C47.881 39.7198 47.3161 39.9543 46.7268 39.9552Z" fill="#EFEFFC" stroke="#595DDC"/>
<path d="M37.7707 39.9552C37.3312 39.9552 36.9016 39.8248 36.5362 39.5806C36.1707 39.3364 35.8858 38.9892 35.7175 38.5831C35.5493 38.1769 35.5053 37.73 35.5911 37.2988C35.6768 36.8677 35.8885 36.4716 36.1994 36.1607C36.5102 35.8499 36.9063 35.6382 37.3375 35.5524C37.7686 35.4666 38.2156 35.5107 38.6217 35.6789C39.0279 35.8471 39.375 36.132 39.6193 36.4976C39.8634 36.863 39.9938 37.2926 39.9939 37.7321C39.9929 38.3214 39.7584 38.8863 39.3417 39.3031C38.925 39.7198 38.3601 39.9543 37.7707 39.9552Z" fill="#EFEFFC" stroke="#595DDC"/>
<path d="M124.455 41.4576L124.386 41.3771C120.562 36.8588 118.518 31.1 118.638 25.1815C118.759 19.2631 121.035 13.5922 125.041 9.23331C129.046 4.87446 134.505 2.12747 140.392 1.50804C146.279 0.888603 152.19 2.43932 157.015 5.86908C161.839 9.29884 165.247 14.3718 166.596 20.1355C167.946 25.8993 167.145 31.9574 164.345 37.1727C161.544 42.388 156.936 46.4018 151.386 48.4605C145.836 50.5193 139.725 50.4814 134.201 48.354L134.114 48.3209L122.472 53.3775L124.455 41.4576Z" fill="#EFEFFC" stroke="#595DDC"/>
<path d="M142.963 2.4547C146.507 2.45679 150.007 3.23888 153.215 4.74547C156.423 6.25205 159.259 8.4462 161.524 11.1722C163.788 13.8982 165.425 17.0892 166.318 20.5188C167.211 23.9484 167.338 27.5325 166.69 31.0167C166.043 34.5009 164.636 37.7998 162.57 40.6793C160.504 43.5589 157.83 45.9484 154.737 47.6784C151.644 49.4084 148.208 50.4364 144.673 50.6894C141.138 50.9425 137.591 50.4144 134.283 49.1427L134.11 49.0758L133.939 49.1501L122.765 54.0048L124.662 42.5999L124.697 42.3918L124.56 42.2312C121.576 38.7191 119.658 34.4261 119.035 29.8592C118.413 25.2924 119.11 20.6427 121.045 16.4596C122.981 12.2765 126.073 8.73484 129.957 6.25311C133.841 3.77138 138.354 2.45333 142.963 2.4547ZM142.963 2C138.268 1.99918 133.67 3.34239 129.713 5.87092C125.757 8.39946 122.607 12.0077 120.635 16.2692C118.664 20.5308 117.953 25.2676 118.587 29.9201C119.222 34.5726 121.174 38.9463 124.215 42.5245L122.18 54.7536L134.122 49.5667C137.492 50.8648 141.108 51.4048 144.711 51.1484C148.314 50.8919 151.816 49.8453 154.97 48.0828C158.123 46.3203 160.849 43.8852 162.955 40.9504C165.061 38.0156 166.495 34.6532 167.155 31.1018C167.815 27.5504 167.685 23.8972 166.774 20.4017C165.864 16.9062 164.194 13.6541 161.885 10.8763C159.576 8.09851 156.684 5.86321 153.414 4.32915C150.143 2.79508 146.575 1.99988 142.963 2Z" fill="black" stroke="#595DDC"/>
<path d="M136.555 15.116C138.291 13.9449 140.314 13.2685 142.406 13.1591C144.498 13.0497 146.58 13.5115 148.429 14.495C150.279 15.4785 151.826 16.9467 152.905 18.7422C153.983 20.5378 154.553 22.593 154.553 24.6877C154.553 25.5593 154.737 27.6858 154.553 28.5019" stroke="#595DDC" stroke-width="2" stroke-miterlimit="10"/>
<path d="M149.676 34.112C147.726 35.4889 145.398 36.2277 143.011 36.2269C140.624 36.2261 138.296 35.4857 136.347 34.1075C134.398 32.7294 132.924 30.7811 132.128 28.5309C131.332 26.2807 131.252 23.839 131.9 21.5417" stroke="#595DDC" stroke-width="2" stroke-miterlimit="10"/>
<path d="M150.354 24.2131L153.859 29.0126L158.506 24.9747" stroke="#595DDC" stroke-width="2" stroke-miterlimit="10"/>
<path d="M127.42 24.5772L132.328 21.2259L135.358 26.5851" stroke="#595DDC" stroke-width="2" stroke-miterlimit="10"/>
<path d="M14.3105 29.7808C14.8568 26.8304 16.2411 24.0997 18.298 21.915C20.3548 19.7304 22.9973 18.1843 25.9095 17.4615" fill="#F3F5F8"/>
<path d="M14.3105 29.7808C14.8568 26.8304 16.2411 24.0997 18.298 21.915C20.3548 19.7304 22.9973 18.1843 25.9095 17.4615" stroke="#595DDC" stroke-width="2"/>
<path d="M14.3105 29.7808C14.8568 26.8304 16.2411 24.0997 18.298 21.915C20.3548 19.7304 22.9973 18.1843 25.9095 17.4615" stroke="#595DDC" stroke-miterlimit="10"/>
<path d="M3.91846 28.0701C4.766 23.2742 6.93678 18.8106 10.186 15.1826C13.4351 11.5547 17.6334 8.90687 22.3072 7.53778" fill="#F3F5F8"/>
<path d="M3.91846 28.0701C4.766 23.2742 6.93678 18.8106 10.186 15.1826C13.4351 11.5547 17.6334 8.90687 22.3072 7.53778" stroke="#595DDC" stroke-width="2"/>
<path d="M3.91846 28.0701C4.766 23.2742 6.93678 18.8106 10.186 15.1826C13.4351 11.5547 17.6334 8.90687 22.3072 7.53778" stroke="#595DDC" stroke-miterlimit="10"/>
<path d="M103.27 68.7467C103.842 68.7467 104.402 68.9165 104.878 69.2346C105.354 69.5527 105.725 70.0048 105.944 70.5339C106.163 71.0629 106.221 71.645 106.109 72.2066C105.997 72.7681 105.722 73.284 105.317 73.6889C104.912 74.0938 104.396 74.3695 103.834 74.4812C103.273 74.5929 102.691 74.5356 102.162 74.3165C101.633 74.0973 101.181 73.7263 100.862 73.2502C100.544 72.7741 100.375 72.2143 100.375 71.6418C100.375 70.8742 100.681 70.1384 101.223 69.5956C101.766 69.0529 102.502 68.7476 103.27 68.7467ZM103.27 68.2192C102.593 68.2192 101.931 68.42 101.368 68.7961C100.805 69.1722 100.366 69.7068 100.107 70.3323C99.8482 70.9577 99.7804 71.6459 99.9125 72.3099C100.045 72.9739 100.371 73.5838 100.849 74.0625C101.328 74.5412 101.938 74.8672 102.602 74.9993C103.266 75.1313 103.954 75.0636 104.579 74.8045C105.205 74.5454 105.74 74.1067 106.116 73.5438C106.492 72.9809 106.692 72.3191 106.692 71.6421C106.692 71.1926 106.604 70.7475 106.432 70.3323C106.26 69.917 106.008 69.5396 105.69 69.2218C105.372 68.9039 104.995 68.6518 104.579 68.4798C104.164 68.3078 103.719 68.2192 103.27 68.2192Z" stroke="#595DDC" stroke-width="3"/>
<path d="M61.8287 68.7467C62.4013 68.7467 62.961 68.9165 63.4371 69.2346C63.9132 69.5527 64.2842 70.0048 64.5034 70.5339C64.7225 71.0629 64.7798 71.645 64.6681 72.2066C64.5564 72.7681 64.2807 73.284 63.8758 73.6889C63.4709 74.0938 62.9551 74.3695 62.3935 74.4812C61.8319 74.5929 61.2498 74.5356 60.7208 74.3165C60.1918 74.0973 59.7396 73.7263 59.4215 73.2502C59.1034 72.7741 58.9336 72.2143 58.9336 71.6418C58.9345 70.8742 59.2398 70.1384 59.7826 69.5956C60.3253 69.0529 61.0611 68.7476 61.8287 68.7467ZM61.8287 68.2192C61.1517 68.2192 60.4899 68.42 59.927 68.7961C59.3641 69.1722 58.9254 69.7068 58.6663 70.3323C58.4072 70.9577 58.3395 71.6459 58.4715 72.3099C58.6036 72.9739 58.9296 73.5838 59.4083 74.0625C59.887 74.5412 60.4969 74.8672 61.1609 74.9993C61.8249 75.1313 62.5131 75.0636 63.1386 74.8045C63.764 74.5454 64.2986 74.1067 64.6747 73.5438C65.0508 72.9809 65.2516 72.3191 65.2516 71.6421C65.2516 71.1926 65.163 70.7475 64.991 70.3323C64.819 69.917 64.5669 69.5396 64.249 69.2218C63.9312 68.9039 63.5538 68.6518 63.1386 68.4798C62.7233 68.3078 62.2782 68.2192 61.8287 68.2192Z" stroke="#595DDC" stroke-width="3"/>
<path d="M92.2893 94.6545C91.3334 92.8276 89.8955 91.2972 88.1316 90.2294C86.3678 89.1616 84.3452 88.597 82.2833 88.597C80.2214 88.597 78.1988 89.1616 76.435 90.2294C74.6711 91.2972 73.2332 92.8276 72.2773 94.6545" fill="#F3F5F8"/>
<path d="M92.2893 94.6545C91.3334 92.8276 89.8955 91.2972 88.1316 90.2294C86.3678 89.1616 84.3452 88.597 82.2833 88.597C80.2214 88.597 78.1988 89.1616 76.435 90.2294C74.6711 91.2972 73.2332 92.8276 72.2773 94.6545" stroke="#595DDC" stroke-width="4"/>
<rect width="74.2926" height="47.0649" transform="translate(46.7021 59.345)" fill="#F3F5F8"/>
<path d="M51.0966 90.6307V88.0227L62.6023 69.8182H64.4943V73.858H63.2159L54.5227 87.6136V87.8182H70.017V90.6307H51.0966ZM63.4205 96V89.8381V88.6236V69.8182H66.4375V96H63.4205ZM83.3477 96.358C81.4215 96.358 79.7809 95.8338 78.4258 94.7855C77.0707 93.7287 76.0352 92.1989 75.3192 90.196C74.6033 88.1847 74.2454 85.7557 74.2454 82.9091C74.2454 80.0795 74.6033 77.6634 75.3192 75.6605C76.0437 73.6491 77.0835 72.1151 78.4386 71.0582C79.8022 69.9929 81.4386 69.4602 83.3477 69.4602C85.2567 69.4602 86.8888 69.9929 88.244 71.0582C89.6076 72.1151 90.6474 73.6491 91.3633 75.6605C92.0877 77.6634 92.4499 80.0795 92.4499 82.9091C92.4499 85.7557 92.092 88.1847 91.3761 90.196C90.6602 92.1989 89.6246 93.7287 88.2695 94.7855C86.9144 95.8338 85.2738 96.358 83.3477 96.358ZM83.3477 93.5455C85.2567 93.5455 86.7397 92.625 87.7965 90.7841C88.8533 88.9432 89.3817 86.3182 89.3817 82.9091C89.3817 80.642 89.1389 78.7116 88.6531 77.1179C88.1758 75.5241 87.4854 74.3097 86.582 73.4744C85.6871 72.6392 84.609 72.2216 83.3477 72.2216C81.4556 72.2216 79.9769 73.1548 78.9116 75.0213C77.8462 76.8793 77.3136 79.5085 77.3136 82.9091C77.3136 85.1761 77.5522 87.1023 78.0295 88.6875C78.5067 90.2727 79.1928 91.4787 80.0877 92.3054C80.9911 93.1321 82.0778 93.5455 83.3477 93.5455ZM96.6942 90.6307V88.0227L108.2 69.8182H110.092V73.858H108.814L100.12 87.6136V87.8182H115.615V90.6307H96.6942ZM109.018 96V89.8381V88.6236V69.8182H112.035V96H109.018Z" fill="#595DDC"/>
</svg>
