<svg width="176" height="299" viewBox="0 0 176 299" fill="none" xmlns="http://www.w3.org/2000/svg">
<g clip-path="url(#clip0_2015_347)">
<path d="M133.677 10.5131L134.11 10.2644L133.677 10.5131L249.996 213.396C251.288 215.65 250.426 217.629 249.985 218.39C249.544 219.151 248.257 220.883 245.659 220.883H13.0192C10.4212 220.883 9.13387 219.151 8.69293 218.39L8.26029 218.64L8.69292 218.39C8.25197 217.629 7.38933 215.65 8.68159 213.396L125.001 10.5131C126.3 8.24734 128.454 8 129.339 8C130.223 8 132.378 8.24734 133.677 10.5131Z" fill="#F3F5F8" stroke="#F3EDED"/>
<path d="M129.773 16.7724L129.339 16.0158L128.905 16.7724L16.0376 213.634L15.6084 214.383H16.4714H242.207H243.07L242.64 213.634L129.773 16.7724ZM118.495 6.78273L118.061 6.53404L118.495 6.78273C120.896 2.59376 125.114 0.5 129.339 0.5C133.564 0.5 137.781 2.59377 140.183 6.78273L256.503 209.666C261.28 217.999 255.264 228.383 245.659 228.383H13.0193C3.4135 228.383 -2.6026 217.999 2.17514 209.666L118.495 6.78273Z" fill="#F3EDED" stroke="#F3EDED"/>
<path d="M132.066 190.16C132.066 193.449 129.4 196.114 126.112 196.114C122.823 196.114 120.158 193.449 120.158 190.16C120.158 186.872 122.823 184.206 126.112 184.206C129.4 184.206 132.066 186.872 132.066 190.16Z" fill="#F3EDED" stroke="#F3EDED"/>
<path d="M126.112 84.1713C129.4 84.1713 132.066 86.837 132.066 90.1253V164.344C132.066 167.633 129.4 170.298 126.112 170.298C122.823 170.298 120.158 167.633 120.158 164.344V90.1253C120.158 86.837 122.823 84.1713 126.112 84.1713Z" fill="#F3EDED" stroke="#F3EDED"/>
</g>
<defs>
<clipPath id="clip0_2015_347">
<rect width="176" height="299" fill="white"/>
</clipPath>
</defs>
</svg>
