<svg width="170" height="130" viewBox="0 0 170 130" fill="none" xmlns="http://www.w3.org/2000/svg">
<path d="M84.043 128.728C61.2914 128.728 40.3117 127.591 25.0275 125.784C17.3821 124.88 11.1795 123.81 6.89734 122.636C4.75238 122.048 3.11756 121.441 2.02941 120.831C1.48503 120.525 1.10167 120.233 0.859632 119.961C0.620038 119.691 0.542969 119.471 0.542969 119.294C0.542969 119.117 0.620038 118.897 0.85963 118.627C1.10166 118.355 1.48503 118.062 2.02941 117.757C3.11756 117.147 4.75237 116.54 6.89733 115.952C11.1795 114.778 17.3821 113.708 25.0275 112.804C40.3117 110.997 61.2914 109.86 84.043 109.86C106.795 109.86 127.774 110.997 143.058 112.805C150.704 113.709 156.906 114.779 161.189 115.953C163.334 116.541 164.968 117.148 166.057 117.758C166.601 118.063 166.984 118.356 167.226 118.628C167.466 118.897 167.543 119.117 167.543 119.294C167.543 119.471 167.466 119.691 167.226 119.96C166.984 120.232 166.601 120.525 166.057 120.83C164.968 121.44 163.334 122.047 161.189 122.635C156.906 123.809 150.704 124.879 143.058 125.783C127.774 127.591 106.795 128.728 84.043 128.728Z" fill="#EFEFFC" stroke="#595DDC"/>
<path d="M31.151 118.844C29.5876 118.842 28.0888 118.22 26.9834 117.114C25.878 116.009 25.2563 114.51 25.2546 112.947V34.0411C25.254 32.4754 25.8745 30.9734 26.9798 29.8646C28.0852 28.7558 29.5853 28.1307 31.151 28.1265H133.994C135.559 28.1307 137.059 28.7558 138.165 29.8646C139.27 30.9734 139.891 32.4754 139.89 34.0411V112.947C139.888 114.51 139.267 116.009 138.161 117.114C137.056 118.22 135.557 118.842 133.994 118.844H31.151Z" fill="#F3F5F8" stroke="#595DDC" stroke-width="2"/>
<path d="M133.994 28.354C135.499 28.3581 136.941 28.9592 138.004 30.0254C139.067 31.0915 139.663 32.5357 139.662 34.0411V112.947C139.661 114.45 139.063 115.891 138 116.954C136.937 118.017 135.497 118.615 133.994 118.617H31.1508C29.6478 118.615 28.2069 118.017 27.1442 116.954C26.0814 115.891 25.4837 114.45 25.482 112.947V34.0411C25.4813 32.5357 26.0778 31.0915 27.1405 30.0254C28.2032 28.9592 29.6455 28.3581 31.1508 28.354H133.994ZM133.994 27.8993H31.1508C29.5245 27.9021 27.9658 28.5506 26.8175 29.7024C25.6692 30.8541 25.0253 32.4147 25.0273 34.0411V112.947C25.0267 113.752 25.1846 114.548 25.4921 115.291C25.7996 116.035 26.2506 116.71 26.8194 117.279C27.3881 117.848 28.0634 118.299 28.8067 118.606C29.5499 118.914 30.3465 119.072 31.1508 119.071H133.994C134.798 119.072 135.594 118.914 136.338 118.606C137.081 118.299 137.756 117.848 138.325 117.279C138.894 116.71 139.345 116.035 139.652 115.291C139.96 114.548 140.118 113.752 140.117 112.947V34.0411C140.119 32.4147 139.475 30.8541 138.327 29.7024C137.179 28.5506 135.62 27.9021 133.994 27.8993Z" fill="#EFEFFC" stroke="#595DDC" stroke-width="4"/>
<path d="M25.2546 48.5651V34.0415C25.254 32.4758 25.8745 30.9738 26.9798 29.865C28.0852 28.7562 29.5853 28.1311 31.151 28.1269H133.994C135.559 28.131 137.06 28.7561 138.165 29.8649C139.271 30.9737 139.891 32.4758 139.89 34.0415V48.5655L25.2546 48.5651Z" fill="#EFEFFC" stroke="#595DDC" stroke-width="2"/>
<path d="M133.994 28.354C135.499 28.3581 136.941 28.9592 138.004 30.0254C139.067 31.0915 139.663 32.5357 139.662 34.0411V48.3375H25.482V34.0411C25.4813 32.5357 26.0778 31.0915 27.1405 30.0254C28.2032 28.9592 29.6455 28.3581 31.1508 28.354H133.994ZM133.994 27.8993H31.1508C29.5245 27.9021 27.9658 28.5506 26.8175 29.7024C25.6692 30.8541 25.0253 32.4147 25.0273 34.0411V48.7922H140.117V34.0411C140.119 32.4147 139.475 30.8541 138.327 29.7024C137.179 28.5506 135.62 27.9021 133.994 27.8993Z" fill="black" stroke="#595DDC" stroke-width="2"/>
<path d="M55.6824 40.9552C55.2429 40.9551 54.8133 40.8247 54.4478 40.5806C54.0823 40.3363 53.7974 39.9892 53.6292 39.583C53.4609 39.1769 53.4169 38.7299 53.5027 38.2988C53.5884 37.8676 53.8001 37.4715 54.111 37.1607C54.4219 36.8498 54.8179 36.6381 55.2491 36.5524C55.6803 36.4666 56.1272 36.5106 56.5333 36.6788C56.9395 36.8471 57.2866 37.132 57.5309 37.4975C57.7751 37.8629 57.9054 38.2925 57.9055 38.732C57.9046 39.3214 57.67 39.8863 57.2533 40.303C56.8366 40.7197 56.2717 40.9542 55.6824 40.9552Z" fill="#EFEFFC" stroke="#595DDC"/>
<path d="M55.6826 36.2341C56.1763 36.2341 56.6589 36.3805 57.0693 36.6548C57.4798 36.929 57.7997 37.3189 57.9886 37.7749C58.1775 38.231 58.227 38.7329 58.1307 39.2171C58.0344 39.7012 57.7966 40.146 57.4476 40.4951C57.0985 40.8441 56.6538 41.0818 56.1696 41.1782C55.6854 41.2745 55.1835 41.225 54.7275 41.0361C54.2714 40.8472 53.8816 40.5273 53.6073 40.1168C53.333 39.7064 53.1866 39.2238 53.1866 38.7301C53.1875 38.0684 53.4507 37.434 53.9186 36.9661C54.3865 36.4982 55.0209 36.2349 55.6826 36.2341ZM55.6826 35.7794C55.099 35.7794 54.5286 35.9525 54.0433 36.2767C53.5581 36.6009 53.1799 37.0618 52.9565 37.6009C52.7332 38.1401 52.6748 38.7334 52.7886 39.3058C52.9025 39.8781 53.1835 40.4039 53.5962 40.8166C54.0088 41.2292 54.5346 41.5103 55.107 41.6241C55.6794 41.738 56.2726 41.6795 56.8118 41.4562C57.351 41.2329 57.8118 40.8547 58.136 40.3694C58.4603 39.8842 58.6333 39.3137 58.6333 38.7301C58.6332 37.9476 58.3223 37.1971 57.769 36.6438C57.2156 36.0904 56.4652 35.7795 55.6826 35.7794Z" fill="black" stroke="#595DDC" stroke-width="2"/>
<path d="M46.7268 40.9552C46.2873 40.9551 45.8577 40.8247 45.4923 40.5806C45.1267 40.3363 44.8418 39.9892 44.6736 39.583C44.5054 39.1769 44.4613 38.7299 44.5471 38.2988C44.6329 37.8676 44.8446 37.4715 45.1554 37.1607C45.4663 36.8498 45.8623 36.6381 46.2935 36.5524C46.7247 36.4666 47.1716 36.5106 47.5778 36.6788C47.9839 36.8471 48.3311 37.132 48.5753 37.4975C48.8195 37.8629 48.9498 38.2925 48.9499 38.732C48.949 39.3214 48.7145 39.8863 48.2978 40.303C47.881 40.7197 47.3161 40.9542 46.7268 40.9552Z" fill="#EFEFFC" stroke="#595DDC"/>
<path d="M46.7268 36.2341C47.2205 36.2341 47.7031 36.3805 48.1135 36.6548C48.524 36.929 48.8439 37.3189 49.0328 37.7749C49.2217 38.231 49.2712 38.7329 49.1749 39.2171C49.0785 39.7012 48.8408 40.146 48.4918 40.4951C48.1427 40.8441 47.6979 41.0818 47.2138 41.1782C46.7296 41.2745 46.2277 41.225 45.7716 41.0361C45.3156 40.8472 44.9257 40.5273 44.6515 40.1168C44.3772 39.7064 44.2308 39.2238 44.2308 38.7301C44.2316 38.0684 44.4949 37.434 44.9628 36.9661C45.4307 36.4982 46.0651 36.2349 46.7268 36.2341ZM46.7268 35.7794C46.1432 35.7794 45.5727 35.9525 45.0875 36.2767C44.6023 36.6009 44.2241 37.0618 44.0007 37.6009C43.7774 38.1401 43.719 38.7334 43.8328 39.3058C43.9467 39.8781 44.2277 40.4039 44.6404 40.8166C45.053 41.2292 45.5788 41.5103 46.1512 41.6241C46.7235 41.738 47.3168 41.6795 47.856 41.4562C48.3952 41.2329 48.856 40.8547 49.1802 40.3694C49.5045 39.8842 49.6775 39.3137 49.6775 38.7301C49.6774 37.9476 49.3665 37.1971 48.8132 36.6438C48.2598 36.0904 47.5094 35.7795 46.7268 35.7794Z" fill="black" stroke="#595DDC" stroke-width="2"/>
<path d="M37.7707 40.9552C37.3312 40.9551 36.9016 40.8247 36.5362 40.5806C36.1707 40.3363 35.8858 39.9892 35.7175 39.583C35.5493 39.1769 35.5053 38.7299 35.5911 38.2988C35.6768 37.8676 35.8885 37.4715 36.1994 37.1607C36.5102 36.8498 36.9063 36.6381 37.3375 36.5524C37.7686 36.4666 38.2156 36.5106 38.6217 36.6788C39.0279 36.8471 39.375 37.132 39.6193 37.4975C39.8634 37.8629 39.9938 38.2925 39.9939 38.732C39.9929 39.3214 39.7584 39.8863 39.3417 40.303C38.925 40.7197 38.3601 40.9542 37.7707 40.9552Z" fill="#EFEFFC" stroke="#595DDC"/>
<path d="M37.7713 36.2341C38.2649 36.2341 38.7475 36.3805 39.158 36.6548C39.5684 36.929 39.8883 37.3189 40.0773 37.7749C40.2662 38.231 40.3156 38.7329 40.2193 39.2171C40.123 39.7012 39.8853 40.146 39.5362 40.4951C39.1871 40.8441 38.7424 41.0818 38.2582 41.1782C37.774 41.2745 37.2722 41.225 36.8161 41.0361C36.36 40.8472 35.9702 40.5273 35.6959 40.1168C35.4216 39.7064 35.2753 39.2238 35.2753 38.7301C35.2761 38.0684 35.5393 37.434 36.0072 36.9661C36.4751 36.4982 37.1095 36.2349 37.7713 36.2341ZM37.7713 35.7794C37.1877 35.7794 36.6172 35.9525 36.1319 36.2767C35.6467 36.6009 35.2685 37.0618 35.0452 37.6009C34.8218 38.1401 34.7634 38.7334 34.8773 39.3058C34.9911 39.8781 35.2721 40.4039 35.6848 40.8166C36.0975 41.2292 36.6232 41.5103 37.1956 41.6241C37.768 41.738 38.3613 41.6795 38.9004 41.4562C39.4396 41.2329 39.9004 40.8547 40.2247 40.3694C40.5489 39.8842 40.722 39.3137 40.722 38.7301C40.7219 37.9476 40.4109 37.1971 39.8576 36.6438C39.3043 36.0904 38.5538 35.7795 37.7713 35.7794Z" fill="black" stroke="#595DDC" stroke-width="2"/>
<path d="M124.455 42.4576L124.386 42.3771C120.562 37.8588 118.518 32.1 118.638 26.1815C118.759 20.2631 121.035 14.5922 125.041 10.2333C129.046 5.87446 134.505 3.12747 140.392 2.50804C146.279 1.8886 152.19 3.43932 157.015 6.86908C161.839 10.2988 165.247 15.3718 166.596 21.1355C167.946 26.8993 167.145 32.9574 164.345 38.1727C161.544 43.388 156.936 47.4018 151.386 49.4605C145.836 51.5193 139.725 51.4814 134.201 49.354L134.114 49.3209L122.472 54.3775L124.455 42.4576Z" fill="#EFEFFC" stroke="#595DDC" stroke-width="4"/>
<path d="M142.963 2.4547C146.507 2.45679 150.007 3.23888 153.215 4.74547C156.423 6.25205 159.259 8.4462 161.524 11.1722C163.788 13.8982 165.425 17.0892 166.318 20.5188C167.211 23.9484 167.338 27.5325 166.69 31.0167C166.043 34.5009 164.636 37.7998 162.57 40.6793C160.504 43.5589 157.83 45.9484 154.737 47.6784C151.644 49.4084 148.208 50.4364 144.673 50.6894C141.138 50.9425 137.591 50.4144 134.283 49.1427L134.11 49.0758L133.939 49.1501L122.765 54.0048L124.662 42.5999L124.697 42.3918L124.56 42.2312C121.576 38.7191 119.658 34.4261 119.035 29.8592C118.413 25.2924 119.11 20.6427 121.045 16.4596C122.981 12.2765 126.073 8.73484 129.957 6.25311C133.841 3.77138 138.354 2.45333 142.963 2.4547ZM142.963 2C138.268 1.99918 133.67 3.34239 129.713 5.87092C125.757 8.39946 122.607 12.0077 120.635 16.2692C118.664 20.5308 117.953 25.2676 118.587 29.9201C119.222 34.5726 121.174 38.9463 124.215 42.5245L122.18 54.7536L134.122 49.5667C137.492 50.8648 141.108 51.4048 144.711 51.1484C148.314 50.8919 151.816 49.8453 154.97 48.0828C158.123 46.3203 160.849 43.8852 162.955 40.9504C165.061 38.0156 166.495 34.6532 167.155 31.1018C167.815 27.5504 167.685 23.8972 166.774 20.4017C165.864 16.9062 164.194 13.6541 161.885 10.8763C159.576 8.09851 156.684 5.86321 153.414 4.32915C150.143 2.79508 146.575 1.99988 142.963 2Z" fill="black" stroke="#595DDC" stroke-width="2"/>
<path d="M136.555 16.116C138.291 14.9449 140.314 14.2685 142.406 14.1591C144.498 14.0497 146.58 14.5115 148.429 15.495C150.279 16.4785 151.826 17.9467 152.905 19.7422C153.983 21.5378 154.553 23.593 154.553 25.6877C154.553 26.5593 154.737 28.6858 154.553 29.5019" stroke="#595DDC" stroke-width="3" stroke-miterlimit="10"/>
<path d="M149.676 35.1119C147.726 36.4888 145.398 37.2277 143.011 37.2269C140.624 37.2261 138.296 36.4857 136.347 35.1075C134.398 33.7293 132.924 31.7811 132.128 29.5308C131.332 27.2806 131.252 24.8389 131.9 22.5417" stroke="#595DDC" stroke-width="3" stroke-miterlimit="10"/>
<path d="M150.354 25.2131L153.859 30.0126L158.506 25.9747" stroke="#595DDC" stroke-width="3" stroke-miterlimit="10"/>
<path d="M127.42 25.5772L132.328 22.2259L135.358 27.5851" stroke="#595DDC" stroke-width="3" stroke-miterlimit="10"/>
<path d="M14.3105 30.7808C14.8568 27.8304 16.2411 25.0997 18.298 22.915C20.3548 20.7304 22.9973 19.1843 25.9095 18.4615" fill="#F3F5F8"/>
<path d="M14.3105 30.7808C14.8568 27.8304 16.2411 25.0997 18.298 22.915C20.3548 20.7304 22.9973 19.1843 25.9095 18.4615" stroke="#595DDC" stroke-width="2"/>
<path d="M14.3105 30.7808C14.8568 27.8304 16.2411 25.0997 18.298 22.915C20.3548 20.7304 22.9973 19.1843 25.9095 18.4615" stroke="#595DDC" stroke-width="4" stroke-miterlimit="10"/>
<path d="M3.91846 29.0701C4.766 24.2742 6.93678 19.8105 10.186 16.1826C13.4351 12.5547 17.6334 9.90681 22.3072 8.53772" fill="#F3F5F8"/>
<path d="M3.91846 29.0701C4.766 24.2742 6.93678 19.8105 10.186 16.1826C13.4351 12.5547 17.6334 9.90681 22.3072 8.53772" stroke="#595DDC" stroke-width="2"/>
<path d="M3.91846 29.0701C4.766 24.2742 6.93678 19.8105 10.186 16.1826C13.4351 12.5547 17.6334 9.90681 22.3072 8.53772" stroke="#595DDC" stroke-width="4" stroke-miterlimit="10"/>
<path d="M103.27 69.7467C103.842 69.7467 104.402 69.9165 104.878 70.2346C105.354 70.5527 105.725 71.0048 105.944 71.5339C106.163 72.0629 106.221 72.645 106.109 73.2066C105.997 73.7681 105.722 74.284 105.317 74.6889C104.912 75.0938 104.396 75.3695 103.834 75.4812C103.273 75.5929 102.691 75.5356 102.162 75.3165C101.633 75.0973 101.181 74.7263 100.862 74.2502C100.544 73.7741 100.375 73.2143 100.375 72.6418C100.375 71.8742 100.681 71.1384 101.223 70.5956C101.766 70.0529 102.502 69.7476 103.27 69.7467ZM103.27 69.2192C102.593 69.2192 101.931 69.42 101.368 69.7961C100.805 70.1722 100.366 70.7068 100.107 71.3323C99.8482 71.9577 99.7804 72.6459 99.9125 73.3099C100.045 73.9739 100.371 74.5838 100.849 75.0625C101.328 75.5412 101.938 75.8672 102.602 75.9993C103.266 76.1313 103.954 76.0636 104.579 75.8045C105.205 75.5454 105.74 75.1067 106.116 74.5438C106.492 73.9809 106.692 73.3191 106.692 72.6421C106.692 72.1926 106.604 71.7475 106.432 71.3323C106.26 70.917 106.008 70.5396 105.69 70.2218C105.372 69.9039 104.995 69.6518 104.579 69.4798C104.164 69.3078 103.719 69.2192 103.27 69.2192Z" stroke="#595DDC" stroke-width="3"/>
<path d="M61.8287 69.7467C62.4013 69.7467 62.961 69.9165 63.4371 70.2346C63.9132 70.5527 64.2842 71.0048 64.5034 71.5339C64.7225 72.0629 64.7798 72.645 64.6681 73.2066C64.5564 73.7681 64.2807 74.284 63.8758 74.6889C63.4709 75.0938 62.9551 75.3695 62.3935 75.4812C61.8319 75.5929 61.2498 75.5356 60.7208 75.3165C60.1918 75.0973 59.7396 74.7263 59.4215 74.2502C59.1034 73.7741 58.9336 73.2143 58.9336 72.6418C58.9345 71.8742 59.2398 71.1384 59.7826 70.5956C60.3253 70.0529 61.0611 69.7476 61.8287 69.7467ZM61.8287 69.2192C61.1517 69.2192 60.4899 69.42 59.927 69.7961C59.3641 70.1722 58.9254 70.7068 58.6663 71.3323C58.4072 71.9577 58.3395 72.6459 58.4715 73.3099C58.6036 73.9739 58.9296 74.5838 59.4083 75.0625C59.887 75.5412 60.4969 75.8672 61.1609 75.9993C61.8249 76.1313 62.5131 76.0636 63.1386 75.8045C63.764 75.5454 64.2986 75.1067 64.6747 74.5438C65.0508 73.9809 65.2516 73.3191 65.2516 72.6421C65.2516 72.1926 65.163 71.7475 64.991 71.3323C64.819 70.917 64.5669 70.5396 64.249 70.2218C63.9312 69.9039 63.5538 69.6518 63.1386 69.4798C62.7233 69.3078 62.2782 69.2192 61.8287 69.2192Z" stroke="#595DDC" stroke-width="3"/>
<path d="M92.2893 95.6545C91.3334 93.8276 89.8955 92.2972 88.1316 91.2294C86.3678 90.1616 84.3452 89.597 82.2833 89.597C80.2214 89.597 78.1988 90.1616 76.435 91.2294C74.6711 92.2972 73.2332 93.8276 72.2773 95.6545" fill="#F3F5F8"/>
<path d="M92.2893 95.6545C91.3334 93.8276 89.8955 92.2972 88.1316 91.2294C86.3678 90.1616 84.3452 89.597 82.2833 89.597C80.2214 89.597 78.1988 90.1616 76.435 91.2294C74.6711 92.2972 73.2332 93.8276 72.2773 95.6545" stroke="#595DDC" stroke-width="4"/>
<rect width="74.2926" height="47.0649" transform="translate(46.7021 60.345)" fill="#F3F5F8"/>
<path d="M51.0966 91.6307V89.0227L62.6023 70.8182H64.4943V74.858H63.2159L54.5227 88.6136V88.8182H70.017V91.6307H51.0966ZM63.4205 97V90.8381V89.6236V70.8182H66.4375V97H63.4205ZM83.3477 97.358C81.4215 97.358 79.7809 96.8338 78.4258 95.7855C77.0707 94.7287 76.0352 93.1989 75.3192 91.196C74.6033 89.1847 74.2454 86.7557 74.2454 83.9091C74.2454 81.0795 74.6033 78.6634 75.3192 76.6605C76.0437 74.6491 77.0835 73.1151 78.4386 72.0582C79.8022 70.9929 81.4386 70.4602 83.3477 70.4602C85.2567 70.4602 86.8888 70.9929 88.244 72.0582C89.6076 73.1151 90.6474 74.6491 91.3633 76.6605C92.0877 78.6634 92.4499 81.0795 92.4499 83.9091C92.4499 86.7557 92.092 89.1847 91.3761 91.196C90.6602 93.1989 89.6246 94.7287 88.2695 95.7855C86.9144 96.8338 85.2738 97.358 83.3477 97.358ZM83.3477 94.5455C85.2567 94.5455 86.7397 93.625 87.7965 91.7841C88.8533 89.9432 89.3817 87.3182 89.3817 83.9091C89.3817 81.642 89.1389 79.7116 88.6531 78.1179C88.1758 76.5241 87.4854 75.3097 86.582 74.4744C85.6871 73.6392 84.609 73.2216 83.3477 73.2216C81.4556 73.2216 79.9769 74.1548 78.9116 76.0213C77.8462 77.8793 77.3136 80.5085 77.3136 83.9091C77.3136 86.1761 77.5522 88.1023 78.0295 89.6875C78.5067 91.2727 79.1928 92.4787 80.0877 93.3054C80.9911 94.1321 82.0778 94.5455 83.3477 94.5455ZM96.6942 91.6307V89.0227L108.2 70.8182H110.092V74.858H108.814L100.12 88.6136V88.8182H115.615V91.6307H96.6942ZM109.018 97V90.8381V89.6236V70.8182H112.035V97H109.018Z" fill="#595DDC"/>
</svg>
