<svg width="173" height="230" viewBox="0 0 173 230" fill="none" xmlns="http://www.w3.org/2000/svg">
<g opacity="0.06">
<path d="M134.092 10.6498L134.525 10.4011L134.092 10.6498L250.411 213.533C251.703 215.787 250.841 217.765 250.4 218.526C249.959 219.287 248.672 221.02 246.074 221.02H13.4343C10.8362 221.02 9.5489 219.288 9.10797 218.526L8.67533 218.777L9.10796 218.526C8.66701 217.765 7.80437 215.787 9.09663 213.533L125.416 10.6498C126.715 8.38406 128.869 8.13672 129.754 8.13672C130.638 8.13672 132.793 8.38405 134.092 10.6498Z" fill="white" stroke="#F4FAFA"/>
<path d="M130.188 16.9091L129.754 16.1525L129.32 16.9091L16.4527 213.771L16.0234 214.52H16.8864H242.622H243.485L243.055 213.771L130.188 16.9091ZM118.91 6.91945L118.476 6.67076L118.91 6.91945C121.312 2.73048 125.529 0.636719 129.754 0.636719C133.979 0.636719 138.196 2.73048 140.598 6.91945L256.918 209.803C261.695 218.136 255.679 228.52 246.074 228.52H13.4343C3.82854 228.52 -2.18756 218.136 2.59018 209.803L118.91 6.91945Z" fill="#42487F" stroke="#F4FAFA"/>
<path d="M132.481 190.297C132.481 193.585 129.815 196.251 126.527 196.251C123.239 196.251 120.573 193.585 120.573 190.297C120.573 187.009 123.239 184.343 126.527 184.343C129.815 184.343 132.481 187.009 132.481 190.297Z" fill="#42487F" stroke="#F4FAFA"/>
<path d="M126.527 84.308C129.815 84.308 132.481 86.9737 132.481 90.262V164.481C132.481 167.769 129.815 170.435 126.527 170.435C123.239 170.435 120.573 167.769 120.573 164.481V90.262C120.573 86.9737 123.239 84.308 126.527 84.308Z" fill="#42487F" stroke="#F4FAFA"/>
</g>
</svg>
