<svg width="155" height="78" viewBox="0 0 155 78" fill="none" xmlns="http://www.w3.org/2000/svg">
<path d="M155 38.6413V34.5268H148.568V28.3498H143.56V34.5268L143.518 38.6413V48.2098C143.518 54.6207 146.218 56.7258 151.991 56.7258H155V51.9203H151.726C149.684 51.9203 148.525 50.7082 148.525 48.5713V38.6413H154.989H155Z" fill="#F15826"/>
<path d="M129.738 33.7615C122.849 33.7615 119.224 39.2899 119.224 45.1055V45.8709C119.224 51.4845 122.764 57.2043 129.972 57.2043C135.129 57.2043 138.754 54.2168 139.679 49.6983H134.746C134.278 51.3144 132.556 52.5583 129.972 52.5583C126.432 52.5583 124.656 50.2618 124.316 46.8278H140.03V44.8078C140.03 39.0348 136.49 33.7508 129.749 33.7508L129.738 33.7615ZM124.38 43.4044C124.922 40.2574 126.73 38.3969 129.728 38.3969C132.726 38.3969 134.47 40.2149 134.884 43.4044H124.369H124.38Z" fill="#F15826"/>
<path d="M107.594 38.7264H110.635V56.8003C110.635 58.7778 109.561 59.9047 107.669 59.9047H106.053V64.7102H107.329C113.293 64.7102 115.802 62.5308 115.802 56.4813V34.5269H107.605V38.7264H107.594Z" fill="#F15826"/>
<path d="M93.975 33.7615C87.0856 33.7615 83.4602 39.2899 83.4602 45.1055V45.8709C83.4602 51.4845 87.0006 57.2043 94.2089 57.2043C99.3653 57.2043 102.991 54.2168 103.916 49.6983H98.9825C98.5253 51.3144 96.7924 52.5583 94.2089 52.5583C90.6685 52.5583 88.893 50.2618 88.5528 46.8278H104.266V44.8078C104.266 39.0348 100.726 33.7508 93.9856 33.7508L93.975 33.7615ZM88.6272 43.4044C89.1694 40.2574 90.9768 38.3969 93.975 38.3969C96.9731 38.3969 98.7167 40.2149 99.1314 43.4044H88.6166H88.6272Z" fill="#3E484A"/>
<path d="M71.4778 31.1777H74.1038V56.4386H79.4516V26.9782H71.4778V31.1777Z" fill="#3E484A"/>
<path d="M59.6655 38.7264H62.5999V56.4388H67.9476V34.5269H59.6655V38.7264Z" fill="#3E484A"/>
<path d="M40.741 56.4386H46.2057V44.1696L56.6779 44.1271V39.2897L46.2057 39.3322V31.8262H57.2201V26.9782H40.741V56.4386Z" fill="#3E484A"/>
<path d="M25.9209 46.2004C25.9209 40.6613 25.9209 35.1328 25.9209 29.5937C25.9209 28.8814 25.8359 28.1584 25.7189 27.4567C24.9322 22.9702 22.7739 19.3022 19.51 16.3466C18.4043 15.3473 17.2135 14.4542 16.0122 13.6037C13.8752 12.0833 11.7169 12.2853 9.61187 13.6994C6.82636 15.5705 4.52991 17.9733 2.73315 20.897C0.893862 23.8845 -0.0310976 27.1272 0.000797576 30.7207C0.0645879 38.9815 0.011429 47.2529 0.0326924 55.5137C0.0326924 56.4174 0.128378 57.3424 0.351644 58.2036C1.5105 62.924 5.79508 65.9647 10.388 65.3799C14.9809 64.7952 18.4681 60.7126 18.5 55.8114C18.5319 50.9953 18.5106 46.1791 18.5 41.363C18.5 40.8846 18.4468 40.4061 18.3405 39.9383C17.6601 37.0253 15.2148 35.2604 12.2804 35.5581C9.67566 35.8132 7.54932 38.2373 7.51742 41.1291C7.46426 45.9452 7.49616 50.7614 7.49616 55.5775C7.49616 56.7895 8.22975 57.5975 9.27165 57.5869C10.271 57.5869 11.0578 56.7257 11.0472 55.4925C10.994 50.8464 11.0259 46.2004 11.0259 41.5437C11.0259 40.2041 11.8552 39.2473 12.9821 39.2366C14.1091 39.226 14.9171 40.1829 14.9171 41.5331C14.9171 46.2748 14.9171 51.0165 14.9171 55.7689C14.9171 56.0985 14.9171 56.4387 14.8427 56.7683C14.2579 59.8302 11.6 61.9884 8.83575 61.6801C5.75256 61.3293 3.62621 58.8415 3.62621 55.5669C3.62621 47.0616 3.63684 38.5562 3.61558 30.0509C3.61558 28.5093 3.90264 27.0634 4.38106 25.6281C5.73129 21.5774 8.43175 18.7813 11.8658 16.6337C12.6738 16.134 13.3436 16.1021 14.141 16.6018C16.2886 17.952 18.1279 19.6637 19.5525 21.8007C21.3387 24.4905 22.455 27.4248 22.4337 30.827C22.3699 40.959 22.4125 51.091 22.4125 61.2336C22.4125 62.0522 22.4018 62.8602 22.4125 63.6789C22.4337 64.6251 23.1142 65.3374 24.0072 65.4012C25.1661 65.4756 25.9422 64.6676 25.9422 63.3493C25.9422 57.6188 25.9422 51.899 25.9422 46.1685L25.9209 46.2004Z" fill="#F15826"/>
<path d="M12.9724 31.8053C14.6106 31.8053 15.9386 30.4059 15.9386 28.6796C15.9386 26.9534 14.6106 25.5539 12.9724 25.5539C11.3341 25.5539 10.0061 26.9534 10.0061 28.6796C10.0061 30.4059 11.3341 31.8053 12.9724 31.8053Z" fill="#F15826"/>
<path d="M64.6843 31.8053C66.3225 31.8053 67.6505 30.4059 67.6505 28.6796C67.6505 26.9534 66.3225 25.5539 64.6843 25.5539C63.046 25.5539 61.718 26.9534 61.718 28.6796C61.718 30.4059 63.046 31.8053 64.6843 31.8053Z" fill="#3E484A"/>
<path d="M112.528 31.8053C114.166 31.8053 115.494 30.4059 115.494 28.6796C115.494 26.9534 114.166 25.5539 112.528 25.5539C110.89 25.5539 109.562 26.9534 109.562 28.6796C109.562 30.4059 110.89 31.8053 112.528 31.8053Z" fill="#F15826"/>
</svg>
