<svg width="38" height="39" viewBox="0 0 38 39" fill="none" xmlns="http://www.w3.org/2000/svg">
<path d="M19.1611 37.6606C29.4221 37.6606 37.7402 29.3425 37.7402 19.0815C37.7402 8.82055 29.4221 0.5024 19.1611 0.5024C8.90018 0.5024 0.582031 8.82055 0.582031 19.0815C0.582031 29.3425 8.90018 37.6606 19.1611 37.6606Z" fill="white"/>
<path d="M10.3949 27.3712L10.3949 27.3712C9.58873 26.9248 9.27296 25.9355 9.65123 25.1119L9.71589 24.9848L17.4684 10.9842L17.4684 10.9842C17.6274 10.697 17.8642 10.4603 18.1515 10.3011C18.9575 9.85463 19.9636 10.1118 20.461 10.8694L20.5344 10.9917L28.2892 24.9922C28.433 25.2519 28.5084 25.5436 28.5084 25.8402C28.5084 26.7636 27.793 27.5203 26.8866 27.5856L26.7499 27.5902H11.2426C10.946 27.5902 10.6543 27.5148 10.3949 27.3712ZM17.5094 15.9059L17.5077 15.9202L17.5069 15.9346L17.5002 16.0513L17.4994 16.0657L17.4994 16.0802L17.5012 21.081L17.5012 21.0952L17.502 21.1095L17.5087 21.2262L17.5096 21.2408L17.5113 21.2554C17.5983 22.0018 18.2321 22.5808 19.0017 22.5805C19.7714 22.5802 20.4047 22.0008 20.4912 21.2542L20.4928 21.2398L20.4937 21.2254L20.5004 21.1088L20.5012 21.0944L20.5012 21.0799L20.4994 16.079L20.4994 16.0645L20.4985 16.0501L20.4917 15.9335L20.4909 15.9191L20.4892 15.9048C20.4023 15.1582 19.7683 14.5793 18.9988 14.5796C18.2293 14.5799 17.5957 15.1592 17.5094 15.9059ZM19.0012 22.5833C18.1735 22.5833 17.5025 23.2543 17.5025 24.082C17.5025 24.9096 18.1734 25.5807 19.0012 25.5807C19.8289 25.5807 20.4998 24.9096 20.4998 24.082C20.4998 23.2543 19.8289 22.5833 19.0012 22.5833Z" stroke="#E73B18"/>
</svg>
