<svg width="32" height="32" viewBox="0 0 32 32" fill="none" xmlns="http://www.w3.org/2000/svg">
<path d="M25.0468 13.4531V17.9731H15.3955V13.4531H25.0468ZM25.4736 12.2031H14.9686C14.5143 12.2031 14.1455 12.5719 14.1455 13.0262V18.4C14.1455 18.8544 14.5143 19.2231 14.9686 19.2231H25.4743C25.9286 19.2231 26.2974 18.8544 26.2974 18.4V13.0262C26.2974 12.5719 25.9286 12.2031 25.4743 12.2031H25.4736Z" fill="#0D2C36"/>
<path d="M25.0468 23.1406V27.6606H15.3955V23.1406H25.0468ZM25.4736 21.8906H14.9686C14.5143 21.8906 14.1455 22.2594 14.1455 22.7138V28.0875C14.1455 28.5419 14.5143 28.9106 14.9686 28.9106H25.4743C25.9286 28.9106 26.2974 28.5419 26.2974 28.0875V22.7138C26.2974 22.2594 25.9286 21.8906 25.4743 21.8906H25.4736Z" fill="#0D2C36"/>
<path d="M14.1459 16.3411C11.1909 16.3411 8.78711 13.9373 8.78711 10.9823V9.40234H10.0371V10.9823C10.0371 13.248 11.8802 15.0911 14.1459 15.0911V16.3411Z" fill="#D8DDDF"/>
<path d="M14.1459 26.0273C11.1909 26.0273 8.78711 23.6236 8.78711 20.6686V9.40234H10.0371V20.6686C10.0371 22.9342 11.8802 24.7773 14.1459 24.7773V26.0273Z" fill="#D8DDDF"/>
<path d="M17.0312 3.08984H6.52625C6.07165 3.08984 5.70312 3.45837 5.70312 3.91297V9.28672C5.70312 9.74132 6.07165 10.1098 6.52625 10.1098H17.0312C17.4858 10.1098 17.8544 9.74132 17.8544 9.28672V3.91297C17.8544 3.45837 17.4858 3.08984 17.0312 3.08984Z" fill="#0D2C36"/>
</svg>
