<svg width="32" height="32" viewBox="0 0 32 32" fill="none" xmlns="http://www.w3.org/2000/svg">
<path d="M16.6044 13.4531V17.9731H6.95312V13.4531H16.6044ZM17.0312 12.2031H6.52625C6.07187 12.2031 5.70312 12.5719 5.70312 13.0262V18.4C5.70312 18.8544 6.07187 19.2231 6.52625 19.2231H17.0319C17.4863 19.2231 17.855 18.8544 17.855 18.4V13.0262C17.855 12.5719 17.4863 12.2031 17.0319 12.2031H17.0312Z" fill="#0D2C36"/>
<path d="M16.6044 23.1406V27.6606H6.95312V23.1406H16.6044ZM17.0312 21.8906H6.52625C6.07187 21.8906 5.70312 22.2594 5.70312 22.7138V28.0875C5.70312 28.5419 6.07187 28.9106 6.52625 28.9106H17.0319C17.4863 28.9106 17.855 28.5419 17.855 28.0875V22.7138C17.855 22.2594 17.4863 21.8906 17.0319 21.8906H17.0312Z" fill="#0D2C36"/>
<path d="M17.8545 16.3411V15.0911C20.1201 15.0911 21.9632 13.248 21.9632 10.9823V9.40234H23.2132V10.9823C23.2132 13.9373 20.8095 16.3411 17.8545 16.3411Z" fill="#D8DDDF"/>
<path d="M17.8545 26.0273V24.7773C20.1201 24.7773 21.9632 22.9342 21.9632 20.6686V9.40234H23.2132V20.6686C23.2132 23.6236 20.8095 26.0273 17.8545 26.0273Z" fill="#D8DDDF"/>
<path d="M25.4736 3.08984H14.9686C14.514 3.08984 14.1455 3.45837 14.1455 3.91297V9.28672C14.1455 9.74132 14.514 10.1098 14.9686 10.1098H25.4736C25.9282 10.1098 26.2968 9.74132 26.2968 9.28672V3.91297C26.2968 3.45837 25.9282 3.08984 25.4736 3.08984Z" fill="#0D2C36"/>
</svg>
