<svg width="32" height="32" viewBox="0 0 32 32" fill="none" xmlns="http://www.w3.org/2000/svg">
<path d="M13.085 13.4531V17.9731H3.43373V13.4531H13.085ZM13.5119 12.2031H3.00623C2.55186 12.2031 2.18311 12.5719 2.18311 13.0262V18.4C2.18311 18.8544 2.55186 19.2231 3.00623 19.2231H13.5119C13.9662 19.2231 14.335 18.8544 14.335 18.4V13.0262C14.335 12.5719 13.9662 12.2031 13.5119 12.2031Z" fill="#0D2C36"/>
<path d="M13.085 23.1406V27.6606H3.43373V23.1406H13.085ZM13.5119 21.8906H3.00623C2.55186 21.8906 2.18311 22.2594 2.18311 22.7138V28.0875C2.18311 28.5419 2.55186 28.9106 3.00623 28.9106H13.5119C13.9662 28.9106 14.335 28.5419 14.335 28.0875V22.7138C14.335 22.2594 13.9662 21.8906 13.5119 21.8906Z" fill="#0D2C36"/>
<path d="M14.335 16.3405V15.0905C14.9087 15.0905 15.375 14.6236 15.375 14.0505V9.40234H16.625V14.0505C16.625 15.313 15.5975 16.3405 14.335 16.3405Z" fill="#D8DDDF"/>
<path d="M14.335 26.0273V24.7773C14.9087 24.7773 15.375 24.3105 15.375 23.7373V9.40234H16.625V23.7373C16.625 24.9998 15.5975 26.0273 14.335 26.0273Z" fill="#D8DDDF"/>
<path d="M28.6255 13.4531V17.9731H18.9743V13.4531H28.6255ZM29.0524 12.2031H18.5468C18.0924 12.2031 17.7236 12.5719 17.7236 13.0262V18.4C17.7236 18.8544 18.0924 19.2231 18.5468 19.2231H29.0524C29.5068 19.2231 29.8755 18.8544 29.8755 18.4V13.0262C29.8755 12.5719 29.5068 12.2031 29.0524 12.2031Z" fill="#0D2C36"/>
<path d="M28.6255 23.1406V27.6606H18.9743V23.1406H28.6255ZM29.0524 21.8906H18.5468C18.0924 21.8906 17.7236 22.2594 17.7236 22.7138V28.0875C17.7236 28.5419 18.0924 28.9106 18.5468 28.9106H29.0524C29.5068 28.9106 29.8755 28.5419 29.8755 28.0875V22.7138C29.8755 22.2594 29.5068 21.8906 29.0524 21.8906Z" fill="#0D2C36"/>
<path d="M17.7238 16.3405C16.4613 16.3405 15.4338 15.313 15.4338 14.0505V9.40234H16.6838V14.0505C16.6838 14.6242 17.1501 15.0905 17.7238 15.0905V16.3405Z" fill="#D8DDDF"/>
<path d="M17.7238 26.0273C16.4613 26.0273 15.4338 24.9998 15.4338 23.7373V9.40234H16.6838V23.7373C16.6838 24.3111 17.1501 24.7773 17.7238 24.7773V26.0273Z" fill="#D8DDDF"/>
<path d="M21.2524 3.08984H10.7474C10.2928 3.08984 9.92432 3.45837 9.92432 3.91297V9.28672C9.92432 9.74132 10.2928 10.1098 10.7474 10.1098H21.2524C21.707 10.1098 22.0756 9.74132 22.0756 9.28672V3.91297C22.0756 3.45837 21.707 3.08984 21.2524 3.08984Z" fill="#0D2C36"/>
</svg>
