<svg width="32" height="32" viewBox="0 0 32 32" fill="none" xmlns="http://www.w3.org/2000/svg">
<path d="M21.2524 6.17578H10.7474C10.2928 6.17578 9.92432 6.54431 9.92432 6.99891V12.3727C9.92432 12.8273 10.2928 13.1958 10.7474 13.1958H21.2524C21.707 13.1958 22.0756 12.8273 22.0756 12.3727V6.99891C22.0756 6.54431 21.707 6.17578 21.2524 6.17578Z" fill="#0D2C36"/>
<path d="M29.0613 20.0547V24.5747H19.41V20.0547H29.0613ZM29.4882 18.8047H18.9825C18.5282 18.8047 18.1594 19.1734 18.1594 19.6278V25.0016C18.1594 25.4559 18.5282 25.8247 18.9825 25.8247H29.4882C29.9425 25.8247 30.3113 25.4559 30.3113 25.0016V19.6278C30.3113 19.1734 29.9425 18.8047 29.4882 18.8047Z" fill="#0D2C36"/>
<path d="M12.59 20.0547V24.5747H2.93872V20.0547H12.59ZM13.0168 18.8047H2.51185C2.05747 18.8047 1.68872 19.1734 1.68872 19.6278V25.0016C1.68872 25.4559 2.05747 25.8247 2.51185 25.8247H13.0168C13.4712 25.8247 13.84 25.4559 13.84 25.0016V19.6278C13.84 19.1734 13.4712 18.8047 13.0168 18.8047Z" fill="#0D2C36"/>
<path d="M24.8607 18.8016H23.6107C23.6107 17.6003 22.6332 16.6234 21.4326 16.6234H18.8039C16.9132 16.6234 15.3757 15.0853 15.3757 13.1953H16.6257C16.6257 14.3966 17.6032 15.3734 18.8039 15.3734H21.4326C23.3232 15.3734 24.8607 16.9116 24.8607 18.8016Z" fill="#D8DDDF"/>
<path d="M8.3894 18.8016H7.1394C7.1394 16.9109 8.67753 15.3734 10.5675 15.3734H13.1963C14.3975 15.3734 15.3744 14.3959 15.3744 13.1953H16.6244C16.6244 15.0859 15.0863 16.6234 13.1963 16.6234H10.5675C9.36628 16.6234 8.3894 17.6009 8.3894 18.8016Z" fill="#D8DDDF"/>
</svg>
