<svg width="32" height="32" viewBox="0 0 32 32" fill="none" xmlns="http://www.w3.org/2000/svg">
<path d="M21.2524 3.08984H10.7474C10.2928 3.08984 9.92432 3.45837 9.92432 3.91297V9.28672C9.92432 9.74132 10.2928 10.1098 10.7474 10.1098H21.2524C21.707 10.1098 22.0756 9.74132 22.0756 9.28672V3.91297C22.0756 3.45837 21.707 3.08984 21.2524 3.08984Z" fill="#0D2C36"/>
<path d="M20.8256 14.0234V18.5434H11.1743V14.0234H20.8256ZM21.2524 12.7734H10.7474C10.2931 12.7734 9.92432 13.1422 9.92432 13.5966V18.9703C9.92432 19.4247 10.2931 19.7934 10.7474 19.7934H21.2531C21.7074 19.7934 22.0762 19.4247 22.0762 18.9703V13.5966C22.0762 13.1422 21.7074 12.7734 21.2531 12.7734H21.2524Z" fill="#0D2C36"/>
<path d="M20.8256 23.1406V27.6606H11.1743V23.1406H20.8256ZM21.2524 21.8906H10.7474C10.2931 21.8906 9.92432 22.2594 9.92432 22.7138V28.0875C9.92432 28.5419 10.2931 28.9106 10.7474 28.9106H21.2531C21.7074 28.9106 22.0762 28.5419 22.0762 28.0875V22.7138C22.0762 22.2594 21.7074 21.8906 21.2531 21.8906H21.2524Z" fill="#0D2C36"/>
<path d="M16.625 10.1094H15.375V12.7762H16.625V10.1094Z" fill="#D8DDDF"/>
<path d="M16.625 19.7969H15.375V21.8937H16.625V19.7969Z" fill="#D8DDDF"/>
</svg>
