<svg width="33" height="32" viewBox="0 0 33 32" fill="none" xmlns="http://www.w3.org/2000/svg">
    <path
        d="M21.044 7.44269L28.1021 14.5008C28.6868 15.0855 28.6868 16.0335 28.1021 16.6182L21.044 23.6764C20.4593 24.2611 19.5113 24.2611 18.9266 23.6764C18.3418 23.0916 18.3418 22.1436 18.9266 21.5589L23.4279 17.0557L6.07971 17.0568C5.32171 17.0568 4.69527 16.4935 4.59613 15.7627L4.58246 15.5595C4.58246 14.7326 5.2528 14.0623 6.07971 14.0623L23.4279 14.0612L18.9266 9.56012C18.3418 8.97541 18.3418 8.0274 18.9266 7.44269C19.5113 6.85797 20.4593 6.85797 21.044 7.44269Z"
        fill="black" />
</svg>
    