<svg width="32" height="32" viewBox="0 0 32 32" fill="none" xmlns="http://www.w3.org/2000/svg">
<path d="M20.542 7.38409L27.6002 14.4422C28.1849 15.0269 28.1849 15.9749 27.6002 16.5596L20.542 23.6178C19.9573 24.2025 19.0093 24.2025 18.4246 23.6178C17.8399 23.0331 17.8399 22.085 18.4246 21.5003L22.9259 16.9971L5.57776 16.9982C4.81976 16.9982 4.19332 16.4349 4.09417 15.7041L4.08051 15.5009C4.08051 14.674 4.75085 14.0037 5.57776 14.0037L22.9259 14.0026L18.4246 9.50153C17.8399 8.91681 17.8399 7.96881 18.4246 7.38409C19.0093 6.79938 19.9573 6.79938 20.542 7.38409Z" fill="#0D2C36"/>
</svg>
