<svg width="19" height="18" viewBox="0 0 19 18" fill="none" xmlns="http://www.w3.org/2000/svg">
<path fill-rule="evenodd" clip-rule="evenodd" d="M18.0369 10.6808V15.75C18.0369 16.9926 17.0274 18 15.7823 18H2.25462C1.0095 18 0 16.9926 0 15.75V10.6808L7.32751 11.6829V12.1871C7.32751 13.121 8.08458 13.878 9.01847 13.878C9.95236 13.878 10.7094 13.121 10.7094 12.1871V11.6829L18.0369 10.6808ZM18.0369 6.74991V9.5491L10.7094 10.5512V10.3921C10.7094 9.45824 9.95236 8.70117 9.01847 8.70117C8.08458 8.70117 7.32751 9.45824 7.32751 10.3921V10.5512L0 9.5491V6.74991C0 5.50734 1.0095 4.49994 2.25462 4.49994H3.38193V2.24997C3.38193 1.0074 4.39143 0 5.63654 0H12.4004C13.6455 0 14.655 1.0074 14.655 2.24997V4.49994H15.7823C17.0274 4.49994 18.0369 5.50734 18.0369 6.74991ZM9.01847 10.2341C9.29518 10.2341 9.5195 10.4584 9.5195 10.7351V12.2382C9.5195 12.5149 9.29518 12.7392 9.01847 12.7392C8.74176 12.7392 8.51744 12.5149 8.51744 12.2382V10.7351C8.51744 10.4584 8.74176 10.2341 9.01847 10.2341ZM4.86152 4.49994H13.1754V2.60152C13.1754 1.98189 12.6701 1.47641 12.0481 1.47641H5.98883C5.36737 1.47641 4.86152 1.98189 4.86152 2.60152V4.49994Z" fill="black"/>
</svg>