<svg width="32" height="32" viewBox="0 0 32 32" fill="none" xmlns="http://www.w3.org/2000/svg">
<g clip-path="url(#clip0_6315_271716)">
<path d="M2.66797 26.668H29.3346V29.3346H2.66797V26.668ZM5.33464 16.0013H8.0013V25.3346H5.33464V16.0013ZM12.0013 16.0013H14.668V25.3346H12.0013V16.0013ZM17.3346 16.0013H20.0013V25.3346H17.3346V16.0013ZM24.0013 16.0013H26.668V25.3346H24.0013V16.0013ZM2.66797 9.33464L16.0013 2.66797L29.3346 9.33464V14.668H2.66797V9.33464ZM16.0013 10.668C16.3549 10.668 16.6941 10.5275 16.9441 10.2774C17.1942 10.0274 17.3346 9.68826 17.3346 9.33464C17.3346 8.98101 17.1942 8.64188 16.9441 8.39183C16.6941 8.14178 16.3549 8.0013 16.0013 8.0013C15.6477 8.0013 15.3085 8.14178 15.0585 8.39183C14.8084 8.64188 14.668 8.98101 14.668 9.33464C14.668 9.68826 14.8084 10.0274 15.0585 10.2774C15.3085 10.5275 15.6477 10.668 16.0013 10.668Z" fill="white"/>
</g>
<defs>
<clipPath id="clip0_6315_271716">
<rect width="32" height="32" fill="white"/>
</clipPath>
</defs>
</svg>
