<svg width="32" height="32" viewBox="0 0 32 32" fill="none" xmlns="http://www.w3.org/2000/svg">
<path d="M29.998 18.8047H19.493C19.0384 18.8047 18.6699 19.1732 18.6699 19.6278V25.0016C18.6699 25.4562 19.0384 25.8247 19.493 25.8247H29.998C30.4526 25.8247 30.8212 25.4562 30.8212 25.0016V19.6278C30.8212 19.1732 30.4526 18.8047 29.998 18.8047Z" fill="#0D2C36"/>
<path d="M13.1 7.42578V11.9458H3.44873V7.42578H13.1ZM13.5269 6.17578H3.02186C2.56748 6.17578 2.19873 6.54453 2.19873 6.99891V12.3727C2.19873 12.827 2.56748 13.1958 3.02186 13.1958H13.5275C13.9819 13.1958 14.3506 12.827 14.3506 12.3727V6.99891C14.3506 6.54453 13.9819 6.17578 13.5275 6.17578H13.5269Z" fill="#0D2C36"/>
<path d="M29.5713 7.42578V11.9458H19.9201V7.42578H29.5713ZM29.9982 6.17578H19.4926C19.0382 6.17578 18.6694 6.54453 18.6694 6.99891V12.3727C18.6694 12.827 19.0382 13.1958 19.4926 13.1958H29.9982C30.4526 13.1958 30.8213 12.827 30.8213 12.3727V6.99891C30.8213 6.54453 30.4526 6.17578 29.9982 6.17578Z" fill="#0D2C36"/>
<path d="M25.3705 18.8016H24.1205C24.1205 17.6003 23.143 16.6234 21.9424 16.6234H11.078C9.1874 16.6234 7.6499 15.0853 7.6499 13.1953H8.8999C8.8999 14.3966 9.8774 15.3734 11.078 15.3734H21.9424C23.833 15.3734 25.3705 16.9116 25.3705 18.8016Z" fill="#D8DDDF"/>
<path d="M25.3706 13.1953H24.1206V18.8022H25.3706V13.1953Z" fill="#D8DDDF"/>
</svg>
