<svg width="32" height="32" viewBox="0 0 32 32" fill="none" xmlns="http://www.w3.org/2000/svg">
<path d="M21.2524 18.8047H10.7474C10.2928 18.8047 9.92432 19.1732 9.92432 19.6278V25.0016C9.92432 25.4562 10.2928 25.8247 10.7474 25.8247H21.2524C21.707 25.8247 22.0756 25.4562 22.0756 25.0016V19.6278C22.0756 19.1732 21.707 18.8047 21.2524 18.8047Z" fill="#0D2C36"/>
<path d="M12.59 7.42578V11.9458H2.93872V7.42578H12.59ZM13.0168 6.17578H2.51185C2.05747 6.17578 1.68872 6.54453 1.68872 6.99891V12.3727C1.68872 12.827 2.05747 13.1958 2.51185 13.1958H13.0168C13.4712 13.1958 13.84 12.827 13.84 12.3727V6.99891C13.84 6.54453 13.4712 6.17578 13.0168 6.17578Z" fill="#0D2C36"/>
<path d="M29.0613 7.42578V11.9458H19.41V7.42578H29.0613ZM29.4882 6.17578H18.9825C18.5282 6.17578 18.1594 6.54453 18.1594 6.99891V12.3727C18.1594 12.827 18.5282 13.1958 18.9825 13.1958H29.4882C29.9425 13.1958 30.3113 12.827 30.3113 12.3727V6.99891C30.3113 6.54453 29.9425 6.17578 29.4882 6.17578Z" fill="#0D2C36"/>
<path d="M16.6249 18.8016H15.3749C15.3749 17.6003 14.3974 16.6234 13.1968 16.6234H10.568C8.67739 16.6234 7.13989 15.0853 7.13989 13.1953H8.38989C8.38989 14.3966 9.36739 15.3734 10.568 15.3734H13.1968C15.0874 15.3734 16.6249 16.9116 16.6249 18.8016Z" fill="#D8DDDF"/>
<path d="M16.625 18.8016H15.375C15.375 16.9109 16.9131 15.3734 18.8031 15.3734H21.4319C22.6331 15.3734 23.61 14.3959 23.61 13.1953H24.86C24.86 15.0859 23.3219 16.6234 21.4319 16.6234H18.8031C17.6019 16.6234 16.625 17.6009 16.625 18.8016Z" fill="#D8DDDF"/>
</svg>
