<svg width="32" height="32" viewBox="0 0 32 32" fill="none" xmlns="http://www.w3.org/2000/svg">
<path d="M13.5269 18.8047H3.02186C2.56726 18.8047 2.19873 19.1732 2.19873 19.6278V25.0016C2.19873 25.4562 2.56726 25.8247 3.02186 25.8247H13.5269C13.9815 25.8247 14.35 25.4562 14.35 25.0016V19.6278C14.35 19.1732 13.9815 18.8047 13.5269 18.8047Z" fill="#0D2C36"/>
<path d="M29.5713 7.42578V11.9458H19.9201V7.42578H29.5713ZM29.9982 6.17578H19.4926C19.0382 6.17578 18.6694 6.54453 18.6694 6.99891V12.3727C18.6694 12.827 19.0382 13.1958 19.4926 13.1958H29.9982C30.4526 13.1958 30.8213 12.827 30.8213 12.3727V6.99891C30.8213 6.54453 30.4526 6.17578 29.9982 6.17578Z" fill="#0D2C36"/>
<path d="M13.1 7.42578V11.9458H3.44873V7.42578H13.1ZM13.5269 6.17578H3.02186C2.56748 6.17578 2.19873 6.54453 2.19873 6.99891V12.3727C2.19873 12.827 2.56748 13.1958 3.02186 13.1958H13.5275C13.9819 13.1958 14.3506 12.827 14.3506 12.3727V6.99891C14.3506 6.54453 13.9819 6.17578 13.5275 6.17578H13.5269Z" fill="#0D2C36"/>
<path d="M8.89941 18.8016H7.64941C7.64941 16.9109 9.18754 15.3734 11.0775 15.3734H21.9419C23.1432 15.3734 24.12 14.3959 24.12 13.1953H25.37C25.37 15.0859 23.8319 16.6234 21.9419 16.6234H11.0782C9.87691 16.6234 8.90004 17.6009 8.90004 18.8016H8.89941Z" fill="#D8DDDF"/>
<path d="M8.89941 13.1953H7.64941V18.8022H8.89941V13.1953Z" fill="#D8DDDF"/>
</svg>
