<svg width="36" height="37" viewBox="0 0 36 37" fill="none" xmlns="http://www.w3.org/2000/svg">
<path d="M18.0007 0.462402C27.9011 0.462402 35.9271 8.48834 35.9271 18.3888C35.9271 28.2893 27.9011 36.3153 18.0007 36.3153C8.10016 36.3153 0.0742188 28.2893 0.0742188 18.3888C0.0742188 8.48834 8.10016 0.462402 18.0007 0.462402ZM22.4482 27.3519H13.5531L13.7379 28.1662L13.815 28.4392L13.9167 28.694C14.4335 29.8527 15.5339 30.5754 16.762 30.5754H19.2393L19.5183 30.5616L19.7895 30.5198L20.0517 30.4577C21.1672 30.1453 22.006 29.2816 22.2625 28.1704L22.4482 27.3519ZM18.0007 6.20231C13.0504 6.20231 9.03743 10.2153 9.03743 15.1655L9.05093 15.652L9.08884 16.1101L9.14906 16.5622C9.48142 18.6567 10.528 20.5324 12.0875 21.9012L12.3646 22.1319L12.94 24.6629H23.0577L23.6313 22.1355L23.9233 21.8908C25.7341 20.287 26.8297 18.0489 26.9523 15.6226L26.9639 15.1655C26.9639 10.2153 22.9509 6.20231 18.0007 6.20231Z" fill="#212121"/>
</svg>