<svg width="20" height="17" viewBox="0 0 20 17" fill="none" xmlns="http://www.w3.org/2000/svg">
<path d="M16.25 0.953125C18.3211 0.953125 20 2.63206 20 4.70312V13.2031C20 15.2742 18.3211 16.9531 16.25 16.9531H3.75C1.67893 16.9531 0 15.2742 0 13.2031V4.70312C0 2.63206 1.67893 0.953125 3.75 0.953125H16.25ZM16.25 9.95312C15.8703 9.95312 15.5565 10.2353 15.5068 10.6014L15.5 10.7031V11.9531C15.5 12.1985 15.3231 12.4027 15.0899 12.4451L15 12.4531H13.75C13.3358 12.4531 13 12.7889 13 13.2031C13 13.5828 13.2822 13.8966 13.6482 13.9463L13.75 13.9531H15C16.0544 13.9531 16.9182 13.1373 16.9945 12.1024L17 11.9531V10.7031C17 10.2889 16.6642 9.95312 16.25 9.95312ZM3.75 9.95312C3.3703 9.95312 3.05651 10.2353 3.00685 10.6014L3 10.7031V11.9531C3 13.0075 3.81588 13.8713 4.85074 13.9476L5 13.9531H6.25C6.66421 13.9531 7 13.6173 7 13.2031C7 12.8234 6.71785 12.5096 6.35177 12.46L6.25 12.4531H5C4.75454 12.4531 4.55039 12.2762 4.50806 12.043L4.5 11.9531V10.7031C4.5 10.2889 4.16421 9.95312 3.75 9.95312ZM6.25 3.95312H5L4.85074 3.95861C3.86762 4.03114 3.08214 4.81435 3.00604 5.79647L3 5.95312V7.20312L3.00685 7.3049C3.05651 7.67097 3.3703 7.95312 3.75 7.95312C4.1297 7.95312 4.44349 7.67097 4.49315 7.3049L4.5 7.20312V5.95312L4.50806 5.86325C4.5451 5.65916 4.70603 5.49823 4.91012 5.46118L5 5.45312H6.25L6.35177 5.44628C6.71785 5.39662 7 5.08282 7 4.70312C7 4.32343 6.71785 4.00963 6.35177 3.95997L6.25 3.95312ZM15 3.95312H13.75C13.3358 3.95312 13 4.28891 13 4.70312C13 5.08282 13.2822 5.39662 13.6482 5.44628L13.75 5.45312H15C15.2454 5.45312 15.4496 5.63 15.4919 5.86325L15.5 5.95312V7.20312C15.5 7.61734 15.8358 7.95312 16.25 7.95312C16.6297 7.95312 16.9435 7.67097 16.9932 7.3049L17 7.20312V5.95312C17 4.89876 16.1841 4.03496 15.1493 3.95861L15 3.95312Z" fill="#595DDC"/>
</svg>