<svg width="20" height="20" viewBox="0 0 20 20" fill="none" xmlns="http://www.w3.org/2000/svg">
<g clip-path="url(#clip0_8091_32315)">
<path d="M7.31579 0C7.89714 0 8.36842 0.471284 8.36842 1.05263V2.10526H12.5789V1.05263C12.5789 0.471284 13.0502 0 13.6316 0C14.2129 0 14.6842 0.471284 14.6842 1.05263V2.10526H17.8421C19.0048 2.10526 19.9474 3.04782 19.9474 4.21053V17.8947C19.9474 19.0575 19.0048 20 17.8421 20H3.10526C1.94256 20 1 19.0575 1 17.8947V4.21053C1 3.04782 1.94256 2.10526 3.10526 2.10526H6.26316V1.05263C6.26316 0.471284 6.73444 0 7.31579 0ZM6.26316 4.21053H3.10526V7.36842H17.8421V4.21053H14.6842V5.26316C14.6842 5.84451 14.2129 6.31579 13.6316 6.31579C13.0502 6.31579 12.5789 5.84451 12.5789 5.26316V4.21053H8.36842V5.26316C8.36842 5.84451 7.89714 6.31579 7.31579 6.31579C6.73444 6.31579 6.26316 5.84451 6.26316 5.26316V4.21053ZM17.8421 9.47368H3.10526V17.8947H17.8421V9.47368Z" fill="white"/>
</g>
<defs>
<clipPath id="clip0_8091_32315">
<rect width="20" height="20" fill="white"/>
</clipPath>
</defs>
</svg>
