<svg width="19" height="20" viewBox="0 0 19 20" fill="none" xmlns="http://www.w3.org/2000/svg">
<path d="M6.31579 0C6.89714 0 7.36842 0.471284 7.36842 1.05263V2.10526H11.5789V1.05263C11.5789 0.471284 12.0502 0 12.6316 0C13.2129 0 13.6842 0.471284 13.6842 1.05263V2.10526H16.8421C18.0048 2.10526 18.9474 3.04782 18.9474 4.21053V17.8947C18.9474 19.0575 18.0048 20 16.8421 20H2.10526C0.942558 20 0 19.0575 0 17.8947V4.21053C0 3.04782 0.942558 2.10526 2.10526 2.10526H5.26316V1.05263C5.26316 0.471284 5.73444 0 6.31579 0ZM5.26316 4.21053H2.10526V7.36842H16.8421V4.21053H13.6842V5.26316C13.6842 5.84451 13.2129 6.31579 12.6316 6.31579C12.0502 6.31579 11.5789 5.84451 11.5789 5.26316V4.21053H7.36842V5.26316C7.36842 5.84451 6.89714 6.31579 6.31579 6.31579C5.73444 6.31579 5.26316 5.84451 5.26316 5.26316V4.21053ZM16.8421 9.47368H2.10526V17.8947H16.8421V9.47368Z" fill="#0D2C36"/>
</svg>