<svg width="16" height="16" viewBox="0 0 16 16" fill="none" xmlns="http://www.w3.org/2000/svg">
<g clip-path="url(#clip0_8091_49546)">
<rect width="16" height="16" fill="url(#paint0_linear_8091_49546)"/>
<path d="M5.85268 0C6.31776 0 6.69479 0.377027 6.69479 0.842105V1.68421H10.0632V0.842105C10.0632 0.377027 10.4402 0 10.9053 0C11.3704 0 11.7474 0.377027 11.7474 0.842105V1.68421H14.2737C15.2039 1.68421 15.9579 2.43826 15.9579 3.36842V14.3158C15.9579 15.246 15.2039 16 14.2737 16H2.48426C1.5541 16 0.800049 15.246 0.800049 14.3158V3.36842C0.800049 2.43826 1.5541 1.68421 2.48426 1.68421H5.01058V0.842105C5.01058 0.377027 5.3876 0 5.85268 0ZM5.01058 3.36842H2.48426V5.89474H14.2737V3.36842H11.7474V4.21053C11.7474 4.6756 11.3704 5.05263 10.9053 5.05263C10.4402 5.05263 10.0632 4.6756 10.0632 4.21053V3.36842H6.69479V4.21053C6.69479 4.6756 6.31776 5.05263 5.85268 5.05263C5.3876 5.05263 5.01058 4.6756 5.01058 4.21053V3.36842ZM14.2737 7.57895H2.48426V14.3158H14.2737V7.57895Z" fill="white"/>
</g>
<defs>
<linearGradient id="paint0_linear_8091_49546" x1="17.7265" y1="2.83989e-07" x2="1.17437" y2="17.1345" gradientUnits="userSpaceOnUse">
<stop stop-color="#6E72EE"/>
<stop offset="1" stop-color="#595DDC"/>
</linearGradient>
<clipPath id="clip0_8091_49546">
<rect width="16" height="16" fill="white"/>
</clipPath>
</defs>
</svg>