<svg width="20" height="20" viewBox="0 0 20 20" fill="none" xmlns="http://www.w3.org/2000/svg">
<g clip-path="url(#clip0_4030_189454)">
<path fill-rule="evenodd" clip-rule="evenodd" d="M8.36842 1.05263C8.36842 0.471284 7.89714 0 7.31579 0C6.73444 0 6.26316 0.471284 6.26316 1.05263V2.10526H3.10526C1.94256 2.10526 1 3.04782 1 4.21053V17.8947C1 19.0575 1.94256 20 3.10526 20H17.8421C19.0048 20 19.9474 19.0575 19.9474 17.8947V4.21053C19.9474 3.04782 19.0048 2.10526 17.8421 2.10526H14.6842V1.05263C14.6842 0.471284 14.2129 0 13.6316 0C13.0502 0 12.5789 0.471284 12.5789 1.05263V2.10526H8.36842V1.05263ZM3.10526 4.21053H6.26316V5.26316C6.26316 5.84451 6.73444 6.31579 7.31579 6.31579C7.89714 6.31579 8.36842 5.84451 8.36842 5.26316V4.21053H12.5789V5.26316C12.5789 5.84451 13.0502 6.31579 13.6316 6.31579C14.2129 6.31579 14.6842 5.84451 14.6842 5.26316V4.21053H17.8421V9.47369V17.8947H3.10526V9.47369V4.21053ZM15.2516 9.47369C15.3202 9.15029 15.2289 8.79978 14.9777 8.5486C14.5831 8.15396 13.9433 8.15396 13.5486 8.5486L12.6235 9.47369L9.84212 12.2551L8.03036 10.4433C7.63572 10.0487 6.99589 10.0487 6.60125 10.4433C6.20662 10.838 6.20662 11.4778 6.60125 11.8724L9.12757 14.3988C9.52221 14.7934 10.162 14.7934 10.5567 14.3988L14.9777 9.9777C15.1212 9.83424 15.2125 9.65839 15.2516 9.47369Z" fill="#4E4E5C"/>
</g>
<defs>
<clipPath id="clip0_4030_189454">
<rect width="20" height="20" fill="white"/>
</clipPath>
</defs>
</svg>
