<svg width="32" height="20" viewBox="0 0 32 20" fill="none" xmlns="http://www.w3.org/2000/svg">
<path fill-rule="evenodd" clip-rule="evenodd" d="M29.5561 0H1.60311C1.1628 0 0.761902 0.180656 0.471113 0.471278V0.470293V0.471278C0.181781 0.760609 0.00185961 1.16139 0.00185961 1.60316V2.96036H31.1611V1.60316C31.1611 1.17251 30.9901 0.780833 30.7135 0.493364L30.6898 0.471336C30.3991 0.180695 29.9982 5.79678e-05 29.5578 5.79678e-05L29.5561 0ZM23.9831 17.3332C23.1211 16.2941 23.1318 14.7985 23.9831 13.7712C23.9369 13.7674 23.8896 13.7656 23.8418 13.7656C23.3472 13.7656 22.9006 13.9647 22.5788 14.2865V14.2884C22.2568 14.6101 22.0576 15.0567 22.0576 15.5515C22.0576 16.0461 22.257 16.4927 22.5788 16.8144V16.8163C22.9006 17.1383 23.3472 17.3375 23.8418 17.3375C23.8891 17.3375 23.9356 17.336 23.9814 17.3318L23.9831 17.3332ZM26.1323 13.7661C25.179 13.7661 24.4187 14.4933 24.35 15.4326L24.3497 15.4383V15.4554V15.4725C24.3246 15.9668 24.5208 16.4647 24.8711 16.8151C25.1941 17.138 25.6411 17.3381 26.1342 17.3381C26.6288 17.3381 27.0756 17.1389 27.3973 16.817V16.8151C27.7193 16.4933 27.9185 16.0467 27.9185 15.5521C27.9185 15.0573 27.7194 14.6107 27.3973 14.289V14.2871C27.0756 13.9653 26.6288 13.7662 26.1342 13.7662L26.1323 13.7661ZM31.1592 3.96558H0V18.397C0 18.8276 0.170973 19.2192 0.447643 19.5067L0.471273 19.5288C0.762062 19.8194 1.16296 20 1.60327 20H29.5563C29.9966 20 30.3975 19.8194 30.6883 19.5288V19.5298V19.5288C30.9776 19.2394 31.1575 18.8387 31.1575 18.3969L31.1592 3.96558ZM26.1323 12.7607C26.9002 12.7607 27.5979 13.0733 28.104 13.5784V13.5795V13.5805V13.5815C28.6086 14.0873 28.9205 14.7843 28.9205 15.5518C28.9205 16.3197 28.608 17.0173 28.1027 17.5234V17.5244V17.5254V17.5264C27.5968 18.031 26.8998 18.3429 26.1323 18.3429C25.724 18.3429 25.3361 18.2551 24.9865 18.0974C24.8512 18.1584 24.7107 18.2089 24.566 18.2475C24.3337 18.3096 24.0913 18.343 23.8435 18.343C23.0755 18.343 22.3779 18.0306 21.8719 17.5253V17.5243V17.5233V17.5218C21.3673 17.0159 21.0555 16.3189 21.0555 15.5515C21.0555 14.7834 21.3679 14.0858 21.8732 13.5799V13.5788V13.5779V13.5769C22.3791 13.0723 23.0762 12.7604 23.8436 12.7604C24.0913 12.7604 24.3336 12.7936 24.5661 12.8559C24.7112 12.8945 24.8521 12.9452 24.9875 13.0064C25.3373 12.8483 25.7249 12.7603 26.1324 12.7603L26.1323 12.7607ZM16.9017 11.4802C17.1792 11.4802 17.4043 11.7054 17.4043 11.9829C17.4043 12.2603 17.1792 12.4855 16.9017 12.4855H3.32191C3.04429 12.4855 2.81918 12.2603 2.81918 11.9829C2.81918 11.7054 3.04429 11.4802 3.32191 11.4802H16.9017Z" fill="white"/>
</svg>