<svg width="17" height="14" viewBox="0 0 17 14" fill="none" xmlns="http://www.w3.org/2000/svg">
<path d="M3.91028 2.99738V4.99525H13.9103V2.99738H3.91028ZM10.9081 7.99792V10.9979H13.9081V7.99792H10.9081ZM0.910278 2.75C0.910278 1.23122 2.1415 0 3.66028 0H14.1603C15.6791 0 16.9103 1.23122 16.9103 2.75V11.25C16.9103 12.7688 15.6791 14 14.1603 14H3.66028C2.1415 14 0.910278 12.7688 0.910278 11.25V2.75ZM2.91028 2.49738V5.49525C2.91028 5.77139 3.13414 5.99525 3.41028 5.99525H14.4103C14.6864 5.99525 14.9103 5.77139 14.9103 5.49525V2.49738C14.9103 2.22123 14.6864 1.99738 14.4103 1.99738H3.41028C3.13414 1.99738 2.91028 2.22123 2.91028 2.49738ZM9.90808 7.49792V11.4979C9.90808 11.7741 10.1319 11.9979 10.4081 11.9979H14.4081C14.6842 11.9979 14.9081 11.7741 14.9081 11.4979V7.49792C14.9081 7.22178 14.6842 6.99792 14.4081 6.99792H10.4081C10.1319 6.99792 9.90808 7.22178 9.90808 7.49792ZM3.41028 7.49738C3.13414 7.49738 2.91028 7.72123 2.91028 7.99738C2.91028 8.27352 3.13414 8.49738 3.41028 8.49738H8.4145C8.69064 8.49738 8.9145 8.27352 8.9145 7.99738C8.9145 7.72123 8.69064 7.49738 8.4145 7.49738H3.41028ZM2.91028 10.9974C2.91028 11.2735 3.13414 11.4974 3.41028 11.4974H8.41389C8.69003 11.4974 8.91389 11.2735 8.91389 10.9974C8.91389 10.7212 8.69003 10.4974 8.41389 10.4974H3.41028C3.13414 10.4974 2.91028 10.7212 2.91028 10.9974Z" fill="#212121"/>
</svg>