<svg width="21" height="18" viewBox="0 0 21 18" fill="none" xmlns="http://www.w3.org/2000/svg">
<path d="M0.713806 0.000401296C-0.133732 -0.0254157 -0.275848 1.20245 0.555162 1.37101L2.08616 1.70636C2.89602 5.58054 3.77882 9.43893 4.63487 13.3034C4.70525 13.6203 4.98634 13.8457 5.31091 13.8456H17.4683C18.405 13.8595 18.405 12.4473 17.4683 12.461H5.86661L5.56013 11.0768H18.0817C18.4063 11.0769 18.6873 10.8515 18.7577 10.5346L20.291 3.61242C20.3866 3.18035 20.0579 2.77075 19.6154 2.77049C14.3185 2.77061 9.02167 2.77038 3.72492 2.76788L3.3486 0.98242C3.29251 0.715947 3.08544 0.507128 2.81949 0.44877L0.850863 0.0178622C0.805858 0.00748311 0.759998 0.00148192 0.71385 0.000348061L0.713806 0.000401296ZM8.19259 14.3077C7.18125 14.3077 6.34655 15.1425 6.34655 16.1539C6.34655 17.1653 7.18125 18 8.19259 18C9.20392 18 10.0386 17.1653 10.0386 16.1539C10.0386 15.1425 9.20392 14.3077 8.19259 14.3077ZM14.6537 14.3077C13.6424 14.3077 12.8077 15.1425 12.8077 16.1539C12.8077 17.1653 13.6424 18 14.6537 18C15.665 18 16.4997 17.1653 16.4997 16.1539C16.4997 15.1425 15.665 14.3077 14.6537 14.3077Z" fill="#0D2C36"/>
</svg>
