<svg width="21" height="20" viewBox="0 0 21 20" fill="none" xmlns="http://www.w3.org/2000/svg">
<path d="M12.9996 15.5515C13.8354 16.1796 14.8746 16.5518 16.0006 16.5518C17.1258 16.5518 18.1642 16.1802 18.9997 15.553L19.0002 18.7992C19.0002 19.37 18.3957 19.7186 17.9101 19.4681L17.8206 19.414L16.0003 18.1417L14.1806 19.414C13.7127 19.7409 13.0807 19.4451 13.008 18.9035L13.0011 18.7992L12.9996 15.5515ZM17.25 0.554688C18.7125 0.554688 19.9084 1.69639 19.995 3.13717L20 3.30469L20.0014 8.55055C19.5971 8.01233 19.0867 7.55835 18.5013 7.21965L18.5 3.30469C18.5 2.65748 18.0081 2.12515 17.3778 2.06114L17.25 2.05469H2.75C2.10279 2.05469 1.57047 2.54656 1.50645 3.17688L1.5 3.30469V12.8047C1.5 13.4519 1.99187 13.9842 2.62219 14.0482L2.75 14.0547L11.6709 14.0547C11.7707 14.227 11.8805 14.3928 11.9995 14.5512L12 15.5547H2.75C1.28747 15.5547 0.0915956 14.413 0.00501871 12.9722L0 12.8047V3.30469C0 1.84216 1.1417 0.646283 2.58248 0.559706L2.75 0.554688H17.25ZM16.0006 7.55048C18.2101 7.55048 20.0013 9.34163 20.0013 11.5511C20.0013 13.7606 18.2101 15.5518 16.0006 15.5518C13.7911 15.5518 12 13.7606 12 11.5511C12 9.34163 13.7911 7.55048 16.0006 7.55048ZM9.25 10.0505C9.66421 10.0505 10 10.3863 10 10.8005C10 11.1802 9.71785 11.494 9.35177 11.5436L9.25 11.5505H4.75C4.33579 11.5505 4 11.2147 4 10.8005C4 10.4208 4.28215 10.107 4.64823 10.0573L4.75 10.0505H9.25ZM15.25 4.55048C15.6642 4.55048 16 4.88627 16 5.30048C16 5.68018 15.7178 5.99397 15.3518 6.04364L15.25 6.05048H4.75C4.33579 6.05048 4 5.7147 4 5.30048C4 4.92079 4.28215 4.60699 4.64823 4.55733L4.75 4.55048H15.25Z" fill="#0D2C36"/>
</svg>