<svg width="16" height="17" viewBox="0 0 16 17" fill="none" xmlns="http://www.w3.org/2000/svg">
<path d="M4.99927 3.35222C4.99927 1.695 6.34271 0.351562 7.99992 0.351562C9.65714 0.351562 11.0006 1.695 11.0006 3.35222C11.0006 4.83906 9.91918 6.07332 8.49999 6.31139V7.85156H11.5C12.3284 7.85156 13 8.52314 13 9.35156V10.3929C14.4195 10.6307 15.5013 11.8651 15.5013 13.3522C15.5013 15.0094 14.1579 16.3529 12.5007 16.3529C10.8434 16.3529 9.5 15.0094 9.5 13.3522C9.5 11.8656 10.5811 10.6315 12 10.3931V9.35156C12 9.07542 11.7761 8.85156 11.5 8.85156H4.5C4.22386 8.85156 4 9.07542 4 9.35156V10.3929C5.41954 10.6307 6.50131 11.8651 6.50131 13.3522C6.50131 15.0094 5.15787 16.3529 3.50066 16.3529C1.84344 16.3529 0.5 15.0094 0.5 13.3522C0.5 11.8656 1.5811 10.6315 3 10.3931V9.35156C3 8.52314 3.67157 7.85156 4.5 7.85156H7.49999V6.31141C6.08073 6.07339 4.99927 4.8391 4.99927 3.35222Z" fill="#0D2C36"/>
</svg>