<svg width="23" height="28" viewBox="0 0 23 28" fill="none" xmlns="http://www.w3.org/2000/svg">
<path d="M5.6 9.8C5.0201 9.8 4.55 10.2701 4.55 10.85C4.55 11.4299 5.0201 11.9 5.6 11.9H16.8C17.3799 11.9 17.85 11.4299 17.85 10.85C17.85 10.2701 17.3799 9.8 16.8 9.8H5.6Z" fill="white"/>
<path d="M10.15 16.45C10.15 15.8701 10.6201 15.4 11.2 15.4H16.8C17.3799 15.4 17.85 15.8701 17.85 16.45C17.85 17.0299 17.3799 17.5 16.8 17.5H11.2C10.6201 17.5 10.15 17.0299 10.15 16.45Z" fill="white"/>
<path d="M8.4 21C7.8201 21 7.35 21.4701 7.35 22.05C7.35 22.6299 7.8201 23.1 8.4 23.1H16.8C17.3799 23.1 17.85 22.6299 17.85 22.05C17.85 21.4701 17.3799 21 16.8 21H8.4Z" fill="white"/>
<path d="M16.7807 2.79922C16.6062 1.22461 15.2711 0 13.65 0H8.75C7.12888 0 5.79377 1.22461 5.61931 2.79922L3.15 2.8C1.4103 2.8 0 4.2103 0 5.95V24.85C0 26.5897 1.4103 28 3.15 28H19.25C20.9897 28 22.4 26.5897 22.4 24.85V5.95C22.4 4.2103 20.9897 2.8 19.25 2.8L16.7807 2.79922ZM16.7927 2.93433L16.8 3.15C16.8 3.07751 16.7976 3.0056 16.7927 2.93433ZM8.75 6.3H13.65C14.742 6.3 15.7043 5.74429 16.2694 4.90023L19.25 4.9C19.8299 4.9 20.3 5.3701 20.3 5.95V24.85C20.3 25.4299 19.8299 25.9 19.25 25.9H3.15C2.5701 25.9 2.1 25.4299 2.1 24.85V5.95C2.1 5.3701 2.5701 4.9 3.15 4.9L6.13063 4.90028C6.69573 5.74434 7.65795 6.3 8.75 6.3ZM8.75 2.1H13.65C14.2299 2.1 14.7 2.5701 14.7 3.15C14.7 3.7299 14.2299 4.2 13.65 4.2H8.75C8.1701 4.2 7.7 3.7299 7.7 3.15C7.7 2.5701 8.1701 2.1 8.75 2.1Z" fill="white"/>
</svg>