<svg width="28" height="29" viewBox="0 0 28 29" fill="none" xmlns="http://www.w3.org/2000/svg">
    <path
        d="M14 2.38062C20.627 2.38062 26 7.75362 26 14.3806C26 21.0076 20.627 26.3806 14 26.3806C7.373 26.3806 2 21.0076 2 14.3806C2 7.75362 7.373 2.38062 14 2.38062ZM14 4.04762C8.302 4.04762 3.667 8.68262 3.667 14.3806C3.667 20.0786 8.302 24.7136 14 24.7136C19.698 24.7136 24.333 20.0786 24.333 14.3806C24.333 8.68262 19.698 4.04762 14 4.04762ZM13.25 7.38062C13.6295 7.38062 13.9435 7.66295 13.9931 8.02889L14 8.13062V14.3806H18.25C18.664 14.3806 19 14.7166 19 15.1306C19 15.5101 18.7177 15.8241 18.3517 15.8738L18.25 15.8806H13.25C12.8705 15.8806 12.5565 15.5983 12.5069 15.2323L12.5 15.1306V8.13062C12.5 7.71662 12.836 7.38062 13.25 7.38062Z"
        fill="white" />
</svg>
    