<svg width="41" height="40" viewBox="0 0 41 40" fill="none" xmlns="http://www.w3.org/2000/svg">
<path d="M20.1953 12.5205C20.8838 12.5205 21.4419 13.0786 21.4419 13.7671V18.7534H26.4282C27.1167 18.7534 27.6748 19.3115 27.6748 20C27.6748 20.6885 27.1167 21.2466 26.4282 21.2466H21.4419V26.2329C21.4419 26.9214 20.8838 27.4795 20.1953 27.4795C19.5068 27.4795 18.9487 26.9214 18.9487 26.2329V21.2466H13.9624C13.2739 21.2466 12.7158 20.6885 12.7158 20C12.7158 19.3115 13.2739 18.7534 13.9624 18.7534H18.9487V13.7671C18.9487 13.0786 19.5068 12.5205 20.1953 12.5205Z" fill="#212121"/>
<path d="M5.23633 20C5.23633 11.7384 11.9337 5.04102 20.1953 5.04102C28.4569 5.04102 35.1543 11.7384 35.1543 20C35.1543 28.2616 28.4569 34.959 20.1953 34.959C11.9337 34.959 5.23633 28.2616 5.23633 20ZM20.1953 7.53418C13.3106 7.53418 7.72949 13.1153 7.72949 20C7.72949 26.8847 13.3106 32.4658 20.1953 32.4658C27.08 32.4658 32.6611 26.8847 32.6611 20C32.6611 13.1153 27.08 7.53418 20.1953 7.53418Z" fill="#212121"/>
</svg>
