<svg width="24" height="24" viewBox="0 0 24 24" fill="none" xmlns="http://www.w3.org/2000/svg">
<g clip-path="url(#clip0_1150_13861)">
<path d="M11.4806 0.672504C11.4952 0.672471 11.5097 0.672439 11.5247 0.672405C11.5722 0.672323 11.6196 0.672377 11.6671 0.67244C11.7005 0.672428 11.7339 0.672409 11.7672 0.672386C11.8369 0.672358 11.9066 0.672398 11.9763 0.672486C12.0652 0.672593 12.1541 0.672531 12.2431 0.672419C12.3119 0.672351 12.3807 0.672373 12.4496 0.672421C12.4823 0.672434 12.5151 0.672419 12.5478 0.672375C12.9775 0.671925 13.2961 0.733334 13.6149 1.04641C13.7438 1.17994 13.7438 1.17994 13.7438 1.25618C13.7561 1.25618 13.7685 1.25618 13.7813 1.25618C13.7993 1.29443 13.8173 1.33272 13.8352 1.37102C13.8502 1.403 13.8502 1.403 13.8655 1.43562C13.912 1.54129 13.9364 1.63046 13.943 1.74602C13.9444 1.7685 13.9458 1.79098 13.9472 1.81414C13.9502 1.87983 13.9503 1.9454 13.9502 2.01115C13.9502 2.0414 13.9502 2.0414 13.9501 2.07226C13.9501 2.09524 13.9501 2.09524 13.95 2.11868C13.9617 2.11873 13.9734 2.11877 13.9855 2.11882C14.2711 2.11993 14.5568 2.12135 14.8424 2.1231C14.9805 2.12394 15.1187 2.12468 15.2568 2.12518C15.3773 2.12561 15.4977 2.12624 15.6182 2.12709C15.6819 2.12754 15.7456 2.12789 15.8093 2.12801C15.8807 2.12819 15.952 2.12872 16.0233 2.12932C16.0442 2.1293 16.0651 2.12927 16.0866 2.12924C16.339 2.13226 16.5172 2.21269 16.6992 2.38704C16.7438 2.43743 16.7438 2.43743 16.7438 2.47493C16.7561 2.47493 16.7685 2.47493 16.7813 2.47493C16.8899 2.62136 16.902 2.78519 16.9005 2.9613C16.9006 2.98335 16.9006 3.00539 16.9007 3.0281C16.9008 3.08886 16.9006 3.14962 16.9003 3.21038C16.9001 3.27606 16.9001 3.34174 16.9002 3.40742C16.9002 3.52107 16.9 3.63473 16.8997 3.74839C16.8993 3.91271 16.8991 4.07703 16.899 4.24136C16.8989 4.508 16.8985 4.77463 16.898 5.04127C16.8975 5.30021 16.8971 5.55915 16.8969 5.81809C16.8968 5.83407 16.8968 5.85004 16.8968 5.8665C16.8967 5.94664 16.8967 6.02677 16.8966 6.10691C16.896 6.77125 16.895 7.43559 16.8938 8.09993C16.9102 8.09987 16.9102 8.09987 16.9269 8.0998C17.575 8.09728 18.223 8.09535 18.8711 8.09419C18.9489 8.09404 19.0267 8.0939 19.1045 8.09375C19.12 8.09372 19.1355 8.09369 19.1515 8.09366C19.4023 8.09317 19.6531 8.09228 19.904 8.09125C20.1613 8.0902 20.4187 8.08957 20.6761 8.08935C20.8349 8.08919 20.9937 8.0887 21.1525 8.08779C21.2615 8.08719 21.3704 8.08702 21.4793 8.08716C21.5421 8.08723 21.6049 8.08706 21.6678 8.08652C21.736 8.08596 21.8041 8.08609 21.8723 8.0864C21.8921 8.08607 21.9119 8.08575 21.9322 8.08541C22.0656 8.08703 22.1423 8.11855 22.2375 8.21243C22.3105 8.29122 22.3457 8.36006 22.3528 8.46841C22.3472 8.55778 22.3148 8.6392 22.275 8.71868C22.2626 8.71868 22.2503 8.71868 22.2375 8.71868C22.2313 8.73724 22.2251 8.75581 22.2188 8.77493C22.0786 8.87505 21.9419 8.8738 21.7759 8.87234C21.7532 8.87229 21.7305 8.87224 21.7071 8.87218C21.6347 8.87197 21.5623 8.8715 21.4899 8.87102C21.4407 8.87084 21.3915 8.87066 21.3424 8.87051C21.222 8.8701 21.1016 8.86947 20.9813 8.86868C20.9865 8.88785 20.9916 8.90703 20.997 8.92678C21.0038 8.95226 21.0107 8.97775 21.0175 9.00323C21.0209 9.01583 21.0243 9.02842 21.0279 9.04141C21.0502 9.12454 21.0688 9.20755 21.0846 9.29209C21.0946 9.34134 21.1069 9.3896 21.1196 9.43821C21.1457 9.54031 21.1663 9.64299 21.1863 9.74641C21.2129 9.88313 21.2452 10.0162 21.2825 10.1503C21.3012 10.2232 21.3152 10.2959 21.3281 10.3699C21.3492 10.4898 21.3794 10.6049 21.4143 10.7217C21.4332 10.788 21.4469 10.8541 21.4595 10.9219C21.474 10.9952 21.4931 11.0673 21.5115 11.1398C21.5438 11.2682 21.5694 11.397 21.5913 11.5277C21.596 11.5681 21.596 11.5681 21.6188 11.5874C21.625 11.6142 21.6303 11.6412 21.6352 11.6683C21.6493 11.7421 21.6658 11.8147 21.6844 11.8874C21.7019 11.956 21.7179 12.0242 21.7313 12.0937C21.7481 12.1811 21.7694 12.2671 21.7916 12.3533C21.8214 12.4735 21.8466 12.5944 21.8699 12.716C21.899 12.8673 21.9331 13.0142 21.9774 13.1618C21.9962 13.2272 22.0096 13.2926 22.022 13.3595C22.0326 13.4131 22.0459 13.4657 22.0594 13.5187C22.0769 13.5872 22.0929 13.6555 22.1063 13.7249C22.1235 13.8141 22.1454 13.9018 22.1678 13.9898C22.1827 14.0492 22.1958 14.1088 22.2088 14.1686C22.2206 14.2205 22.2337 14.2721 22.2469 14.3238C22.2681 14.4078 22.2862 14.4918 22.3026 14.5769C22.3137 14.6308 22.327 14.684 22.3406 14.7374C22.3617 14.8199 22.3796 14.9024 22.3956 14.986C22.4074 15.043 22.4213 15.0993 22.4356 15.1558C22.4406 15.1758 22.4457 15.1959 22.4509 15.2165C22.4547 15.2317 22.4586 15.2468 22.4625 15.2624C22.473 15.2626 22.4835 15.2627 22.4944 15.2629C22.6042 15.2645 22.714 15.2664 22.8238 15.2684C22.8647 15.2691 22.9057 15.2698 22.9466 15.2703C23.0056 15.2712 23.0646 15.2723 23.1235 15.2734C23.1417 15.2736 23.1599 15.2738 23.1786 15.2741C23.278 15.2762 23.3621 15.2863 23.4563 15.3187C23.4563 15.3311 23.4563 15.3434 23.4563 15.3562C23.4676 15.358 23.4789 15.3599 23.4905 15.3618C23.5643 15.3856 23.5964 15.4528 23.6391 15.5144C23.6533 15.5334 23.6533 15.5334 23.6679 15.5527C23.7412 15.6578 23.7494 15.7367 23.7375 15.8624C23.7364 15.8789 23.7352 15.8953 23.734 15.9122C23.6964 16.3761 23.558 16.8011 23.3438 17.2124C23.3314 17.2124 23.319 17.2124 23.3063 17.2124C23.3044 17.2228 23.3025 17.2332 23.3006 17.2439C23.273 17.336 23.2091 17.4143 23.1563 17.4937C23.1442 17.5119 23.1321 17.5301 23.1197 17.5488C23.0531 17.6471 23.0531 17.6471 23.025 17.6812C23.0126 17.6812 23.0003 17.6812 22.9875 17.6812C22.9826 17.6922 22.9777 17.7033 22.9727 17.7147C22.9488 17.7584 22.9237 17.7862 22.8879 17.8206C22.8763 17.8319 22.8646 17.8433 22.8526 17.8549C22.8414 17.8656 22.8303 17.8764 22.8188 17.8874C22.8021 17.9041 22.7855 17.9207 22.7684 17.9378C22.7469 17.9593 22.7469 17.9593 22.725 17.9812C22.7115 17.9955 22.698 18.0098 22.684 18.0245C22.65 18.0562 22.65 18.0562 22.6125 18.0562C22.6125 18.0686 22.6125 18.0809 22.6125 18.0937C22.58 18.1208 22.5462 18.1463 22.5117 18.171C22.493 18.1846 22.4743 18.1982 22.4551 18.2122C22.4063 18.2437 22.4063 18.2437 22.3688 18.2437C22.3688 18.2561 22.3688 18.2684 22.3688 18.2812C22.0847 18.4916 21.7286 18.6301 21.3914 18.7253C21.378 18.7291 21.3646 18.7329 21.3507 18.7368C21.1744 18.7848 21.0027 18.812 20.8198 18.8118C20.7926 18.8119 20.7926 18.8119 20.7647 18.8121C20.7265 18.8122 20.6884 18.8122 20.6502 18.8121C20.5926 18.812 20.5351 18.8125 20.4775 18.813C20.2691 18.8136 20.0776 18.8032 19.875 18.7499C19.8591 18.7459 19.8431 18.7419 19.8267 18.7377C19.7874 18.7274 19.7486 18.7161 19.7098 18.7042C19.6963 18.7002 19.6829 18.6961 19.669 18.6919C19.5664 18.6603 19.4669 18.6251 19.3688 18.5812C19.3575 18.5763 19.3462 18.5714 19.3345 18.5663C19.1311 18.4777 18.9494 18.3722 18.7688 18.2437C18.7477 18.229 18.7265 18.2144 18.7054 18.1997C18.5996 18.1252 18.5996 18.1252 18.5625 18.0937C18.5625 18.0813 18.5625 18.0689 18.5625 18.0562C18.5521 18.0519 18.5416 18.0477 18.5309 18.0433C18.4752 18.0117 18.4379 17.9712 18.3938 17.9249C18.3791 17.9102 18.3644 17.8955 18.3492 17.8804C18.333 17.8642 18.3168 17.8479 18.3 17.8312C18.2902 17.8217 18.2804 17.8123 18.2703 17.8025C18.1928 17.727 18.1243 17.6485 18.0598 17.5616C18.0502 17.5488 18.0407 17.536 18.0308 17.5228C17.8338 17.2533 17.6885 16.9679 17.5875 16.6499C17.5778 16.6214 17.568 16.5929 17.5582 16.5644C17.5068 16.4083 17.4693 16.2623 17.4602 16.0974C17.458 16.0476 17.458 16.0476 17.4375 15.9937C17.4322 15.927 17.4323 15.8602 17.4317 15.7933C17.4311 15.7751 17.4306 15.757 17.43 15.7382C17.4288 15.599 17.4539 15.5005 17.5446 15.3932C17.5549 15.3849 17.5652 15.3765 17.5758 15.3679C17.586 15.3592 17.5962 15.3506 17.6067 15.3417C17.7191 15.2719 17.8323 15.2762 17.96 15.2775C17.9794 15.2776 17.9988 15.2776 18.0188 15.2777C18.0805 15.2779 18.1422 15.2784 18.2039 15.2788C18.2459 15.279 18.2878 15.2792 18.3298 15.2793C18.4323 15.2798 18.5349 15.2804 18.6375 15.2812C18.6435 15.2547 18.6494 15.2282 18.6554 15.2017C18.6587 15.1869 18.662 15.1722 18.6654 15.157C18.6823 15.0786 18.696 14.9997 18.7098 14.9207C18.72 14.8644 18.7318 14.8108 18.75 14.7564C18.7725 14.6886 18.7849 14.6202 18.7969 14.5499C18.8089 14.4799 18.821 14.4118 18.8438 14.3443C18.8673 14.273 18.8788 14.202 18.8906 14.1281C18.9058 14.0335 18.9256 13.9471 18.9563 13.8562C18.9664 13.8062 18.9758 13.7564 18.9844 13.7062C18.9999 13.6157 19.021 13.5308 19.05 13.4437C19.0601 13.3937 19.0696 13.3439 19.0781 13.2937C19.0936 13.2032 19.1146 13.1182 19.1438 13.0312C19.153 12.9852 19.1616 12.9391 19.1696 12.8929C19.1909 12.7729 19.218 12.6553 19.2485 12.5373C19.2709 12.4501 19.2882 12.3631 19.3033 12.2744C19.324 12.1637 19.3543 12.0551 19.3829 11.9462C19.4143 11.8249 19.4396 11.7035 19.4608 11.5801C19.4742 11.5046 19.4945 11.435 19.5188 11.3624C19.528 11.3165 19.5366 11.2704 19.5446 11.2241C19.5659 11.1041 19.593 10.9866 19.6235 10.8685C19.6459 10.7813 19.6632 10.6943 19.6783 10.6056C19.6989 10.495 19.7293 10.3863 19.7579 10.2775C19.7893 10.1562 19.8146 10.0347 19.8358 9.9113C19.8492 9.83581 19.8695 9.76626 19.8938 9.69368C19.903 9.64772 19.9116 9.60161 19.9196 9.5554C19.9427 9.42532 19.9728 9.29835 20.0069 9.17073C20.0231 9.10645 20.0342 9.04178 20.0449 8.97636C20.0482 8.95618 20.0515 8.93599 20.055 8.91519C20.0587 8.89217 20.0587 8.89217 20.0625 8.86868C20.0334 8.86885 20.0334 8.86885 20.0037 8.86903C19.5219 8.87185 19.0402 8.8745 18.5585 8.87699C18.3254 8.87819 18.0924 8.87945 17.8594 8.88083C17.6553 8.88205 17.4513 8.88315 17.2472 8.88415C17.14 8.88468 17.0329 8.88524 16.9257 8.88594C16.0523 8.89142 15.1799 8.87839 14.3063 8.86868C14.3063 12.1852 14.3063 15.5017 14.3063 18.9187C15.4757 18.9187 16.6451 18.9187 17.85 18.9187C18.0906 19.0256 18.0906 19.0256 18.15 19.1437C18.1799 19.2859 18.1626 19.4001 18.0903 19.5257C18.067 19.5612 18.0432 19.5964 18.0188 19.6312C17.5855 20.2863 17.4482 21.0484 17.5965 21.8195C17.6217 21.9301 17.6553 22.0389 17.6989 22.1437C17.7371 22.2362 17.7371 22.2362 17.753 22.2784C17.7963 22.3919 17.8474 22.5015 17.8992 22.6113C17.9067 22.627 17.9141 22.6428 17.9218 22.6591C17.9289 22.674 17.936 22.689 17.9433 22.7043C17.9497 22.7178 17.9561 22.7312 17.9627 22.7451C17.9827 22.7856 17.9827 22.7856 18.0188 22.8374C18.0457 22.9646 18.0467 23.062 17.9813 23.1749C17.9426 23.23 17.9426 23.23 17.9063 23.2687C17.8939 23.2687 17.8815 23.2687 17.8688 23.2687C17.8688 23.2811 17.8688 23.2934 17.8688 23.3062C17.7796 23.3589 17.7062 23.3705 17.6047 23.3695C17.5896 23.3696 17.5746 23.3697 17.5591 23.3698C17.5087 23.37 17.4583 23.3698 17.4078 23.3696C17.3713 23.3696 17.3348 23.3697 17.2983 23.3698C17.198 23.3701 17.0976 23.37 16.9973 23.3698C16.8891 23.3697 16.7809 23.3699 16.6726 23.37C16.4606 23.3703 16.2485 23.3702 16.0365 23.37C15.8641 23.3699 15.6917 23.3699 15.5193 23.37C15.4825 23.37 15.4825 23.37 15.445 23.37C15.3952 23.37 15.3453 23.37 15.2955 23.37C14.8414 23.3702 14.3872 23.37 13.9331 23.3697C13.5188 23.3695 13.1046 23.3695 12.6903 23.3698C12.2247 23.3701 11.7592 23.3702 11.2936 23.37C11.2439 23.37 11.1943 23.37 11.1446 23.37C11.1079 23.3699 11.1079 23.3699 11.0705 23.3699C10.8984 23.3699 10.7264 23.37 10.5543 23.3701C10.3444 23.3703 10.1345 23.3702 9.92465 23.3699C9.81761 23.3698 9.71057 23.3697 9.60352 23.3699C9.50542 23.3701 9.40731 23.37 9.30921 23.3697C9.27383 23.3696 9.23845 23.3696 9.20306 23.3698C8.93722 23.3707 8.69868 23.3514 8.45627 23.2312C8.435 23.2227 8.41373 23.2142 8.39182 23.2054C8.25474 23.1429 8.1249 23.0615 8.00627 22.9687C8.00627 22.9563 8.00627 22.9439 8.00627 22.9312C7.98481 22.9236 7.98481 22.9236 7.96291 22.9159C7.91459 22.8946 7.88872 22.8784 7.85627 22.8374C7.85627 22.8251 7.85627 22.8127 7.85627 22.7999C7.8439 22.7999 7.83152 22.7999 7.81877 22.7999C7.72502 22.6973 7.72502 22.6973 7.72502 22.6499C7.71265 22.6499 7.70027 22.6499 7.68752 22.6499C7.49608 22.4172 7.34857 22.1351 7.27502 21.8437C7.26827 21.8191 7.26148 21.7945 7.25466 21.7699C7.21399 21.6199 7.18534 21.4745 7.18127 21.3187C7.18089 21.3045 7.1805 21.2904 7.18011 21.2758C7.16659 20.6973 7.2755 20.1427 7.63127 19.6687C7.64365 19.6687 7.65602 19.6687 7.66877 19.6687C7.67378 19.6578 7.67878 19.6468 7.68393 19.6356C7.8067 19.4053 8.05313 19.257 8.26877 19.1249C8.28482 19.1148 8.30087 19.1047 8.3174 19.0942C8.39669 19.0493 8.48292 19.0234 8.56877 18.9937C8.58209 18.9886 8.59541 18.9836 8.60913 18.9784C8.88905 18.8758 9.17473 18.8725 9.46877 18.8716C9.50954 18.8713 9.55031 18.8709 9.59108 18.8706C9.69736 18.8697 9.80364 18.8691 9.90992 18.8686C10.0188 18.8681 10.1276 18.8672 10.2365 18.8663C10.4493 18.8647 10.6622 18.8635 10.875 18.8624C10.8753 17.9153 10.8756 16.9681 10.8758 16.021C10.8758 16 10.8758 16 10.8758 15.9785C10.8759 15.6742 10.8759 15.3698 10.876 15.0655C10.876 14.9162 10.876 14.767 10.8761 14.6177C10.8761 14.6028 10.8761 14.588 10.8761 14.5727C10.8761 14.0908 10.8763 13.609 10.8765 13.1271C10.8766 12.6322 10.8767 12.1372 10.8768 11.6423C10.8768 11.5724 10.8768 11.5026 10.8768 11.4328C10.8768 11.4122 10.8768 11.4122 10.8768 11.3911C10.8768 11.1694 10.8769 10.9477 10.877 10.726C10.8771 10.5034 10.8772 10.2808 10.8772 10.0582C10.8771 9.93753 10.8772 9.8168 10.8773 9.69608C10.8773 9.58576 10.8774 9.47544 10.8773 9.36512C10.8773 9.32502 10.8773 9.28492 10.8774 9.24482C10.8774 9.19069 10.8774 9.13656 10.8773 9.08244C10.8774 9.05859 10.8774 9.05859 10.8775 9.03427C10.884 8.96454 10.884 8.96454 10.8563 8.90618C10.8285 8.90435 10.8005 8.90381 10.7727 8.9038C10.7546 8.90375 10.7365 8.90369 10.7179 8.90364C10.688 8.9037 10.688 8.9037 10.6574 8.90375C10.6365 8.90372 10.6156 8.90369 10.594 8.90365C10.5245 8.90357 10.4549 8.90363 10.3854 8.90369C10.3373 8.90368 10.2891 8.90366 10.241 8.90364C10.1399 8.90361 10.0388 8.90365 9.93773 8.90374C9.82088 8.90384 9.70403 8.9038 9.58718 8.9037C9.47485 8.90361 9.36251 8.90362 9.25018 8.90367C9.20235 8.90368 9.15453 8.90367 9.10671 8.90362C9.03986 8.90358 8.97302 8.90365 8.90618 8.90375C8.88631 8.90372 8.86645 8.90368 8.84598 8.90364C8.82776 8.90369 8.80955 8.90374 8.79077 8.9038C8.76706 8.90381 8.76706 8.90381 8.74287 8.90382C8.70103 8.90612 8.66543 8.91439 8.62502 8.92493C8.57817 8.92669 8.53128 8.92737 8.4844 8.92727C8.45984 8.92732 8.43528 8.92737 8.40998 8.92742C8.34377 8.92493 8.34377 8.92493 8.30692 8.91554C8.26716 8.90578 8.23308 8.90385 8.19219 8.90387C8.17702 8.90384 8.16185 8.9038 8.14622 8.90376C8.12966 8.90381 8.1131 8.90387 8.09603 8.90393C8.07836 8.90391 8.06068 8.90389 8.04247 8.90388C7.98311 8.90385 7.92375 8.90395 7.86438 8.90405C7.82189 8.90406 7.77939 8.90405 7.73689 8.90404C7.62138 8.90404 7.50586 8.90415 7.39035 8.90428C7.26968 8.9044 7.14901 8.90441 7.02835 8.90443C6.82577 8.90448 6.62319 8.9046 6.42062 8.90477C6.21196 8.90494 6.00331 8.90507 5.79465 8.90515C5.78179 8.90516 5.76893 8.90516 5.75568 8.90517C5.69115 8.90519 5.62663 8.90521 5.56211 8.90524C5.02683 8.90543 4.49155 8.90576 3.95627 8.90618C3.96525 8.92808 3.96525 8.92808 3.9744 8.95041C3.99232 8.99621 4.00278 9.03723 4.01135 9.08548C4.02498 9.15772 4.04116 9.22871 4.0594 9.29993C4.09854 9.45395 4.12723 9.6092 4.15381 9.76582C4.15859 9.80563 4.15859 9.80563 4.18127 9.82493C4.18748 9.85133 4.19277 9.87795 4.19768 9.90462C4.21242 9.98164 4.22899 10.058 4.2469 10.1343C4.26376 10.2064 4.27977 10.2784 4.29377 10.3511C4.31097 10.4395 4.33304 10.5264 4.3553 10.6136C4.37108 10.6781 4.38377 10.7429 4.39631 10.8081C4.4075 10.8621 4.42078 10.9153 4.4344 10.9687C4.47354 11.1227 4.50223 11.2779 4.52881 11.4346C4.53359 11.4744 4.53359 11.4744 4.55627 11.4937C4.56248 11.5201 4.56777 11.5467 4.57268 11.5734C4.58742 11.6504 4.60399 11.7267 4.6219 11.8031C4.63876 11.8751 4.65477 11.9472 4.66877 12.0199C4.68597 12.1083 4.70804 12.1951 4.7303 12.2824C4.74608 12.3469 4.75877 12.4117 4.77131 12.4769C4.7825 12.5308 4.79578 12.584 4.8094 12.6374C4.84854 12.7914 4.87723 12.9467 4.90381 13.1033C4.90859 13.1431 4.90859 13.1431 4.93127 13.1624C4.93772 13.1895 4.94324 13.2167 4.94834 13.244C4.96885 13.3508 4.99139 13.457 5.01448 13.5632C5.01859 13.5822 5.02271 13.6011 5.02695 13.6207C5.05177 13.7342 5.0782 13.8471 5.10727 13.9597C5.1225 14.0213 5.13433 14.0833 5.14631 14.1456C5.1575 14.1996 5.17078 14.2528 5.1844 14.3062C5.22354 14.4602 5.25223 14.6154 5.27881 14.7721C5.28359 14.8119 5.28359 14.8119 5.30627 14.8312C5.31248 14.8576 5.31777 14.8842 5.32268 14.9109C5.34183 15.0114 5.36508 15.1107 5.38904 15.2102C5.40002 15.2624 5.40002 15.2624 5.40002 15.3187C5.41148 15.3186 5.42293 15.3184 5.43473 15.3183C5.55427 15.3171 5.67381 15.3162 5.79336 15.3156C5.83793 15.3153 5.8825 15.3149 5.92708 15.3144C5.99126 15.3138 6.05544 15.3134 6.11963 15.3132C6.13946 15.3129 6.15929 15.3126 6.17972 15.3123C6.29109 15.3123 6.37008 15.3222 6.46877 15.3749C6.46877 15.3873 6.46877 15.3997 6.46877 15.4124C6.4796 15.4167 6.49043 15.4209 6.50158 15.4253C6.55696 15.4576 6.58401 15.4897 6.61877 15.5437C6.67917 15.8173 6.64909 16.1604 6.56135 16.4253C6.54175 16.4823 6.54175 16.4823 6.53418 16.5485C6.52595 16.6059 6.5139 16.6487 6.49104 16.7015C6.46361 16.7665 6.43883 16.8316 6.41604 16.8984C6.36998 17.0273 6.30679 17.1474 6.24377 17.2687C6.2314 17.2687 6.21902 17.2687 6.20627 17.2687C6.20352 17.2842 6.20352 17.2842 6.20071 17.3C6.17294 17.3921 6.1092 17.4705 6.05627 17.5499C6.04231 17.571 6.04231 17.571 6.02807 17.5926C6.00734 17.6229 5.98508 17.6522 5.96252 17.6812C5.95015 17.6812 5.93777 17.6812 5.92502 17.6812C5.91864 17.6964 5.91864 17.6964 5.91213 17.712C5.88016 17.7694 5.83826 17.8151 5.79377 17.8628C5.78459 17.8727 5.7754 17.8826 5.76594 17.8928C5.62208 18.0461 5.46525 18.1867 5.28752 18.2999C5.27515 18.2999 5.26277 18.2999 5.25002 18.2999C5.25002 18.3123 5.25002 18.3247 5.25002 18.3374C5.23223 18.3475 5.21444 18.3575 5.19612 18.3679C5.15547 18.391 5.11532 18.4146 5.07556 18.4392C4.90869 18.5423 4.73875 18.617 4.55202 18.6768C4.50859 18.6909 4.46632 18.7062 4.42385 18.723C3.82078 18.9522 3.01043 18.936 2.41877 18.6738C2.40637 18.6677 2.39397 18.6617 2.3812 18.6554C2.33863 18.635 2.29528 18.6181 2.25119 18.6011C2.10419 18.5426 1.97002 18.4726 1.83972 18.3829C1.78442 18.3457 1.72709 18.3134 1.66877 18.2812C1.66877 18.2688 1.66877 18.2564 1.66877 18.2437C1.65536 18.239 1.64194 18.2344 1.62812 18.2296C1.56913 18.2036 1.52556 18.1716 1.47541 18.1312C1.45886 18.118 1.4423 18.1049 1.42524 18.0913C1.41279 18.0797 1.40035 18.0681 1.38752 18.0562C1.38752 18.0438 1.38752 18.0314 1.38752 18.0187C1.37747 18.0148 1.36741 18.0109 1.35705 18.007C1.29528 17.9712 1.24514 17.924 1.20002 17.8687C1.20002 17.8563 1.20002 17.8439 1.20002 17.8312C1.18765 17.8312 1.17527 17.8312 1.16252 17.8312C1.06877 17.7285 1.06877 17.7285 1.06877 17.6812C1.0564 17.6812 1.04402 17.6812 1.03127 17.6812C0.997175 17.6361 0.965315 17.591 0.934006 17.5441C0.920073 17.5234 0.920073 17.5234 0.905858 17.5022C0.887249 17.4745 0.868701 17.4467 0.850217 17.4189C0.829652 17.3881 0.808649 17.3576 0.787522 17.3272C0.657332 17.1346 0.557279 16.9101 0.497116 16.6855C0.485065 16.6408 0.467404 16.5991 0.450022 16.5562C0.385911 16.3425 0.352715 16.1328 0.342209 15.9105C0.341374 15.8934 0.340538 15.8763 0.339678 15.8587C0.333675 15.6972 0.340874 15.5588 0.412522 15.4124C0.424897 15.4124 0.437272 15.4124 0.450022 15.4124C0.455823 15.3962 0.455823 15.3962 0.46174 15.3796C0.497524 15.3211 0.537376 15.2883 0.600022 15.2624C0.674876 15.2522 0.74886 15.2537 0.824289 15.2551C0.856512 15.2553 0.856512 15.2553 0.889386 15.2554C0.957783 15.2558 1.02616 15.2568 1.09455 15.2577C1.14101 15.2581 1.18747 15.2585 1.23393 15.2588C1.34764 15.2596 1.46133 15.2608 1.57502 15.2624C1.57865 15.2423 1.58227 15.2222 1.58601 15.2014C1.59094 15.1745 1.59587 15.1476 1.6008 15.1206C1.60317 15.1074 1.60554 15.0942 1.60798 15.0806C1.62362 14.9958 1.64379 14.9139 1.66877 14.8312C1.70493 14.7108 1.72817 14.591 1.74919 14.4673C1.76252 14.3999 1.76252 14.3999 1.78113 14.3449C1.80464 14.2734 1.81629 14.2022 1.82815 14.1281C1.84326 14.0335 1.86314 13.9471 1.89377 13.8562C1.90385 13.8062 1.9133 13.7564 1.9219 13.7062C1.93737 13.6157 1.95848 13.5308 1.98752 13.4437C1.9976 13.3937 2.00705 13.3439 2.01565 13.2937C2.03112 13.2032 2.0521 13.1182 2.08127 13.0312C2.09055 12.9852 2.09909 12.9391 2.10705 12.8929C2.12842 12.7729 2.1555 12.6553 2.18603 12.5373C2.20839 12.4501 2.22568 12.3631 2.24079 12.2744C2.26145 12.1637 2.29176 12.0551 2.32041 11.9462C2.35176 11.8249 2.37708 11.7035 2.39834 11.5801C2.4117 11.5046 2.43205 11.435 2.45627 11.3624C2.46555 11.3165 2.47409 11.2704 2.48205 11.2241C2.50342 11.1041 2.5305 10.9866 2.56103 10.8685C2.58339 10.7813 2.60068 10.6943 2.61579 10.6056C2.63645 10.495 2.66676 10.3863 2.69541 10.2775C2.72676 10.1562 2.75208 10.0347 2.77334 9.9113C2.7867 9.83581 2.80705 9.76626 2.83127 9.69368C2.84055 9.64772 2.84909 9.60161 2.85705 9.5554C2.87839 9.4355 2.90538 9.31807 2.93595 9.20021C2.95931 9.10925 2.97765 9.01834 2.99262 8.92566C3.00002 8.88743 3.00002 8.88743 3.01877 8.84993C3.00176 8.84982 2.98476 8.84971 2.96723 8.8496C2.80642 8.84851 2.6456 8.84716 2.48479 8.84551C2.40213 8.84467 2.31947 8.84394 2.23681 8.84343C2.15693 8.84294 2.07706 8.84219 1.99718 8.84125C1.96681 8.84093 1.93644 8.84072 1.90607 8.8406C1.50774 8.8389 1.50774 8.8389 1.38752 8.71868C1.38752 8.70631 1.38752 8.69393 1.38752 8.68118C1.37515 8.68118 1.36277 8.68118 1.35002 8.68118C1.27544 8.57241 1.27689 8.45295 1.29377 8.32493C1.31689 8.26667 1.34698 8.2224 1.38752 8.17493C1.39874 8.16062 1.40995 8.14631 1.42151 8.13157C1.55391 8.02943 1.70004 8.03578 1.85977 8.03692C1.8848 8.03689 1.90983 8.03684 1.93487 8.03677C2.00337 8.03665 2.07186 8.03687 2.14036 8.03715C2.21434 8.03739 2.28831 8.03731 2.36229 8.03727C2.49036 8.03724 2.61843 8.03742 2.7465 8.03773C2.93167 8.03819 3.11684 8.03834 3.30201 8.03841C3.60245 8.03853 3.90289 8.0389 4.20334 8.03944C4.49515 8.03995 4.78695 8.04035 5.07876 8.04059C5.09676 8.04061 5.11475 8.04062 5.13329 8.04064C5.22357 8.04071 5.31384 8.04078 5.40412 8.04085C6.15275 8.04143 6.90139 8.04242 7.65002 8.04368C7.65001 8.0326 7.64999 8.02153 7.64998 8.01011C7.64914 7.35329 7.6485 6.69646 7.64811 6.03963C7.64806 5.96073 7.64801 5.88183 7.64796 5.80293C7.64795 5.77937 7.64795 5.77937 7.64793 5.75533C7.64777 5.50114 7.64747 5.24695 7.64713 4.99276C7.64678 4.73185 7.64657 4.47095 7.64649 4.21004C7.64644 4.0491 7.64628 3.88817 7.64597 3.72723C7.64578 3.61681 7.64572 3.50638 7.64577 3.39595C7.64579 3.33229 7.64573 3.26862 7.64555 3.20495C7.64537 3.1358 7.64541 3.06665 7.64551 2.9975C7.64535 2.96757 7.64535 2.96757 7.64518 2.93703C7.6458 2.78269 7.65422 2.62598 7.73674 2.49134C7.7451 2.47737 7.75347 2.4634 7.76208 2.449C7.76842 2.439 7.77475 2.42899 7.78127 2.41868C7.79365 2.41868 7.80602 2.41868 7.81877 2.41868C7.82312 2.40788 7.82747 2.39707 7.83196 2.38594C7.89654 2.27369 8.03871 2.18552 8.15627 2.13743C8.17194 2.13093 8.18761 2.12443 8.20376 2.11774C8.29026 2.09405 8.37125 2.09415 8.46055 2.09395C8.4891 2.09367 8.4891 2.09367 8.51823 2.09338C8.58093 2.0928 8.64362 2.09248 8.70632 2.09217C8.74988 2.09182 8.79344 2.09145 8.837 2.09107C8.95148 2.0901 9.06596 2.08936 9.18044 2.08866C9.29733 2.08791 9.41422 2.08695 9.5311 2.08601C9.76032 2.0842 9.98955 2.08262 10.2188 2.08118C10.2197 2.06714 10.2206 2.05309 10.2216 2.03862C10.2259 1.97443 10.2305 1.91025 10.235 1.84607C10.2372 1.81293 10.2372 1.81293 10.2394 1.77913C10.2586 1.51498 10.3454 1.34003 10.5 1.12493C10.5124 1.10637 10.5248 1.08781 10.5375 1.06868C10.5499 1.06868 10.5623 1.06868 10.575 1.06868C10.5812 1.05012 10.5874 1.03156 10.5938 1.01243C10.6061 1.01243 10.6185 1.01243 10.6313 1.01243C10.6313 1.00006 10.6313 0.98768 10.6313 0.97493C10.8922 0.771042 11.1499 0.671561 11.4806 0.672504ZM11.1188 1.57493C10.9934 1.71024 11.0042 1.8538 11.0038 2.03064C11.0005 2.07963 11.0005 2.07963 11.025 2.09993C11.0528 2.10172 11.0806 2.10222 11.1084 2.10219C11.1354 2.10222 11.1354 2.10222 11.163 2.10226C11.1929 2.10216 11.1929 2.10216 11.2234 2.10206C11.2442 2.10206 11.2651 2.10206 11.2866 2.10207C11.3558 2.10205 11.4251 2.10191 11.4944 2.10176C11.5423 2.10173 11.5902 2.1017 11.6381 2.10168C11.7515 2.10162 11.865 2.10147 11.9784 2.10128C12.1075 2.10107 12.2366 2.10097 12.3657 2.10087C12.6313 2.10068 12.8969 2.10035 13.1625 2.09993C13.1651 2.04365 13.1669 1.98749 13.1684 1.93118C13.1692 1.91545 13.17 1.89971 13.1708 1.8835C13.1731 1.76338 13.1455 1.6865 13.0688 1.59368C12.9382 1.46508 12.8288 1.44137 12.6495 1.44125C12.6361 1.44122 12.6228 1.44119 12.609 1.44115C12.5652 1.44107 12.5214 1.44113 12.4776 1.44119C12.447 1.44118 12.4164 1.44116 12.3857 1.44114C12.3216 1.44111 12.2575 1.44115 12.1934 1.44124C12.1115 1.44134 12.0296 1.44128 11.9477 1.44117C11.8845 1.4411 11.8212 1.44112 11.758 1.44117C11.7278 1.44118 11.6976 1.44117 11.6674 1.44112C11.6251 1.44108 11.5828 1.44115 11.5405 1.44125C11.5165 1.44127 11.4925 1.44128 11.4677 1.4413C11.3148 1.44668 11.2297 1.47141 11.1188 1.57493ZM11.8688 4.46243C11.8688 4.48099 11.8688 4.49956 11.8688 4.51868C11.8564 4.51868 11.844 4.51868 11.8313 4.51868C11.7914 4.65872 11.8018 4.7841 11.8688 4.91243C11.8811 4.91243 11.8935 4.91243 11.9063 4.91243C11.9063 4.92481 11.9063 4.93718 11.9063 4.94993C12.0088 5.05247 12.1664 5.04881 12.3019 5.04972C12.3222 5.04966 12.3424 5.0496 12.3633 5.04954C12.3834 5.04984 12.4035 5.05014 12.4242 5.05046C12.5761 5.05055 12.7214 5.03977 12.8438 4.9429C12.931 4.82839 12.9307 4.71422 12.9188 4.57493C12.8869 4.47759 12.8346 4.42563 12.75 4.36868C12.6239 4.34111 12.4942 4.34648 12.3656 4.34641C12.3432 4.34619 12.3207 4.34596 12.2976 4.34572C12.1302 4.34544 12.0041 4.35351 11.8688 4.46243ZM8.41877 5.86868C8.4179 6.15129 8.41723 6.43391 8.41683 6.71652C8.41664 6.84774 8.41637 6.97896 8.41594 7.11018C8.41553 7.23673 8.41531 7.36329 8.41521 7.48985C8.41514 7.53821 8.41501 7.58657 8.41481 7.63493C8.41454 7.7025 8.4145 7.77007 8.41451 7.83764C8.41438 7.85777 8.41425 7.87791 8.41411 7.89865C8.41416 7.91703 8.41421 7.93541 8.41426 7.95434C8.41423 7.97033 8.41419 7.98632 8.41416 8.00279C8.41623 8.04917 8.41623 8.04917 8.45627 8.09993C8.51259 8.10844 8.51259 8.10844 8.58036 8.10685C8.5998 8.10695 8.5998 8.10695 8.61963 8.10705C8.66349 8.1072 8.70734 8.10694 8.75121 8.10669C8.78279 8.10672 8.81438 8.10677 8.84597 8.10684C8.93311 8.10697 9.02024 8.10674 9.10738 8.10646C9.20122 8.10622 9.29506 8.1063 9.3889 8.10634C9.55159 8.10637 9.71429 8.10619 9.87699 8.10588C10.1122 8.10542 10.3475 8.10527 10.5827 8.1052C10.9643 8.10508 11.3459 8.10471 11.7275 8.10417C12.0983 8.10366 12.4691 8.10326 12.8399 8.10302C12.8627 8.10301 12.8856 8.10299 12.9091 8.10298C13.0237 8.1029 13.1383 8.10283 13.2529 8.10276C14.204 8.10218 15.1551 8.10119 16.1063 8.09993C16.1291 8.05437 16.1273 8.02556 16.1273 7.97464C16.1273 7.95613 16.1273 7.93762 16.1274 7.91855C16.1273 7.89817 16.1272 7.87779 16.1272 7.85679C16.1272 7.82469 16.1272 7.82469 16.1272 7.79194C16.1271 7.72092 16.127 7.6499 16.1269 7.57889C16.1268 7.52975 16.1268 7.48062 16.1268 7.43149C16.1267 7.31522 16.1266 7.19895 16.1264 7.08267C16.1262 6.95031 16.1261 6.81795 16.126 6.68559C16.1258 6.41329 16.1254 6.14098 16.125 5.86868C16.0621 5.84771 16.0358 5.85228 15.9715 5.86399C15.9415 5.86936 15.9415 5.86936 15.9109 5.87483C15.8777 5.88107 15.8777 5.88107 15.8438 5.88743C15.8195 5.89197 15.7952 5.89652 15.7702 5.9012C15.7317 5.90841 15.6933 5.91565 15.6549 5.92293C15.5626 5.94038 15.4702 5.95612 15.3775 5.97115C15.3201 5.98095 15.263 5.9918 15.2058 6.00286C15.0956 6.02417 14.9868 6.0436 14.8746 6.05039C14.8282 6.05544 14.8282 6.05544 14.7728 6.07369C14.6681 6.1049 14.5594 6.11457 14.4514 6.12847C14.3791 6.13817 14.3109 6.14861 14.2406 6.16868C14.1377 6.1981 14.0324 6.20857 13.9264 6.22222C13.831 6.23501 13.7424 6.25352 13.65 6.28118C13.6201 6.28558 13.59 6.28924 13.5598 6.29173C13.4995 6.29677 13.4995 6.29677 13.4438 6.31868C13.4149 6.32206 13.386 6.32469 13.3571 6.32688C13.2837 6.33361 13.2158 6.34571 13.1448 6.36482C13.0386 6.39268 12.932 6.41224 12.8227 6.42181C12.7526 6.42802 12.6883 6.44066 12.6204 6.4585C12.3424 6.53085 12.047 6.53503 11.7717 6.45037C11.6893 6.4283 11.6075 6.41525 11.5231 6.40306C11.4375 6.39063 11.353 6.3783 11.2694 6.35618C11.1665 6.32919 11.0615 6.317 10.9563 6.30264C10.8637 6.28948 10.7776 6.26963 10.6875 6.24368C10.6288 6.23273 10.5697 6.22411 10.5106 6.21556C10.4229 6.20283 10.3366 6.18977 10.2508 6.16751C10.1954 6.15351 10.1464 6.14447 10.0899 6.14056C9.97056 6.13011 9.85528 6.10856 9.74065 6.07376C9.67186 6.05533 9.60729 6.04875 9.53659 6.04263C9.43364 6.03172 9.33338 6.01006 9.2344 5.98001C9.16561 5.96158 9.10104 5.955 9.03034 5.94888C8.92778 5.93801 8.82779 5.9167 8.72932 5.88626C8.57235 5.84361 8.57235 5.84361 8.41877 5.86868ZM3.48752 10.2749C3.44512 10.4 3.41758 10.5254 3.39547 10.6553C3.38571 10.7114 3.37436 10.7644 3.35635 10.8184C3.33376 10.8862 3.32142 10.9547 3.3094 11.0249C3.29392 11.1154 3.27281 11.2003 3.24377 11.2874C3.23369 11.3374 3.22424 11.3872 3.21565 11.4374C3.20017 11.5279 3.17906 11.6128 3.15002 11.6999C3.13994 11.7499 3.13049 11.7997 3.1219 11.8499C3.10642 11.9404 3.08531 12.0253 3.05627 12.1124C3.04619 12.1624 3.03674 12.2122 3.02815 12.2624C3.01267 12.3529 2.99156 12.4378 2.96252 12.5249C2.95244 12.5749 2.94299 12.6247 2.9344 12.6749C2.91893 12.7654 2.89809 12.8504 2.86877 12.9374C2.86028 12.9795 2.85254 13.0217 2.84533 13.064C2.80941 13.2655 2.76102 13.4642 2.71435 13.6634C2.69232 13.758 2.671 13.8528 2.64963 13.9476C2.61421 14.1041 2.57696 14.2601 2.53611 14.4153C2.50566 14.533 2.4814 14.651 2.46006 14.7706C2.44048 14.8777 2.41487 14.9827 2.38633 15.0878C2.36808 15.1567 2.36252 15.2083 2.36252 15.2812C3.10502 15.2812 3.84752 15.2812 4.61252 15.2812C4.63689 15.2081 4.62 15.175 4.59729 15.1019C4.56938 15.0087 4.54577 14.9172 4.52807 14.8217C4.5174 14.768 4.50419 14.7154 4.49065 14.6624C4.46931 14.5788 4.45128 14.4952 4.43498 14.4105C4.4238 14.3565 4.41052 14.3033 4.3969 14.2499C4.37556 14.1663 4.35753 14.0827 4.34123 13.998C4.33005 13.944 4.31677 13.8908 4.30315 13.8374C4.28181 13.7538 4.26378 13.6702 4.24748 13.5855C4.2363 13.5315 4.22302 13.4783 4.2094 13.4249C4.18806 13.3413 4.17003 13.2577 4.15373 13.173C4.14255 13.119 4.12927 13.0658 4.11565 13.0124C4.09431 12.9288 4.07628 12.8452 4.05998 12.7605C4.0488 12.7065 4.03552 12.6533 4.0219 12.5999C4.00056 12.5163 3.98253 12.4327 3.96623 12.348C3.95505 12.294 3.94177 12.2408 3.92815 12.1874C3.90681 12.1038 3.88878 12.0202 3.87248 11.9355C3.8613 11.8815 3.84802 11.8283 3.8344 11.7749C3.81306 11.6913 3.79503 11.6077 3.77873 11.523C3.76755 11.469 3.75427 11.4158 3.74065 11.3624C3.71931 11.2788 3.70128 11.1952 3.68498 11.1105C3.6738 11.0565 3.66052 11.0033 3.6469 10.9499C3.60775 10.7959 3.57907 10.6407 3.55249 10.484C3.5477 10.4442 3.5477 10.4442 3.52502 10.4249C3.5165 10.3752 3.51185 10.3251 3.50627 10.2749C3.50008 10.2749 3.4939 10.2749 3.48752 10.2749ZM20.4938 10.2749C20.4911 10.2993 20.4884 10.3237 20.4856 10.3488C20.4774 10.4226 20.4774 10.4226 20.4563 10.4437C20.4501 10.4736 20.4448 10.5037 20.4399 10.5339C20.4166 10.6674 20.3829 10.7976 20.3484 10.9286C20.317 11.0499 20.2917 11.1714 20.2705 11.2948C20.2607 11.3501 20.2492 11.4024 20.2313 11.4557C20.2088 11.5236 20.1964 11.5921 20.1844 11.6624C20.1689 11.7529 20.1478 11.8378 20.1188 11.9249C20.1087 11.9749 20.0992 12.0247 20.0906 12.0749C20.0752 12.1654 20.0541 12.2503 20.025 12.3374C20.0149 12.3874 20.0055 12.4372 19.9969 12.4874C19.9814 12.5779 19.9603 12.6628 19.9313 12.7499C19.9212 12.7999 19.9117 12.8497 19.9031 12.8999C19.8877 12.9904 19.8666 13.0753 19.8375 13.1624C19.8274 13.2124 19.818 13.2622 19.8094 13.3124C19.7939 13.4029 19.7728 13.4878 19.7438 13.5749C19.7337 13.6249 19.7242 13.6747 19.7156 13.7249C19.7002 13.8154 19.6791 13.9003 19.65 13.9874C19.6399 14.0374 19.6305 14.0872 19.6219 14.1374C19.6064 14.2279 19.5853 14.3128 19.5563 14.3999C19.5462 14.4499 19.5367 14.4997 19.5281 14.5499C19.5127 14.6404 19.4916 14.7253 19.4625 14.8124C19.4524 14.8616 19.443 14.9106 19.4344 14.9601C19.4197 15.0424 19.4046 15.1242 19.3828 15.205C19.3759 15.2334 19.3759 15.2334 19.3688 15.2624C19.3875 15.2853 19.3875 15.2853 19.425 15.2835C19.4498 15.2835 19.4498 15.2835 19.4752 15.2834C19.5036 15.2835 19.5036 15.2835 19.5326 15.2835C19.5536 15.2834 19.5746 15.2834 19.5962 15.2833C19.6291 15.2833 19.6291 15.2833 19.6627 15.2833C19.7231 15.2833 19.7834 15.2832 19.8438 15.2831C19.9068 15.283 19.9698 15.283 20.0328 15.2829C20.1522 15.2829 20.2716 15.2827 20.391 15.2825C20.5269 15.2823 20.6628 15.2822 20.7987 15.2821C21.0783 15.2819 21.3579 15.2816 21.6375 15.2812C21.6141 15.1153 21.5799 14.9548 21.5385 14.7924C21.5228 14.7283 21.51 14.664 21.4975 14.5992C21.4859 14.5419 21.4727 14.485 21.4594 14.4281C21.4425 14.356 21.4265 14.284 21.4125 14.2113C21.3953 14.1229 21.3733 14.036 21.351 13.9488C21.3352 13.8842 21.3225 13.8194 21.31 13.7542C21.2988 13.7003 21.2855 13.6471 21.2719 13.5937C21.2506 13.5101 21.2325 13.4265 21.2162 13.3417C21.205 13.2878 21.1918 13.2346 21.1781 13.1812C21.1607 13.1127 21.1446 13.0444 21.1313 12.9749C21.1187 12.9093 21.1036 12.845 21.0867 12.7804C21.0606 12.6783 21.04 12.5756 21.0199 12.4722C20.9934 12.3357 20.9613 12.2028 20.9239 12.0689C20.8983 11.969 20.8807 11.8682 20.8634 11.7667C20.8509 11.7044 20.833 11.6474 20.8125 11.5874C20.8061 11.5437 20.7998 11.5 20.7938 11.4562C20.7876 11.45 20.7814 11.4438 20.775 11.4374C20.7688 11.4106 20.7635 11.3836 20.7586 11.3566C20.7445 11.2828 20.728 11.2102 20.7094 11.1374C20.6881 11.0538 20.67 10.9702 20.6537 10.8855C20.6386 10.8123 20.6195 10.7402 20.6011 10.6678C20.5849 10.6018 20.5717 10.5354 20.5589 10.4687C20.5457 10.4035 20.5292 10.3393 20.5125 10.2749C20.5063 10.2749 20.5001 10.2749 20.4938 10.2749Z" fill="#1C085A"/>
</g>
<defs>
<clipPath id="clip0_1150_13861">
<rect width="24" height="24" fill="white"/>
</clipPath>
</defs>
</svg>
