<?xml version="1.0" encoding="UTF-8"?>
<!-- Generator: visioncortex VTracer 0.6.2 -->
<svg version="1.1" xmlns="http://www.w3.org/2000/svg" width="1280" height="1280">
<path d="M0 0 C0.77529053 -0.00175232 1.55058105 -0.00350464 2.34936523 -0.00531006 C4.88210366 -0.00966866 7.41477078 -0.00681159 9.94750977 -0.00341797 C11.72673048 -0.0040928 13.50595111 -0.00506431 15.28517151 -0.00631714 C19.00278608 -0.00778606 22.72037653 -0.00566579 26.43798828 -0.00097656 C31.17972711 0.00471605 35.92140927 0.00143953 40.66314602 -0.00454903 C44.33421752 -0.00817999 48.00527581 -0.00700437 51.67634773 -0.00442123 C53.42367624 -0.00375875 55.17100599 -0.0045564 56.91833305 -0.00690079 C79.83422156 -0.03090286 96.82617995 3.24425166 113.82641602 19.94189453 C120.70141602 27.0633568 120.70141602 27.0633568 120.70141602 31.12939453 C121.36141602 31.12939453 122.02141602 31.12939453 122.70141602 31.12939453 C123.66379637 33.16915667 124.62114129 35.21129499 125.57641602 37.25439453 C126.37692383 38.95982422 126.37692383 38.95982422 127.19360352 40.69970703 C129.67123446 46.33535462 130.97309007 51.09081978 131.32641602 57.25439453 C131.40118164 58.45322266 131.47594727 59.65205078 131.55297852 60.88720703 C131.71020021 64.39084078 131.71636653 67.88761457 131.71069336 71.39453125 C131.70868423 73.00773758 131.70868423 73.00773758 131.70663452 74.65353394 C131.70405136 75.87908493 131.70405136 75.87908493 131.70141602 77.12939453 C132.32610716 77.13178288 132.9507983 77.13417124 133.59441948 77.13663197 C148.8280372 77.19589091 164.06147959 77.27151014 179.29491997 77.36510944 C186.66184936 77.40998398 194.02873132 77.44941762 201.39575195 77.47583008 C207.82041758 77.49887802 214.24493203 77.5323512 220.66947758 77.57809609 C224.06801314 77.60193728 227.4663998 77.62072538 230.86501694 77.62700844 C234.66861805 77.63666708 238.47167909 77.66474939 242.27514648 77.69702148 C243.38933456 77.6955864 244.50352264 77.69415131 245.651474 77.69267273 C259.11460797 77.85363845 268.61761816 82.14332757 278.32641602 91.44189453 C280.70141602 94.12939453 280.70141602 94.12939453 280.70141602 96.12939453 C281.36141602 96.12939453 282.02141602 96.12939453 282.70141602 96.12939453 C288.49580775 103.93922686 289.13771543 112.6768108 289.06217957 122.0693512 C289.06474284 123.24493699 289.06730611 124.42052279 289.06994706 125.6317324 C289.07401528 128.87238446 289.06471185 132.11267125 289.04961288 135.35328019 C289.03660211 138.85622164 289.04104552 142.35914748 289.0433197 145.86210632 C289.04488927 151.92377776 289.03551334 157.98535199 289.01860619 164.04699898 C288.9941776 172.81100018 288.98640698 181.57495459 288.98264221 190.33898615 C288.97608377 204.55959486 288.95613912 218.7801518 288.92773438 233.00073242 C288.90017807 246.81095115 288.87895218 260.6211558 288.86621094 274.43139648 C288.86542277 275.28331271 288.8646346 276.13522893 288.86382254 277.0129608 C288.8599073 281.28696938 288.85611621 285.56097806 288.85238683 289.83498681 C288.82130984 325.26649294 288.76849062 360.69793895 288.70141602 396.12939453 C289.57604476 396.12597705 289.57604476 396.12597705 290.46834278 396.12249053 C325.03130482 395.98820473 359.59421474 395.88526654 394.15738225 395.82300255 C398.30796556 395.81549837 402.45854834 395.80773243 406.60913086 395.79980469 C407.43543267 395.79823082 408.26173448 395.79665696 409.11307573 395.79503541 C422.49022992 395.76893172 435.8672293 395.72162662 449.24429166 395.66647775 C462.97171128 395.61035674 476.69904985 395.57703934 490.42657948 395.56486356 C498.89641754 395.55663323 507.36581804 395.53064471 515.8355214 395.48189573 C521.64454187 395.45016518 527.45333634 395.44059722 533.26243716 395.44838627 C536.61368937 395.4522274 539.9635617 395.44308103 543.3147831 395.41416168 C546.95159491 395.38431529 550.58653366 395.39148355 554.22338867 395.40786743 C555.27787862 395.39039038 556.33236856 395.37291333 557.41881275 395.35490668 C564.53189817 395.44154256 568.62392851 397.12253775 573.70141602 402.12939453 C577.59136175 406.33138114 579.47320225 410.00311497 579.84985352 415.78173828 C579.54849224 420.54800475 577.82100888 424.89020881 575.70141602 429.12939453 C575.04141602 429.12939453 574.38141602 429.12939453 573.70141602 429.12939453 C573.37141602 430.11939453 573.04141602 431.10939453 572.70141602 432.12939453 C565.22599404 437.46898166 557.93338613 437.40264136 549.08422852 437.32470703 C547.87193573 437.32187714 546.65964294 437.31904724 545.41061401 437.31613159 C541.54911312 437.3049612 537.68784649 437.2798619 533.82641602 437.25439453 C531.20402354 437.24436069 528.58162742 437.23523555 525.95922852 437.22705078 C519.53987813 437.20503211 513.12066381 437.17158551 506.70141602 437.12939453 C506.97783936 438.15202393 507.2542627 439.17465332 507.5390625 440.22827148 C507.90445896 441.58721788 508.26977021 442.9461872 508.63500977 444.30517578 C508.81688843 444.97713989 508.99876709 445.649104 509.18615723 446.34143066 C510.37539482 450.77502747 511.3672416 455.20244744 512.21313477 459.71142578 C512.74353359 462.33796075 513.40019951 464.91162858 514.07641602 467.50439453 C515.47099165 472.94954664 516.57069242 478.42610827 517.63891602 483.94189453 C519.05467063 491.23320053 520.77526998 498.32873191 522.76782227 505.48486328 C523.76272565 509.36873299 524.50952405 513.24565281 525.20141602 517.19189453 C526.32385132 523.59008584 527.93460371 529.72745484 529.79516602 535.95751953 C530.80543487 539.49346051 531.5350265 543.02082181 532.20532227 546.63330078 C532.98250305 550.54368282 533.99811688 554.39095723 534.97875977 558.25439453 C536.70081442 565.10537953 538.06584503 571.97558368 539.23657227 578.94189453 C539.48685309 581.09639308 539.48685309 581.09639308 540.70141602 582.12939453 C541.03101906 583.5586732 541.31402847 584.99876305 541.57641602 586.44189453 C542.32858949 590.37677218 543.20735409 594.24853661 544.20141602 598.12939453 C545.13366969 601.78382895 545.9892031 605.42588737 546.70141602 609.12939453 C547.59975685 613.79328072 548.73352292 618.37880878 549.92016602 622.97705078 C551.50893655 629.38773989 552.85450548 635.83536469 554.09643555 642.32128906 C555.64850673 650.39111187 557.46656798 658.22509525 559.83032227 666.09814453 C560.83265249 669.58607392 561.54485258 673.07183969 562.20532227 676.63720703 C562.77447988 679.49643979 563.47915885 682.30504561 564.20141602 685.12939453 C565.13366969 688.78382895 565.9892031 692.42588737 566.70141602 696.12939453 C567.61790794 700.88751508 568.78657225 705.56363275 569.98266602 710.25830078 C570.77504566 713.42351296 571.47831345 716.60126353 572.17016602 719.78955078 C572.79954705 722.56160401 573.49961065 725.31230848 574.20141602 728.06689453 C575.33438419 732.54778367 576.29758308 737.02946329 577.17016602 741.56689453 C577.76677044 744.4446335 578.47497111 747.2817305 579.20141602 750.12939453 C580.32401402 754.52997871 581.28050687 758.92771592 582.13305664 763.38720703 C582.76343639 766.42862685 583.50282102 769.43060562 584.26391602 772.44189453 C584.53333008 773.51052734 584.80274414 774.57916016 585.08032227 775.68017578 C585.2852832 776.48841797 585.49024414 777.29666016 585.70141602 778.12939453 C586.26216324 778.13748138 586.82291046 778.14556824 587.40065002 778.15390015 C593.25739528 778.24021671 599.11381258 778.33973096 604.97021484 778.44677734 C607.15342687 778.48496859 609.33669971 778.51983837 611.52001953 778.55126953 C614.66534093 778.59713432 617.81024726 778.65509349 620.95532227 778.71533203 C621.92538712 778.72688324 622.89545197 778.73843445 623.89491272 778.75033569 C629.19609154 778.86477487 633.68059905 779.40017056 638.70141602 781.12939453 C638.70141602 781.78939453 638.70141602 782.44939453 638.70141602 783.12939453 C639.30373047 783.22744385 639.90604492 783.32549316 640.52661133 783.42651367 C644.46476284 784.69929524 646.17685885 788.28042807 648.45141602 791.56689453 C649.21131836 792.57913086 649.21131836 792.57913086 649.98657227 793.61181641 C653.89712479 799.21413087 654.33623035 803.42628106 653.70141602 810.12939453 C653.63905762 811.0055542 653.57669922 811.88171387 653.51245117 812.78442383 C651.5062488 837.52537209 644.12521867 860.19164962 632.70141602 882.12939453 C632.04141602 882.12939453 631.38141602 882.12939453 630.70141602 882.12939453 C630.60086914 882.68369141 630.50032227 883.23798828 630.39672852 883.80908203 C628.92525095 888.7195184 625.52098356 892.89726258 622.70141602 897.12939453 C622.05817383 898.10005859 621.41493164 899.07072266 620.75219727 900.07080078 C617.1977901 905.30926668 617.1977901 905.30926668 615.70141602 907.12939453 C615.04141602 907.12939453 614.38141602 907.12939453 613.70141602 907.12939453 C613.43973633 907.71849609 613.17805664 908.30759766 612.90844727 908.91455078 C611.63718852 911.24724887 610.2991107 912.73293821 608.38891602 914.56689453 C607.76758789 915.17017578 607.14625977 915.77345703 606.50610352 916.39501953 C605.91055664 916.96736328 605.31500977 917.53970703 604.70141602 918.12939453 C603.81454102 919.01626953 602.92766602 919.90314453 602.01391602 920.81689453 C600.86922852 921.96158203 600.86922852 921.96158203 599.70141602 923.12939453 C598.97954102 923.89251953 598.25766602 924.65564453 597.51391602 925.44189453 C595.70141602 927.12939453 595.70141602 927.12939453 593.70141602 927.12939453 C593.70141602 927.78939453 593.70141602 928.44939453 593.70141602 929.12939453 C591.96593432 930.57466189 590.16165638 931.93811674 588.32641602 933.25439453 C587.32868164 933.97884766 586.33094727 934.70330078 585.30297852 935.44970703 C582.70141602 937.12939453 582.70141602 937.12939453 580.70141602 937.12939453 C580.70141602 937.78939453 580.70141602 938.44939453 580.70141602 939.12939453 C565.55128943 950.35366223 546.55985383 957.73888791 528.57641602 962.81689453 C527.86042236 963.01951904 527.14442871 963.22214355 526.40673828 963.4309082 C517.00021454 965.99049924 507.84653976 967.44002804 498.09204102 967.43017578 C496.63722321 967.43660347 496.63722321 967.43660347 495.15301514 967.44316101 C493.11609674 967.44886039 491.07915801 967.44943735 489.04223633 967.44506836 C485.97253623 967.44191622 482.9038095 967.46539689 479.83422852 967.49072266 C468.71785108 967.52700051 458.50545235 966.9706211 447.70141602 964.12939453 C446.85015137 963.91468506 445.99888672 963.69997559 445.12182617 963.47875977 C443.0283808 962.92533323 440.95907422 962.32630617 438.88891602 961.69189453 C438.17155273 961.47509033 437.45418945 961.25828613 436.71508789 961.03491211 C431.23906215 959.35183949 425.93477047 957.46963552 420.70141602 955.12939453 C420.09894043 954.86819824 419.49646484 954.60700195 418.87573242 954.33789062 C408.02345547 949.61008847 398.33723157 943.98201656 388.70141602 937.12939453 C387.57559996 936.3474443 386.44931299 935.56617156 385.32250977 934.78564453 C379.68061975 930.80822015 379.68061975 930.80822015 377.70141602 929.12939453 C377.70141602 928.46939453 377.70141602 927.80939453 377.70141602 927.12939453 C377.14454102 926.90251953 376.58766602 926.67564453 376.01391602 926.44189453 C373.04286417 924.75562186 371.05619476 922.59904053 368.70141602 920.12939453 C367.91766602 919.34564453 367.13391602 918.56189453 366.32641602 917.75439453 C365.46016602 916.88814453 364.59391602 916.02189453 363.70141602 915.12939453 C363.17894287 914.62504883 362.65646973 914.12070312 362.11816406 913.60107422 C357.985097 909.57081977 354.33102097 905.38536711 350.88891602 900.75439453 C350.37901123 900.07030518 349.86910645 899.38621582 349.34375 898.68139648 C338.83468121 884.31078759 331.0890901 869.08540779 325.70141602 852.12939453 C325.18255 850.60788888 324.66187504 849.08699823 324.13891602 847.56689453 C321.39830114 839.24021765 319.39830708 831.45409006 318.91235352 822.66064453 C318.79151822 820.00578183 318.79151822 820.00578183 317.70141602 817.12939453 C317.41944201 813.57185488 317.42382286 810.00937381 317.38891602 806.44189453 C317.35991211 805.47316406 317.3309082 804.50443359 317.30102539 803.50634766 C317.23573623 796.07845059 318.57670194 790.82483264 323.41235352 785.10595703 C323.96149414 784.65994141 324.51063477 784.21392578 325.07641602 783.75439453 C325.62040039 783.29291016 326.16438477 782.83142578 326.72485352 782.35595703 C332.71995339 778.63567766 338.75761076 778.86357059 345.56860352 778.93408203 C346.60332794 778.93691193 347.63805237 778.93974182 348.70413208 778.94265747 C351.99501315 778.95381405 355.28561779 778.97891056 358.57641602 779.00439453 C360.81339124 779.01443017 363.05037075 779.023555 365.28735352 779.03173828 C370.75880131 779.05373858 376.23008891 779.08717115 381.70141602 779.12939453 C382.01936072 777.7164266 382.3361998 776.30320987 382.65258789 774.88989258 C382.82914917 774.10293503 383.00571045 773.31597748 383.18762207 772.50517273 C384.09133894 768.32639471 384.82203553 764.11603656 385.55688477 759.90478516 C386.10119445 756.89937633 386.73138049 754.03985227 387.70141602 751.14111328 C388.90232529 747.52431229 389.5606422 743.87545686 390.20141602 740.12939453 C390.84000984 736.3960768 391.48884694 732.76045896 392.70141602 729.16064453 C393.95493994 725.36090013 394.57075822 721.57273831 395.20141602 717.62939453 C396.0075789 712.58866178 397.06783066 707.97910105 398.70141602 703.12939453 C399.23903011 700.46282861 399.74307267 697.80894026 400.20141602 695.12939453 C401.02671404 690.3045753 402.15276534 685.77534657 403.70141602 681.12939453 C404.23903011 678.46282861 404.74307267 675.80894026 405.20141602 673.12939453 C406.02657982 668.30535996 407.1454297 663.77284976 408.70141602 659.12939453 C409.19602277 656.67810173 409.65153075 654.21872907 410.07641602 651.75439453 C411.21596619 645.35216735 412.66018537 639.08287254 414.28857422 632.7890625 C415.48087917 628.13821129 416.40322306 623.49609266 417.20922852 618.76611328 C418.31090399 612.86428037 419.92733665 607.06929182 421.45532227 601.26611328 C423.12771634 594.79543673 424.47767826 588.31943227 425.61157227 581.73583984 C426.32412165 577.70953095 427.40950553 574.00005966 428.70141602 570.12939453 C429.19602277 567.67810173 429.65153075 565.21872907 430.07641602 562.75439453 C431.21596619 556.35216735 432.66018537 550.08287254 434.28857422 543.7890625 C435.48087917 539.13821129 436.40322306 534.49609266 437.20922852 529.76611328 C438.31090399 523.86428037 439.92733665 518.06929182 441.45532227 512.26611328 C443.12771634 505.79543673 444.47767826 499.31943227 445.61157227 492.73583984 C446.32412165 488.70953095 447.40950553 485.00005966 448.70141602 481.12939453 C449.19602277 478.67810173 449.65153075 476.21872907 450.07641602 473.75439453 C451.30996179 466.8168103 452.91818583 460.04493883 454.73657227 453.23876953 C455.60123214 449.81022727 456.1908641 446.36146085 456.76171875 442.87255859 C456.93863754 441.79588928 457.11555634 440.71921997 457.2978363 439.60992432 C457.49760826 438.38206207 457.49760826 438.38206207 457.70141602 437.12939453 C456.1483182 437.13850782 456.1483182 437.13850782 454.56384468 437.14780521 C428.87082571 437.29821172 403.17776758 437.43953662 377.48465157 437.57235813 C365.05753172 437.63679216 352.63043694 437.70374412 340.20336914 437.77758789 C329.31878293 437.84225852 318.4341802 437.90122724 307.54953182 437.95445007 C301.83453718 437.98256499 296.11958 438.01277486 290.40463638 438.04992867 C243.82169939 438.34225071 197.29625759 437.64711499 150.70141602 437.12939453 C150.70141602 614.00939453 150.70141602 790.88939453 150.70141602 973.12939453 C213.07141602 973.12939453 275.44141602 973.12939453 339.70141602 973.12939453 C352.533494 978.8325403 352.533494 978.8325403 355.70141602 985.12939453 C357.29751971 992.71319357 356.37082692 998.80778 352.51391602 1005.50439453 C351.2712672 1007.39819132 350.00292893 1009.27555891 348.70141602 1011.12939453 C325.59324553 1046.07006195 318.26845497 1086.71367838 326.18017578 1127.83837891 C327.52222813 1133.73712329 329.3145366 1139.54290322 331.63891602 1145.12939453 C333.67648555 1150.06365807 333.67648555 1150.06365807 334.52954102 1152.31298828 C336.83805711 1158.36759641 339.56097443 1164.21082657 342.32641602 1170.06689453 C342.72304443 1170.90857178 343.11967285 1171.75024902 343.52832031 1172.61743164 C343.90770752 1173.41415283 344.28709473 1174.21087402 344.67797852 1175.03173828 C345.01909668 1175.74837646 345.36021484 1176.46501465 345.71166992 1177.20336914 C346.77588063 1179.36358434 346.77588063 1179.36358434 348.70141602 1182.12939453 C350.13770694 1188.91127951 350.19349573 1194.10856743 346.70141602 1200.12939453 C344.63891602 1203.06689453 344.63891602 1203.06689453 342.70141602 1205.12939453 C342.04141602 1205.12939453 341.38141602 1205.12939453 340.70141602 1205.12939453 C340.70141602 1205.78939453 340.70141602 1206.44939453 340.70141602 1207.12939453 C335.94647434 1209.94354627 332.02996696 1210.55837366 326.61521912 1210.50691795 C325.81388965 1210.51127828 325.01256018 1210.5156386 324.186948 1210.52013105 C321.49685608 1210.53109533 318.80727584 1210.52065976 316.1171875 1210.51034546 C314.17095362 1210.51380159 312.2247217 1210.51856586 310.27849388 1210.52452719 C304.92608105 1210.53707375 299.57382828 1210.53085006 294.2214148 1210.52156854 C288.45022629 1210.514793 282.67906569 1210.5252521 276.90788269 1210.5335083 C265.59816865 1210.54686582 254.28851426 1210.54395831 242.97879785 1210.53527038 C233.78426113 1210.52849951 224.58974114 1210.52757454 215.39520264 1210.53084183 C213.43336643 1210.53153138 213.43336643 1210.53153138 211.43189716 1210.53223485 C208.7749656 1210.53319403 206.11803404 1210.53416667 203.46110249 1210.53515263 C179.24022416 1210.54377053 155.01937598 1210.53483692 130.7985028 1210.51912484 C108.70411137 1210.50490109 86.60977183 1210.50615034 64.51538086 1210.52050781 C39.68598594 1210.53658865 14.85662013 1210.54287586 -9.97277927 1210.53367102 C-12.62246767 1210.53271538 -15.27215608 1210.53177227 -17.92184448 1210.53084183 C-19.87737087 1210.53014759 -19.87737087 1210.53014759 -21.87240285 1210.52943932 C-31.04963675 1210.5268515 -40.22685221 1210.53121622 -49.40408325 1210.53828049 C-60.59773064 1210.54670734 -71.79131494 1210.54439092 -82.98495513 1210.52843826 C-88.69396772 1210.5205696 -94.40287524 1210.51743983 -100.11188698 1210.52738571 C-105.3442159 1210.53636295 -110.57634295 1210.53134988 -115.80865371 1210.51545306 C-117.69565377 1210.5121179 -119.58267108 1210.51377061 -121.46965992 1210.52108042 C-135.64800419 1210.57176548 -148.37041499 1209.54134932 -161.29858398 1203.12939453 C-162.43295898 1202.67564453 -163.56733398 1202.22189453 -164.73608398 1201.75439453 C-172.04680117 1198.41968143 -178.9717853 1194.0808022 -185.29858398 1189.12939453 C-185.29858398 1188.46939453 -185.29858398 1187.80939453 -185.29858398 1187.12939453 C-186.44327148 1186.72720703 -186.44327148 1186.72720703 -187.61108398 1186.31689453 C-190.18847016 1185.17804948 -191.56813263 1184.31522783 -193.29858398 1182.12939453 C-193.29858398 1181.46939453 -193.29858398 1180.80939453 -193.29858398 1180.12939453 C-193.95858398 1180.12939453 -194.61858398 1180.12939453 -195.29858398 1180.12939453 C-200.29858398 1174.65320406 -200.29858398 1174.65320406 -200.29858398 1172.12939453 C-200.95858398 1172.12939453 -201.61858398 1172.12939453 -202.29858398 1172.12939453 C-212.50862663 1159.71760907 -220.37605003 1144.67289358 -224.29858398 1129.12939453 C-224.65891111 1127.81644003 -225.02097495 1126.50396125 -225.38452148 1125.19189453 C-227.55384518 1117.19423869 -229.0814166 1109.43840733 -229.29858398 1101.12939453 C-229.31904785 1100.37529297 -229.33951172 1099.62119141 -229.3605957 1098.84423828 C-230.08185685 1067.99095167 -224.27302981 1038.41235456 -205.29858398 1013.12939453 C-204.63858398 1013.12939453 -203.97858398 1013.12939453 -203.29858398 1013.12939453 C-203.03174805 1012.54673828 -202.76491211 1011.96408203 -202.48999023 1011.36376953 C-195.94237226 999.08430239 -182.79963375 991.17170399 -171.29858398 984.12939453 C-170.44264648 983.58927734 -169.58670898 983.04916016 -168.70483398 982.49267578 C-164.47649073 980.09707222 -159.87718591 978.71502997 -155.29858398 977.12939453 C-154.58831055 976.85998047 -153.87803711 976.59056641 -153.14624023 976.31298828 C-138.21728945 970.83999481 -122.98098343 970.66400467 -107.29858398 970.61767578 C-105.12425752 970.60079248 -102.9499406 970.58263746 -100.77563477 970.5632782 C-95.10741154 970.51616827 -89.43922702 970.48610817 -83.77087402 970.45983887 C-77.96492879 970.42983451 -72.15911647 970.38337347 -66.35327148 970.33837891 C-55.00177907 970.25279064 -43.65025897 970.18524964 -32.29858398 970.12939453 C-32.28147433 919.61494522 -32.26555259 869.10049571 -32.25624084 818.58604431 C-32.25603376 817.46551005 -32.25603376 817.46551005 -32.25582249 816.32233873 C-32.25282994 800.08951139 -32.2500597 783.85668402 -32.24751865 767.62385661 C-32.24627126 759.66386989 -32.24497472 751.70388319 -32.24365234 743.74389648 C-32.24352158 742.95176062 -32.24339083 742.15962475 -32.2432561 741.34348476 C-32.23899088 715.64451437 -32.23147669 689.94554616 -32.22228676 664.2465771 C-32.21286403 637.84877698 -32.20670083 611.45097808 -32.20466899 585.05317631 C-32.20438082 581.32902934 -32.20405518 577.60488237 -32.20370674 573.8807354 C-32.20360561 572.7812319 -32.20360561 572.7812319 -32.20350243 571.65951621 C-32.20231837 559.83595385 -32.19767401 548.01239523 -32.19175195 536.18883441 C-32.1858789 524.31685757 -32.18369369 512.4448848 -32.18508261 500.57290656 C-32.18572634 494.13445617 -32.18470451 487.69601681 -32.17937851 481.25756836 C-32.17454656 475.37378215 -32.17424397 469.49001448 -32.17768509 463.60622745 C-32.17811099 461.46759624 -32.17681353 459.32896391 -32.1737008 457.19033492 C-32.16974027 454.30341623 -32.17181843 451.41656621 -32.17553616 448.52964878 C-32.17159564 447.25813468 -32.17159564 447.25813468 -32.16757551 445.96093342 C-31.82085414 442.24201989 -31.82085414 442.24201989 -33.29858398 439.12939453 C-34.78235666 439.03152653 -36.27077007 439.00307678 -37.75776672 439.00241089 C-38.72098846 438.99959106 -39.68421021 438.99677124 -40.67662048 438.99386597 C-42.2748037 438.99690231 -42.2748037 438.99690231 -43.90527344 439 C-45.02065491 438.99824768 -46.13603638 438.99649536 -47.28521729 438.99468994 C-50.99411549 438.99026764 -54.70296649 438.99321134 -58.41186523 438.99658203 C-60.97918202 438.99590896 -63.54649874 438.9949389 -66.11381531 438.99368286 C-71.50508283 438.99220526 -76.89633245 438.99426719 -82.28759766 438.99902344 C-88.51948659 439.00445784 -94.75134276 439.00270948 -100.98323089 438.99719703 C-106.97451944 438.99210949 -112.96579199 438.99265186 -118.95708275 438.99557877 C-121.50762118 438.99624692 -124.05816044 438.99542351 -126.60869789 438.99309921 C-130.17372485 438.99056443 -133.73868869 438.99442545 -137.30371094 439 C-138.36309372 438.99797577 -139.4224765 438.99595154 -140.51396179 438.99386597 C-141.48564301 438.99668579 -142.45732422 438.99950562 -143.45845032 439.00241089 C-144.72304565 439.00297643 -144.72304565 439.00297643 -146.01318836 439.00355339 C-148.24477014 439.12643137 -150.14364808 439.56727591 -152.29858398 440.12939453 C-154.79716461 440.2233677 -157.29824163 440.25931647 -159.79858398 440.25439453 C-161.10827148 440.25697266 -162.41795898 440.25955078 -163.76733398 440.26220703 C-167.29858398 440.12939453 -167.29858398 440.12939453 -169.26402545 439.62878424 C-171.38476437 439.10824125 -173.20233834 439.0051591 -175.38277054 439.0063467 C-176.19191571 439.00435565 -177.00106089 439.00236461 -177.83472562 439.00031322 C-178.71799236 439.00322606 -179.6012591 439.00613891 -180.5112915 439.00914001 C-181.45392625 439.00828559 -182.39656099 439.00743116 -183.36776042 439.00655085 C-186.5338484 439.00490062 -189.69988368 439.01040999 -192.8659668 439.01586914 C-195.13253783 439.01615114 -197.39910895 439.01599304 -199.66567993 439.01542664 C-205.82641158 439.01513915 -211.98712385 439.02102809 -218.14785099 439.02800059 C-224.58340927 439.03424216 -231.01896797 439.03483857 -237.45452881 439.036026 C-248.25867082 439.03878325 -259.06280487 439.04503399 -269.86694336 439.05395508 C-280.99519821 439.06313424 -292.12345112 439.07021261 -303.25170898 439.07446289 C-303.93766707 439.07472561 -304.62362516 439.07498834 -305.33036986 439.07525902 C-308.7716237 439.07656406 -312.21287755 439.07782777 -315.65413141 439.07907093 C-344.20228708 439.08943746 -372.75043526 439.10712482 -401.29858398 439.12939453 C-400.81989868 440.29716431 -400.81989868 440.29716431 -400.33154297 441.48852539 C-399.37611673 443.93117385 -398.81829479 446.11845085 -398.36108398 448.69189453 C-397.63396948 452.54502887 -396.77147535 456.33071817 -395.79858398 460.12939453 C-393.7109068 468.34372234 -392.18102709 476.6237587 -390.76342773 484.97705078 C-390.50833077 487.1002805 -390.50833077 487.1002805 -389.29858398 488.12939453 C-388.96764156 489.53740412 -388.68514643 490.95686194 -388.42358398 492.37939453 C-387.63725356 496.4870908 -386.75381844 500.55758704 -385.79858398 504.62939453 C-384.8992581 508.47401268 -384.04536687 512.31484674 -383.29858398 516.19189453 C-382.38160715 520.90668375 -381.20433413 525.53885395 -380.01733398 530.19189453 C-379.17549311 533.63246157 -378.49856827 537.08947624 -377.82983398 540.56689453 C-377.23322956 543.4446335 -376.52502889 546.2817305 -375.79858398 549.12939453 C-373.7109068 557.34372234 -372.18102709 565.6237587 -370.76342773 573.97705078 C-370.50833077 576.1002805 -370.50833077 576.1002805 -369.29858398 577.12939453 C-368.96764156 578.53740412 -368.68514643 579.95686194 -368.42358398 581.37939453 C-367.63725356 585.4870908 -366.75381844 589.55758704 -365.79858398 593.62939453 C-364.8992581 597.47401268 -364.04536687 601.31484674 -363.29858398 605.19189453 C-362.38160715 609.90668375 -361.20433413 614.53885395 -360.01733398 619.19189453 C-359.17549311 622.63246157 -358.49856827 626.08947624 -357.82983398 629.56689453 C-357.23322956 632.4446335 -356.52502889 635.2817305 -355.79858398 638.12939453 C-353.7109068 646.34372234 -352.18102709 654.6237587 -350.76342773 662.97705078 C-350.50833077 665.1002805 -350.50833077 665.1002805 -349.29858398 666.12939453 C-348.95491449 667.57090231 -348.66053392 669.02424442 -348.38842773 670.48095703 C-347.29449122 676.17428434 -346.09221681 681.8392931 -344.86108398 687.50439453 C-344.64154053 688.51590576 -344.42199707 689.52741699 -344.19580078 690.56958008 C-342.87214476 696.62524542 -341.46218906 702.64683411 -339.91186523 708.64892578 C-339.09964958 711.93400182 -338.46874414 715.24456173 -337.82983398 718.56689453 C-337.23322956 721.4446335 -336.52502889 724.2817305 -335.79858398 727.12939453 C-333.7109068 735.34372234 -332.18102709 743.6237587 -330.76342773 751.97705078 C-330.50833077 754.1002805 -330.50833077 754.1002805 -329.29858398 755.12939453 C-328.96764156 756.53740412 -328.68514643 757.95686194 -328.42358398 759.37939453 C-327.40221819 764.74156497 -326.16209707 770.03787235 -324.88452148 775.34423828 C-324.29858398 778.12939453 -324.29858398 778.12939453 -324.29858398 781.12939453 C-323.68772446 781.1227327 -323.07686493 781.11607086 -322.44749451 781.10920715 C-316.07198364 781.04267796 -309.6965719 780.99752097 -303.32080078 780.96459961 C-300.94348137 780.94954201 -298.5661896 780.92909164 -296.18896484 780.90307617 C-292.7657996 780.8665605 -289.34300267 780.84963744 -285.91967773 780.83642578 C-284.86211777 780.82094193 -283.8045578 780.80545807 -282.71495056 780.789505 C-276.77479321 780.78815969 -272.56230109 781.31753826 -267.29858398 784.12939453 C-267.29858398 784.78939453 -267.29858398 785.44939453 -267.29858398 786.12939453 C-266.72108398 786.35626953 -266.14358398 786.58314453 -265.54858398 786.81689453 C-262.59511257 788.53975286 -261.15263613 790.25241706 -259.29858398 793.12939453 C-256.07751971 807.72484204 -257.68139031 826.02382096 -262.36108398 840.14892578 C-263.40643673 843.19037445 -263.40643673 843.19037445 -263.81030273 846.71923828 C-264.249094 849.7837565 -264.89200272 852.062394 -266.11108398 854.87939453 C-267.57410705 858.34884922 -268.89533143 861.81598187 -270.11108398 865.37939453 C-272.56750675 872.25540524 -275.9375939 878.66232091 -279.29858398 885.12939453 C-279.95858398 885.12939453 -280.61858398 885.12939453 -281.29858398 885.12939453 C-281.44553711 885.95503906 -281.44553711 885.95503906 -281.59545898 886.79736328 C-283.0764808 891.70941897 -286.47567201 895.89204252 -289.29858398 900.12939453 C-290.04301758 901.25474609 -290.04301758 901.25474609 -290.80249023 902.40283203 C-291.90849741 904.02057387 -293.09545766 905.58251782 -294.29858398 907.12939453 C-294.95858398 907.12939453 -295.61858398 907.12939453 -296.29858398 907.12939453 C-296.63889648 907.9434375 -296.63889648 907.9434375 -296.98608398 908.77392578 C-298.69128688 911.83415598 -300.92582603 914.26976495 -303.29858398 916.81689453 C-303.78842773 917.34508789 -304.27827148 917.87328125 -304.78295898 918.41748047 C-312.45553197 926.58936394 -320.819882 934.09001323 -330.29858398 940.12939453 C-330.95858398 940.12939453 -331.61858398 940.12939453 -332.29858398 940.12939453 C-332.29858398 940.78939453 -332.29858398 941.44939453 -332.29858398 942.12939453 C-333.24733398 942.66564453 -334.19608398 943.20189453 -335.17358398 943.75439453 C-337.34147877 944.9863508 -339.4825666 946.24321428 -341.60327148 947.55517578 C-350.50271462 953.0569082 -359.566586 957.03979942 -369.52514648 960.22705078 C-371.8415242 960.98068917 -374.09598581 961.79972321 -376.36108398 962.69189453 C-408.52501192 974.91631545 -451.74344356 974.05468802 -483.29858398 960.06689453 C-483.95987305 959.74462891 -484.62116211 959.42236328 -485.30249023 959.09033203 C-487.57294095 957.99731662 -489.88489669 957.09759071 -492.23608398 956.19189453 C-500.07609698 953.07288007 -507.23198076 949.34062753 -514.18139648 944.55517578 C-517.13057753 942.56910368 -520.18837244 940.84993709 -523.29858398 939.12939453 C-523.29858398 938.46939453 -523.29858398 937.80939453 -523.29858398 937.12939453 C-524.01401367 936.88189453 -524.72944336 936.63439453 -525.46655273 936.37939453 C-528.61268105 934.99075859 -530.93669361 933.28475507 -533.61108398 931.12939453 C-534.4940918 930.42814453 -535.37709961 929.72689453 -536.28686523 929.00439453 C-536.95073242 928.38564453 -537.61459961 927.76689453 -538.29858398 927.12939453 C-538.29858398 926.46939453 -538.29858398 925.80939453 -538.29858398 925.12939453 C-538.83483398 924.92314453 -539.37108398 924.71689453 -539.92358398 924.50439453 C-543.21836407 922.59689027 -545.89222027 920.08120069 -548.29858398 917.12939453 C-548.29858398 916.46939453 -548.29858398 915.80939453 -548.29858398 915.12939453 C-548.95858398 915.12939453 -549.61858398 915.12939453 -550.29858398 915.12939453 C-555.29858398 909.65320406 -555.29858398 909.65320406 -555.29858398 907.12939453 C-555.95858398 907.12939453 -556.61858398 907.12939453 -557.29858398 907.12939453 C-559.11708549 904.72583616 -560.81627932 902.32118162 -562.48608398 899.81689453 C-563.22918823 898.7125708 -563.22918823 898.7125708 -563.98730469 897.5859375 C-564.97977161 896.10669457 -565.96899787 894.6252718 -566.95483398 893.14160156 C-568.05162337 891.49920729 -569.17179522 889.87244789 -570.29858398 888.25048828 C-577.24202652 877.97997954 -582.57817398 866.00422103 -585.78686523 854.02783203 C-586.42961337 851.64328553 -587.37154118 849.41610011 -588.29858398 847.12939453 C-591.71783069 835.73190553 -593.48829092 824.54993304 -594.04858398 812.69189453 C-594.09313721 811.78109131 -594.13769043 810.87028809 -594.18359375 809.93188477 C-594.50373995 801.31782812 -594.1198089 793.93798457 -590.29858398 786.12939453 C-589.63858398 786.12939453 -588.97858398 786.12939453 -588.29858398 786.12939453 C-587.98920898 785.26314453 -587.98920898 785.26314453 -587.67358398 784.37939453 C-585.76513328 781.2564752 -583.6396946 779.51166617 -580.29858398 778.12939453 C-576.30634566 777.5832824 -572.3605288 777.66370824 -568.33764648 777.73876953 C-566.61908951 777.74725922 -566.61908951 777.74725922 -564.86581421 777.75592041 C-561.21797344 777.77825381 -557.5711263 777.82844718 -553.92358398 777.87939453 C-551.44573362 777.89946334 -548.96786781 777.91771344 -546.48999023 777.93408203 C-540.42585095 777.97810877 -534.36228847 778.04499167 -528.29858398 778.12939453 C-528.10522461 777.05560547 -527.91186523 775.98181641 -527.71264648 774.87548828 C-527.44980681 773.4392572 -527.18677575 772.00306113 -526.92358398 770.56689453 C-526.79725586 769.86242187 -526.67092773 769.15794922 -526.54077148 768.43212891 C-525.70684982 763.90810386 -524.63084425 759.53916924 -523.29858398 755.12939453 C-521.37006892 748.71082532 -520.13091952 742.31960355 -519.00952148 735.72314453 C-518.29858398 732.12939453 -518.29858398 732.12939453 -517.30639648 729.19189453 C-516.05201585 725.38013322 -515.43107716 721.58421448 -514.79858398 717.62939453 C-513.9924211 712.58866178 -512.93216934 707.97910105 -511.29858398 703.12939453 C-510.76096989 700.46282861 -510.25692733 697.80894026 -509.79858398 695.12939453 C-508.97328596 690.3045753 -507.84723466 685.77534657 -506.29858398 681.12939453 C-505.76096989 678.46282861 -505.25692733 675.80894026 -504.79858398 673.12939453 C-503.97342018 668.30535996 -502.8545703 663.77284976 -501.29858398 659.12939453 C-500.80397723 656.67810173 -500.34846925 654.21872907 -499.92358398 651.75439453 C-498.78403381 645.35216735 -497.33981463 639.08287254 -495.71142578 632.7890625 C-494.51912083 628.13821129 -493.59677694 623.49609266 -492.79077148 618.76611328 C-491.68909601 612.86428037 -490.07266335 607.06929182 -488.54467773 601.26611328 C-486.87228366 594.79543673 -485.52232174 588.31943227 -484.38842773 581.73583984 C-483.67587835 577.70953095 -482.59049447 574.00005966 -481.29858398 570.12939453 C-480.80397723 567.67810173 -480.34846925 565.21872907 -479.92358398 562.75439453 C-478.78403381 556.35216735 -477.33981463 550.08287254 -475.71142578 543.7890625 C-474.51912083 539.13821129 -473.59677694 534.49609266 -472.79077148 529.76611328 C-471.68909601 523.86428037 -470.07266335 518.06929182 -468.54467773 512.26611328 C-466.87228366 505.79543673 -465.52232174 499.31943227 -464.38842773 492.73583984 C-463.67587835 488.70953095 -462.59049447 485.00005966 -461.29858398 481.12939453 C-460.80397723 478.67810173 -460.34846925 476.21872907 -459.92358398 473.75439453 C-458.78536969 467.35967257 -457.34612375 461.09661612 -455.71582031 454.81103516 C-454.46980401 449.95997508 -453.49201504 445.11118295 -452.69311523 440.16845703 C-452.29858398 438.12939453 -452.29858398 438.12939453 -451.29858398 436.12939453 C-452.20567612 436.12352829 -453.11276825 436.11766205 -454.04734802 436.11161804 C-462.62422756 436.05355124 -471.20085056 435.98139484 -479.77748013 435.89367962 C-484.18610723 435.84908131 -488.59464417 435.80980239 -493.00341797 435.78295898 C-497.26354081 435.75682028 -501.52331469 435.71634438 -505.78322029 435.66620827 C-507.40294087 435.64961065 -509.02272171 435.63805235 -510.64251518 435.63178062 C-531.88672536 435.54125315 -531.88672536 435.54125315 -538.29858398 429.12939453 C-538.29858398 428.46939453 -538.29858398 427.80939453 -538.29858398 427.12939453 C-538.95858398 427.12939453 -539.61858398 427.12939453 -540.29858398 427.12939453 C-544.27652388 421.32823218 -544.19893916 414.95708797 -543.29858398 408.12939453 C-542.065563 405.02237738 -540.4606128 402.66116161 -538.29858398 400.12939453 C-537.70045898 399.36626953 -537.10233398 398.60314453 -536.48608398 397.81689453 C-529.42431377 392.36924322 -521.63106473 392.70808811 -513.11218262 392.76863098 C-511.77709059 392.76732129 -510.44199932 392.76469185 -509.10691214 392.76086348 C-505.45358041 392.7541787 -501.80051424 392.76612327 -498.14721632 392.78119767 C-494.20185346 392.7941829 -490.25650493 392.78976681 -486.31112671 392.78749084 C-479.48060066 392.78591968 -472.65016075 392.79531246 -465.81965637 392.81220436 C-455.94397253 392.83661109 -446.06833023 392.84440134 -436.1926195 392.84816834 C-420.16899813 392.85473019 -404.14542264 392.87468415 -388.12182617 392.90307617 C-372.55867746 392.93062361 -356.99554122 392.95185384 -341.43237305 392.96459961 C-340.47266226 392.96538778 -339.51295147 392.96617595 -338.52415854 392.966988 C-333.70945275 392.97090319 -328.89474687 392.97469429 -324.08004093 392.97842371 C-284.1528565 393.00951135 -244.22572327 393.06233992 -204.29858398 393.12939453 C-204.29934343 392.53860426 -204.30010287 391.94781399 -204.30088532 391.33912098 C-204.34566114 356.30836319 -204.37996705 321.27761034 -204.40071464 286.24682987 C-204.403216 282.0387394 -204.40580465 277.83064898 -204.40844727 273.62255859 C-204.4092342 272.36594912 -204.4092342 272.36594912 -204.41003703 271.0839536 C-204.41873483 257.52716099 -204.43450137 243.97038538 -204.45288958 230.41360284 C-204.47160599 216.49858292 -204.48270439 202.58357188 -204.48676097 188.66853988 C-204.48950242 180.08525241 -204.4981548 171.50201299 -204.51441692 162.91874032 C-204.5250053 157.02938722 -204.52818041 151.14005889 -204.52558674 145.25069697 C-204.52430833 141.85505974 -204.52734064 138.4595738 -204.53699493 135.06394005 C-204.5469658 131.37582228 -204.54454486 127.68790901 -204.53909302 123.99978638 C-204.54783154 122.40344429 -204.54783154 122.40344429 -204.5567466 120.77485287 C-204.52392646 112.54327568 -204.07481362 104.18534815 -199.67358398 97.00439453 C-199.22756836 96.25931641 -198.78155273 95.51423828 -198.32202148 94.74658203 C-197.98428711 94.21291016 -197.64655273 93.67923828 -197.29858398 93.12939453 C-196.63858398 93.12939453 -195.97858398 93.12939453 -195.29858398 93.12939453 C-195.06655273 92.55318359 -194.83452148 91.97697266 -194.59545898 91.38330078 C-191.1508188 85.39668215 -183.56869187 80.69443867 -177.29858398 78.12939453 C-176.4628183 77.78276764 -175.62705261 77.43614075 -174.76596069 77.07901001 C-170.15255515 75.81552996 -165.83313763 75.82136611 -161.07055664 75.81054688 C-159.54768539 75.79547844 -159.54768539 75.79547844 -157.99404907 75.78010559 C-154.65025378 75.74930299 -151.30653845 75.73224638 -147.96264648 75.71533203 C-145.63950921 75.69661806 -143.31637872 75.67704447 -140.99325562 75.65664673 C-134.88759358 75.60534391 -128.78190951 75.56570813 -122.67614746 75.52850342 C-116.44216469 75.48845229 -110.20827343 75.43736497 -103.97436523 75.38720703 C-91.74916912 75.29046957 -79.52392131 75.20605768 -67.29858398 75.12939453 C-67.24912628 74.38039886 -67.19966858 73.6314032 -67.14871216 72.85971069 C-66.91791318 69.43596649 -66.67476118 66.01320506 -66.43139648 62.59033203 C-66.31501831 60.82290649 -66.31501831 60.82290649 -66.19628906 59.01977539 C-65.17415129 44.93205045 -60.54748877 35.60138132 -52.29858398 24.12939453 C-51.63858398 23.13939453 -50.97858398 22.14939453 -50.29858398 21.12939453 C-49.63858398 21.12939453 -48.97858398 21.12939453 -48.29858398 21.12939453 C-47.96858398 20.13939453 -47.63858398 19.14939453 -47.29858398 18.12939453 C-46.63858398 18.12939453 -45.97858398 18.12939453 -45.29858398 18.12939453 C-45.29858398 17.46939453 -45.29858398 16.80939453 -45.29858398 16.12939453 C-31.38364153 5.25533853 -17.63855808 -0.05033471 0 0 Z M-19.29858398 48.12939453 C-25.98664918 55.34589944 -25.40991236 63.0025535 -25.43139648 72.43408203 C-25.60501477 75.04678014 -25.60501477 75.04678014 -24.29858398 76.12939453 C-22.81842004 76.22508029 -21.33370125 76.25127721 -19.85044861 76.24964905 C-18.40956627 76.25171104 -18.40956627 76.25171104 -16.9395752 76.2538147 C-15.34599182 76.24842178 -15.34599182 76.24842178 -13.72021484 76.24291992 C-12.60816177 76.24306595 -11.4961087 76.24321198 -10.35035706 76.24336243 C-6.65469447 76.24266274 -2.95908157 76.23486773 0.73657227 76.22705078 C3.29105095 76.2251868 5.84552999 76.2237628 8.40000916 76.22276306 C14.44903311 76.21932797 20.49803557 76.21143718 26.54705089 76.20141357 C33.43206755 76.19025136 40.31708505 76.18474171 47.2021085 76.17971814 C61.36855432 76.16925453 75.53498418 76.15165576 89.70141602 76.12939453 C89.83757521 73.1278408 89.93605582 70.13257353 90.01391602 67.12939453 C90.05581055 66.29021484 90.09770508 65.45103516 90.14086914 64.58642578 C90.26502393 58.1800387 88.79295354 54.07954318 84.70141602 49.12939453 C77.73862926 42.27079186 71.90534116 41.00594565 62.33837891 41 C61.62698257 40.99824768 60.91558624 40.99649536 60.18263245 40.99468994 C57.84642041 40.99031254 55.51028498 40.9931952 53.17407227 40.99658203 C51.54031866 40.99590774 49.90656515 40.99493666 48.27281189 40.99368286 C44.85422813 40.99221139 41.43567055 40.99434246 38.01708984 40.99902344 C33.64826143 41.00471585 29.27949452 41.0014413 24.91066837 40.99545097 C21.53823895 40.99182663 18.16582396 40.99299263 14.79339409 40.99557877 C13.18314036 40.99624309 11.5728853 40.995437 9.96263313 40.99309921 C7.70633634 40.99054236 5.45013723 40.99445594 3.19384766 41 C1.91288712 41.00079559 0.63192657 41.00159119 -0.68785095 41.00241089 C-8.84570238 41.28930933 -13.3802952 42.60813979 -19.29858398 48.12939453 Z M20.70141602 202.12939453 C20.70141602 203.11939453 20.70141602 204.10939453 20.70141602 205.12939453 C20.04141602 205.12939453 19.38141602 205.12939453 18.70141602 205.12939453 C16.57235627 212.59827348 17.13061627 219.28536168 20.70141602 226.12939453 C21.36141602 226.12939453 22.02141602 226.12939453 22.70141602 226.12939453 C22.70141602 226.78939453 22.70141602 227.44939453 22.70141602 228.12939453 C28.17023893 233.59821745 36.57671435 233.40319131 43.80297852 233.45166016 C44.88321289 233.4484375 45.96344727 233.44521484 47.07641602 233.44189453 C48.14891602 233.45800781 49.22141602 233.47412109 50.32641602 233.49072266 C58.42690682 233.49564996 66.1755894 232.92067394 72.70141602 227.75439453 C77.35441335 221.64733553 77.33728563 215.55796656 76.70141602 208.12939453 C75.0023585 202.93782989 72.21407575 200.16676166 67.70141602 197.12939453 C60.9732313 195.65875306 54.05708954 195.94558434 47.20141602 195.94189453 C46.00387695 195.92964844 44.80633789 195.91740234 43.57250977 195.90478516 C34.64234495 195.889951 27.9184722 196.32054443 20.70141602 202.12939453 Z M-163.29858398 277.12939453 C-163.34528087 292.20208715 -163.38056148 307.27477416 -163.40220833 322.34752369 C-163.41252597 329.34588347 -163.42659559 336.34419834 -163.44946289 343.3425293 C-163.47150733 350.09224251 -163.48314232 356.84189934 -163.48833847 363.59165001 C-163.492043 366.17093326 -163.49927667 368.75021387 -163.5100441 371.32947731 C-163.52449413 374.93316871 -163.52656464 378.5366653 -163.52563477 382.14038086 C-163.53282532 383.2142807 -163.54001587 384.28818054 -163.54742432 385.3946228 C-163.54467499 386.37478867 -163.54192566 387.35495453 -163.53909302 388.36482239 C-163.5409366 389.2174809 -163.54278019 390.07013941 -163.54467964 390.94863605 C-163.43408897 393.42219326 -163.43408897 393.42219326 -161.29858398 396.12939453 C-158.29516409 396.58312426 -158.29516409 396.58312426 -154.68060112 396.49853802 C-153.64385489 396.50373032 -153.64385489 396.50373032 -152.5861643 396.50902751 C-150.24683593 396.51703179 -147.90811462 396.50345773 -145.56881714 396.49015808 C-143.884171 396.49146508 -142.19952544 396.49408956 -140.51488316 396.49792558 C-135.86748243 396.50466323 -131.22028742 396.49259306 -126.57291293 396.4775914 C-121.56812956 396.46468232 -116.56335856 396.46901684 -111.55856323 396.47129822 C-102.88140979 396.47287421 -94.20432382 396.46343102 -85.52718735 396.4465847 C-72.98138678 396.42224333 -60.43561897 396.41439442 -47.88979734 396.41062073 C-27.53694599 396.40404859 -7.18413063 396.38406679 13.16870117 396.35571289 C32.94408996 396.32819202 52.71946899 396.3069488 72.49487305 396.29418945 C73.7130418 396.29340128 74.93121054 396.29261311 76.1862935 396.29180106 C82.29725324 396.28788605 88.40821305 396.2840949 94.51917291 396.28036535 C145.24661216 396.24924572 195.97401233 396.19638922 246.70141602 396.12939453 C247.9164276 393.69937137 247.82457812 392.16280428 247.82167053 389.44711304 C247.8230452 388.45990768 247.82441986 387.47270233 247.82583618 386.45558167 C247.82224091 385.36873581 247.81864563 384.28188995 247.81494141 383.16210938 C247.81516045 381.44991966 247.81516045 381.44991966 247.81538391 379.70314026 C247.81468507 375.91551844 247.806894 372.1279453 247.79907227 368.34033203 C247.79720798 365.72002184 247.79578413 363.0997113 247.79478455 360.47940063 C247.79167353 354.27812292 247.78346324 348.07686279 247.77343506 341.87559283 C247.76226679 334.8164329 247.75676167 327.75727214 247.75173962 320.69810557 C247.74128044 306.17519281 247.72368543 291.65229392 247.70141602 277.12939453 C244.34544504 276.01073754 242.94489084 276.25472049 239.51391602 276.87939453 C237.91483398 277.16556641 237.91483398 277.16556641 236.28344727 277.45751953 C234.5103418 277.79009766 234.5103418 277.79009766 232.70141602 278.12939453 C231.4059082 278.37173828 230.11040039 278.61408203 228.77563477 278.86376953 C226.72557443 279.2484185 224.67576328 279.63426007 222.62646484 280.02294922 C217.70621886 280.95344233 212.77681984 281.79291898 207.83422852 282.59423828 C204.77214213 283.11731289 201.72541318 283.69571815 198.67578125 284.28588867 C192.80044477 285.42214691 186.99417569 286.45845679 181.01000977 286.82080078 C178.53515344 287.09008646 178.53515344 287.09008646 175.58032227 288.06298828 C169.99789652 289.72760698 164.20100066 290.24330938 158.43969727 290.98486328 C154.58507505 291.50215024 150.94798966 292.05894492 147.20141602 293.12939453 C141.70991935 294.69839358 136.09420697 295.2570551 130.43969727 295.98486328 C125.35595317 296.66709734 120.62823719 297.65440832 115.70141602 299.12939453 C114.10344308 299.36389283 112.49855966 299.55940197 110.88891602 299.69189453 C107.67474926 299.96095219 107.67474926 299.96095219 104.70141602 301.12939453 C103.16337646 301.30949953 101.62052924 301.44977139 100.07641602 301.56689453 C96.16221977 301.92578932 92.54405127 302.57108504 88.75610352 303.59033203 C83.09219023 305.07630168 77.40894079 306.11949589 71.57641602 306.62939453 C67.83984636 306.9606301 64.40732786 307.63493055 60.78735352 308.58642578 C45.96254876 312.44531691 30.20949023 312.66816274 15.52563477 308.15283203 C11.12745266 306.97579044 6.76434524 306.27997286 2.26391602 305.62939453 C-2.29907485 304.96661374 -6.80541538 304.30892421 -11.26733398 303.12939453 C-16.75190062 301.68965302 -22.35446871 301.03990014 -27.96459961 300.27392578 C-32.90377963 299.57210188 -37.49700365 298.51363391 -42.29858398 297.12939453 C-45.43234206 296.54559024 -48.58149229 296.0854197 -51.73608398 295.62939453 C-56.40990117 294.95051606 -61.01614357 294.25414356 -65.59155273 293.06689453 C-68.54357199 292.32033539 -71.15673195 291.83817322 -74.17358398 291.62939453 C-80.5367938 291.07224713 -86.6847486 289.92288027 -92.79858398 288.06689453 C-96.46705653 287.08426796 -99.91112526 286.73334232 -103.68139648 286.40673828 C-109.17219941 285.82487708 -114.51934804 284.66951973 -119.79858398 283.06689453 C-123.46705653 282.08426796 -126.91112526 281.73334232 -130.68139648 281.40673828 C-136.15154061 280.82706629 -141.48422905 279.69019515 -146.73608398 278.06689453 C-155.10795861 275.79225522 -155.10795861 275.79225522 -163.29858398 277.12939453 Z M-426.29858398 512.12939453 C-428.5601629 518.80185432 -430.02880819 525.48765111 -431.20800781 532.41845703 C-431.72865511 535.40581388 -432.33371731 538.23465672 -433.29467773 541.11376953 C-434.49909299 544.73170174 -435.15746475 548.38131287 -435.79858398 552.12939453 C-436.62388201 556.95421376 -437.74993331 561.48344249 -439.29858398 566.12939453 C-439.83619808 568.79596046 -440.34024064 571.4498488 -440.79858398 574.12939453 C-441.62388201 578.95421376 -442.74993331 583.48344249 -444.29858398 588.12939453 C-444.83619808 590.79596046 -445.34024064 593.4498488 -445.79858398 596.12939453 C-446.62388201 600.95421376 -447.74993331 605.48344249 -449.29858398 610.12939453 C-449.83619808 612.79596046 -450.34024064 615.4498488 -450.79858398 618.12939453 C-451.62388201 622.95421376 -452.74993331 627.48344249 -454.29858398 632.12939453 C-454.83619808 634.79596046 -455.34024064 637.4498488 -455.79858398 640.12939453 C-456.62361077 644.95262803 -457.735078 649.48851168 -459.29858398 654.12939453 C-459.75159656 656.37235925 -460.1644126 658.62361895 -460.54858398 660.87939453 C-462.46435247 671.62569858 -465.04514765 682.22157129 -467.53442383 692.84619141 C-468.70917175 697.89347896 -469.84653511 702.94906864 -470.98608398 708.00439453 C-472.8753961 716.35403053 -474.86197102 724.67026528 -477.04077148 732.94970703 C-478.66454228 739.22717145 -479.95867725 745.52075866 -481.09667969 751.90112305 C-482.1406215 757.61177795 -483.50660378 763.21268938 -485.02880859 768.81396484 C-486.00205699 772.49036435 -486.29858398 775.2410191 -486.29858398 779.12939453 C-446.69858398 779.12939453 -407.09858398 779.12939453 -366.29858398 779.12939453 C-364.99905285 775.23080111 -365.89994775 773.4656405 -367.11108398 769.56689453 C-368.59922016 764.59794669 -369.85856563 759.71710422 -370.80249023 754.62158203 C-371.37164785 751.76234927 -372.07632682 748.95374345 -372.79858398 746.12939453 C-373.93636634 741.66928769 -374.89834293 737.21064799 -375.76733398 732.69189453 C-376.3639384 729.81415556 -377.07213908 726.97705856 -377.79858398 724.12939453 C-378.93636634 719.66928769 -379.89834293 715.21064799 -380.76733398 710.69189453 C-381.3639384 707.81415556 -382.07213908 704.97705856 -382.79858398 702.12939453 C-383.93636634 697.66928769 -384.89834293 693.21064799 -385.76733398 688.69189453 C-386.3639384 685.81415556 -387.07213908 682.97705856 -387.79858398 680.12939453 C-388.93636634 675.66928769 -389.89834293 671.21064799 -390.76733398 666.69189453 C-391.3639384 663.81415556 -392.07213908 660.97705856 -392.79858398 658.12939453 C-393.93636634 653.66928769 -394.89834293 649.21064799 -395.76733398 644.69189453 C-396.3639384 641.81415556 -397.07213908 638.97705856 -397.79858398 636.12939453 C-398.93636634 631.66928769 -399.89834293 627.21064799 -400.76733398 622.69189453 C-401.3639384 619.81415556 -402.07213908 616.97705856 -402.79858398 614.12939453 C-403.93636634 609.66928769 -404.89834293 605.21064799 -405.76733398 600.69189453 C-406.3639384 597.81415556 -407.07213908 594.97705856 -407.79858398 592.12939453 C-408.93636634 587.66928769 -409.89834293 583.21064799 -410.76733398 578.69189453 C-411.3639384 575.81415556 -412.07213908 572.97705856 -412.79858398 570.12939453 C-413.93636634 565.66928769 -414.89834293 561.21064799 -415.76733398 556.69189453 C-416.3639384 553.81415556 -417.07213908 550.97705856 -417.79858398 548.12939453 C-419.88626117 539.91506672 -421.41614088 531.63503036 -422.83374023 523.28173828 C-423.08883719 521.15850856 -423.08883719 521.15850856 -424.29858398 520.12939453 C-424.75318256 517.47476332 -425.00101636 514.80750315 -425.29858398 512.12939453 C-425.62858398 512.12939453 -425.95858398 512.12939453 -426.29858398 512.12939453 Z M480.70141602 512.12939453 C480.55704102 513.42876953 480.41266602 514.72814453 480.26391602 516.06689453 C479.82641602 520.00439453 479.82641602 520.00439453 478.70141602 521.12939453 C478.37186699 522.72620935 478.08886155 524.33268899 477.82641602 525.94189453 C476.58450571 533.06218028 474.78687686 540.00689298 472.94750977 546.99267578 C471.27511569 553.46335234 469.92515377 559.93935679 468.79125977 566.52294922 C468.26937208 569.47191118 467.65655269 572.26345672 466.70532227 575.10595703 C465.50299894 578.72696191 464.84293119 582.3789981 464.20141602 586.12939453 C463.37611799 590.95421376 462.25006669 595.48344249 460.70141602 600.12939453 C460.16380192 602.79596046 459.65975936 605.4498488 459.20141602 608.12939453 C458.37611799 612.95421376 457.25006669 617.48344249 455.70141602 622.12939453 C455.16380192 624.79596046 454.65975936 627.4498488 454.20141602 630.12939453 C453.37611799 634.95421376 452.25006669 639.48344249 450.70141602 644.12939453 C450.16380192 646.79596046 449.65975936 649.4498488 449.20141602 652.12939453 C448.37611799 656.95421376 447.25006669 661.48344249 445.70141602 666.12939453 C445.16380192 668.79596046 444.65975936 671.4498488 444.20141602 674.12939453 C443.37611799 678.95421376 442.25006669 683.48344249 440.70141602 688.12939453 C440.16380192 690.79596046 439.65975936 693.4498488 439.20141602 696.12939453 C438.37611799 700.95421376 437.25006669 705.48344249 435.70141602 710.12939453 C435.16380192 712.79596046 434.65975936 715.4498488 434.20141602 718.12939453 C433.37611799 722.95421376 432.25006669 727.48344249 430.70141602 732.12939453 C430.16380192 734.79596046 429.65975936 737.4498488 429.20141602 740.12939453 C428.37616669 744.95392904 427.25372003 749.48460987 425.70141602 754.12939453 C425.16238095 756.7544953 424.65984043 759.36595595 424.20141602 762.00439453 C423.41591299 766.39648147 422.60967343 770.7547335 421.45141602 775.06689453 C421.08016602 776.58283203 421.08016602 776.58283203 420.70141602 778.12939453 C421.70197046 779.35071047 421.70197046 779.35071047 423.69854832 779.25244236 C425.02454752 779.25105967 425.02454752 779.25105967 426.37733459 779.24964905 C427.89394432 779.25171104 427.89394432 779.25171104 429.44119263 779.2538147 C430.55968597 779.25021942 431.67817932 779.24662415 432.83056641 779.24291992 C434.58642815 779.24313896 434.58642815 779.24313896 436.37776184 779.24336243 C439.59662544 779.24278348 442.81544605 779.23775445 446.03430104 779.23078847 C449.39489001 779.2245541 452.75547975 779.22395107 456.11607361 779.22276306 C462.48383943 779.21964999 468.85158817 779.21143693 475.21934646 779.20141357 C482.4671133 779.19025168 489.71488094 779.18474179 496.96265423 779.17971814 C511.87558436 779.1692543 526.78849848 779.15165533 541.70141602 779.12939453 C540.45064106 770.28167842 538.62578694 761.7200504 536.42016602 753.06298828 C535.58275689 749.64508473 534.89809168 746.21296901 534.23266602 742.75830078 C533.61469335 739.70024488 532.91202133 736.66723226 532.20141602 733.62939453 C531.30209013 729.78477638 530.4481989 725.94394232 529.70141602 722.06689453 C528.78443918 717.35210531 527.60716616 712.71993511 526.42016602 708.06689453 C525.57832514 704.62632749 524.9014003 701.16931283 524.23266602 697.69189453 C523.6360616 694.81415556 522.92786092 691.97705856 522.20141602 689.12939453 C521.06363366 684.66928769 520.10165707 680.21064799 519.23266602 675.69189453 C518.6360616 672.81415556 517.92786092 669.97705856 517.20141602 667.12939453 C516.26916234 663.47496011 515.41362893 659.8329017 514.70141602 656.12939453 C514.02838138 652.63182112 513.22427599 649.2010183 512.32641602 645.75439453 C510.93184038 640.30924243 509.83213961 634.83268079 508.76391602 629.31689453 C507.35022593 622.03622108 505.63412673 614.95044476 503.64282227 607.80517578 C502.27866385 602.47873153 501.33980103 597.1053729 500.41235352 591.68798828 C499.74892492 588.36720007 498.79595864 585.32744089 497.70141602 582.12939453 C497.35738294 579.79761478 497.021924 577.46452412 496.70141602 575.12939453 C496.37141602 574.79939453 496.04141602 574.46939453 495.70141602 574.12939453 C495.37181297 572.70011586 495.08880356 571.26002601 494.82641602 569.81689453 C494.07424254 565.88201689 493.19547794 562.01025245 492.20141602 558.12939453 C491.06363366 553.66928769 490.10165707 549.21064799 489.23266602 544.69189453 C488.42371646 540.78990257 487.40902704 536.94314629 486.42407227 533.08251953 C485.56250732 529.56174601 484.85928068 526.02380937 484.17407227 522.46533203 C483.47022822 518.98683007 482.5919743 515.56440505 481.70141602 512.12939453 C481.37141602 512.12939453 481.04141602 512.12939453 480.70141602 512.12939453 Z " fill="#000000" transform="translate(612.298583984375,35.87060546875)"/>
</svg>
