<svg width="18" height="18" viewBox="0 0 18 18" fill="none" xmlns="http://www.w3.org/2000/svg">
<path d="M9 0C4.03745 0 0 4.03745 0 9C0 13.9626 4.03745 18 9 18C13.9626 18 18 13.9626 18 9C18 4.03745 13.9626 0 9 0ZM13.9886 7.16633L8.24069 12.9143C8.06575 13.0892 7.82329 13.1896 7.57596 13.1896V13.5788L7.56759 13.1896C7.31695 13.1875 7.07351 13.0828 6.89955 12.9024L3.9997 9.89669C3.6397 9.52365 3.6504 8.92761 4.02344 8.56761C4.19955 8.39753 4.43131 8.30413 4.67591 8.30413C4.93336 8.30413 5.17369 8.4061 5.35252 8.59135L7.58802 10.9084L12.6595 5.83706C12.837 5.65959 13.0731 5.56171 13.3243 5.56171C13.5753 5.56171 13.8114 5.65939 13.9888 5.83686C14.355 6.20348 14.355 6.79991 13.9886 7.16633Z" fill="#0D2C36"/>
</svg>
