<svg width="22" height="22" viewBox="0 0 22 22" fill="none" xmlns="http://www.w3.org/2000/svg">
<path d="M10.9994 16.7383C12.2679 16.7383 13.2961 17.7666 13.2961 19.0351C13.2961 20.3035 12.2679 21.3318 10.9994 21.3318C9.73095 21.3318 8.70266 20.3035 8.70266 19.0351C8.70266 17.7666 9.73095 16.7383 10.9994 16.7383ZM19.038 16.7383C20.3065 16.7383 21.3347 17.7666 21.3347 19.0351C21.3347 20.3035 20.3065 21.3318 19.038 21.3318C17.7695 21.3318 16.7413 20.3035 16.7413 19.0351C16.7413 17.7666 17.7695 16.7383 19.038 16.7383ZM2.9608 16.7383C4.22926 16.7383 5.25755 17.7666 5.25755 19.0351C5.25755 20.3035 4.22926 21.3318 2.9608 21.3318C1.69235 21.3318 0.664062 20.3035 0.664062 19.0351C0.664062 17.7666 1.69235 16.7383 2.9608 16.7383ZM10.9994 8.69973C12.2679 8.69973 13.2961 9.72802 13.2961 10.9965C13.2961 12.2649 12.2679 13.2932 10.9994 13.2932C9.73095 13.2932 8.70266 12.2649 8.70266 10.9965C8.70266 9.72802 9.73095 8.69973 10.9994 8.69973ZM19.038 8.69973C20.3065 8.69973 21.3347 9.72802 21.3347 10.9965C21.3347 12.2649 20.3065 13.2932 19.038 13.2932C17.7695 13.2932 16.7413 12.2649 16.7413 10.9965C16.7413 9.72802 17.7695 8.69973 19.038 8.69973ZM2.9608 8.69973C4.22926 8.69973 5.25755 9.72802 5.25755 10.9965C5.25755 12.2649 4.22926 13.2932 2.9608 13.2932C1.69235 13.2932 0.664062 12.2649 0.664062 10.9965C0.664062 9.72802 1.69235 8.69973 2.9608 8.69973ZM10.9994 0.661133C12.2679 0.661133 13.2961 1.68942 13.2961 2.95788C13.2961 4.22633 12.2679 5.25462 10.9994 5.25462C9.73095 5.25462 8.70266 4.22633 8.70266 2.95788C8.70266 1.68942 9.73095 0.661133 10.9994 0.661133ZM19.038 0.661133C20.3065 0.661133 21.3347 1.68942 21.3347 2.95788C21.3347 4.22633 20.3065 5.25462 19.038 5.25462C17.7695 5.25462 16.7413 4.22633 16.7413 2.95788C16.7413 1.68942 17.7695 0.661133 19.038 0.661133ZM2.9608 0.661133C4.22926 0.661133 5.25755 1.68942 5.25755 2.95788C5.25755 4.22633 4.22926 5.25462 2.9608 5.25462C1.69235 5.25462 0.664062 4.22633 0.664062 2.95788C0.664062 1.68942 1.69235 0.661133 2.9608 0.661133Z" fill="url(#paint0_linear_7599_15303)"/>
<defs>
<linearGradient id="paint0_linear_7599_15303" x1="23.5653" y1="0.661133" x2="2.18126" y2="22.7974" gradientUnits="userSpaceOnUse">
<stop stop-color="#6E72EE"/>
<stop offset="1" stop-color="#595DDC"/>
</linearGradient>
</defs>
</svg>
