<svg width="18" height="12" viewBox="0 0 18 12" fill="none" xmlns="http://www.w3.org/2000/svg">
<path opacity="0.9" d="M0 11.0769C0 10.5671 0.413276 10.1538 0.923077 10.1538H17.0769C17.5867 10.1538 18 10.5671 18 11.0769C18 11.5867 17.5867 12 17.0769 12H0.923077C0.413276 12 0 11.5867 0 11.0769ZM0 4.69231C0 4.14002 0.447715 3.69231 1 3.69231H17C17.5523 3.69231 18 4.14002 18 4.69231V7.30769C18 7.85998 17.5523 8.30769 17 8.30769H1C0.447716 8.30769 0 7.85998 0 7.30769V4.69231ZM0 0.923077C0 0.413276 0.413276 0 0.923077 0H17.0769C17.5867 0 18 0.413276 18 0.923077C18 1.43288 17.5867 1.84615 17.0769 1.84615H0.923077C0.413276 1.84615 0 1.43288 0 0.923077Z" fill="#ffffff"/>
</svg>
