<svg width="18" height="18" viewBox="0 0 18 18" fill="none" xmlns="http://www.w3.org/2000/svg">
<path d="M17.0339 2.11017H12.7119V1.16949C12.7119 0.508475 12.1017 0 11.339 0H6.45763C5.69492 0 5.08475 0.508475 5.08475 1.16949V2.11017H0.762712C0.330508 2.11017 0 2.44068 0 2.87288C0 3.30508 0.330508 3.63559 0.762712 3.63559H1.70339L2.64407 15.483C2.66949 16.8814 3.78814 18 5.18644 18H12.5847C13.983 18 15.1017 16.8814 15.1271 15.483L16.0932 3.66102H17.0339C17.4661 3.66102 17.7966 3.33051 17.7966 2.8983C17.7966 2.4661 17.4661 2.11017 17.0339 2.11017ZM6.61017 1.52542H11.1864V2.11017H6.61017V1.52542ZM6.91525 13.9068H6.88983C6.48305 13.9068 6.15254 13.5763 6.12712 13.1695L5.84746 6.9661C5.82203 6.5339 6.15254 6.17797 6.58475 6.17797H6.61017C7.01695 6.17797 7.34746 6.50847 7.37288 6.91525L7.65254 13.1186C7.65254 13.5254 7.34746 13.8814 6.91525 13.9068ZM11.6695 13.1695C11.6441 13.5763 11.3136 13.9068 10.9068 13.9068H10.8814C10.4492 13.8814 10.1441 13.5254 10.1441 13.1186L10.4237 6.91525C10.4492 6.50847 10.7797 6.17797 11.1864 6.17797H11.2119C11.6441 6.20339 11.9492 6.55932 11.9492 6.9661L11.6695 13.1695Z" fill="#E73B18"/>
</svg>
