<svg width="15" height="18" viewBox="0 0 15 18" fill="none" xmlns="http://www.w3.org/2000/svg">
<path d="M3.60028 14.4H0.380859C0.426703 14.4625 0.476505 14.522 0.529959 14.5782L3.42196 17.4702C3.47816 17.5237 3.53772 17.5736 3.60028 17.6195V14.4Z" fill="black"/>
<path d="M12.6 0H1.8C1.32277 0.000524087 0.865239 0.190335 0.527787 0.527787C0.190335 0.865239 0.000524087 1.32277 0 1.8V13.2H3.6C3.91813 13.2004 4.2231 13.327 4.44805 13.5519C4.67301 13.7769 4.79957 14.0819 4.8 14.4V18H12.6C13.0772 17.9995 13.5348 17.8097 13.8722 17.4722C14.2097 17.1348 14.3995 16.6772 14.4 16.2V1.8C14.3995 1.32277 14.2097 0.865239 13.8722 0.527787C13.5348 0.190335 13.0772 0.000524087 12.6 0Z" fill="black"/>
</svg>
