<svg width="26" height="26" viewBox="0 0 26 26" fill="none" xmlns="http://www.w3.org/2000/svg">
<path d="M19.3726 1.9248C20.6924 1.9248 21.7728 2.95015 21.8605 4.24773L21.8663 4.41846V21.5948C21.8663 22.9146 20.8409 23.995 19.5434 24.0827L19.3726 24.0884H6.62744C5.30762 24.0884 4.22728 23.0631 4.13954 21.7655L4.13379 21.5948V4.41846C4.13379 3.09863 5.15914 2.01829 6.45671 1.93056L6.62744 1.9248H19.3726ZM8.2896 7.4584C7.83053 7.4584 7.45839 7.83055 7.45839 8.28962C7.45839 8.74869 7.83053 9.12084 8.2896 9.12084H17.7101C18.1691 9.12084 18.5413 8.74869 18.5413 8.28962C18.5413 7.83055 18.1691 7.4584 17.7101 7.4584H8.2896ZM7.45839 12.7228C7.45839 13.1818 7.83053 13.554 8.2896 13.554H17.7101C18.1691 13.554 18.5413 13.1818 18.5413 12.7228C18.5413 12.2637 18.1691 11.8916 17.7101 11.8916H8.2896C7.83053 11.8916 7.45839 12.2637 7.45839 12.7228ZM8.2896 16.3247C7.83053 16.3247 7.45839 16.6969 7.45839 17.1559C7.45839 17.615 7.83053 17.9872 8.2896 17.9872H17.7101C18.1691 17.9872 18.5413 17.615 18.5413 17.1559C18.5413 16.6969 18.1691 16.3247 17.7101 16.3247H8.2896Z" fill="white"/>
</svg>
