<svg width="41" height="40" viewBox="0 0 41 40" fill="none" xmlns="http://www.w3.org/2000/svg">
<g clip-path="url(#clip0_7013_171434)">
<path d="M32.9375 40H8.5625C4.25469 40 0.75 36.4953 0.75 32.1875V7.8125C0.75 3.50469 4.25469 0 8.5625 0H32.9375C37.2453 0 40.75 3.50469 40.75 7.8125V32.1875C40.75 36.4953 37.2453 40 32.9375 40ZM8.5625 3.125C5.97781 3.125 3.875 5.22781 3.875 7.8125V32.1875C3.875 34.7722 5.97781 36.875 8.5625 36.875H32.9375C35.5222 36.875 37.625 34.7722 37.625 32.1875V7.8125C37.625 5.22781 35.5222 3.125 32.9375 3.125H8.5625Z" fill="url(#paint0_linear_7013_171434)"/>
<path d="M14.5 12.1875H8.5625C7.69953 12.1875 7 11.488 7 10.625C7 9.76203 7.69953 9.0625 8.5625 9.0625H14.5C15.363 9.0625 16.0625 9.76203 16.0625 10.625C16.0625 11.488 15.363 12.1875 14.5 12.1875Z" fill="url(#paint1_linear_7013_171434)"/>
<path d="M14.5 18.4375H8.5625C7.69953 18.4375 7 17.738 7 16.875C7 16.012 7.69953 15.3125 8.5625 15.3125H14.5C15.363 15.3125 16.0625 16.012 16.0625 16.875C16.0625 17.738 15.363 18.4375 14.5 18.4375Z" fill="url(#paint2_linear_7013_171434)"/>
<path d="M14.5 24.6875H8.5625C7.69953 24.6875 7 23.988 7 23.125C7 22.262 7.69953 21.5625 8.5625 21.5625H14.5C15.363 21.5625 16.0625 22.262 16.0625 23.125C16.0625 23.988 15.363 24.6875 14.5 24.6875Z" fill="url(#paint3_linear_7013_171434)"/>
<path d="M14.5 30.9375H8.5625C7.69953 30.9375 7 30.238 7 29.375C7 28.512 7.69953 27.8125 8.5625 27.8125H14.5C15.363 27.8125 16.0625 28.512 16.0625 29.375C16.0625 30.238 15.363 30.9375 14.5 30.9375Z" fill="url(#paint4_linear_7013_171434)"/>
<path d="M32.9375 12.1875H27C26.137 12.1875 25.4375 11.488 25.4375 10.625C25.4375 9.76203 26.137 9.0625 27 9.0625H32.9375C33.8005 9.0625 34.5 9.76203 34.5 10.625C34.5 11.488 33.8005 12.1875 32.9375 12.1875Z" fill="url(#paint5_linear_7013_171434)"/>
<path d="M32.9375 18.4375H27C26.137 18.4375 25.4375 17.738 25.4375 16.875C25.4375 16.012 26.137 15.3125 27 15.3125H32.9375C33.8005 15.3125 34.5 16.012 34.5 16.875C34.5 17.738 33.8005 18.4375 32.9375 18.4375Z" fill="url(#paint6_linear_7013_171434)"/>
<path d="M32.9375 24.6875H27C26.137 24.6875 25.4375 23.988 25.4375 23.125C25.4375 22.262 26.137 21.5625 27 21.5625H32.9375C33.8005 21.5625 34.5 22.262 34.5 23.125C34.5 23.988 33.8005 24.6875 32.9375 24.6875Z" fill="url(#paint7_linear_7013_171434)"/>
<path d="M32.9375 30.9375H27C26.137 30.9375 25.4375 30.238 25.4375 29.375C25.4375 28.512 26.137 27.8125 27 27.8125H32.9375C33.8005 27.8125 34.5 28.512 34.5 29.375C34.5 30.238 33.8005 30.9375 32.9375 30.9375Z" fill="url(#paint8_linear_7013_171434)"/>
<path d="M20.75 34.0625C19.887 34.0625 19.1875 33.363 19.1875 32.5V7.5C19.1875 6.63703 19.887 5.9375 20.75 5.9375C21.613 5.9375 22.3125 6.63703 22.3125 7.5V32.5C22.3125 33.363 21.613 34.0625 20.75 34.0625Z" fill="url(#paint9_linear_7013_171434)"/>
</g>
<defs>
<linearGradient id="paint0_linear_7013_171434" x1="45.0663" y1="7.09973e-07" x2="3.68594" y2="42.8362" gradientUnits="userSpaceOnUse">
<stop stop-color="#AB65EF"/>
<stop offset="1" stop-color="#6741DF"/>
</linearGradient>
<linearGradient id="paint1_linear_7013_171434" x1="17.0404" y1="9.0625" x2="15.1006" y2="14.8859" gradientUnits="userSpaceOnUse">
<stop stop-color="#AB65EF"/>
<stop offset="1" stop-color="#6741DF"/>
</linearGradient>
<linearGradient id="paint2_linear_7013_171434" x1="17.0404" y1="15.3125" x2="15.1006" y2="21.1359" gradientUnits="userSpaceOnUse">
<stop stop-color="#AB65EF"/>
<stop offset="1" stop-color="#6741DF"/>
</linearGradient>
<linearGradient id="paint3_linear_7013_171434" x1="17.0404" y1="21.5625" x2="15.1006" y2="27.3859" gradientUnits="userSpaceOnUse">
<stop stop-color="#AB65EF"/>
<stop offset="1" stop-color="#6741DF"/>
</linearGradient>
<linearGradient id="paint4_linear_7013_171434" x1="17.0404" y1="27.8125" x2="15.1006" y2="33.6359" gradientUnits="userSpaceOnUse">
<stop stop-color="#AB65EF"/>
<stop offset="1" stop-color="#6741DF"/>
</linearGradient>
<linearGradient id="paint5_linear_7013_171434" x1="35.4779" y1="9.0625" x2="33.5381" y2="14.8859" gradientUnits="userSpaceOnUse">
<stop stop-color="#AB65EF"/>
<stop offset="1" stop-color="#6741DF"/>
</linearGradient>
<linearGradient id="paint6_linear_7013_171434" x1="35.4779" y1="15.3125" x2="33.5381" y2="21.1359" gradientUnits="userSpaceOnUse">
<stop stop-color="#AB65EF"/>
<stop offset="1" stop-color="#6741DF"/>
</linearGradient>
<linearGradient id="paint7_linear_7013_171434" x1="35.4779" y1="21.5625" x2="33.5381" y2="27.3859" gradientUnits="userSpaceOnUse">
<stop stop-color="#AB65EF"/>
<stop offset="1" stop-color="#6741DF"/>
</linearGradient>
<linearGradient id="paint8_linear_7013_171434" x1="35.4779" y1="27.8125" x2="33.5381" y2="33.6359" gradientUnits="userSpaceOnUse">
<stop stop-color="#AB65EF"/>
<stop offset="1" stop-color="#6741DF"/>
</linearGradient>
<linearGradient id="paint9_linear_7013_171434" x1="22.6497" y1="5.9375" x2="16.04" y2="6.69775" gradientUnits="userSpaceOnUse">
<stop stop-color="#AB65EF"/>
<stop offset="1" stop-color="#6741DF"/>
</linearGradient>
<clipPath id="clip0_7013_171434">
<rect width="40" height="40" fill="white" transform="translate(0.75)"/>
</clipPath>
</defs>
</svg>
