<svg xmlns="http://www.w3.org/2000/svg" width="24" height="24" viewBox="0 0 24 24" fill="none">
  <path d="M17.25 12H21C21.1989 12 21.3897 12.079 21.5303 12.2197C21.671 12.3603 21.75 12.5511 21.75 12.75V18.75C21.75 18.9489 21.671 19.1397 21.5303 19.2803C21.3897 19.421 21.1989 19.5 21 19.5H3C2.80109 19.5 2.61032 19.421 2.46967 19.2803C2.32902 19.1397 2.25 18.9489 2.25 18.75V12.75C2.25 12.5511 2.32902 12.3603 2.46967 12.2197C2.61032 12.079 2.80109 12 3 12H6.75" stroke="#3E484A" stroke-linecap="round" stroke-linejoin="round"/>
  <path d="M12 2.25V12" stroke="#3E484A" stroke-linecap="round" stroke-linejoin="round"/>
  <path d="M7.5 7.5L12 12L16.5 7.5" stroke="#3E484A" stroke-linecap="round" stroke-linejoin="round"/>
  <path d="M17.625 14.6562C18.2291 14.6562 18.7188 15.1459 18.7188 15.75C18.7188 16.3541 18.2291 16.8438 17.625 16.8438C17.0209 16.8438 16.5312 16.3541 16.5312 15.75C16.5312 15.1459 17.0209 14.6562 17.625 14.6562Z" fill="#343330" stroke="#3E484A" stroke-width="0.0625"/>
</svg>