<svg width="18" height="18" viewBox="0 0 18 18" fill="none" xmlns="http://www.w3.org/2000/svg">
<path d="M9 0C4.03579 0 0 4.03579 0 9C0 13.9642 4.03579 18 9 18C13.9642 18 18 13.9642 18 9C18 4.03579 13.9642 0 9 0ZM12.6758 10.4779L9.58737 13.5663C9.43579 13.7179 9.22737 13.8126 9 13.8126C8.77263 13.8126 8.58316 13.7179 8.41263 13.5663L5.32421 10.4779C5.00211 10.1558 5.00211 9.64421 5.32421 9.32211C5.64632 9 6.1579 9 6.48 9.32211L8.18526 11.0274V5.00211C8.18526 4.54737 8.54526 4.18737 9 4.18737C9.45474 4.18737 9.81474 4.54737 9.81474 5.00211V11.0274L11.52 9.32211C11.8421 9 12.3537 9 12.6758 9.32211C12.9979 9.64421 12.9979 10.1558 12.6758 10.4779Z" fill="#0D2C36"/>
</svg>
