<svg width="13" height="16" viewBox="0 0 13 16" fill="none" xmlns="http://www.w3.org/2000/svg">
<path d="M12.1549 14.4982C12.5691 14.4982 12.9049 14.834 12.9049 15.2482C12.9049 15.6279 12.6228 15.9417 12.2567 15.9914L12.1549 15.9982H1.66028C1.24606 15.9982 0.910278 15.6624 0.910278 15.2482C0.910278 14.8685 1.19243 14.5547 1.55851 14.505L1.66028 14.4982H12.1549ZM6.9139 0C7.2936 0 7.60739 0.282154 7.65706 0.648229L7.6639 0.75L7.66328 10.943L10.6295 7.97242C10.8955 7.70591 11.3122 7.68132 11.606 7.8989L11.6902 7.97144C11.9567 8.23746 11.9813 8.6541 11.7637 8.94792L11.6911 9.0321L7.44831 13.2827L7.37764 13.3453L7.28668 13.4039L7.25026 13.425L7.15907 13.4629L7.0386 13.493L6.96934 13.501L6.90928 13.5029C6.85916 13.5029 6.80828 13.4974 6.75856 13.4868L6.67769 13.4637C6.58168 13.4327 6.49457 13.3824 6.42042 13.3177L2.13084 9.03297C1.83774 8.74028 1.8374 8.26541 2.13008 7.97231C2.39616 7.70585 2.81281 7.68135 3.10657 7.89899L3.19074 7.97155L6.16328 10.939L6.1639 0.75C6.1639 0.335786 6.49969 0 6.9139 0Z" fill="#212121"/>
</svg>