<svg width="22" height="26" viewBox="0 0 22 26" fill="none" xmlns="http://www.w3.org/2000/svg">
<path d="M22 11.9998V23.9998C22 24.5302 21.7893 25.0389 21.4142 25.414C21.0391 25.7891 20.5304 25.9998 20 25.9998H2C1.46957 25.9998 0.960859 25.7891 0.585786 25.414C0.210714 25.0389 0 24.5302 0 23.9998V11.9998C0 11.4694 0.210714 10.9607 0.585786 10.5856C0.960859 10.2105 1.46957 9.99981 2 9.99981H5C5.26522 9.99981 5.51957 10.1052 5.70711 10.2927C5.89464 10.4802 6 10.7346 6 10.9998C6 11.265 5.89464 11.5194 5.70711 11.7069C5.51957 11.8945 5.26522 11.9998 5 11.9998H2V23.9998H20V11.9998H17C16.7348 11.9998 16.4804 11.8945 16.2929 11.7069C16.1054 11.5194 16 11.265 16 10.9998C16 10.7346 16.1054 10.4802 16.2929 10.2927C16.4804 10.1052 16.7348 9.99981 17 9.99981H20C20.5304 9.99981 21.0391 10.2105 21.4142 10.5856C21.7893 10.9607 22 11.4694 22 11.9998ZM6.7075 6.70731L10 3.41356V14.9998C10 15.265 10.1054 15.5194 10.2929 15.7069C10.4804 15.8945 10.7348 15.9998 11 15.9998C11.2652 15.9998 11.5196 15.8945 11.7071 15.7069C11.8946 15.5194 12 15.265 12 14.9998V3.41356L15.2925 6.70731C15.4801 6.89495 15.7346 7.00037 16 7.00037C16.2654 7.00037 16.5199 6.89495 16.7075 6.70731C16.8951 6.51967 17.0006 6.26517 17.0006 5.99981C17.0006 5.73445 16.8951 5.47995 16.7075 5.29231L11.7075 0.29231C11.6146 0.199334 11.5043 0.125575 11.3829 0.0752503C11.2615 0.024926 11.1314 -0.000976562 11 -0.000976562C10.8686 -0.000976562 10.7385 0.024926 10.6171 0.0752503C10.4957 0.125575 10.3854 0.199334 10.2925 0.29231L5.2925 5.29231C5.10486 5.47995 4.99944 5.73445 4.99944 5.99981C4.99944 6.26517 5.10486 6.51967 5.2925 6.70731C5.48014 6.89495 5.73464 7.00037 6 7.00037C6.26536 7.00037 6.51986 6.89495 6.7075 6.70731Z" fill="#4744D1"/>
</svg>
