<svg width="16" height="16" viewBox="0 0 16 16" fill="none" xmlns="http://www.w3.org/2000/svg">
<g clip-path="url(#clip0_7969_6041)">
<path d="M2.41675 15.3335H8.91675C9.38066 15.3328 9.82537 15.1482 10.1534 14.8202C10.4814 14.4921 10.666 14.0474 10.6667 13.5835V5.0835C10.666 4.61958 10.4814 4.17487 10.1534 3.84684C9.82537 3.5188 9.38066 3.3342 8.91675 3.3335H2.41675C1.95284 3.3342 1.50813 3.5188 1.18009 3.84684C0.852054 4.17487 0.667453 4.61958 0.666748 5.0835V13.5835C0.667453 14.0474 0.852054 14.4921 1.18009 14.8202C1.50813 15.1482 1.95284 15.3328 2.41675 15.3335ZM2.00008 5.0835C2.00008 4.97299 2.04398 4.86701 2.12212 4.78887C2.20026 4.71073 2.30624 4.66683 2.41675 4.66683H8.91675C9.02726 4.66683 9.13324 4.71073 9.21138 4.78887C9.28952 4.86701 9.33342 4.97299 9.33342 5.0835V13.5835C9.33342 13.694 9.28952 13.8 9.21138 13.8781C9.13324 13.9563 9.02726 14.0002 8.91675 14.0002H2.41675C2.30624 14.0002 2.20026 13.9563 2.12212 13.8781C2.04398 13.8 2.00008 13.694 2.00008 13.5835V5.0835Z" fill="#212121"/>
<path d="M13.58 0.666748H7.0867C6.74193 0.667074 6.40491 0.769078 6.11782 0.959995C5.83074 1.15091 5.60634 1.42226 5.4727 1.74008C5.40375 1.90292 5.4023 2.08649 5.46869 2.2504C5.53508 2.4143 5.66386 2.54513 5.8267 2.61408C5.98955 2.68304 6.17311 2.68448 6.33702 2.61809C6.50093 2.5517 6.63175 2.42292 6.7007 2.26008C6.73225 2.18352 6.78572 2.11799 6.8544 2.07173C6.92308 2.02547 7.0039 2.00054 7.0867 2.00008H13.58C13.6914 2.00026 13.7981 2.04456 13.8768 2.12329C13.9556 2.20202 13.9999 2.30874 14 2.42008V10.9134C13.9999 11.0248 13.9556 11.1315 13.8768 11.2102C13.7981 11.2889 13.6914 11.3332 13.58 11.3334H12C11.8232 11.3334 11.6537 11.4037 11.5286 11.5287C11.4036 11.6537 11.3334 11.8233 11.3334 12.0001C11.3334 12.1769 11.4036 12.3465 11.5286 12.4715C11.6537 12.5965 11.8232 12.6667 12 12.6667H13.58C14.0449 12.6662 14.4905 12.4813 14.8192 12.1526C15.1479 11.8239 15.3328 11.3783 15.3334 10.9134V2.42008C15.3328 1.95523 15.1479 1.50957 14.8192 1.18087C14.4905 0.852173 14.0449 0.667277 13.58 0.666748Z" fill="#212121"/>
</g>
<defs>
<clipPath id="clip0_7969_6041">
<rect width="16" height="16" fill="white"/>
</clipPath>
</defs>
</svg>
