<svg width="17" height="16" viewBox="0 0 17 16" fill="none" xmlns="http://www.w3.org/2000/svg">
    <path
        d="M10.0927 2.32031L1.9082 10.488C2.58183 10.9258 3.27229 11.4816 3.89539 12.1047C4.50165 12.7109 5.07423 13.4014 5.51209 14.0919L13.6966 5.90735C13.3766 5.35162 12.8714 4.66115 12.1136 3.90333C11.3389 3.1455 10.6653 2.64028 10.0927 2.32031Z"
        fill="url(#paint0_linear_12055_28953)" />
    <path
        d="M15.5826 1.98298L14.0164 0.416804C13.4607 -0.138935 12.5513 -0.138935 11.9955 0.416804L11.002 1.4104C11.6756 1.84825 12.366 2.40399 12.9891 3.02709C13.6122 3.65019 14.168 4.32382 14.6058 5.01428L15.5994 4.02069C16.1383 3.44811 16.1383 2.53872 15.5826 1.98298Z"
        fill="url(#paint1_linear_12055_28953)" />
    <path
        d="M1.16738 11.498L0.0222165 15.3209C-0.0956675 15.725 0.274825 16.0955 0.678999 15.9776L4.50181 14.8325C4.18184 14.2936 3.69346 13.6705 3.01984 12.98C2.32938 12.2896 1.70627 11.818 1.16738 11.498Z"
        fill="url(#paint2_linear_12055_28953)" />
    <defs>
        <linearGradient id="paint0_linear_12055_28953" x1="14.9687" y1="2.32031" x2="2.79149"
            y2="14.9439" gradientUnits="userSpaceOnUse">
            <stop stop-color="#6E72EE" />
            <stop offset="1" stop-color="#595DDC" />
        </linearGradient>
        <linearGradient id="paint1_linear_12055_28953" x1="16.541" y1="8.90001e-08" x2="11.3532"
            y2="5.35458" gradientUnits="userSpaceOnUse">
            <stop stop-color="#6E72EE" />
            <stop offset="1" stop-color="#595DDC" />
        </linearGradient>
        <linearGradient id="paint2_linear_12055_28953" x1="4.98759" y1="11.498" x2="0.330428"
            y2="16.3191" gradientUnits="userSpaceOnUse">
            <stop stop-color="#6E72EE" />
            <stop offset="1" stop-color="#595DDC" />
        </linearGradient>
    </defs>
</svg>