<svg width="16" height="17" viewBox="0 0 16 17" fill="none" xmlns="http://www.w3.org/2000/svg">
<rect y="0.5" width="16" height="16" rx="8" fill="#FF551A"/>
<path d="M12.997 11.4991C12.9658 11.5511 12.9248 11.5964 12.8761 11.6325C12.8274 11.6686 12.7721 11.6947 12.7133 11.7094C12.6545 11.724 12.5934 11.7269 12.5335 11.7179C12.4735 11.7088 12.416 11.6881 12.3641 11.6567L8.46002 9.31349V13.5633C8.46002 13.6854 8.41153 13.8025 8.32522 13.8888C8.23891 13.9751 8.12184 14.0236 7.99977 14.0236C7.87771 14.0236 7.76064 13.9751 7.67432 13.8888C7.58801 13.8025 7.53952 13.6854 7.53952 13.5633V9.31349L3.63428 11.6567C3.58243 11.6886 3.52478 11.7099 3.46466 11.7193C3.40455 11.7287 3.34316 11.7261 3.28405 11.7117C3.22494 11.6972 3.16928 11.6712 3.1203 11.6351C3.07131 11.599 3.02997 11.5535 2.99867 11.5013C2.96737 11.4492 2.94672 11.3913 2.93793 11.3311C2.92914 11.2709 2.93238 11.2095 2.94746 11.1505C2.96253 11.0916 2.98915 11.0362 3.02577 10.9876C3.06239 10.939 3.10828 10.8982 3.16079 10.8674L7.10516 8.50057L3.16079 6.13372C3.10828 6.10297 3.06239 6.06212 3.02577 6.01352C2.98915 5.96492 2.96253 5.90954 2.94746 5.85058C2.93238 5.79163 2.92914 5.73027 2.93793 5.67006C2.94672 5.60985 2.96737 5.55197 2.99867 5.49979C3.02997 5.44761 3.07131 5.40215 3.1203 5.36605C3.16928 5.32995 3.22494 5.30391 3.28405 5.28946C3.34316 5.27501 3.40455 5.27242 3.46466 5.28185C3.52478 5.29128 3.58243 5.31253 3.63428 5.34439L7.53952 7.68765V3.43779C7.53952 3.31572 7.58801 3.19866 7.67432 3.11234C7.76064 3.02603 7.87771 2.97754 7.99977 2.97754C8.12184 2.97754 8.23891 3.02603 8.32522 3.11234C8.41153 3.19866 8.46002 3.31572 8.46002 3.43779V7.68765L12.3653 5.34439C12.4171 5.31253 12.4748 5.29128 12.5349 5.28185C12.595 5.27242 12.6564 5.27501 12.7155 5.28946C12.7746 5.30391 12.8303 5.32995 12.8792 5.36605C12.9282 5.40215 12.9696 5.44761 13.0009 5.49979C13.0322 5.55197 13.0528 5.60985 13.0616 5.67006C13.0704 5.73027 13.0672 5.79163 13.0521 5.85058C13.037 5.90954 13.0104 5.96492 12.9738 6.01352C12.9372 6.06212 12.8913 6.10297 12.8387 6.13372L8.89439 8.50057L12.8387 10.8674C12.8906 10.8985 12.9359 10.9395 12.9719 10.988C13.008 11.0366 13.0341 11.0918 13.0488 11.1505C13.0635 11.2091 13.0665 11.2701 13.0576 11.3299C13.0487 11.3898 13.0281 11.4473 12.997 11.4991Z" fill="white"/>
</svg>
