<svg width="20" height="21" viewBox="0 0 20 21" fill="none" xmlns="http://www.w3.org/2000/svg">
<path d="M16 18.3086C16 19.4995 15.0748 20.4742 13.904 20.5534L13.75 20.5586H6.25C5.05914 20.5586 4.08436 19.6334 4.00519 18.4626L4 18.3086V2.80859C4 1.61773 4.92516 0.642949 6.09595 0.563785L6.25 0.558594H13.75C14.9409 0.558594 15.9156 1.48376 15.9948 2.65454L16 2.80859V18.3086ZM17 3.55859H17.75C18.9409 3.55859 19.9156 4.48376 19.9948 5.65454L20 5.80859V15.3086C20 16.4995 19.0748 17.4742 17.904 17.5534L17.75 17.5586H17V3.55859ZM3 17.5586H2.25C1.05914 17.5586 0.0843551 16.6334 0.00519085 15.4626L0 15.3086V5.80859C0 4.61773 0.925161 3.64295 2.09595 3.56378L2.25 3.55859H3V17.5586Z" fill="#0D2C36"/>
</svg>