<svg width="40" height="40" viewBox="0 0 40 40" fill="none" xmlns="http://www.w3.org/2000/svg">
<path d="M36.25 35H32.5V5H33.75C34.0815 5 34.3995 4.8683 34.6339 4.63388C34.8683 4.39946 35 4.08152 35 3.75C35 3.41848 34.8683 3.10054 34.6339 2.86612C34.3995 2.6317 34.0815 2.5 33.75 2.5H6.25C5.91848 2.5 5.60054 2.6317 5.36612 2.86612C5.1317 3.10054 5 3.41848 5 3.75C5 4.08152 5.1317 4.39946 5.36612 4.63388C5.60054 4.8683 5.91848 5 6.25 5H7.5V35H3.75C3.41848 35 3.10054 35.1317 2.86612 35.3661C2.6317 35.6005 2.5 35.9185 2.5 36.25C2.5 36.5815 2.6317 36.8995 2.86612 37.1339C3.10054 37.3683 3.41848 37.5 3.75 37.5H36.25C36.5815 37.5 36.8995 37.3683 37.1339 37.1339C37.3683 36.8995 37.5 36.5815 37.5 36.25C37.5 35.9185 37.3683 35.6005 37.1339 35.3661C36.8995 35.1317 36.5815 35 36.25 35ZM13.75 8.75H17.5C17.8315 8.75 18.1495 8.8817 18.3839 9.11612C18.6183 9.35054 18.75 9.66848 18.75 10C18.75 10.3315 18.6183 10.6495 18.3839 10.8839C18.1495 11.1183 17.8315 11.25 17.5 11.25H13.75C13.4185 11.25 13.1005 11.1183 12.8661 10.8839C12.6317 10.6495 12.5 10.3315 12.5 10C12.5 9.66848 12.6317 9.35054 12.8661 9.11612C13.1005 8.8817 13.4185 8.75 13.75 8.75ZM13.75 15H17.5C17.8315 15 18.1495 15.1317 18.3839 15.3661C18.6183 15.6005 18.75 15.9185 18.75 16.25C18.75 16.5815 18.6183 16.8995 18.3839 17.1339C18.1495 17.3683 17.8315 17.5 17.5 17.5H13.75C13.4185 17.5 13.1005 17.3683 12.8661 17.1339C12.6317 16.8995 12.5 16.5815 12.5 16.25C12.5 15.9185 12.6317 15.6005 12.8661 15.3661C13.1005 15.1317 13.4185 15 13.75 15ZM12.5 22.5C12.5 22.1685 12.6317 21.8505 12.8661 21.6161C13.1005 21.3817 13.4185 21.25 13.75 21.25H17.5C17.8315 21.25 18.1495 21.3817 18.3839 21.6161C18.6183 21.8505 18.75 22.1685 18.75 22.5C18.75 22.8315 18.6183 23.1495 18.3839 23.3839C18.1495 23.6183 17.8315 23.75 17.5 23.75H13.75C13.4185 23.75 13.1005 23.6183 12.8661 23.3839C12.6317 23.1495 12.5 22.8315 12.5 22.5ZM23.75 35H16.25V28.75H23.75V35ZM26.25 23.75H22.5C22.1685 23.75 21.8505 23.6183 21.6161 23.3839C21.3817 23.1495 21.25 22.8315 21.25 22.5C21.25 22.1685 21.3817 21.8505 21.6161 21.6161C21.8505 21.3817 22.1685 21.25 22.5 21.25H26.25C26.5815 21.25 26.8995 21.3817 27.1339 21.6161C27.3683 21.8505 27.5 22.1685 27.5 22.5C27.5 22.8315 27.3683 23.1495 27.1339 23.3839C26.8995 23.6183 26.5815 23.75 26.25 23.75ZM26.25 17.5H22.5C22.1685 17.5 21.8505 17.3683 21.6161 17.1339C21.3817 16.8995 21.25 16.5815 21.25 16.25C21.25 15.9185 21.3817 15.6005 21.6161 15.3661C21.8505 15.1317 22.1685 15 22.5 15H26.25C26.5815 15 26.8995 15.1317 27.1339 15.3661C27.3683 15.6005 27.5 15.9185 27.5 16.25C27.5 16.5815 27.3683 16.8995 27.1339 17.1339C26.8995 17.3683 26.5815 17.5 26.25 17.5ZM26.25 11.25H22.5C22.1685 11.25 21.8505 11.1183 21.6161 10.8839C21.3817 10.6495 21.25 10.3315 21.25 10C21.25 9.66848 21.3817 9.35054 21.6161 9.11612C21.8505 8.8817 22.1685 8.75 22.5 8.75H26.25C26.5815 8.75 26.8995 8.8817 27.1339 9.11612C27.3683 9.35054 27.5 9.66848 27.5 10C27.5 10.3315 27.3683 10.6495 27.1339 10.8839C26.8995 11.1183 26.5815 11.25 26.25 11.25Z" fill="#343330"/>
</svg>
