<svg width="24" height="24" viewBox="0 0 24 24" fill="none" xmlns="http://www.w3.org/2000/svg">
<path d="M18.6499 20.5891C18.6499 21.9089 17.6245 22.9893 16.3269 23.077L16.1562 23.0828H7.84404C6.52422 23.0828 5.44388 22.0574 5.35615 20.7599L5.35039 20.5891V3.41064C5.35039 2.09082 6.37574 1.01048 7.67331 0.922745L7.84404 0.916992H16.1562C17.476 0.916992 18.5564 1.94234 18.6441 3.23991L18.6499 3.41064V20.5891ZM19.7582 4.24186H20.5894C21.9092 4.24186 22.9895 5.26721 23.0773 6.56478L23.083 6.73551V17.2643C23.083 18.5841 22.0577 19.6644 20.7601 19.7522L20.5894 19.7579H19.7582V4.24186ZM4.2421 19.7579H3.41089C2.09107 19.7579 1.01073 18.7326 0.922989 17.435L0.917236 17.2643V6.73551C0.917236 5.41569 1.94258 4.33535 3.24016 4.24761L3.41089 4.24186H4.2421V19.7579Z" fill="#0D2C36"/>
</svg>
