<svg width="48" height="48" viewBox="0 0 48 48" fill="none" xmlns="http://www.w3.org/2000/svg">
<circle cx="24" cy="24" r="24" fill="#E73B18"/>
<path d="M21.5879 31.0957C21.5879 31.6882 21.7952 32.2002 22.21 32.6318C22.6247 33.055 23.2214 33.2666 24 33.2666C24.7786 33.2666 25.3711 33.055 25.7773 32.6318C26.1921 32.2002 26.3994 31.6882 26.3994 31.0957C26.3994 30.5033 26.1921 29.9954 25.7773 29.5723C25.3626 29.1406 24.766 28.9248 23.9873 28.9248C23.2087 28.9248 22.612 29.1406 22.1973 29.5723C21.791 29.9954 21.5879 30.5033 21.5879 31.0957ZM22.1973 27.0967H25.79L26.0439 14.5156H21.9561L22.1973 27.0967Z" fill="white"/>
</svg>
