<svg width="24" height="24" viewBox="0 0 24 24" fill="none" xmlns="http://www.w3.org/2000/svg">
<path d="M18.6497 20.5891C18.6497 21.9089 17.6244 22.9893 16.3268 23.077L16.1561 23.0828H7.84392C6.5241 23.0828 5.44376 22.0574 5.35602 20.7599L5.35027 20.5891V3.41064C5.35027 2.09082 6.37562 1.01048 7.67319 0.922745L7.84392 0.916992H16.1561C17.4759 0.916992 18.5563 1.94234 18.644 3.23991L18.6497 3.41064V20.5891ZM19.758 4.24186H20.5892C21.9091 4.24186 22.9894 5.26721 23.0771 6.56478L23.0829 6.73551V17.2643C23.0829 18.5841 22.0576 19.6644 20.76 19.7522L20.5892 19.7579H19.758V4.24186ZM4.24198 19.7579H3.41077C2.09094 19.7579 1.0106 18.7326 0.922867 17.435L0.917114 17.2643V6.73551C0.917114 5.41569 1.94246 4.33535 3.24003 4.24761L3.41077 4.24186H4.24198V19.7579Z" fill="#0D2C36"/>
<path d="M11.8982 8.00685L12 8C12.3797 8 12.6935 8.28215 12.7432 8.64823L12.75 8.75V11.249L15.25 11.25C15.6297 11.25 15.9435 11.5322 15.9932 11.8982L16 12C16 12.3797 15.7178 12.6935 15.3518 12.7432L15.25 12.75L12.75 12.749V15.25C12.75 15.6297 12.4678 15.9435 12.1018 15.9932L12 16C11.6203 16 11.3065 15.7178 11.2568 15.3518L11.25 15.25V12.749L8.75 12.75C8.3703 12.75 8.05651 12.4678 8.00685 12.1018L8 12C8 11.6203 8.28215 11.3065 8.64823 11.2568L8.75 11.25L11.25 11.249V8.75C11.25 8.3703 11.5322 8.05651 11.8982 8.00685L12 8L11.8982 8.00685Z" fill="white"/>
</svg>
