<svg width="20" height="20" viewBox="0 0 20 20" fill="none" xmlns="http://www.w3.org/2000/svg">
<g clip-path="url(#clip0_8072_8553)">
<path d="M16.8154 4.6875V10.7812C16.8154 11.2127 17.1652 11.5625 17.5967 11.5625C18.0282 11.5625 18.3779 11.2127 18.3779 10.7812V4.6875C18.3779 2.10281 16.2751 0 13.6904 0H6.50293C3.91824 0 1.81543 2.10281 1.81543 4.6875V10.7812C1.81543 11.2127 2.1652 11.5625 2.59668 11.5625C3.02816 11.5625 3.37793 11.2127 3.37793 10.7812V4.6875C3.37793 2.96438 4.7798 1.5625 6.50293 1.5625H13.6904C15.4136 1.5625 16.8154 2.96438 16.8154 4.6875Z" fill="black"/>
<path d="M15.2139 7.1875C15.2139 6.75602 14.8641 6.40625 14.4326 6.40625H13.1045C12.4583 6.40625 11.9326 5.88055 11.9326 5.23438V3.90625C11.9326 3.47477 11.5829 3.125 11.1514 3.125C10.7199 3.125 10.3701 3.47477 10.3701 3.90625V5.23438C10.3701 6.74211 11.5968 7.96875 13.1045 7.96875H14.4326C14.8641 7.96875 15.2139 7.61898 15.2139 7.1875Z" fill="black"/>
<path d="M9.76588 15.6641C9.21917 15.6641 8.8069 15.4038 8.8069 15.0586C8.8069 14.7248 9.08885 14.4532 9.43541 14.4532C9.71999 14.4532 10.1908 14.4884 10.9899 14.7926C11.393 14.9463 11.8445 14.7438 11.998 14.3405C12.1515 13.9373 11.9491 13.486 11.5459 13.3324C10.7544 13.031 10.0838 12.8906 9.43545 12.8906C8.22733 12.8906 7.24444 13.8632 7.24444 15.0586C7.24444 16.2946 8.32842 17.2266 9.76592 17.2266C10.2206 17.2266 10.6047 17.5038 10.6047 17.832C10.6047 18.1546 10.2899 18.4375 9.93116 18.4375C9.62198 18.4375 8.9162 18.3664 8.23182 18.1001C7.82983 17.9436 7.37686 18.1427 7.22042 18.5448C7.06389 18.9468 7.26299 19.3997 7.6651 19.5562C8.50666 19.8838 9.41174 20 9.93108 20C10.5119 20 11.0648 19.7801 11.488 19.3808C11.9259 18.9675 12.1671 18.4175 12.1671 17.8321C12.1671 16.6366 11.0899 15.6641 9.76588 15.6641Z" fill="black"/>
<path d="M18.4024 12.912C17.9824 12.8121 17.5614 13.0715 17.4616 13.4913L16.3262 18.2642C16.2855 18.3778 16.2182 18.4377 16.1307 18.4377H16.1299C16.0426 18.4373 15.9734 18.3749 15.9336 18.2612L14.8425 13.4976C14.7462 13.077 14.3273 12.8143 13.9065 12.9105C13.4859 13.0069 13.2231 13.4259 13.3195 13.8465L14.4181 18.6429C14.4221 18.6607 14.4269 18.6784 14.4322 18.6959C14.6724 19.4851 15.3363 19.997 16.1237 20.0002C16.1261 20.0002 16.1285 20.0002 16.131 20.0002C16.9145 20.0002 17.5786 19.4948 17.8241 18.7107C17.8295 18.6934 17.8344 18.6758 17.8386 18.6581L18.9817 13.8529C19.0815 13.4331 18.8221 13.0119 18.4024 12.912Z" fill="black"/>
<path d="M3.59699 14.4141C4.09844 14.4141 4.50492 14.7193 4.60848 15.1736C4.70437 15.5943 5.12328 15.8576 5.54379 15.7617C5.96449 15.6658 6.22781 15.2471 6.13191 14.8264C5.86684 13.6636 4.82449 12.8516 3.59699 12.8516C2.1634 12.8516 0.99707 14.0179 0.99707 15.4515V17.3611C0.99707 18.7946 2.16336 19.961 3.59699 19.961C4.81195 19.961 5.85324 19.1696 6.12922 18.0365C6.23133 17.6173 5.97426 17.1946 5.55508 17.0925C5.13562 16.9904 4.71324 17.2475 4.61113 17.6667C4.50449 18.1044 4.09695 18.3984 3.59699 18.3984C3.02496 18.3984 2.55957 17.933 2.55957 17.361V15.4514C2.55957 14.8795 3.02496 14.4141 3.59699 14.4141Z" fill="black"/>
</g>
<defs>
<clipPath id="clip0_8072_8553">
<rect width="20" height="20" fill="white"/>
</clipPath>
</defs>
</svg>
