<svg width="32" height="33" viewBox="0 0 32 33" fill="none" xmlns="http://www.w3.org/2000/svg">
<path d="M6 23C6 24.375 6.8975 25.5 8 25.5C8.24131 25.4946 8.47899 25.4402 8.69861 25.34C8.91822 25.2399 9.11518 25.0961 9.2775 24.9175C9.46174 24.7298 9.71248 24.6223 9.97543 24.6182C10.2384 24.6141 10.4924 24.7137 10.6824 24.8955C10.8724 25.0773 10.9831 25.3267 10.9907 25.5895C10.9982 25.8524 10.9018 26.1076 10.7225 26.3C10.3743 26.6748 9.95322 26.9746 9.48508 27.1809C9.01694 27.3873 8.51159 27.4959 8 27.5C5.79375 27.5 4 25.4813 4 23C4 20.5187 5.79375 18.5 8 18.5C8.51159 18.5041 9.01694 18.6127 9.48508 18.8191C9.95322 19.0254 10.3743 19.3252 10.7225 19.7C10.9018 19.8924 10.9982 20.1476 10.9907 20.4105C10.9831 20.6733 10.8724 20.9227 10.6824 21.1045C10.4924 21.2863 10.2384 21.3859 9.97543 21.3818C9.71248 21.3777 9.46174 21.2702 9.2775 21.0825C9.11518 20.9039 8.91822 20.7601 8.69861 20.66C8.47899 20.5598 8.24131 20.5054 8 20.5C6.8975 20.5 6 21.625 6 23ZM15.95 21.9137C15.45 21.7687 14.9325 21.62 14.6438 21.4338C14.4875 21.3325 14.49 21.3088 14.5037 21.1963C14.5059 21.1054 14.5298 21.0164 14.5732 20.9366C14.6167 20.8568 14.6786 20.7886 14.7537 20.7375C15.3287 20.3475 16.6713 20.5212 17.2313 20.6675C17.4878 20.7363 17.7613 20.7003 17.9913 20.5675C18.2214 20.4347 18.3893 20.216 18.4581 19.9594C18.5269 19.7028 18.491 19.4294 18.3582 19.1993C18.2254 18.9692 18.0066 18.8013 17.75 18.7325C17.485 18.6638 15.125 18.08 13.645 19.0775C13.332 19.2875 13.069 19.5638 12.8746 19.8867C12.6802 20.2097 12.5592 20.5714 12.52 20.9463C12.27 22.9313 14.2263 23.4975 15.395 23.835C16.9025 24.2712 17.035 24.45 16.9925 24.7838C16.9538 25.085 16.835 25.2012 16.725 25.275C16.15 25.6575 14.8288 25.47 14.2812 25.32C14.0253 25.2486 13.7515 25.2817 13.52 25.4122C13.2885 25.5426 13.1183 25.7597 13.0469 26.0156C12.9754 26.2716 13.0086 26.5454 13.139 26.7769C13.2695 27.0084 13.4866 27.1786 13.7425 27.25C14.3625 27.4124 15.0004 27.4963 15.6412 27.5C16.3687 27.5 17.1787 27.375 17.8275 26.9425C18.1477 26.7297 18.4168 26.4486 18.6154 26.1195C18.814 25.7903 18.9373 25.4212 18.9762 25.0387C19.25 22.875 17.1862 22.2712 15.95 21.9137ZM26.3363 18.5588C26.2126 18.5145 26.0814 18.495 25.9501 18.5014C25.8189 18.5079 25.6903 18.5401 25.5715 18.5963C25.4528 18.6525 25.3462 18.7315 25.2581 18.8289C25.1699 18.9262 25.1017 19.04 25.0575 19.1637L23.5 23.5263L21.9412 19.1637C21.8521 18.9139 21.6673 18.7098 21.4276 18.5962C21.1879 18.4827 20.9129 18.4689 20.6631 18.5581C20.4133 18.6473 20.2092 18.8321 20.0956 19.0718C19.982 19.3115 19.9683 19.5864 20.0575 19.8363L22.5575 26.8363C22.6268 27.0306 22.7545 27.1987 22.9232 27.3176C23.0918 27.4365 23.2931 27.5003 23.4994 27.5003C23.7057 27.5003 23.907 27.4365 24.0756 27.3176C24.2442 27.1987 24.3719 27.0306 24.4412 26.8363L26.9412 19.8363C27.0303 19.5866 27.0166 19.3118 26.9031 19.0723C26.7897 18.8327 26.5858 18.648 26.3363 18.5588ZM27 11.5V14.5C27 14.7652 26.8946 15.0196 26.7071 15.2071C26.5196 15.3946 26.2652 15.5 26 15.5C25.7348 15.5 25.4804 15.3946 25.2929 15.2071C25.1054 15.0196 25 14.7652 25 14.5V12.5H19C18.7348 12.5 18.4804 12.3946 18.2929 12.2071C18.1054 12.0196 18 11.7652 18 11.5V5.5H7V14.5C7 14.7652 6.89464 15.0196 6.70711 15.2071C6.51957 15.3946 6.26522 15.5 6 15.5C5.73478 15.5 5.48043 15.3946 5.29289 15.2071C5.10536 15.0196 5 14.7652 5 14.5V5.5C5 4.96957 5.21071 4.46086 5.58579 4.08579C5.96086 3.71071 6.46957 3.5 7 3.5H19C19.1314 3.4999 19.2615 3.52568 19.3829 3.57586C19.5042 3.62605 19.6146 3.69967 19.7075 3.7925L26.7075 10.7925C26.8003 10.8854 26.8739 10.9958 26.9241 11.1172C26.9743 11.2385 27.0001 11.3686 27 11.5ZM23.5863 10.5L20 6.91375V10.5H23.5863Z" fill="#6E7683"/>
</svg>
