<svg width="20" height="20" viewBox="0 0 20 20" fill="none" xmlns="http://www.w3.org/2000/svg">
<path d="M17.1797 11.5625C16.75 11.5625 16.3984 11.2109 16.3984 10.7812V4.6875C16.3984 2.96484 14.9961 1.5625 13.2734 1.5625H6.08594C4.36328 1.5625 2.96094 2.96484 2.96094 4.6875V10.7812C2.91797 11.8164 1.4375 11.8164 1.39844 10.7812V4.6875C1.39844 2.10156 3.5 0 6.08594 0H13.2734C15.8594 0 17.9609 2.10156 17.9609 4.6875V10.7812C17.9609 11.2109 17.6094 11.5625 17.1797 11.5625ZM14.7969 7.1875C14.7969 6.75781 14.4453 6.40625 14.0156 6.40625H12.6875C12.043 6.40625 11.5156 5.87891 11.5156 5.23438V3.90625C11.4727 2.87109 9.99219 2.87109 9.95312 3.90625V5.23438C9.95312 6.74219 11.1797 7.96875 12.6875 7.96875H14.0156C14.4453 7.96875 14.7969 7.61719 14.7969 7.1875ZM18.6641 17.4023C18.6641 16.6172 18.0234 15.9766 17.2383 15.9766H16.5938C15.5586 16.0195 15.5586 17.5 16.5938 17.5391H17.0938C16.8867 18.8047 15.0742 18.6914 15.0312 17.4023V15.4492C15.043 14.4375 16.2969 14.0586 16.918 14.8203C17.1836 15.1602 17.6758 15.2148 18.0156 14.9492C18.3555 14.6797 18.4102 14.1914 18.1445 13.8516C17.6484 13.2266 16.8711 12.8516 16.0664 12.8516C14.6328 12.8516 13.4688 14.0156 13.4688 15.4492V17.4023C13.4688 18.8359 14.6328 20 16.0664 20C17.5 20 18.6641 18.8359 18.6641 17.4023ZM6.13281 16.7891C6.13281 18.9375 5.07812 20 3.21094 20C1.20312 20 0.5 18.6445 0.5 17.5312C0.5 17.2969 0.542969 17.0547 0.617188 16.832C0.714844 16.5469 0.984375 16.3555 1.28516 16.3555C1.71875 16.3555 2.05469 16.7383 1.99219 17.1641C1.97656 17.2617 1.97266 17.3516 1.97266 17.418C1.97266 18.0195 2.30469 18.6914 3.1875 18.6914C4.21094 18.6914 4.57422 18.0273 4.57422 16.7852V13.5586C4.57422 13.168 4.89062 12.8477 5.28516 12.8477H5.42188C5.8125 12.8477 6.13281 13.1641 6.13281 13.5586V16.7891ZM7.28125 19.1797V13.5703C7.28125 13.1797 7.59766 12.8594 7.99219 12.8594H10.3633C11.8203 12.8594 12.6211 13.9219 12.6211 15.1602C12.6211 16.3945 11.8086 17.4102 10.3633 17.4102H9.54688C9.15625 17.4102 8.83594 17.7266 8.83594 18.1211V19.1797C8.83594 19.5703 8.51953 19.8906 8.125 19.8906H7.98828C7.60156 19.8906 7.28125 19.5703 7.28125 19.1797ZM10.1641 16.1836C10.7148 16.1836 11.0586 15.75 11.0586 15.1484C11.0586 14.5273 10.7188 14.0938 10.1641 14.0938H9.54688C9.15625 14.0938 8.83594 14.4102 8.83594 14.8047V15.4727C8.83594 15.8633 9.15234 16.1836 9.54688 16.1836H10.1641Z" fill="black"/>
</svg>
