<svg width="16" height="16" viewBox="0 0 16 16" fill="none" xmlns="http://www.w3.org/2000/svg">
<path d="M13.4375 3.75V8.625C13.4375 8.97019 13.7173 9.25 14.0625 9.25C14.4077 9.25 14.6875 8.97019 14.6875 8.625V3.75C14.6875 1.68225 13.0052 0 10.9375 0H5.1875C3.11975 0 1.4375 1.68225 1.4375 3.75V8.625C1.4375 8.97019 1.71731 9.25 2.0625 9.25C2.40769 9.25 2.6875 8.97019 2.6875 8.625V3.75C2.6875 2.3715 3.809 1.25 5.1875 1.25H10.9375C12.316 1.25 13.4375 2.3715 13.4375 3.75Z" fill="#212121"/>
<path d="M12.1562 5.75C12.1562 5.40481 11.8764 5.125 11.5312 5.125H10.4688C9.95181 5.125 9.53125 4.70444 9.53125 4.1875V3.125C9.53125 2.77981 9.25144 2.5 8.90625 2.5C8.56106 2.5 8.28125 2.77981 8.28125 3.125V4.1875C8.28125 5.39369 9.26256 6.375 10.4688 6.375H11.5312C11.8764 6.375 12.1562 6.09519 12.1562 5.75Z" fill="#212121"/>
<path d="M3.06813 10.3125C1.99669 10.3125 1.125 11.1842 1.125 12.2556V15.375C1.125 15.7202 1.40481 16 1.75 16C2.09519 16 2.375 15.7202 2.375 15.375V14.3125H3.05687C4.16278 14.3125 5.0625 13.4128 5.0625 12.3069C5.0625 11.2072 4.16781 10.3125 3.06813 10.3125ZM3.05687 13.0625H2.375V12.2556C2.375 11.8734 2.68594 11.5625 3.06813 11.5625C3.47859 11.5625 3.8125 11.8964 3.8125 12.3069C3.8125 12.7235 3.47353 13.0625 3.05687 13.0625Z" fill="#212121"/>
<path d="M14.25 12.8125H12.5V12.2556C12.5 11.8734 12.8109 11.5625 13.1931 11.5625H14.25C14.5952 11.5625 14.875 11.2827 14.875 10.9375C14.875 10.5923 14.5952 10.3125 14.25 10.3125H13.1931C12.1217 10.3125 11.25 11.1842 11.25 12.2556V15.375C11.25 15.7202 11.5298 16 11.875 16C12.2202 16 12.5 15.7202 12.5 15.375V14.0625H14.25C14.5952 14.0625 14.875 13.7827 14.875 13.4375C14.875 13.0923 14.5952 12.8125 14.25 12.8125Z" fill="#212121"/>
<path d="M7.3625 10.3125C6.71463 10.3125 6.1875 10.8402 6.1875 11.4888V14.8237C6.1875 15.4723 6.71459 16 7.3625 16C8.11738 16 8.82697 15.7054 9.36059 15.1706C9.89384 14.6361 10.1875 13.9256 10.1875 13.17V13.1424C10.1875 11.582 8.92016 10.3125 7.3625 10.3125ZM8.9375 13.17C8.9375 13.5923 8.7735 13.9892 8.47572 14.2877C8.19606 14.568 7.82978 14.7299 7.4375 14.7483V11.5643C8.27128 11.6037 8.93747 12.2965 8.9375 13.1425V13.17Z" fill="#212121"/>
</svg>
