<svg width="32" height="32" viewBox="0 0 32 32" fill="none" xmlns="http://www.w3.org/2000/svg">
<path d="M23.263 23.973C23.4522 23.973 23.6337 23.8978 23.7675 23.764C23.9013 23.6302 23.9765 23.4487 23.9765 23.2595V21.0406C24.5544 20.8856 25.065 20.5443 25.4292 20.0696C25.7934 19.5949 25.9908 19.0133 25.9908 18.415C25.9908 17.8167 25.7934 17.235 25.4292 16.7603C25.065 16.2856 24.5544 15.9443 23.9765 15.7894V8.73301C23.9765 8.54379 23.9013 8.36231 23.7675 8.22851C23.6337 8.0947 23.4522 8.01953 23.263 8.01953C23.0737 8.01953 22.8923 8.0947 22.7585 8.22851C22.6247 8.36231 22.5495 8.54379 22.5495 8.73301V15.7965C21.9716 15.9515 21.4609 16.2928 21.0967 16.7675C20.7326 17.2422 20.5352 17.8238 20.5352 18.4221C20.5352 19.0204 20.7326 19.602 21.0967 20.0768C21.4609 20.5515 21.9716 20.8928 22.5495 21.0477V23.2667C22.5514 23.4546 22.6274 23.6343 22.761 23.7666C22.8946 23.8988 23.075 23.973 23.263 23.973ZM21.9573 18.415C21.9573 18.1567 22.0339 17.9043 22.1773 17.6896C22.3208 17.4749 22.5247 17.3075 22.7633 17.2087C23.0019 17.1099 23.2644 17.084 23.5177 17.1344C23.771 17.1848 24.0036 17.3091 24.1862 17.4917C24.3688 17.6743 24.4932 17.907 24.5436 18.1602C24.5939 18.4135 24.5681 18.6761 24.4693 18.9146C24.3704 19.1532 24.2031 19.3571 23.9884 19.5006C23.7736 19.6441 23.5212 19.7206 23.263 19.7206C22.9167 19.7206 22.5846 19.5831 22.3397 19.3382C22.0949 19.0934 21.9573 18.7613 21.9573 18.415Z" fill="#fff"/>
<path d="M15.9997 23.9728C16.189 23.9728 16.3704 23.8977 16.5042 23.7639C16.638 23.6301 16.7132 23.4486 16.7132 23.2594V13.3705C17.3526 13.1975 17.9075 12.7982 18.2745 12.2468C18.6416 11.6954 18.7958 11.0294 18.7086 10.3728C18.6213 9.71613 18.2986 9.11353 17.8003 8.67707C17.302 8.24061 16.6621 8 15.9997 8C15.3373 8 14.6975 8.24061 14.1992 8.67707C13.7009 9.11353 13.3781 9.71613 13.2909 10.3728C13.2037 11.0294 13.3579 11.6954 13.7249 12.2468C14.092 12.7982 14.6468 13.1975 15.2863 13.3705V23.2594C15.2863 23.4486 15.3614 23.6301 15.4952 23.7639C15.629 23.8977 15.8105 23.9728 15.9997 23.9728ZM14.6941 10.752C14.6926 10.4935 14.768 10.2403 14.9106 10.0247C15.0532 9.80903 15.2567 9.64057 15.4951 9.54065C15.7336 9.44073 15.9963 9.41385 16.2501 9.46342C16.5038 9.513 16.7371 9.63678 16.9204 9.8191C17.1037 10.0014 17.2288 10.234 17.2798 10.4875C17.3307 10.741 17.3053 11.0039 17.2067 11.2429C17.1081 11.4819 16.9407 11.6862 16.7259 11.83C16.511 11.9738 16.2583 12.0505 15.9997 12.0505C15.6547 12.0506 15.3237 11.914 15.079 11.6706C14.8343 11.4273 14.6959 11.0971 14.6941 10.752Z" fill="#fff"/>
<path d="M8.02312 18.6219V23.2595C8.02312 23.4487 8.09829 23.6302 8.23209 23.764C8.3659 23.8978 8.54738 23.973 8.7366 23.973C8.92583 23.973 9.10731 23.8978 9.24111 23.764C9.37492 23.6302 9.45009 23.4487 9.45009 23.2595V18.6219C10.028 18.4669 10.5386 18.1256 10.9028 17.6509C11.267 17.1762 11.4644 16.5946 11.4644 15.9963C11.4644 15.3979 11.267 14.8163 10.9028 14.3416C10.5386 13.8669 10.028 13.5256 9.45009 13.3707V8.73301C9.45009 8.54379 9.37492 8.36231 9.24111 8.22851C9.10731 8.0947 8.92583 8.01953 8.7366 8.01953C8.54738 8.01953 8.3659 8.0947 8.23209 8.22851C8.09829 8.36231 8.02312 8.54379 8.02312 8.73301V13.3707C7.44521 13.5256 6.93458 13.8669 6.57038 14.3416C6.20619 14.8163 6.00879 15.3979 6.00879 15.9963C6.00879 16.5946 6.20619 17.1762 6.57038 17.6509C6.93458 18.1256 7.44521 18.4669 8.02312 18.6219ZM8.7366 14.6906C8.99514 14.6892 9.24828 14.7646 9.46393 14.9072C9.67958 15.0498 9.84804 15.2532 9.94796 15.4916C10.0479 15.7301 10.0748 15.9928 10.0252 16.2466C9.97562 16.5003 9.85183 16.7336 9.66951 16.917C9.4872 17.1003 9.25457 17.2253 9.0011 17.2763C8.74763 17.3273 8.48474 17.3018 8.24574 17.2032C8.00674 17.1046 7.8024 16.9373 7.65862 16.7224C7.51483 16.5075 7.43807 16.2548 7.43806 15.9963C7.43806 15.6512 7.57464 15.3202 7.81796 15.0755C8.06128 14.8309 8.39155 14.6925 8.7366 14.6906Z" fill="#fff"/>
</svg>
