<svg width="40" height="40" viewBox="0 0 40 40" fill="none" xmlns="http://www.w3.org/2000/svg">
<g clip-path="url(#clip0_7013_171473)">
<path d="M17.5 36.875H9.375C5.92875 36.875 3.125 34.0713 3.125 30.625V9.375C3.125 5.92875 5.92875 3.125 9.375 3.125H23.75C27.1963 3.125 30 5.92875 30 9.375V14.5312C30 15.3942 30.6995 16.0938 31.5625 16.0938C32.4255 16.0938 33.125 15.3942 33.125 14.5312V9.375C33.125 4.20563 28.9194 0 23.75 0H9.375C4.20563 0 0 4.20563 0 9.375V30.625C0 35.7944 4.20563 40 9.375 40H17.5C18.363 40 19.0625 39.3005 19.0625 38.4375C19.0625 37.5745 18.363 36.875 17.5 36.875Z" fill="white"/>
<path d="M18.6719 6.25C17.8089 6.25 17.1094 6.94953 17.1094 7.8125V10.4688C17.1094 13.4842 19.5627 15.9375 22.5781 15.9375H25.2344C26.0973 15.9375 26.7969 15.238 26.7969 14.375C26.7969 13.512 26.0973 12.8125 25.2344 12.8125H22.5781C21.2858 12.8125 20.2344 11.7611 20.2344 10.4688V7.8125C20.2344 6.94953 19.5348 6.25 18.6719 6.25Z" fill="white"/>
<path d="M29.4531 18.9062C23.6376 18.9062 18.9062 23.6376 18.9062 29.4531C18.9062 35.2687 23.6376 40 29.4531 40C35.2687 40 40 35.2687 40 29.4531C40 23.6376 35.2687 18.9062 29.4531 18.9062ZM29.4531 36.875C25.3607 36.875 22.0312 33.5455 22.0312 29.4531C22.0312 25.3607 25.3607 22.0312 29.4531 22.0312C33.5455 22.0312 36.875 25.3607 36.875 29.4531C36.875 33.5455 33.5455 36.875 29.4531 36.875Z" fill="white"/>
<path d="M32.7344 27.8906H31.0156V26.1719C31.0156 25.3089 30.3161 24.6094 29.4531 24.6094C28.5902 24.6094 27.8906 25.3089 27.8906 26.1719V27.8906H26.1719C25.3089 27.8906 24.6094 28.5902 24.6094 29.4531C24.6094 30.3161 25.3089 31.0156 26.1719 31.0156H27.8906V32.7344C27.8906 33.5973 28.5902 34.2969 29.4531 34.2969C30.3161 34.2969 31.0156 33.5973 31.0156 32.7344V31.0156H32.7344C33.5973 31.0156 34.2969 30.3161 34.2969 29.4531C34.2969 28.5902 33.5973 27.8906 32.7344 27.8906Z" fill="white"/>
</g>
<defs>
<clipPath id="clip0_7013_171473">
<rect width="40" height="40" fill="white"/>
</clipPath>
</defs>
</svg>
