<svg width="19" height="18" viewBox="0 0 19 18" fill="none" xmlns="http://www.w3.org/2000/svg">
<g opacity="0.5">
<path d="M6.62641 0C6.93306 0.10439 7.23038 0.234393 7.51524 0.388635C8.11258 0.77547 8.35368 1.37641 8.35908 2.06732C8.36987 3.35557 8.36987 4.64322 8.35908 5.93027C8.35908 6.77591 7.97944 7.42904 7.20577 7.79068C6.91269 7.91756 6.59673 7.98308 6.27736 7.9832C5.0053 8.00479 3.73145 7.99759 2.45939 7.9832C1.39604 7.9832 0.660155 7.38765 0.406463 6.3531C0.393749 6.32057 0.379335 6.28874 0.363281 6.25774C0.363281 4.75358 0.363281 3.24882 0.363281 1.74346C0.383073 1.70208 0.399266 1.66069 0.410061 1.61931C0.53061 1.12812 0.746518 0.685508 1.18733 0.413824C1.48561 0.254567 1.79463 0.11629 2.11214 0L6.62641 0Z" fill="url(#paint0_linear_6869_283351)"/>
<path d="M0.363281 11.7111C0.482061 11.3943 0.627104 11.0879 0.796897 10.7953C0.95823 10.5513 1.17852 10.352 1.43736 10.2158C1.69621 10.0796 1.98523 10.011 2.27767 10.0162C3.64868 10.0018 5.0179 10.0072 6.38892 10.0162C6.65312 10.0161 6.91466 10.0689 7.15813 10.1715C7.40159 10.2741 7.62205 10.4244 7.80651 10.6136C7.99096 10.8027 8.13568 11.0269 8.23213 11.2729C8.32857 11.5188 8.3748 11.7816 8.36807 12.0457C8.37707 13.3484 8.38427 14.6528 8.36807 15.9555C8.35188 17.1232 7.56022 17.9508 6.39971 17.9778C5.05208 18.0084 3.70086 18.0066 2.35503 17.9778C1.34746 17.9526 0.669151 17.3679 0.411861 16.3945C0.401065 16.3513 0.383073 16.3117 0.363281 16.2721C0.363281 14.7512 0.363281 13.2308 0.363281 11.7111Z" fill="url(#paint1_linear_6869_283351)"/>
<path d="M16.5966 0C16.9615 0.0746285 17.3058 0.227475 17.606 0.448009C17.8203 0.609909 17.996 0.817346 18.1204 1.05536C18.2449 1.29338 18.315 1.55605 18.3257 1.82442C18.3508 2.93275 18.3418 4.04288 18.3454 5.15301C18.3454 5.43549 18.3454 5.71977 18.3454 6.00224C18.3451 6.26897 18.2912 6.53291 18.187 6.77843C18.0828 7.02395 17.9304 7.24607 17.7388 7.43163C17.5472 7.61719 17.3203 7.76241 17.0716 7.8587C16.8228 7.95499 16.5573 8.00038 16.2907 7.9922C15.0025 7.9922 13.7142 8.00299 12.426 7.9922C11.2529 7.9778 10.4144 7.19694 10.3856 6.04003C10.3515 4.67801 10.355 3.31419 10.3856 1.95217C10.4054 0.958992 11.01 0.277082 11.9816 0.0395831C12.0154 0.0287343 12.0485 0.015507 12.0805 0L16.5966 0Z" fill="url(#paint2_linear_6869_283351)"/>
<path d="M18.3388 13.9915C18.3388 14.7112 18.364 15.4309 18.3388 16.1362C18.3222 16.6151 18.1245 17.0698 17.7855 17.4085C17.4465 17.7471 16.9915 17.9445 16.5126 17.9606C15.0732 17.9942 13.6339 17.9942 12.1945 17.9606C11.7208 17.9422 11.2717 17.7451 10.9376 17.4089C10.6034 17.0727 10.409 16.6225 10.3934 16.1488C10.361 14.7094 10.361 13.27 10.3934 11.8306C10.4077 11.3566 10.6014 10.9056 10.9354 10.569C11.2694 10.2323 11.7188 10.035 12.1927 10.017C13.6321 9.98458 15.0762 9.98458 16.5252 10.017C16.9953 10.0389 17.4404 10.2355 17.7732 10.5683C18.106 10.901 18.3026 11.3461 18.3245 11.8162C18.3568 12.5359 18.3245 13.2556 18.3245 13.9753L18.3388 13.9915Z" fill="url(#paint3_linear_6869_283351)"/>
</g>
<defs>
<linearGradient id="paint0_linear_6869_283351" x1="9.23086" y1="1.41938e-07" x2="0.958317" y2="8.57113" gradientUnits="userSpaceOnUse">
<stop stop-color="#6E72EE"/>
<stop offset="1" stop-color="#595DDC"/>
</linearGradient>
<linearGradient id="paint1_linear_6869_283351" x1="9.24253" y1="10.0073" x2="0.974736" y2="18.5892" gradientUnits="userSpaceOnUse">
<stop stop-color="#6E72EE"/>
<stop offset="1" stop-color="#595DDC"/>
</linearGradient>
<linearGradient id="paint2_linear_6869_283351" x1="19.207" y1="1.41941e-07" x2="10.9336" y2="8.55069" gradientUnits="userSpaceOnUse">
<stop stop-color="#6E72EE"/>
<stop offset="1" stop-color="#595DDC"/>
</linearGradient>
<linearGradient id="paint3_linear_6869_283351" x1="19.2112" y1="9.99268" x2="10.9419" y2="18.5399" gradientUnits="userSpaceOnUse">
<stop stop-color="#6E72EE"/>
<stop offset="1" stop-color="#595DDC"/>
</linearGradient>
</defs>
</svg>
