<svg width="19" height="18" viewBox="0 0 19 18" fill="none" xmlns="http://www.w3.org/2000/svg">
<path d="M16.1609 2.63613C14.9023 1.37743 13.2986 0.520243 11.5528 0.172955C9.80694 -0.174332 7.99733 0.00388252 6.35278 0.685063C4.70823 1.36624 3.30261 2.5198 2.31367 3.99984C1.32472 5.47989 0.796875 7.21996 0.796875 9C0.796875 10.78 1.32472 12.5201 2.31367 14.0002C3.30261 15.4802 4.70823 16.6338 6.35278 17.3149C7.99733 17.9961 9.80694 18.1743 11.5528 17.827C13.2986 17.4798 14.9023 16.6226 16.1609 15.3639C17.0039 14.5323 17.6733 13.5415 18.1302 12.449C18.5871 11.3565 18.8224 10.1842 18.8224 9C18.8224 7.81584 18.5871 6.64347 18.1302 5.551C17.6733 4.45853 17.0039 3.46772 16.1609 2.63613ZM4.66415 3.8671C5.91831 2.61282 7.58836 1.86121 9.35886 1.75423C11.1294 1.64725 12.8778 2.19231 14.2738 3.28645L4.08641 13.4797C2.99226 12.0836 2.44721 10.3352 2.55419 8.56472C2.66116 6.79421 3.41277 5.12416 4.66705 3.87L4.66415 3.8671ZM14.93 14.1329C13.6758 15.3872 12.0057 16.1388 10.2352 16.2458C8.46473 16.3527 6.71634 15.8077 5.32028 14.7135L15.5048 4.52323C16.5997 5.9186 17.1457 7.66659 17.0398 9.43708C16.9339 11.2076 16.1834 12.878 14.93 14.1329Z" fill="#231F20"/>
</svg>
