<svg xmlns="http://www.w3.org/2000/svg" width="32" height="32" viewBox="0 0 32 32" fill="none">
  <path d="M26 11H6C5.44772 11 5 11.4477 5 12V26C5 26.5523 5.44772 27 6 27H26C26.5523 27 27 26.5523 27 26V12C27 11.4477 26.5523 11 26 11Z" stroke="#000000" stroke-width="2" stroke-linecap="round" stroke-linejoin="round"/>
  <path d="M16 20.5C16.8284 20.5 17.5 19.8284 17.5 19C17.5 18.1716 16.8284 17.5 16 17.5C15.1716 17.5 14.5 18.1716 14.5 19C14.5 19.8284 15.1716 20.5 16 20.5Z" fill="#000000"/>
  <path d="M11 11V7C11 5.67392 11.5268 4.40215 12.4645 3.46447C13.4021 2.52678 14.6739 2 16 2C17.3261 2 18.5979 2.52678 19.5355 3.46447C20.4732 4.40215 21 5.67392 21 7V11" stroke="#000000" stroke-width="2" stroke-linecap="round" stroke-linejoin="round"/>
</svg>