<svg width="20" height="20" viewBox="0 0 20 20" fill="none" xmlns="http://www.w3.org/2000/svg">
<path d="M8.17696 7.5135C8.56876 7.22549 9.0304 7.02716 9.53177 6.95036V6.00293C8.77165 6.09128 8.07639 6.39125 7.50586 6.8424L8.17696 7.5135Z" fill="white"/>
<path d="M6.94938 9.53372C7.02632 9.03235 7.22451 8.57072 7.51252 8.17891L6.84143 7.50781C6.39027 8.07847 6.0903 8.7736 6.00195 9.53372H6.94938Z" fill="white"/>
<path d="M13.1496 7.7076C13.5143 8.2075 13.754 8.78568 13.849 9.39555H13.1687C13.0865 8.96614 12.9149 8.55338 12.6674 8.18977L13.1496 7.7076ZM13.1633 7.50391L12.4922 8.175C12.7803 8.56681 12.9785 9.02858 13.0553 9.52995H14.0028C13.9144 8.7697 13.6144 8.07443 13.1633 7.50391Z" fill="white"/>
<path d="M10.6069 6.15765C11.2168 6.25285 11.795 6.49253 12.2949 6.85721L11.8126 7.33939C11.4491 7.09179 11.0363 6.92019 10.6069 6.83814V6.15765ZM10.4727 6.00391V6.95134C10.974 7.02828 11.4358 7.22646 11.8276 7.51448L12.4987 6.84338C11.928 6.39222 11.2328 6.09226 10.4727 6.00391Z" fill="white"/>
<path d="M13.849 10.6069C13.754 11.2168 13.5143 11.795 13.1496 12.2949L12.6673 11.8126C12.9149 11.4491 13.0863 11.0363 13.1685 10.6069H13.849ZM14.0028 10.4727H13.0553C12.9785 10.974 12.7802 11.4358 12.4922 11.8276L13.1633 12.4987C13.6144 11.928 13.9144 11.2328 14.0028 10.4727Z" fill="white"/>
<path d="M11.8276 12.4912C11.4358 12.7794 10.9742 12.9775 10.4727 13.0544V14.0018C11.2328 13.9134 11.928 13.6135 12.4987 13.1623L11.8276 12.4912Z" fill="white"/>
<path d="M7.51252 11.8315C7.22451 11.4397 7.02619 10.9781 6.94938 10.4766H6.00195C6.0903 11.2367 6.39027 11.9319 6.84143 12.5026L7.51252 11.8315Z" fill="white"/>
<path d="M9.53191 13.0544C9.03053 12.9775 8.5689 12.7792 8.17696 12.4912L7.50586 13.1623C8.07652 13.6135 8.77165 13.9134 9.53177 14.0018V13.0544H9.53191Z" fill="white"/>
<circle cx="10" cy="10" r="10" fill="#E73B18"/>
<path d="M6.0808 14.5764C5.9137 14.5764 5.74661 14.5127 5.61906 14.3851C5.36396 14.13 5.36396 13.7168 5.61906 13.4617L13.4558 5.62492C13.7109 5.36982 14.1242 5.36982 14.3793 5.62492C14.6344 5.88002 14.6344 6.29329 14.3793 6.54839L6.54253 14.3851C6.41498 14.5127 6.24789 14.5764 6.0808 14.5764Z" fill="white"/>
<path d="M13.9175 14.5764C13.7504 14.5764 13.5833 14.5127 13.4558 14.3851L5.61906 6.54839C5.36396 6.29329 5.36396 5.88002 5.61906 5.62492C5.87416 5.36982 6.28743 5.36982 6.54253 5.62492L14.3793 13.4617C14.6344 13.7168 14.6344 14.13 14.3793 14.3851C14.2517 14.5127 14.0846 14.5764 13.9175 14.5764Z" fill="white"/>
</svg>
