<svg width="14" height="14" viewBox="0 0 14 14" fill="none" xmlns="http://www.w3.org/2000/svg">
<path d="M1.85714 13C1.63783 13 1.41853 12.9163 1.25112 12.7489C0.916295 12.4141 0.916295 11.8717 1.25112 11.5368L11.5368 1.25112C11.8717 0.916295 12.4141 0.916295 12.7489 1.25112C13.0837 1.58594 13.0837 2.12835 12.7489 2.46317L2.46317 12.7489C2.29576 12.9163 2.07645 13 1.85714 13Z" fill="#0D2C36" stroke="#0D2C36" stroke-width="0.5"/>
<path d="M12.1429 13C11.9235 13 11.7042 12.9163 11.5368 12.7489L1.25112 2.46317C0.916295 2.12835 0.916295 1.58594 1.25112 1.25112C1.58594 0.916295 2.12835 0.916295 2.46317 1.25112L12.7489 11.5368C13.0837 11.8717 13.0837 12.4141 12.7489 12.7489C12.5815 12.9163 12.3622 13 12.1429 13Z" fill="#0D2C36" stroke="#0D2C36" stroke-width="0.5"/>
</svg>
