<svg width="18" height="18" viewBox="0 0 18 18" fill="none" xmlns="http://www.w3.org/2000/svg">
<path d="M7.68883 12.5771C7.58699 12.297 7.30693 12.0934 7.00141 12.0679L2.41867 11.8642C2.01132 11.8388 1.62942 12.1697 1.62942 12.6025L1.42574 17.1853C1.40028 17.4908 1.5785 17.7709 1.85856 17.9236C1.9604 17.9745 2.06223 18 2.18953 18C2.36775 18 2.57143 17.9236 2.69873 17.7963L4.14993 16.4724C4.17539 16.4979 4.20085 16.5233 4.25177 16.5488C5.65205 17.3635 7.25601 17.8218 8.91089 17.8218C13.8246 17.8218 17.8218 13.8246 17.8218 8.91089C17.8218 3.99717 13.8246 0 8.91089 0C3.99717 0 0 3.99717 0 8.91089C0 9.471 0.458274 9.92928 1.01839 9.92928C1.5785 9.92928 2.03678 9.471 2.03678 8.91089C2.03678 5.1174 5.1174 2.03678 8.91089 2.03678C12.7044 2.03678 15.785 5.1174 15.785 8.91089C15.785 12.7044 12.7044 15.785 8.91089 15.785C7.79066 15.785 6.6959 15.505 5.72843 14.9958L7.48515 13.3918C7.71429 13.1881 7.79067 12.8571 7.68883 12.5771Z" fill="#0D2C36"/>
</svg>
