<svg xmlns="http://www.w3.org/2000/svg" width="20" height="20" viewBox="0 0 20 20" fill="none">
  <path d="M16.9445 16.25H3.07656C2.92378 16.2496 2.77736 16.1887 2.66933 16.0807C2.56129 15.9726 2.50041 15.8262 2.5 15.6734V6.25H16.875C17.0408 6.25 17.1997 6.31585 17.3169 6.43306C17.4342 6.55027 17.5 6.70924 17.5 6.875V15.6945C17.5 15.8419 17.4415 15.9831 17.3373 16.0873C17.2331 16.1915 17.0919 16.25 16.9445 16.25Z" stroke="#3E484A" stroke-linecap="round" stroke-linejoin="round"/>
  <path d="M2.5 6.25V4.375C2.5 4.20924 2.56585 4.05027 2.68306 3.93306C2.80027 3.81585 2.95924 3.75 3.125 3.75H7.24141C7.40695 3.75008 7.56569 3.81582 7.68281 3.93281L10 6.25" stroke="#3E484A" stroke-linecap="round" stroke-linejoin="round"/>
</svg>