<svg width="29" height="28" viewBox="0 0 29 28" fill="none" xmlns="http://www.w3.org/2000/svg">
<path d="M23.8996 4.10065C21.9417 2.14268 19.4471 0.809266 16.7314 0.269041C14.0157 -0.271184 11.2007 0.00603948 8.64252 1.06565C6.08433 2.12527 3.89781 3.91968 2.35945 6.22198C0.821095 8.52427 0 11.231 0 14C0 16.769 0.821095 19.4757 2.35945 21.778C3.89781 24.0803 6.08433 25.8747 8.64252 26.9343C11.2007 27.994 14.0157 28.2712 16.7314 27.731C19.4471 27.1907 21.9417 25.8573 23.8996 23.8993C25.211 22.6058 26.2523 21.0645 26.963 19.3651C27.6737 17.6657 28.0397 15.842 28.0397 14C28.0397 12.158 27.6737 10.3343 26.963 8.63489C26.2523 6.93549 25.211 5.39424 23.8996 4.10065ZM6.01576 6.01549C7.96668 4.06439 10.5645 2.89522 13.3186 2.7288C16.0728 2.56239 18.7925 3.41026 20.9641 5.11226L5.11705 20.9684C3.41505 18.7967 2.56718 16.077 2.73359 13.3229C2.90001 10.5688 4.06918 7.97092 6.02028 6.02L6.01576 6.01549ZM21.9848 21.9845C20.0339 23.9356 17.436 25.1048 14.6819 25.2712C11.9278 25.4376 9.20805 24.5897 7.03641 22.8877L22.879 7.03613C24.5821 9.20671 25.4316 11.9258 25.2668 14.6799C25.1021 17.434 23.9346 20.0324 21.9848 21.9845Z" fill="white"/>
</svg>
