<svg width="20" height="20" viewBox="0 0 20 20" fill="none" xmlns="http://www.w3.org/2000/svg">
<circle cx="10" cy="10" r="10" fill="#3B95CD"/>
<path d="M5.99915 12.3276C5.82523 12.0466 5.46401 11.9396 5.18306 12.1135C4.90211 12.2875 4.79509 12.6487 4.96901 12.9296C5.07603 13.1169 5.27671 13.2239 5.49077 13.2239C5.59779 13.2239 5.69144 13.1972 5.79847 13.1437C6.06604 12.9831 6.15969 12.6085 5.99915 12.3276Z" fill="white" stroke="white" stroke-width="0.5"/>
<path d="M10.0122 14.6299C9.67773 14.6299 9.41016 14.8975 9.41016 15.2319C9.41016 15.5664 9.67773 15.8339 10.0122 15.8339C10.3466 15.8339 10.6142 15.5664 10.6142 15.2319C10.6142 14.8975 10.3466 14.6299 10.0122 14.6299Z" fill="white" stroke="white" stroke-width="0.5"/>
<path d="M14.0134 12.314C13.8528 12.595 13.9465 12.9696 14.2408 13.1301C14.3345 13.1836 14.4415 13.2104 14.5485 13.2104C14.7492 13.2104 14.9632 13.1034 15.0703 12.9027C15.2308 12.6217 15.1372 12.2472 14.8562 12.0866C14.5485 11.9261 14.1739 12.0197 14.0134 12.314Z" fill="white" stroke="white" stroke-width="0.5"/>
<path d="M7.69712 14.0143C7.40279 13.8538 7.04157 13.9475 6.88103 14.2418C6.72049 14.5361 6.81414 14.8973 7.09509 15.0579C7.18873 15.1114 7.29576 15.1381 7.40279 15.1381C7.60347 15.1381 7.81752 15.0311 7.92455 14.8304C8.08509 14.5495 7.97806 14.1883 7.69712 14.0143Z" fill="white" stroke="white" stroke-width="0.5"/>
<path d="M14.6289 9.99949C14.6289 10.334 14.8965 10.6015 15.2309 10.6015C15.5654 10.6015 15.833 10.334 15.833 9.99949C15.833 9.66503 15.5654 9.39746 15.2309 9.39746C14.8965 9.39746 14.6289 9.66503 14.6289 9.99949Z" fill="white" stroke="white" stroke-width="0.5"/>
<path d="M14.534 7.97952C14.6411 7.97952 14.7347 7.95276 14.8417 7.89925C15.1227 7.72533 15.2297 7.36411 15.0558 7.06978C14.8819 6.78883 14.5206 6.68181 14.2397 6.85573C13.9588 7.01627 13.8517 7.39086 14.0256 7.67181C14.1193 7.87249 14.32 7.97952 14.534 7.97952Z" fill="white" stroke="white" stroke-width="0.5"/>
<path d="M12.3139 5.98645C12.4076 6.03997 12.5146 6.06672 12.6216 6.06672C12.8357 6.06672 13.0364 5.9597 13.1434 5.7724C13.3173 5.49145 13.2103 5.11685 12.9293 4.95631C12.6484 4.78239 12.2738 4.88942 12.1132 5.17037C11.9259 5.45131 12.033 5.82591 12.3139 5.98645Z" fill="white" stroke="white" stroke-width="0.5"/>
<path d="M13.1437 14.2271C12.9698 13.9327 12.6085 13.8391 12.3276 14.013C12.0466 14.1869 11.9396 14.5482 12.1135 14.8425C12.2206 15.0298 12.4346 15.1368 12.6353 15.1368C12.7423 15.1368 12.836 15.11 12.943 15.0565C13.2106 14.8826 13.3176 14.508 13.1437 14.2271Z" fill="white" stroke="white" stroke-width="0.5"/>
<path d="M4.76805 10.602C5.10251 10.602 5.37008 10.3345 5.37008 10C5.37008 7.44471 7.44374 5.37105 9.99902 5.37105C10.3335 5.37105 10.6011 5.10348 10.6011 4.76902C10.6011 4.43456 10.3335 4.16699 9.99902 4.16699C6.78819 4.16699 4.16602 6.78917 4.16602 10C4.16602 10.3345 4.43358 10.602 4.76805 10.602Z" fill="white" stroke="white" stroke-width="0.5"/>
</svg>
