<svg width="17" height="22" viewBox="0 0 17 22" fill="none" xmlns="http://www.w3.org/2000/svg">
<path d="M14.6526 21.3279C14.6465 21.3276 14.6412 21.3242 14.6346 21.3242H2.19344C2.18686 21.3242 2.18149 21.3276 2.17515 21.3279C1.99739 21.3379 1.85547 21.4822 1.85547 21.6624C1.85547 21.849 2.00666 22.0004 2.19344 22.0004H14.6346C14.8211 22.0004 14.9726 21.849 14.9726 21.6624C14.9726 21.482 14.8306 21.3379 14.6526 21.3279Z" fill="#0D2C36"/>
<path d="M11.2803 8.64844C11.2618 9.50898 9.98571 10.2037 8.4146 10.2037C6.84324 10.2037 5.56767 9.50898 5.54889 8.64844C3.86146 8.80255 2.43397 9.84598 1.73047 11.3044H15.0987C14.396 9.84598 12.9682 8.80255 11.2803 8.64844Z" fill="#0D2C36"/>
<path d="M0.772511 11.5938C0.345777 11.5938 0 11.9398 0 12.3667L0.772511 20.2143C0.772511 20.6413 1.11853 20.987 1.54527 20.987H15.2834C15.7102 20.987 16.0562 20.6413 16.0562 20.2143L16.8287 12.3667C16.8287 11.9398 16.4829 11.5938 16.0562 11.5938H0.772511ZM8.40911 16.926C8.03602 16.926 7.73316 16.6234 7.73316 16.25C7.73316 15.8769 8.03602 15.5741 8.40911 15.5741C8.78244 15.5741 9.0853 15.8769 9.0853 16.25C9.0853 16.6234 8.78244 16.926 8.40911 16.926Z" fill="#0D2C36"/>
<path d="M4.71089 4.38025C4.71357 4.41439 4.7165 4.44828 4.71942 4.48193C4.94742 7.0599 6.45611 9.05165 8.28205 9.05165C10.1329 9.05165 11.6569 7.00796 11.8539 4.38147C11.8808 4.19273 11.8954 3.9996 11.8954 3.80282C11.8954 3.60603 11.8808 3.4129 11.8539 3.22441C11.5894 1.39871 10.0909 0 8.28205 0C6.47342 0 4.97498 1.39945 4.71064 3.22587C4.68382 3.41388 4.66992 3.607 4.66992 3.80282C4.66992 3.8828 4.67212 3.96156 4.67699 4.04008C4.68431 4.15493 4.69455 4.26832 4.71089 4.38025ZM6.05425 2.32948C6.05425 2.32948 8.55101 3.5436 10.2299 2.32948C10.2299 2.32948 11.2265 3.90596 10.9466 4.52583L11.4538 3.94327C11.4516 4.09787 11.4399 4.25028 11.4182 4.39927C11.2448 6.7051 9.9073 8.49933 8.28205 8.49933C6.68411 8.49933 5.36367 6.76265 5.15616 4.51119C5.29686 4.54655 5.4695 4.61483 5.65726 4.74578C5.65751 4.74553 5.30076 2.62698 6.05425 2.32948Z" fill="#0D2C36"/>
</svg>
