<svg width="22" height="28" viewBox="0 0 22 28" fill="none" xmlns="http://www.w3.org/2000/svg">
<path d="M18.6506 27.1443C18.6428 27.144 18.636 27.1396 18.6276 27.1396H2.79343C2.78505 27.1396 2.77822 27.144 2.77015 27.1443C2.54391 27.157 2.36328 27.3408 2.36328 27.5701C2.36328 27.8075 2.5557 28.0003 2.79343 28.0003H18.6276C18.865 28.0003 19.0578 27.8075 19.0578 27.5701C19.0578 27.3404 18.8771 27.157 18.6506 27.1443Z" fill="white"/>
<path d="M14.3575 11.0068C14.3339 12.1021 12.7098 12.9863 10.7102 12.9863C8.71029 12.9863 7.08683 12.1021 7.06294 11.0068C4.9153 11.203 3.09849 12.531 2.20312 14.3872H19.2173C18.3228 12.531 16.5057 11.203 14.3575 11.0068Z" fill="white"/>
<path d="M0.983197 14.7559C0.44008 14.7559 0 15.1963 0 15.7397L0.983197 25.7274C0.983197 26.2709 1.42359 26.7109 1.9667 26.7109H19.4517C19.9948 26.7109 20.4352 26.2709 20.4352 25.7274L21.4184 15.7397C21.4184 15.1963 20.9783 14.7559 20.4352 14.7559H0.983197ZM10.7025 21.5423C10.2277 21.5423 9.84221 21.1572 9.84221 20.682C9.84221 20.2072 10.2277 19.8217 10.7025 19.8217C11.1777 19.8217 11.5631 20.2072 11.5631 20.682C11.5631 21.1572 11.1777 21.5423 10.7025 21.5423Z" fill="white"/>
<path d="M5.99745 5.57486C6.00087 5.61831 6.00459 5.66145 6.00831 5.70428C6.29849 8.98533 8.21864 11.5203 10.5426 11.5203C12.8981 11.5203 14.8378 8.91922 15.0886 5.57641C15.1227 5.3362 15.1414 5.0904 15.1414 4.83995C15.1414 4.58949 15.1227 4.34369 15.0886 4.10379C14.7519 1.78018 12.8448 0 10.5426 0C8.24068 0 6.33356 1.78111 5.99714 4.10565C5.963 4.34494 5.94531 4.59073 5.94531 4.83995C5.94531 4.94174 5.94811 5.04199 5.95431 5.14192C5.96362 5.2881 5.97666 5.43241 5.99745 5.57486ZM7.70718 2.9648C7.70718 2.9648 10.8849 4.51004 13.0217 2.9648C13.0217 2.9648 14.2901 4.97123 13.9338 5.76014L14.5793 5.01871C14.5765 5.21547 14.5616 5.40944 14.534 5.59907C14.3133 8.53376 12.6111 10.8173 10.5426 10.8173C8.50882 10.8173 6.82827 8.60701 6.56416 5.74152C6.74323 5.78652 6.96296 5.87342 7.20193 6.04008C7.20224 6.03977 6.74819 3.34343 7.70718 2.9648Z" fill="white"/>
</svg>
