<svg width="22" height="22" viewBox="0 0 22 22" fill="none" xmlns="http://www.w3.org/2000/svg">
<path d="M3.45683 15.3887C3.12888 14.8589 2.44774 14.6571 1.91796 14.985C1.38818 15.313 1.18636 15.9941 1.51432 16.5239C1.71614 16.8771 2.09455 17.0789 2.49819 17.0789C2.70001 17.0789 2.8766 17.0284 3.07842 16.9275C3.58297 16.6248 3.75956 15.9184 3.45683 15.3887Z" fill="#E73B18"/>
<path d="M11.0259 19.7305C10.3952 19.7305 9.89062 20.235 9.89062 20.8657C9.89062 21.4964 10.3952 22.0009 11.0259 22.0009C11.6565 22.0009 12.1611 21.4964 12.1611 20.8657C12.1611 20.235 11.6565 19.7305 11.0259 19.7305Z" fill="#E73B18"/>
<path d="M18.5686 15.3647C18.2659 15.8945 18.4425 16.6008 18.9975 16.9035C19.1741 17.0045 19.3759 17.0549 19.5777 17.0549C19.9561 17.0549 20.3598 16.8531 20.5616 16.4747C20.8643 15.9449 20.6877 15.2385 20.158 14.9358C19.5777 14.6331 18.8714 14.8097 18.5686 15.3647Z" fill="#E73B18"/>
<path d="M6.65917 18.5667C6.10417 18.2639 5.42303 18.4405 5.1203 18.9955C4.81757 19.5505 4.99416 20.2317 5.52394 20.5344C5.70053 20.6353 5.90235 20.6858 6.10417 20.6858C6.48258 20.6858 6.88622 20.484 7.08804 20.1055C7.39077 19.5758 7.18895 18.8946 6.65917 18.5667Z" fill="#E73B18"/>
<path d="M19.7305 10.9985C19.7305 11.6292 20.235 12.1338 20.8657 12.1338C21.4964 12.1338 22.0009 11.6292 22.0009 10.9985C22.0009 10.3678 21.4964 9.86328 20.8657 9.86328C20.235 9.86328 19.7305 10.3678 19.7305 10.9985Z" fill="#E73B18"/>
<path d="M19.555 7.19007C19.7568 7.19007 19.9334 7.13961 20.1352 7.0387C20.665 6.71074 20.8668 6.0296 20.5389 5.4746C20.2109 4.94482 19.5298 4.743 19 5.07096C18.4702 5.37369 18.2684 6.08006 18.5964 6.60984C18.7729 6.98825 19.1514 7.19007 19.555 7.19007Z" fill="#E73B18"/>
<path d="M15.3637 3.43144C15.5403 3.53235 15.7421 3.58281 15.9439 3.58281C16.3476 3.58281 16.726 3.38099 16.9278 3.0278C17.2558 2.49803 17.0539 1.79166 16.5242 1.48893C15.9944 1.16097 15.288 1.36279 14.9853 1.89257C14.6321 2.42235 14.8339 3.12871 15.3637 3.43144Z" fill="#E73B18"/>
<path d="M16.9295 18.9705C16.6015 18.4155 15.9204 18.2389 15.3906 18.5668C14.8608 18.8948 14.659 19.5759 14.987 20.1309C15.1888 20.4841 15.5924 20.6859 15.9708 20.6859C16.1727 20.6859 16.3493 20.6355 16.5511 20.5346C17.0556 20.2066 17.2574 19.5003 16.9295 18.9705Z" fill="#E73B18"/>
<path d="M1.13523 12.1344C1.76592 12.1344 2.27047 11.6298 2.27047 10.9992C2.27047 6.18072 6.18072 2.27047 10.9992 2.27047C11.6298 2.27047 12.1344 1.76592 12.1344 1.13523C12.1344 0.504549 11.6298 0 10.9992 0C4.94458 0 0 4.94458 0 10.9992C0 11.6298 0.504549 12.1344 1.13523 12.1344Z" fill="#E73B18"/>
</svg>
