<svg width="28" height="28" viewBox="0 0 28 28" fill="none" xmlns="http://www.w3.org/2000/svg">
<path d="M20.4173 7.58203H7.58398V20.4154H20.4173V7.58203Z" fill="white"/>
<path d="M14.9805 12.2034L15.5685 13.0434L16.4925 12.3714V17.2434H17.5005V10.8594H16.6605L14.9805 12.2034Z" fill="#1E88E5"/>
<path d="M13.3828 13.8513C13.7473 13.5165 13.9737 13.0522 13.9737 12.5394C13.9737 11.5203 13.0794 10.6914 11.9804 10.6914C11.0459 10.6914 10.2468 11.28 10.0379 12.1223L11.0045 12.3679C11.1008 11.9806 11.5108 11.6994 11.9804 11.6994C12.5299 11.6994 12.9773 12.0762 12.9773 12.5394C12.9773 13.0026 12.5299 13.3794 11.9804 13.3794H11.3988V14.3874H11.9804C12.611 14.3874 13.143 14.8255 13.143 15.3441C13.143 15.8714 12.6378 16.3007 12.0166 16.3007C11.4554 16.3007 10.9759 15.9449 10.9001 15.4736L9.91602 15.6346C10.0688 16.5889 10.9718 17.3087 12.016 17.3087C13.1868 17.3087 14.1393 16.4273 14.1393 15.3441C14.1393 14.7473 13.8453 14.2118 13.3828 13.8513Z" fill="#1E88E5"/>
<path d="M19.834 24.4987H8.16732L7.58398 22.1654L8.16732 19.832H19.834L20.4173 22.1654L19.834 24.4987Z" fill="#FBC02D"/>
<path d="M22.1673 20.4154L24.5007 19.832V8.16536L22.1673 7.58203L19.834 8.16536V19.832L22.1673 20.4154Z" fill="#4CAF50"/>
<path d="M19.8333 8.16667L20.4167 5.83333L19.8333 3.5H5.25C4.28342 3.5 3.5 4.28342 3.5 5.25V19.8333L5.83333 20.4167L8.16667 19.8333V8.16667H19.8333Z" fill="#1E88E5"/>
<path d="M19.834 19.832V24.4987L24.5007 19.832H19.834Z" fill="#E53935"/>
<path d="M22.7507 3.5H19.834V8.16667H24.5007V5.25C24.5007 4.28342 23.7172 3.5 22.7507 3.5Z" fill="#1565C0"/>
<path d="M5.25 24.4987H8.16667V19.832H3.5V22.7487C3.5 23.7153 4.28342 24.4987 5.25 24.4987Z" fill="#1565C0"/>
</svg>
