<svg width="28" height="28" viewBox="0 0 28 28" fill="none" xmlns="http://www.w3.org/2000/svg">
<path d="M12.25 18.0846C12.25 18.7286 12.7727 19.2513 13.4167 19.2513H23.3333C23.9773 19.2513 24.5 18.7286 24.5 18.0846V9.33464C24.5 8.69064 23.9773 8.16797 23.3333 8.16797H13.4167C12.7727 8.16797 12.25 8.69064 12.25 9.33464V18.0846Z" fill="#03A9F4"/>
<path d="M24.5 9.90248V9.33373C24.5 9.08406 24.4201 8.85365 24.2859 8.66406L17.7152 12.7077L13.3157 9.99173L12.9062 11.0837L17.8407 14.0004L24.5 9.90248Z" fill="#B3E5FC"/>
<path d="M15.75 24.1836L3.5 21.8503V5.51693L15.75 3.18359V24.1836Z" fill="#0277BD"/>
<path d="M12.3753 10.6823C11.7348 9.93857 10.8902 9.56641 9.85066 9.56641C8.74699 9.56641 7.86266 9.95666 7.19416 10.7348C6.52682 11.5147 6.19141 12.5362 6.19141 13.795C6.19141 14.9879 6.52041 15.9615 7.17724 16.7035C7.83407 17.4461 8.68924 17.8177 9.73107 17.8177C10.8044 17.8177 11.6742 17.4373 12.3409 16.6656C13.0077 15.8997 13.3396 14.8905 13.3396 13.6328C13.3396 12.4148 13.0182 11.4313 12.3753 10.6823ZM11.1112 15.5963C10.7799 16.0449 10.3302 16.2683 9.76199 16.2683C9.21424 16.2683 8.77091 16.0385 8.42907 15.5759C8.09016 15.118 7.92157 14.4903 7.92157 13.7028C7.92157 12.9235 8.09016 12.2947 8.42907 11.8216C8.77091 11.3491 9.22707 11.1152 9.80282 11.1152C10.364 11.1152 10.805 11.3444 11.1252 11.8023C11.449 12.2661 11.6112 12.9077 11.6112 13.7332C11.6117 14.5294 11.4432 15.1489 11.1112 15.5963Z" fill="white"/>
</svg>
