<svg width="16" height="16" viewBox="0 0 16 16" fill="none" xmlns="http://www.w3.org/2000/svg">
<path d="M4.19642 0C3.98604 0 3.81547 0.166605 3.81547 0.372093V3.53488C3.81547 3.74039 3.98604 3.90698 4.19642 3.90698C4.40682 3.90698 4.57737 3.74039 4.57737 3.53488V0.372093C4.57737 0.166605 4.40682 0 4.19642 0ZM11.8155 0C11.6051 0 11.4345 0.166605 11.4345 0.372093V3.53488C11.4345 3.74039 11.6051 3.90698 11.8155 3.90698C12.0259 3.90698 12.1964 3.74039 12.1964 3.53488V0.372093C12.1964 0.166605 12.0259 0 11.8155 0ZM1.52975 1.11628C0.68299 1.11628 0 1.78335 0 2.61048V5.95349H16V2.61048C16 1.78335 15.317 1.11628 14.4702 1.11628H13.3333H12.5774V2.7035C12.811 2.90789 12.9583 3.20443 12.9583 3.53488C12.9583 4.15139 12.4467 4.65116 11.8155 4.65116C11.1843 4.65116 10.6726 4.15139 10.6726 3.53488C10.6726 3.20443 10.82 2.90789 11.0536 2.7035V1.11628H4.95238V2.69767C5.18966 2.90221 5.33928 3.20147 5.33928 3.53488C5.33928 4.15139 4.82766 4.65116 4.19642 4.65116C3.56528 4.65116 3.05356 4.15139 3.05356 3.53488C3.05356 3.20737 3.19855 2.91351 3.42857 2.7093V1.11628H1.52975ZM0 6.69767V14.5058C0 15.3329 0.682971 16 1.52975 16H14.4702C15.317 16 16 15.3329 16 14.5058V6.69767H0Z" fill="#0D2C36"/>
</svg>
