<svg xmlns="http://www.w3.org/2000/svg" width="41" height="35" viewBox="0 0 41 35" fill="none">
  <path d="M17.1875 15.625C17.1875 16.2431 17.0042 16.8473 16.6608 17.3612C16.3175 17.8751 15.8294 18.2756 15.2584 18.5121C14.6874 18.7486 14.059 18.8105 13.4528 18.69C12.8467 18.5694 12.2898 18.2717 11.8528 17.8347C11.4158 17.3977 11.1181 16.8408 10.9975 16.2347C10.877 15.6285 10.9389 15.0001 11.1754 14.4291C11.4119 13.8581 11.8124 13.37 12.3263 13.0267C12.8402 12.6833 13.4444 12.5 14.0625 12.5C14.8913 12.5 15.6862 12.8292 16.2722 13.4153C16.8583 14.0013 17.1875 14.7962 17.1875 15.625ZM40.625 3.125V31.25C40.625 32.0788 40.2958 32.8737 39.7097 33.4597C39.1237 34.0458 38.3288 34.375 37.5 34.375H3.125C2.2962 34.375 1.50134 34.0458 0.915291 33.4597C0.32924 32.8737 0 32.0788 0 31.25V3.125C0 2.2962 0.32924 1.50134 0.915291 0.915291C1.50134 0.32924 2.2962 0 3.125 0H37.5C38.3288 0 39.1237 0.32924 39.7097 0.915291C40.2958 1.50134 40.625 2.2962 40.625 3.125ZM21.8262 24.6094C21.3205 22.7215 20.1217 21.0937 18.4687 20.0508C19.3465 19.1782 19.9455 18.0646 20.1897 16.8512C20.4338 15.6378 20.3123 14.3793 19.8403 13.2351C19.3683 12.0909 18.5673 11.1125 17.5387 10.4241C16.5101 9.73573 15.3002 9.36823 14.0625 9.36823C12.8248 9.36823 11.6149 9.73573 10.5863 10.4241C9.55771 11.1125 8.75665 12.0909 8.2847 13.2351C7.81275 14.3793 7.69115 15.6378 7.93533 16.8512C8.1795 18.0646 8.77845 19.1782 9.65625 20.0508C8.00441 21.0948 6.80586 22.7222 6.29883 24.6094C6.19523 25.0108 6.25535 25.437 6.46596 25.7941C6.67657 26.1512 7.02042 26.4101 7.42188 26.5137C7.82333 26.6173 8.24949 26.5572 8.60661 26.3465C8.96374 26.1359 9.22257 25.7921 9.32617 25.3906C9.8418 23.3887 11.877 21.875 14.0625 21.875C16.248 21.875 18.2852 23.3848 18.7988 25.3906C18.9024 25.7921 19.1613 26.1359 19.5184 26.3465C19.8755 26.5572 20.3017 26.6173 20.7031 26.5137C21.1046 26.4101 21.4484 26.1512 21.659 25.7941C21.8697 25.437 21.9298 25.0108 21.8262 24.6094ZM34.375 20.3125C34.375 19.8981 34.2104 19.5007 33.9174 19.2076C33.6243 18.9146 33.2269 18.75 32.8125 18.75H25C24.5856 18.75 24.1882 18.9146 23.8951 19.2076C23.6021 19.5007 23.4375 19.8981 23.4375 20.3125C23.4375 20.7269 23.6021 21.1243 23.8951 21.4174C24.1882 21.7104 24.5856 21.875 25 21.875H32.8125C33.2269 21.875 33.6243 21.7104 33.9174 21.4174C34.2104 21.1243 34.375 20.7269 34.375 20.3125ZM34.375 14.0625C34.375 13.6481 34.2104 13.2507 33.9174 12.9576C33.6243 12.6646 33.2269 12.5 32.8125 12.5H25C24.5856 12.5 24.1882 12.6646 23.8951 12.9576C23.6021 13.2507 23.4375 13.6481 23.4375 14.0625C23.4375 14.4769 23.6021 14.8743 23.8951 15.1674C24.1882 15.4604 24.5856 15.625 25 15.625H32.8125C33.2269 15.625 33.6243 15.4604 33.9174 15.1674C34.2104 14.8743 34.375 14.4769 34.375 14.0625Z" fill="#262626"/>
</svg>