<svg width="41" height="40" viewBox="0 0 41 40" fill="none" xmlns="http://www.w3.org/2000/svg">
<g clip-path="url(#clip0_7013_171429)">
<path d="M23.3125 29.375C20.7278 29.375 18.625 27.2722 18.625 24.6875H5.1875C2.60281 24.6875 0.5 22.5847 0.5 20C0.5 17.4153 2.60281 15.3125 5.1875 15.3125H18.625C18.625 12.7278 20.7278 10.625 23.3125 10.625C24.3478 10.625 25.322 10.9505 26.1305 11.5666L32.3752 16.25C33.5665 17.1435 34.2497 18.5103 34.2497 20C34.2497 21.4897 33.5665 22.8564 32.3752 23.75L26.1305 28.4334C25.322 29.0495 24.3478 29.375 23.3125 29.375ZM5.1875 18.4375C4.32594 18.4375 3.625 19.1384 3.625 20C3.625 20.8616 4.32594 21.5625 5.1875 21.5625H20.1875C21.0505 21.5625 21.75 22.262 21.75 23.125V24.6875C21.75 25.5491 22.4509 26.25 23.3125 26.25C23.6584 26.25 23.9787 26.1449 24.2386 25.9462C24.2424 25.9433 30.5001 21.2499 30.5001 21.2499C30.897 20.9522 31.1246 20.4966 31.1246 19.9999C31.1246 19.5032 30.897 19.0477 30.5001 18.7499C30.5001 18.7499 24.2423 14.0566 24.2386 14.0537C23.9787 13.8551 23.6584 13.75 23.3125 13.75C22.4509 13.75 21.75 14.4509 21.75 15.3125V16.875C21.75 17.738 21.0505 18.4375 20.1875 18.4375H5.1875Z" fill="url(#paint0_linear_7013_171429)"/>
<path d="M32.6875 40H20.1875C15.8796 40 12.375 36.4953 12.375 32.1875V29.375C12.375 28.512 13.0745 27.8125 13.9375 27.8125C14.8005 27.8125 15.5 28.512 15.5 29.375V32.1875C15.5 34.7722 17.6028 36.875 20.1875 36.875H32.6875C35.2722 36.875 37.375 34.7722 37.375 32.1875V7.8125C37.375 5.22781 35.2722 3.125 32.6875 3.125H20.1875C17.6028 3.125 15.5 5.22781 15.5 7.8125V10.625C15.5 11.488 14.8005 12.1875 13.9375 12.1875C13.0745 12.1875 12.375 11.488 12.375 10.625V7.8125C12.375 3.50469 15.8796 0 20.1875 0H32.6875C36.9954 0 40.5 3.50469 40.5 7.8125V32.1875C40.5 36.4953 36.9954 40 32.6875 40Z" fill="url(#paint1_linear_7013_171429)"/>
</g>
<defs>
<linearGradient id="paint0_linear_7013_171429" x1="37.8916" y1="10.625" x2="21.7176" y2="40.7621" gradientUnits="userSpaceOnUse">
<stop stop-color="#AB65EF"/>
<stop offset="1" stop-color="#6741DF"/>
</linearGradient>
<linearGradient id="paint1_linear_7013_171429" x1="43.5349" y1="7.09973e-07" x2="4.13429" y2="28.6782" gradientUnits="userSpaceOnUse">
<stop stop-color="#AB65EF"/>
<stop offset="1" stop-color="#6741DF"/>
</linearGradient>
<clipPath id="clip0_7013_171429">
<rect width="40" height="40" fill="white" transform="translate(0.5)"/>
</clipPath>
</defs>
</svg>
