<svg width="20" height="20" viewBox="0 0 20 20" fill="none" xmlns="http://www.w3.org/2000/svg">
<g clip-path="url(#clip0_2562_3099)">
<mask id="mask0_2562_3099" style="mask-type:luminance" maskUnits="userSpaceOnUse" x="0" y="0" width="20" height="20">
<path d="M20 0H0V20H20V0Z" fill="white"/>
</mask>
<g mask="url(#mask0_2562_3099)">
<mask id="mask1_2562_3099" style="mask-type:luminance" maskUnits="userSpaceOnUse" x="0" y="0" width="20" height="20">
<path d="M0.5 0.5H19.5V19.5H0.5V0.5Z" fill="white" stroke="white"/>
</mask>
<g mask="url(#mask1_2562_3099)">
<path d="M20 10C20 4.47715 15.5228 0 10 0C4.47715 0 0 4.47715 0 10C0 15.5228 4.47715 20 10 20C15.5228 20 20 15.5228 20 10Z" fill="white"/>
<path d="M5.2002 5.65137H14.8002M6.80021 11.0913L10.0002 7.89136L13.2002 11.0913" stroke="#4744D1" stroke-width="1.2"/>
<path d="M10 7.89136V14.9314" stroke="#4744D1" stroke-width="1.2"/>
</g>
</g>
</g>
<defs>
<clipPath id="clip0_2562_3099">
<rect width="20" height="20" fill="white"/>
</clipPath>
</defs>
</svg>
