<svg width="20" height="20" viewBox="0 0 20 20" fill="none" xmlns="http://www.w3.org/2000/svg">
<path d="M10.25 1.25C8.46997 1.25 6.72991 1.77784 5.24987 2.76677C3.76983 3.75571 2.61628 5.16131 1.93509 6.80585C1.2539 8.45038 1.07567 10.26 1.42294 12.0058C1.7702 13.7516 2.62737 15.3553 3.88604 16.614C5.14471 17.8726 6.74836 18.7298 8.49419 19.0771C10.24 19.4243 12.0496 19.2461 13.6942 18.5649C15.3387 17.8837 16.7443 16.7302 17.7332 15.2501C18.7222 13.7701 19.25 12.03 19.25 10.25C19.2474 7.86383 18.2984 5.57613 16.6111 3.88886C14.9239 2.20158 12.6362 1.25255 10.25 1.25ZM10.8929 15.3929H9.60715V14.1071H10.8929V15.3929ZM13.4643 8.74443C13.465 9.31804 13.2735 9.87537 12.9205 10.3275C12.5674 10.7796 12.0731 11.1004 11.5164 11.2387L11.3801 11.2728C11.2409 11.3075 11.1173 11.3878 11.029 11.501C10.9407 11.6141 10.8928 11.7535 10.8929 11.897V12.8214H9.60715V11.897C9.60705 11.4669 9.75075 11.0491 10.0154 10.71C10.28 10.3709 10.6504 10.13 11.0677 10.0256L11.204 9.99157C11.4823 9.92217 11.7293 9.76171 11.9059 9.53574C12.0825 9.30976 12.1785 9.03122 12.1786 8.74443V8.32143C12.1786 7.80994 11.9754 7.3194 11.6137 6.95772C11.252 6.59604 10.7615 6.39286 10.25 6.39286C9.73851 6.39286 9.24797 6.59604 8.8863 6.95772C8.52462 7.3194 8.32143 7.80994 8.32143 8.32143V8.96428H7.03572V8.32143C7.03572 7.46895 7.37436 6.65138 7.97716 6.04858C8.57995 5.44579 9.39752 5.10714 10.25 5.10714C11.1025 5.10714 11.92 5.44579 12.5228 6.04858C13.1256 6.65138 13.4643 7.46895 13.4643 8.32143V8.74443Z" fill="white"/>
</svg>
