<svg width="13" height="13" viewBox="0 0 13 13" fill="none" xmlns="http://www.w3.org/2000/svg">
<g clip-path="url(#clip0_1967_1014)">
<path d="M8.625 2.00015C8.75632 1.86883 8.91222 1.76466 9.0838 1.69359C9.25538 1.62252 9.43928 1.58594 9.625 1.58594C9.81072 1.58594 9.99462 1.62252 10.1662 1.69359C10.3378 1.76466 10.4937 1.86883 10.625 2.00015C10.7563 2.13147 10.8605 2.28737 10.9316 2.45895C11.0026 2.63054 11.0392 2.81443 11.0392 3.00015C11.0392 3.18587 11.0026 3.36977 10.9316 3.54135C10.8605 3.71293 10.7563 3.86883 10.625 4.00015L3.875 10.7501L1.125 11.5001L1.875 8.75015L8.625 2.00015Z" stroke="#3E484A" stroke-width="0.9375" stroke-linecap="round" stroke-linejoin="round"/>
</g>
<defs>
<clipPath id="clip0_1967_1014">
<rect width="12" height="12" fill="white" transform="translate(0.125 0.5)"/>
</clipPath>
</defs>
</svg>
