<svg width="32" height="32" viewBox="0 0 32 32" fill="none" xmlns="http://www.w3.org/2000/svg">
<path d="M13.1968 22.9375V21.6875C14.398 21.6875 15.3749 20.71 15.3749 19.5094V18.8031C15.3749 16.9125 16.913 15.375 18.803 15.375V16.625C17.6018 16.625 16.6249 17.6025 16.6249 18.8031V19.5094C16.6249 21.4 15.0868 22.9375 13.1968 22.9375Z" fill="#D8DDDF"/>
<path d="M18.803 16.625C16.9124 16.625 15.3749 15.0869 15.3749 13.1969V12.4906C15.3749 11.2894 14.3974 10.3125 13.1968 10.3125V9.0625C15.0874 9.0625 16.6249 10.6006 16.6249 12.4906V13.1969C16.6249 14.3981 17.6024 15.375 18.803 15.375V16.625Z" fill="#D8DDDF"/>
<path d="M12.59 7.42578V11.9458H2.93872V7.42578H12.59ZM13.0168 6.17578H2.51185C2.05747 6.17578 1.68872 6.54453 1.68872 6.99891V12.3727C1.68872 12.827 2.05747 13.1958 2.51185 13.1958H13.0168C13.4712 13.1958 13.84 12.827 13.84 12.3727V6.99891C13.84 6.54453 13.4712 6.17578 13.0168 6.17578Z" fill="#0D2C36"/>
<path d="M12.59 20.0547V24.5747H2.93872V20.0547H12.59ZM13.0168 18.8047H2.51185C2.05747 18.8047 1.68872 19.1734 1.68872 19.6278V25.0016C1.68872 25.4559 2.05747 25.8247 2.51185 25.8247H13.0168C13.4712 25.8247 13.84 25.4559 13.84 25.0016V19.6278C13.84 19.1734 13.4712 18.8047 13.0168 18.8047Z" fill="#0D2C36"/>
<path d="M29.488 12.4883H18.983C18.5284 12.4883 18.1599 12.8568 18.1599 13.3114V18.6852C18.1599 19.1398 18.5284 19.5083 18.983 19.5083H29.488C29.9426 19.5083 30.3112 19.1398 30.3112 18.6852V13.3114C30.3112 12.8568 29.9426 12.4883 29.488 12.4883Z" fill="#0D2C36"/>
</svg>
