<svg width="18" height="19" viewBox="0 0 18 19" fill="none" xmlns="http://www.w3.org/2000/svg">
<path d="M3.50391 0.0585938C1.57091 0.0585938 0.00390625 1.6256 0.00390625 3.55859V9.55859C0.00390625 11.4916 1.57091 13.0586 3.50391 13.0586H3.99999V11.0586H3.50391C2.67548 11.0586 2.00391 10.387 2.00391 9.55859V3.55859C2.00391 2.73017 2.67548 2.05859 3.50391 2.05859H9.50391C10.3323 2.05859 11.0039 2.73017 11.0039 3.55859V9.55859C11.0039 10.387 10.3323 11.0586 9.50391 11.0586H7.99714V13.0586H9.50391C11.4369 13.0586 13.0039 11.4916 13.0039 9.55859V3.55859C13.0039 1.6256 11.4369 0.0585938 9.50391 0.0585938H3.50391ZM7.00146 8.55609C7.00146 7.72766 7.67304 7.05609 8.50146 7.05609H10.0003V5.05609H8.50146C6.56847 5.05609 5.00146 6.6231 5.00146 8.55609V14.5561C5.00146 16.4891 6.56847 18.0561 8.50146 18.0561H14.5015C16.4345 18.0561 18.0015 16.4891 18.0015 14.5561V8.55609C18.0015 6.6231 16.4345 5.05609 14.5015 5.05609H14.0063V7.05609H14.5015C15.3299 7.05609 16.0015 7.72766 16.0015 8.55609V14.5561C16.0015 15.3845 15.3299 16.0561 14.5015 16.0561H8.50146C7.67304 16.0561 7.00146 15.3845 7.00146 14.5561V8.55609Z" fill="#4E4E5C"/>
</svg>