<svg width="20" height="15" viewBox="0 0 20 15" fill="none" xmlns="http://www.w3.org/2000/svg">
<path d="M0 1.25C0 0.55965 0.55965 0 1.25 0H2.5C3.19035 0 3.75 0.55965 3.75 1.25C3.75 1.94035 3.19035 2.5 2.5 2.5H1.25C0.55965 2.5 0 1.94035 0 1.25ZM6.25 1.25C6.25 0.55965 6.80965 0 7.5 0H18.75C19.4404 0 20 0.55965 20 1.25C20 1.94035 19.4404 2.5 18.75 2.5H7.5C6.80965 2.5 6.25 1.94035 6.25 1.25ZM0 7.5C0 6.80963 0.55965 6.25 1.25 6.25H2.5C3.19035 6.25 3.75 6.80963 3.75 7.5C3.75 8.19038 3.19035 8.75 2.5 8.75H1.25C0.55965 8.75 0 8.19038 0 7.5ZM6.25 7.5C6.25 6.80963 6.80965 6.25 7.5 6.25H18.75C19.4404 6.25 20 6.80963 20 7.5C20 8.19038 19.4404 8.75 18.75 8.75H7.5C6.80965 8.75 6.25 8.19038 6.25 7.5ZM0 13.75C0 13.0596 0.55965 12.5 1.25 12.5H2.5C3.19035 12.5 3.75 13.0596 3.75 13.75C3.75 14.4404 3.19035 15 2.5 15H1.25C0.55965 15 0 14.4404 0 13.75ZM6.25 13.75C6.25 13.0596 6.80965 12.5 7.5 12.5H18.75C19.4404 12.5 20 13.0596 20 13.75C20 14.4404 19.4404 15 18.75 15H7.5C6.80965 15 6.25 14.4404 6.25 13.75Z" fill="white"/>
</svg>