<svg width="18" height="19" viewBox="0 0 18 19" fill="none" xmlns="http://www.w3.org/2000/svg">
<g opacity="0.5">
<path d="M2.25 4.7334C3.49264 4.7334 4.5 3.72604 4.5 2.4834C4.5 1.24076 3.49264 0.233398 2.25 0.233398C1.00736 0.233398 0 1.24076 0 2.4834C0 3.72604 1.00736 4.7334 2.25 4.7334Z" fill="#0D2C36"/>
<path d="M16.875 3.6084H7.875C7.254 3.6084 6.75 3.1044 6.75 2.4834C6.75 1.8624 7.254 1.3584 7.875 1.3584H16.875C17.4971 1.3584 18 1.8624 18 2.4834C18 3.1044 17.4971 3.6084 16.875 3.6084Z" fill="#0D2C36"/>
<path d="M2.25 18.2334C3.49264 18.2334 4.5 17.226 4.5 15.9834C4.5 14.7408 3.49264 13.7334 2.25 13.7334C1.00736 13.7334 0 14.7408 0 15.9834C0 17.226 1.00736 18.2334 2.25 18.2334Z" fill="#0D2C36"/>
<path d="M16.875 17.1074H7.875C7.254 17.1074 6.75 16.6045 6.75 15.9824C6.75 15.3603 7.254 14.8574 7.875 14.8574H16.875C17.4971 14.8574 18 15.3603 18 15.9824C18 16.6045 17.4971 17.1074 16.875 17.1074Z" fill="#0D2C36"/>
<path d="M2.25 11.4834C3.49264 11.4834 4.5 10.476 4.5 9.2334C4.5 7.99076 3.49264 6.9834 2.25 6.9834C1.00736 6.9834 0 7.99076 0 9.2334C0 10.476 1.00736 11.4834 2.25 11.4834Z" fill="#0D2C36"/>
<path d="M16.875 10.3574H7.875C7.254 10.3574 6.75 9.85342 6.75 9.23242C6.75 8.61142 7.254 8.10742 7.875 8.10742H16.875C17.4971 8.10742 18 8.61142 18 9.23242C18 9.85342 17.4971 10.3574 16.875 10.3574Z" fill="#0D2C36"/>
</g>
</svg>
