<svg width="18" height="19" viewBox="0 0 18 19" fill="none" xmlns="http://www.w3.org/2000/svg">
<path d="M2.25 4.95703C3.49264 4.95703 4.5 3.94967 4.5 2.70703C4.5 1.46439 3.49264 0.457031 2.25 0.457031C1.00736 0.457031 0 1.46439 0 2.70703C0 3.94967 1.00736 4.95703 2.25 4.95703Z" fill="#0D2C36"/>
<path d="M16.875 3.83203H7.875C7.254 3.83203 6.75 3.32803 6.75 2.70703C6.75 2.08603 7.254 1.58203 7.875 1.58203H16.875C17.4971 1.58203 18 2.08603 18 2.70703C18 3.32803 17.4971 3.83203 16.875 3.83203Z" fill="#0D2C36"/>
<path d="M2.25 18.4565C3.49264 18.4565 4.5 17.4492 4.5 16.2065C4.5 14.9639 3.49264 13.9565 2.25 13.9565C1.00736 13.9565 0 14.9639 0 16.2065C0 17.4492 1.00736 18.4565 2.25 18.4565Z" fill="#0D2C36"/>
<path d="M16.875 17.3306H7.875C7.254 17.3306 6.75 16.8277 6.75 16.2056C6.75 15.5834 7.254 15.0806 7.875 15.0806H16.875C17.4971 15.0806 18 15.5834 18 16.2056C18 16.8277 17.4971 17.3306 16.875 17.3306Z" fill="#0D2C36"/>
<path d="M2.25 11.707C3.49264 11.707 4.5 10.6997 4.5 9.45703C4.5 8.21439 3.49264 7.20703 2.25 7.20703C1.00736 7.20703 0 8.21439 0 9.45703C0 10.6997 1.00736 11.707 2.25 11.707Z" fill="#0D2C36"/>
<path d="M16.875 10.5811H7.875C7.254 10.5811 6.75 10.0771 6.75 9.45605C6.75 8.83505 7.254 8.33105 7.875 8.33105H16.875C17.4971 8.33105 18 8.83505 18 9.45605C18 10.0771 17.4971 10.5811 16.875 10.5811Z" fill="#0D2C36"/>
</svg>
