<svg width="51" height="42" viewBox="0 0 51 42" fill="none" xmlns="http://www.w3.org/2000/svg">
<path d="M0.714844 5.18897C0.714844 2.55186 2.85264 0.414062 5.48975 0.414062H42.3247C44.9618 0.414062 47.0996 2.55186 47.0996 5.18897V28.3813C47.0996 31.0185 44.9618 33.1563 42.3247 33.1563H5.48975C2.85264 33.1563 0.714844 31.0185 0.714844 28.3813V5.18897ZM8.90039 3.82471V6.55322C8.90039 7.68341 7.98419 8.59961 6.854 8.59961H4.12549V12.6924H6.854C10.2446 12.6924 12.9932 9.94379 12.9932 6.55322V3.82471H8.90039ZM23.9072 23.6064C27.2978 23.6064 30.0464 20.8579 30.0464 17.4673C30.0464 14.0767 27.2978 11.3281 23.9072 11.3281C20.5167 11.3281 17.7681 14.0767 17.7681 17.4673C17.7681 20.8579 20.5167 23.6064 23.9072 23.6064ZM4.12549 24.9707H6.854C7.98419 24.9707 8.90039 25.8869 8.90039 27.0171V29.7456H12.9932V27.0171C12.9932 23.6265 10.2446 20.8779 6.854 20.8779H4.12549V24.9707ZM38.9141 27.0171C38.9141 25.8869 39.8303 24.9707 40.9605 24.9707H43.689V20.8779H40.9605C37.5699 20.8779 34.8213 23.6265 34.8213 27.0171V29.7456H38.9141V27.0171ZM38.9141 6.55322V3.82471H34.8213V6.55322C34.8213 9.94379 37.5699 12.6924 40.9605 12.6924H43.689V8.59961H40.9605C39.8303 8.59961 38.9141 7.68341 38.9141 6.55322ZM7.26696 37.249C8.68228 39.6957 11.3276 41.3418 14.3574 41.3418H42.3247C49.4826 41.3418 55.2852 35.5392 55.2852 28.3813V14.0566C55.2852 11.0268 53.6391 8.38149 51.1924 6.96617V28.3813C51.1924 33.2788 47.2222 37.249 42.3247 37.249H7.26696Z" fill="url(#paint0_linear_8091_19866)"/>
<defs>
<linearGradient id="paint0_linear_8091_19866" x1="61.1737" y1="0.414063" x2="20.9168" y2="55.9783" gradientUnits="userSpaceOnUse">
<stop stop-color="#6E72EE"/>
<stop offset="1" stop-color="#595DDC"/>
</linearGradient>
</defs>
</svg>