<svg width="23" height="16" viewBox="0 0 23 16" fill="none" xmlns="http://www.w3.org/2000/svg">
<path d="M12.8 6.4C12.8 8.16731 11.3673 9.6 9.6 9.6C7.83269 9.6 6.4 8.16731 6.4 6.4C6.4 4.63269 7.83269 3.2 9.6 3.2C11.3673 3.2 12.8 4.63269 12.8 6.4ZM11.2 6.4C11.2 5.51634 10.4837 4.8 9.6 4.8C8.71634 4.8 8 5.51634 8 6.4C8 7.28366 8.71634 8 9.6 8C10.4837 8 11.2 7.28366 11.2 6.4ZM0 2C0 0.895431 0.895431 0 2 0H17.2C18.3046 0 19.2 0.895431 19.2 2V10.8C19.2 11.9046 18.3046 12.8 17.2 12.8H2C0.895431 12.8 0 11.9046 0 10.8V2ZM2 1.6C1.77909 1.6 1.6 1.77909 1.6 2V3.2H2.4C2.84183 3.2 3.2 2.84183 3.2 2.4V1.6H2ZM1.6 10.8C1.6 11.0209 1.77909 11.2 2 11.2H3.2V10.4C3.2 9.95817 2.84183 9.6 2.4 9.6H1.6V10.8ZM4.8 10.4V11.2H14.4V10.4C14.4 9.07452 15.4745 8 16.8 8H17.6V4.8H16.8C15.4745 4.8 14.4 3.72548 14.4 2.4V1.6H4.8V2.4C4.8 3.72548 3.72548 4.8 2.4 4.8H1.6V8H2.4C3.72548 8 4.8 9.07452 4.8 10.4ZM16 11.2H17.2C17.4209 11.2 17.6 11.0209 17.6 10.8V9.6H16.8C16.3582 9.6 16 9.95817 16 10.4V11.2ZM17.6 3.2V2C17.6 1.77909 17.4209 1.6 17.2 1.6H16V2.4C16 2.84183 16.3582 3.2 16.8 3.2H17.6ZM5.6 16C4.53344 16 3.62937 15.3043 3.31687 14.3419C3.53886 14.3801 3.7671 14.4 4 14.4H17.2C19.1882 14.4 20.8 12.7882 20.8 10.8V3.33656C21.7322 3.66603 22.4 4.55503 22.4 5.6V10.8C22.4 13.6719 20.0719 16 17.2 16H5.6Z" fill="#E73B18"/>
</svg>