<svg width="18" height="12" viewBox="0 0 18 12" fill="none" xmlns="http://www.w3.org/2000/svg">
<path opacity="0.9" d="M0 4.53846C0 5.09075 0.447715 5.53846 1 5.53846H4.29412C4.8464 5.53846 5.29412 5.09075 5.29412 4.53846V0.999999C5.29412 0.447714 4.8464 0 4.29412 0H1C0.447716 0 0 0.447715 0 1V4.53846ZM0 11C0 11.5523 0.447715 12 1 12H4.29412C4.8464 12 5.29412 11.5523 5.29412 11V7.46154C5.29412 6.90925 4.8464 6.46154 4.29412 6.46154H1C0.447716 6.46154 0 6.90925 0 7.46154V11ZM6.35294 11C6.35294 11.5523 6.80066 12 7.35294 12H10.6471C11.1993 12 11.6471 11.5523 11.6471 11V7.46154C11.6471 6.90925 11.1993 6.46154 10.6471 6.46154H7.35294C6.80066 6.46154 6.35294 6.90925 6.35294 7.46154V11ZM12.7059 11C12.7059 11.5523 13.1536 12 13.7059 12H17C17.5523 12 18 11.5523 18 11V7.46154C18 6.90925 17.5523 6.46154 17 6.46154H13.7059C13.1536 6.46154 12.7059 6.90925 12.7059 7.46154V11ZM6.35294 4.53846C6.35294 5.09075 6.80066 5.53846 7.35294 5.53846H10.6471C11.1993 5.53846 11.6471 5.09075 11.6471 4.53846V0.999999C11.6471 0.447714 11.1993 0 10.6471 0H7.35294C6.80066 0 6.35294 0.447715 6.35294 1V4.53846ZM13.7059 0C13.1536 0 12.7059 0.447715 12.7059 1V4.53846C12.7059 5.09075 13.1536 5.53846 13.7059 5.53846H17C17.5523 5.53846 18 5.09075 18 4.53846V0.999999C18 0.447714 17.5523 0 17 0H13.7059Z" fill="white"/>
</svg>
