<svg width="34" height="42" viewBox="0 0 34 42" fill="none" xmlns="http://www.w3.org/2000/svg">
<path d="M31.71 4.70312H30.4954V34.5433C30.4954 36.5257 28.8818 38.1393 26.8994 38.1393H14.5929H4.80664V39.2455C4.80664 40.5122 5.83471 41.5402 7.10137 41.5402H19.4035H31.7057C32.9724 41.5402 34.0004 40.5122 34.0004 39.2455V6.99785C34.0004 5.7312 32.9767 4.70312 31.71 4.70312Z" fill="#0D2C36"/>
<path d="M14.5926 36.8371H26.8947C28.1614 36.8371 29.1894 35.809 29.1894 34.5424V4.70224V2.29473C29.1894 1.02807 28.1614 0 26.8947 0H14.5926H10.502V0.759125C10.5106 0.837207 10.515 0.919626 10.515 1.00205V6.0036V7.2876C10.515 9.07046 9.06612 10.5193 7.28326 10.5193H5.99926H0.997708C0.93264 10.5193 0.863234 10.515 0.798166 10.5106H0V34.5424C0 35.809 1.02807 36.8371 2.29473 36.8371H4.81069H14.5926ZM15.0567 29.0376H7.03601C6.43738 29.0376 5.95154 28.5517 5.95154 27.9532C5.95154 27.3545 6.43738 26.8687 7.03601 26.8687H15.061C15.6597 26.8687 16.1455 27.3545 16.1455 27.9532C16.1455 28.5517 15.6553 29.0376 15.0567 29.0376ZM23.0817 23.5026H7.03601C6.43738 23.5026 5.95154 23.0167 5.95154 22.4181C5.95154 21.8194 6.43738 21.3336 7.03601 21.3336H23.0817C23.6804 21.3336 24.1662 21.8194 24.1662 22.4181C24.1662 23.0167 23.6804 23.5026 23.0817 23.5026ZM7.03601 15.4558H23.0817C23.6804 15.4558 24.1662 15.9416 24.1662 16.5403C24.1662 17.1389 23.6804 17.6247 23.0817 17.6247H7.03601C6.43738 17.6247 5.95154 17.1389 5.95154 16.5403C5.95154 15.9416 6.43738 15.4558 7.03601 15.4558Z" fill="#0D2C36"/>
<path d="M0.995077 9.21645H7.28063C7.28497 9.21645 7.29365 9.21645 7.29799 9.21645C8.34775 9.20778 9.19797 8.35755 9.20665 7.30779C9.20665 7.30345 9.20665 7.29478 9.20665 7.29044V1.00055C9.20665 0.419273 8.72948 0.0332031 8.23501 0.0332031C7.99642 0.0332031 7.75784 0.11996 7.5583 0.319502L0.309695 7.56806C-0.297605 8.17536 0.131843 9.21645 0.995077 9.21645Z" fill="#0D2C36"/>
</svg>
