<svg width="36" height="36" viewBox="0 0 36 36" fill="none" xmlns="http://www.w3.org/2000/svg">
<path d="M13.75 18C13.75 18.9665 12.9665 19.75 12 19.75C11.0335 19.75 10.25 18.9665 10.25 18C10.25 17.0335 11.0335 16.25 12 16.25C12.9665 16.25 13.75 17.0335 13.75 18ZM19.75 18C19.75 18.9665 18.9665 19.75 18 19.75C17.0335 19.75 16.25 18.9665 16.25 18C16.25 17.0335 17.0335 16.25 18 16.25C18.9665 16.25 19.75 17.0335 19.75 18ZM24 19.75C24.9665 19.75 25.75 18.9665 25.75 18C25.75 17.0335 24.9665 16.25 24 16.25C23.0335 16.25 22.25 17.0335 22.25 18C22.25 18.9665 23.0335 19.75 24 19.75Z" fill="#242123"/>
<rect x="0.5" y="0.5" width="35" height="35" rx="17.5" stroke="#212121" stroke-opacity="0.4"/>
</svg>
