<svg width="50" height="61" viewBox="0 0 50 61" fill="none" xmlns="http://www.w3.org/2000/svg">
<g clip-path="url(#clip0_7075_96055)">
<path d="M6.2527 -0.000273609C2.80637 -0.000273609 0.000976562 2.80713 0.000976562 6.25333V54.2792C0.000976562 57.7254 2.80637 60.5328 6.2527 60.5328H42.9766C46.4229 60.5328 49.2283 57.7255 49.2283 54.2792V14.7886C49.2283 14.7886 49.3266 13.6322 48.8246 12.5069C48.3541 11.4522 47.5872 10.718 47.5872 10.718C47.5853 10.7154 47.5834 10.7129 47.5815 10.7103L38.4701 1.77329C38.4651 1.76819 38.4601 1.76314 38.455 1.75815C38.455 1.75815 37.6771 1.01742 36.5239 0.522586C35.1662 -0.0600541 33.7667 0.00145117 33.7667 0.00145117L33.7875 -0.000488281L6.2527 -0.000273609Z" fill="#FF2116"/>
<path d="M6.25219 2.05371H33.7871C33.794 2.05378 33.801 2.05378 33.8079 2.05371C33.8079 2.05371 34.909 2.06438 35.7143 2.40998C36.4894 2.7426 37.0391 3.24611 37.0427 3.24949C37.0427 3.2495 37.0465 3.25336 37.0465 3.25336L46.1351 12.1695C46.1351 12.1695 46.6827 12.7476 46.9481 13.3425C47.1623 13.8227 47.1755 14.7013 47.1755 14.7013C47.1745 14.7158 47.1739 14.7303 47.1735 14.7448V54.2791C47.1735 56.6231 45.3201 58.4785 42.976 58.4785H6.25219C3.90813 58.4785 2.05469 56.6232 2.05469 54.2791V6.25318C2.05469 3.90901 3.90813 2.05371 6.25219 2.05371Z" fill="#F5F5F5"/>
<path d="M12.292 36.0406C10.8787 34.6272 12.4078 32.6851 16.5577 30.6227L19.1689 29.3251L20.1862 27.0993C20.7457 25.8751 21.5807 23.8777 22.0419 22.6606L22.8803 20.4476L22.3025 18.8099C21.5921 16.7961 21.3388 13.77 21.7895 12.6818C22.4 11.2079 24.3998 11.3592 25.1915 12.9391C25.8098 14.173 25.7466 16.4077 25.0137 19.2258L24.4128 21.5363L24.9421 22.4348C25.2332 22.9289 26.0835 24.1023 26.8316 25.0423L28.2378 26.7914L29.9875 26.563C35.5461 25.8377 37.45 27.0705 37.45 28.8381C37.45 31.0689 33.0853 31.253 29.4201 28.6787C28.5954 28.0995 28.029 27.5241 28.029 27.5241C28.029 27.5241 25.7329 27.9915 24.6024 28.2963C23.4354 28.6108 22.8532 28.8078 21.1439 29.3847C21.1439 29.3847 20.5441 30.2557 20.1533 30.8889C18.6993 33.2446 17.0016 35.1968 15.7892 35.9074C14.4317 36.7029 13.0085 36.7571 12.292 36.0406ZM14.5101 35.2482C15.3046 34.7572 16.9126 32.8553 18.0257 31.0902L18.4764 30.3755L16.4243 31.4073C13.2549 33.0008 11.805 34.5027 12.559 35.4111C12.9825 35.9215 13.4892 35.8792 14.5101 35.2482ZM35.0971 29.4696C35.8742 28.9253 35.7614 27.8285 34.8828 27.3862C34.1991 27.0421 33.6481 26.9714 31.872 26.9976C30.7805 27.072 29.0255 27.292 28.728 27.3589C28.728 27.3589 29.6922 28.0252 30.1202 28.2702C30.6901 28.5956 32.0748 29.1998 33.0859 29.5092C34.0831 29.8145 34.66 29.7823 35.0971 29.4696ZM26.8193 26.0291C26.349 25.5347 25.5494 24.5029 25.0423 23.7362C24.3791 22.8664 24.0465 22.2528 24.0465 22.2528C24.0465 22.2528 23.5618 23.8119 23.1641 24.7502L21.9234 27.8169L21.5636 28.5126C21.5636 28.5126 23.4761 27.8855 24.4491 27.6314C25.4796 27.3622 27.5712 26.9509 27.5712 26.9509L26.8193 26.0291ZM24.1517 15.3313C24.2717 14.3247 24.3226 13.3195 23.9992 12.8126C23.1021 11.8319 22.0193 12.6498 22.2027 14.9813C22.2644 15.7657 22.4592 17.1065 22.7198 17.9329L23.1934 19.4355L23.5268 18.3038C23.7101 17.6814 23.9913 16.3438 24.1517 15.3313Z" fill="#FF2116"/>
<path d="M14.6963 42.5854H16.9909C17.7241 42.5854 18.3193 42.6556 18.7764 42.7959C19.2335 42.9317 19.6182 43.2372 19.9305 43.7124C20.2428 44.1831 20.399 44.7511 20.399 45.4164C20.399 46.0274 20.2722 46.5524 20.0188 46.9914C19.7653 47.4305 19.4236 47.7473 18.9937 47.9419C18.5682 48.1365 17.912 48.2338 17.0249 48.2338H16.2306V51.8523H14.6963V42.5854ZM16.2306 43.7735V47.005H16.9909C17.6698 47.005 18.1383 46.8783 18.3962 46.6248C18.6587 46.3714 18.79 45.9595 18.79 45.3893C18.79 44.9638 18.704 44.6198 18.532 44.3573C18.36 44.0903 18.1699 43.9274 17.9617 43.8686C17.7581 43.8052 17.4345 43.7735 16.9909 43.7735L16.2306 43.7735ZM21.5734 42.5854H23.6576C24.6669 42.5854 25.4725 42.7642 26.0745 43.1218C26.681 43.4793 27.1381 44.0111 27.4458 44.7172C27.7581 45.4232 27.9143 46.2062 27.9143 47.0661C27.9143 47.9713 27.774 48.7792 27.4934 49.4898C27.2173 50.1958 26.7918 50.7661 26.217 51.2005C25.6468 51.635 24.8321 51.8523 23.773 51.8523H21.5734V42.5854ZM23.1077 43.8142V50.6235H23.7459C24.6375 50.6235 25.2847 50.3157 25.6875 49.7002C26.0903 49.0801 26.2917 48.2542 26.2917 47.2223C26.2917 44.9502 25.4431 43.8142 23.7459 43.8142H23.1077ZM29.3875 42.5854H34.5334V43.8142H30.9218V46.5841H33.8138V47.8129H30.9218V51.8523H29.3875V42.5854Z" fill="#2C2C2C"/>
</g>
<defs>
<clipPath id="clip0_7075_96055">
<rect width="49.2353" height="60.5335" fill="white"/>
</clipPath>
</defs>
</svg>
