<svg width="37" height="37" viewBox="0 0 37 37" fill="none" xmlns="http://www.w3.org/2000/svg">
<path d="M15.5401 6.65991V12.5799H9.62012M15.5401 6.65991H27.3801V30.3399H9.62012V12.5799L15.5401 6.65991Z" stroke="#101112" stroke-width="1.2"/>
<path d="M18.8575 19.4472L18.8688 19.3947C19.0862 18.4986 19.3599 17.3813 19.1462 16.3691C19.0037 15.5705 18.4151 15.2593 17.9127 15.2368C17.3203 15.2105 16.7917 15.548 16.6605 16.0391C16.413 16.9389 16.6342 18.1687 17.0391 19.7359C16.5292 20.9506 15.7156 22.7165 15.1195 23.7663C14.0097 24.3399 12.5213 25.2247 12.3001 26.342C12.2551 26.5482 12.3076 26.8107 12.4313 27.0469C12.57 27.3093 12.7912 27.5118 13.0499 27.6093C13.1624 27.6505 13.2974 27.6842 13.4549 27.6842C14.1147 27.6842 15.1833 27.1518 16.608 24.7073C16.8254 24.6361 17.0504 24.5611 17.2678 24.4861C18.2876 24.1412 19.3449 23.7813 20.301 23.6201C21.3582 24.1862 22.5617 24.5499 23.3791 24.5499C24.1889 24.5499 24.5076 24.07 24.6276 23.7813C24.8375 23.2751 24.7363 22.6378 24.3951 22.2966C23.9002 21.8092 22.6967 21.6817 20.8221 21.9142C19.8998 21.3518 19.2962 20.5869 18.8575 19.4472ZM14.7446 25.1423C14.2235 25.8996 13.8298 26.2783 13.6161 26.4432C13.8673 25.9821 14.3584 25.4947 14.7446 25.1423ZM18.0289 16.3128C18.2239 16.6465 18.1976 17.655 18.0477 18.1649C17.864 17.4188 17.8377 16.3616 17.9464 16.2378L18.0289 16.3128ZM17.9689 20.8306C18.3701 21.5242 18.8763 22.1204 19.4349 22.5628C18.6251 22.7465 17.8865 23.0502 17.2266 23.3201C17.0691 23.3839 16.9154 23.4476 16.7654 23.5076C17.2641 22.604 17.6802 21.5805 17.9689 20.8306ZM23.8027 23.2864L23.7802 23.3201C23.7802 23.3201 23.4353 23.5301 22.1118 23.0089C23.634 22.9377 23.8027 23.2864 23.8027 23.2864Z" fill="#101112"/>
</svg>
