<svg width="282" height="117" viewBox="0 0 282 117" fill="none" xmlns="http://www.w3.org/2000/svg">
<path d="M281 1H1V116H281V113.84C281 100.585 270.255 89.8397 257 89.8397H41.6052C25.7661 89.8397 12.9259 76.9995 12.9259 61.1604C12.9259 45.3213 25.7159 32.4811 41.555 32.4811H257.032C270.286 32.4811 281 21.736 281 8.48114V1Z" fill="white"/>
<path d="M281.5 0.5V8.48145C281.5 22.0114 270.563 32.9814 257.031 32.9814H41.5547C25.9931 32.9816 13.4259 45.5963 13.4258 61.1602C13.4258 76.7231 26.0425 89.3398 41.6055 89.3398H257C270.531 89.3398 281.5 100.309 281.5 113.84V116.5H0.5V0.5H281.5Z" stroke="black" stroke-opacity="0.1"/>
</svg>
