<svg width="21" height="20" viewBox="0 0 21 20" fill="none" xmlns="http://www.w3.org/2000/svg">
<path d="M10.4545 3.90445e-06C8.87359 -0.000891519 7.31562 0.378596 5.91217 1.10643C4.50872 1.83426 3.30098 2.88908 2.39091 4.18182L1.48182 3.40909C1.35002 3.30208 1.1909 3.23411 1.02246 3.21288C0.854022 3.19165 0.683005 3.21801 0.528778 3.28897C0.374551 3.35994 0.243276 3.47267 0.149822 3.6144C0.0563672 3.75613 0.00446734 3.9212 0 4.09091V7.27273C0 7.51384 0.0957791 7.74507 0.266267 7.91555C0.436754 8.08604 0.667985 8.18182 0.909091 8.18182H4.54545C4.73 8.18156 4.91009 8.12513 5.0618 8.02005C5.2135 7.91497 5.32963 7.7662 5.39475 7.59353C5.45988 7.42086 5.47091 7.23246 5.42637 7.05336C5.38184 6.87427 5.28386 6.71298 5.14545 6.59091L3.76364 5.38182C4.50193 4.28545 5.49814 3.38713 6.66477 2.76577C7.8314 2.14442 9.13276 1.81903 10.4545 1.81819C11.9547 1.81731 13.4263 2.22891 14.7083 3.00799C15.9904 3.78707 17.0335 4.90364 17.7237 6.23562C18.414 7.56759 18.7247 9.0637 18.6219 10.5604C18.5192 12.057 18.0069 13.4967 17.1412 14.7218C16.2754 15.947 15.0894 16.9105 13.7129 17.5071C12.3365 18.1036 10.8225 18.3103 9.33647 18.1044C7.85047 17.8985 6.44968 17.288 5.28726 16.3397C4.12483 15.3914 3.24552 14.1417 2.74545 12.7273C2.71137 12.6077 2.65312 12.4964 2.57431 12.4002C2.4955 12.3041 2.3978 12.2251 2.28726 12.1682C2.17671 12.1113 2.05567 12.0777 1.93161 12.0694C1.80756 12.0611 1.68312 12.0784 1.56601 12.1202C1.44889 12.1619 1.34158 12.2272 1.25071 12.3121C1.15984 12.3969 1.08735 12.4995 1.0377 12.6135C0.988062 12.7275 0.962331 12.8505 0.9621 12.9748C0.96187 13.0991 0.987145 13.2222 1.03636 13.3364C1.64811 15.0649 2.72331 16.5919 4.14441 17.7505C5.56551 18.9091 7.27781 19.6547 9.0941 19.9058C10.9104 20.1569 12.7607 19.9037 14.4429 19.1741C16.125 18.4444 17.5741 17.2663 18.6318 15.7686C19.6895 14.2708 20.3151 12.5111 20.4401 10.6818C20.5651 8.85256 20.1848 7.0241 19.3407 5.39639C18.4966 3.76868 17.2212 2.40438 15.654 1.45265C14.0868 0.500912 12.2881 -0.0016161 10.4545 3.90445e-06Z" fill="black"/>
</svg>