<svg width="18" height="18" viewBox="0 0 18 18" fill="none" xmlns="http://www.w3.org/2000/svg">
<path d="M16.5996 8.6001C16.5996 13.0184 13.0179 16.6001 8.59961 16.6001C4.18133 16.6001 0.599609 13.0184 0.599609 8.6001C0.599609 4.18182 4.18133 0.600098 8.59961 0.600098C13.0179 0.600098 16.5996 4.18182 16.5996 8.6001Z" fill="white"/>
<path d="M5.59961 11.6001L8.5996 8.6001M8.5996 8.6001L11.5996 5.6001M8.5996 8.6001L5.59961 5.6001M8.5996 8.6001L11.5996 11.6001M16.5996 8.6001C16.5996 13.0184 13.0179 16.6001 8.59961 16.6001C4.18133 16.6001 0.599609 13.0184 0.599609 8.6001C0.599609 4.18182 4.18133 0.600098 8.59961 0.600098C13.0179 0.600098 16.5996 4.18182 16.5996 8.6001Z" stroke="#101112" stroke-width="1.2"/>
</svg>
