<svg width="16" height="21" viewBox="0 0 16 21" fill="none" xmlns="http://www.w3.org/2000/svg">
<path d="M13.7499 0.158203C14.9407 0.158203 15.9155 1.08336 15.9947 2.25415L15.9999 2.4082V17.9063C15.9999 19.0971 15.0747 20.0719 13.9039 20.1511L13.7499 20.1563H2.25C1.05914 20.1563 0.0843551 19.2311 0.00519085 18.0603L0 17.9063V2.4082C0 1.21734 0.925161 0.242558 2.09595 0.163394L2.25 0.158203H13.7499ZM3.74976 5.15112C3.33554 5.15112 2.99976 5.48691 2.99976 5.90112C2.99976 6.31534 3.33554 6.65112 3.74976 6.65112H12.2498C12.664 6.65112 12.9998 6.31534 12.9998 5.90112C12.9998 5.48691 12.664 5.15112 12.2498 5.15112H3.74976ZM2.99976 9.90112C2.99976 10.3153 3.33554 10.6511 3.74976 10.6511H12.2498C12.664 10.6511 12.9998 10.3153 12.9998 9.90112C12.9998 9.48691 12.664 9.15112 12.2498 9.15112H3.74976C3.33554 9.15112 2.99976 9.48691 2.99976 9.90112ZM3.74976 13.1511C3.33554 13.1511 2.99976 13.4869 2.99976 13.9011C2.99976 14.3153 3.33554 14.6511 3.74976 14.6511H12.2498C12.664 14.6511 12.9998 14.3153 12.9998 13.9011C12.9998 13.4869 12.664 13.1511 12.2498 13.1511H3.74976Z" fill="#595DDC"/>
</svg>