<svg width="32" height="32" viewBox="0 0 32 32" fill="none" xmlns="http://www.w3.org/2000/svg">
<path d="M13.1968 16.625V15.375C14.398 15.375 15.3749 14.3975 15.3749 13.1969V12.4906C15.3749 10.6 16.913 9.0625 18.803 9.0625V10.3125C17.6018 10.3125 16.6249 11.29 16.6249 12.4906V13.1969C16.6249 15.0875 15.0868 16.625 13.1968 16.625Z" fill="#D8DDDF"/>
<path d="M18.803 22.9375C16.9124 22.9375 15.3749 21.3994 15.3749 19.5094V18.8031C15.3749 17.6019 14.3974 16.625 13.1968 16.625V15.375C15.0874 15.375 16.6249 16.9131 16.6249 18.8031V19.5094C16.6249 20.7106 17.6024 21.6875 18.803 21.6875V22.9375Z" fill="#D8DDDF"/>
<path d="M29.0613 20.0547V24.5747H19.41V20.0547H29.0613ZM29.4882 18.8047H18.9825C18.5282 18.8047 18.1594 19.1734 18.1594 19.6278V25.0016C18.1594 25.4559 18.5282 25.8247 18.9825 25.8247H29.4882C29.9425 25.8247 30.3113 25.4559 30.3113 25.0016V19.6278C30.3113 19.1734 29.9425 18.8047 29.4882 18.8047Z" fill="#0D2C36"/>
<path d="M29.0613 7.42578V11.9458H19.41V7.42578H29.0613ZM29.4882 6.17578H18.9825C18.5282 6.17578 18.1594 6.54453 18.1594 6.99891V12.3727C18.1594 12.827 18.5282 13.1958 18.9825 13.1958H29.4882C29.9425 13.1958 30.3113 12.827 30.3113 12.3727V6.99891C30.3113 6.54453 29.9425 6.17578 29.4882 6.17578Z" fill="#0D2C36"/>
<path d="M13.0168 12.4883H2.51185C2.05725 12.4883 1.68872 12.8568 1.68872 13.3114V18.6852C1.68872 19.1398 2.05725 19.5083 2.51185 19.5083H13.0168C13.4714 19.5083 13.84 19.1398 13.84 18.6852V13.3114C13.84 12.8568 13.4714 12.4883 13.0168 12.4883Z" fill="#0D2C36"/>
</svg>
