<svg width="14" height="15" viewBox="0 0 14 15" fill="none" xmlns="http://www.w3.org/2000/svg">
<path d="M1.47368 12.6781C1.06842 12.6781 0.721614 12.5412 0.433263 12.2672C0.144912 11.9933 0.000491228 11.6636 0 11.2781V1.47812C0 1.09312 0.144421 0.763658 0.433263 0.489725C0.722105 0.215792 1.06891 0.0785917 1.47368 0.078125H10.3158L13.2632 2.87812V6.58813C13.0298 6.49479 12.7874 6.43366 12.5359 6.40472C12.2844 6.37579 12.0356 6.37859 11.7895 6.41313V3.45562L9.70789 1.47812H1.47368V11.2781H5.89473V12.6781H1.47368ZM7.36842 14.0781V11.9256L11.4395 8.07562C11.55 7.97062 11.6728 7.89479 11.8079 7.84813C11.943 7.80146 12.0781 7.77812 12.2132 7.77812C12.3605 7.77812 12.5017 7.80449 12.6368 7.85722C12.7719 7.90996 12.8947 7.98859 13.0053 8.09312L13.6868 8.74062C13.7851 8.84562 13.862 8.96229 13.9175 9.09062C13.973 9.21896 14.0005 9.34729 14 9.47562C13.9995 9.60396 13.9749 9.73533 13.9263 9.86973C13.8777 10.0041 13.7979 10.1236 13.6868 10.2281L9.63421 14.0781H7.36842ZM8.47368 13.0281H9.17368L11.4026 10.8931L11.071 10.5606L10.721 10.2456L8.47368 12.3631V13.0281ZM11.071 10.5606L10.721 10.2456L11.4026 10.8931L11.071 10.5606ZM2.21053 4.97812H8.8421V2.17812H2.21053V4.97812ZM6.63158 10.5781H6.70526L8.8421 8.56562V8.47812C8.8421 7.89479 8.62719 7.39896 8.19736 6.99062C7.76754 6.58229 7.24561 6.37812 6.63158 6.37812C6.01754 6.37812 5.49561 6.58229 5.06579 6.99062C4.63596 7.39896 4.42105 7.89479 4.42105 8.47812C4.42105 9.06146 4.63596 9.55729 5.06579 9.96562C5.49561 10.374 6.01754 10.5781 6.63158 10.5781Z" fill="#4744D1"/>
</svg>
