<svg width="20" height="20" viewBox="0 0 20 20" fill="none" xmlns="http://www.w3.org/2000/svg">
<rect width="20" height="20" rx="10" fill="white"/>
<path d="M15.5595 8.99703L12.9345 11.622C12.8524 11.7041 12.7411 11.7502 12.625 11.7502C12.5089 11.7502 12.3976 11.7041 12.3155 11.622C12.2334 11.5399 12.1873 11.4286 12.1873 11.3125C12.1873 11.1964 12.2334 11.0851 12.3155 11.003L14.6315 8.6875L12.3155 6.37203C12.2748 6.33138 12.2426 6.28313 12.2206 6.23002C12.1986 6.17691 12.1873 6.11998 12.1873 6.0625C12.1873 6.00501 12.1986 5.94809 12.2206 5.89498C12.2426 5.84187 12.2748 5.79362 12.3155 5.75297C12.3976 5.67088 12.5089 5.62476 12.625 5.62476C12.6825 5.62476 12.7394 5.63608 12.7925 5.65808C12.8456 5.68008 12.8939 5.71232 12.9345 5.75297L15.5595 8.37797C15.6002 8.4186 15.6325 8.46685 15.6545 8.51996C15.6765 8.57307 15.6878 8.63001 15.6878 8.6875C15.6878 8.74499 15.6765 8.80192 15.6545 8.85504C15.6325 8.90815 15.6002 8.9564 15.5595 8.99703ZM12.9345 8.37797L10.3095 5.75297C10.2274 5.67088 10.1161 5.62476 10 5.62476C9.8839 5.62476 9.77256 5.67088 9.69047 5.75297C9.60838 5.83506 9.56226 5.9464 9.56226 6.0625C9.56226 6.1786 9.60838 6.28994 9.69047 6.37203L11.569 8.25H10C8.49207 8.25159 7.04636 8.85132 5.98009 9.91759C4.91382 10.9839 4.31409 12.4296 4.3125 13.9375C4.3125 14.0535 4.35859 14.1648 4.44064 14.2469C4.52269 14.3289 4.63397 14.375 4.75 14.375C4.86603 14.375 4.97731 14.3289 5.05936 14.2469C5.14141 14.1648 5.1875 14.0535 5.1875 13.9375C5.18895 12.6616 5.69644 11.4384 6.59865 10.5361C7.50085 9.63394 8.72409 9.12645 10 9.125H11.569L9.69047 11.003C9.64982 11.0436 9.61758 11.0919 9.59558 11.145C9.57358 11.1981 9.56226 11.255 9.56226 11.3125C9.56226 11.37 9.57358 11.4269 9.59558 11.48C9.61758 11.5331 9.64982 11.5814 9.69047 11.622C9.77256 11.7041 9.8839 11.7502 10 11.7502C10.0575 11.7502 10.1144 11.7389 10.1675 11.7169C10.2206 11.6949 10.2689 11.6627 10.3095 11.622L12.9345 8.99703C12.9752 8.9564 13.0075 8.90815 13.0295 8.85504C13.0515 8.80192 13.0628 8.74499 13.0628 8.6875C13.0628 8.63001 13.0515 8.57307 13.0295 8.51996C13.0075 8.46685 12.9752 8.4186 12.9345 8.37797Z" fill="#0196C6"/>
</svg>
