<svg width="22" height="22" viewBox="0 0 22 22" fill="none" xmlns="http://www.w3.org/2000/svg">
<path d="M17.1953 1.03311L20.7183 4.55611C21.6921 5.52994 21.6921 7.10883 20.7183 8.08266L18.0324 10.7676C19.1579 11.1199 19.9746 12.1707 19.9746 13.4123V18.9538C19.9746 20.484 18.7341 21.7245 17.2039 21.7245H2.79611C1.26589 21.7245 0.0253906 20.484 0.0253906 18.9538V4.54602C0.0253906 3.01579 1.26589 1.7753 2.79611 1.7753H8.33756C9.57998 1.7753 10.6314 2.59305 10.983 3.71968L13.6687 1.03311C14.6426 0.0592766 16.2215 0.0592766 17.1953 1.03311ZM8.8917 12.8582H2.24197V18.9538C2.24197 19.2598 2.49007 19.5079 2.79611 19.5079H8.8917V12.8582ZM17.2039 12.8582H11.1083V19.5079H17.2039C17.5099 19.5079 17.758 19.2598 17.758 18.9538V13.4123C17.758 13.1063 17.5099 12.8582 17.2039 12.8582ZM12.7042 10.6409L11.1083 9.04492V10.6416L12.7042 10.6409ZM8.33756 3.99187H2.79611C2.49007 3.99187 2.24197 4.23997 2.24197 4.54602V10.6416H8.8917V4.54602C8.8917 4.23997 8.64361 3.99187 8.33756 3.99187Z" fill="#0D2C36"/>
</svg>