<svg width="28" height="27" viewBox="0 0 28 27" fill="none" xmlns="http://www.w3.org/2000/svg">
<path d="M27.6379 3.97713C27.6095 3.96983 27.5794 3.96965 27.5509 3.97661C27.5224 3.98357 27.4964 3.99742 27.4756 4.01672L24.4947 6.70596L21.4278 3.88576L24.4086 1.14475C24.4295 1.12575 24.4445 1.10201 24.452 1.07594C24.4596 1.04987 24.4595 1.02241 24.4518 0.996385C24.444 0.970358 24.4289 0.946692 24.4079 0.927809C24.387 0.908927 24.3609 0.895507 24.3325 0.888923C23.2282 0.665322 22.0812 0.693869 20.9916 0.972068C19.9021 1.25027 18.9033 1.76965 18.0826 2.4848C16.506 3.93449 16.9002 5.6461 17.1618 6.77601C17.2016 6.94351 17.238 7.10188 17.2645 7.24198C16.2112 8.27747 8.17947 15.6843 6.99706 16.7076C6.86457 16.6832 6.71884 16.6497 6.56317 16.6132C5.34433 16.3513 3.53594 15.9401 1.88984 17.4264C1.1173 18.1753 0.555614 19.0866 0.2537 20.0808C-0.048213 21.075 -0.0811959 22.1221 0.157624 23.1307C0.164347 23.1571 0.178622 23.1814 0.198972 23.201C0.219322 23.2207 0.245008 23.235 0.273375 23.2424C0.301741 23.2499 0.331758 23.2502 0.36032 23.2434C0.388883 23.2366 0.414954 23.223 0.435838 23.2038L3.4167 20.5146L6.48369 23.3348L3.50282 26.0758C3.48198 26.0948 3.467 26.1185 3.45942 26.1446C3.45184 26.1707 3.45193 26.1981 3.45968 26.2241C3.46743 26.2502 3.48256 26.2738 3.50352 26.2927C3.52449 26.3116 3.55054 26.325 3.579 26.3316C4.05405 26.4366 4.5411 26.4888 5.02968 26.4869C6.81337 26.4902 8.53027 25.8633 9.82557 24.7357C11.4021 23.286 11.008 21.5744 10.7463 20.4445C10.7066 20.277 10.6701 20.1186 10.6437 19.9785C11.7002 18.94 19.732 11.5362 20.9111 10.5129L21.345 10.6073C22.5506 10.8814 24.3755 11.2956 26.0183 9.81244C26.7914 9.06377 27.3537 8.15263 27.6562 7.15839C27.9587 6.16414 27.9922 5.11697 27.7538 4.10809C27.7507 4.07818 27.738 4.04978 27.7174 4.02648C27.6968 4.00318 27.6691 3.98601 27.6379 3.97713Z" fill="#595DDC"/>
</svg>