<svg xmlns="http://www.w3.org/2000/svg" width="21" height="21" viewBox="0 0 21 21" fill="none">
  <path d="M18.8126 10.4298C18.8165 10.2892 18.8165 10.1485 18.8126 10.0079L20.2696 8.18761C20.346 8.09203 20.3989 7.97985 20.424 7.86009C20.4491 7.74034 20.4457 7.61636 20.4142 7.49815C20.1749 6.60045 19.8176 5.73844 19.3517 4.93468C19.2906 4.82952 19.2058 4.74006 19.1041 4.67344C19.0024 4.60681 18.8865 4.56485 18.7657 4.55089L16.4493 4.29307C16.353 4.19151 16.2553 4.09386 16.1564 4.00011L15.8829 1.67784C15.8689 1.55695 15.8267 1.44102 15.7599 1.3393C15.6931 1.23757 15.6035 1.15285 15.4982 1.0919C14.6944 0.626325 13.8324 0.269684 12.9347 0.0313556C12.8165 -0.000226239 12.6925 -0.00360105 12.5727 0.0215032C12.453 0.0466074 12.3408 0.0994887 12.2452 0.175887L10.4298 1.62511C10.2892 1.62511 10.1485 1.62511 10.0079 1.62511L8.18761 0.171004C8.09203 0.094606 7.97985 0.0417247 7.86009 0.0166204C7.74034 -0.00848379 7.61636 -0.00510916 7.49815 0.0264727C6.60045 0.265757 5.73844 0.623038 4.93468 1.08897C4.82952 1.15003 4.74006 1.2348 4.67344 1.33652C4.60681 1.43824 4.56485 1.55411 4.55089 1.67491L4.29307 3.99522C4.19151 4.09223 4.09386 4.18988 4.00011 4.28819L1.67784 4.55479C1.55695 4.56886 1.44102 4.61097 1.3393 4.67777C1.23757 4.74457 1.15285 4.83422 1.0919 4.93956C0.626421 5.74343 0.269475 6.60542 0.0303791 7.50304C-0.00106927 7.62132 -0.00428578 7.74534 0.0209887 7.8651C0.0462632 7.98486 0.0993216 8.097 0.175887 8.19249L1.62511 10.0079C1.62511 10.1485 1.62511 10.2892 1.62511 10.4298L0.171004 12.2501C0.094606 12.3457 0.0417247 12.4579 0.0166204 12.5776C-0.00848379 12.6974 -0.00510916 12.8213 0.0264727 12.9396C0.265757 13.8373 0.623038 14.6993 1.08897 15.503C1.15003 15.6082 1.2348 15.6976 1.33652 15.7643C1.43824 15.8309 1.55411 15.8729 1.67491 15.8868L3.99132 16.1446C4.08832 16.2462 4.18598 16.3439 4.28429 16.4376L4.55479 18.7599C4.56886 18.8808 4.61097 18.9967 4.67777 19.0984C4.74457 19.2001 4.83422 19.2849 4.93956 19.3458C5.74343 19.8113 6.60542 20.1682 7.50304 20.4073C7.62132 20.4388 7.74534 20.442 7.8651 20.4167C7.98486 20.3914 8.097 20.3384 8.19249 20.2618L10.0079 18.8126C10.1485 18.8165 10.2892 18.8165 10.4298 18.8126L12.2501 20.2696C12.3457 20.346 12.4579 20.3989 12.5776 20.424C12.6974 20.4491 12.8213 20.4457 12.9396 20.4142C13.8374 20.1753 14.6995 19.818 15.503 19.3517C15.6082 19.2906 15.6976 19.2058 15.7643 19.1041C15.8309 19.0024 15.8729 18.8865 15.8868 18.7657L16.1446 16.4493C16.2462 16.353 16.3439 16.2553 16.4376 16.1564L18.7599 15.8829C18.8808 15.8689 18.9967 15.8267 19.0984 15.7599C19.2001 15.6931 19.2849 15.6035 19.3458 15.4982C19.8113 14.6943 20.1682 13.8323 20.4073 12.9347C20.4388 12.8164 20.442 12.6924 20.4167 12.5726C20.3914 12.4529 20.3384 12.3407 20.2618 12.2452L18.8126 10.4298ZM10.2189 14.1251C9.44627 14.1251 8.69104 13.896 8.04866 13.4668C7.40628 13.0376 6.90561 12.4275 6.60995 11.7137C6.3143 10.9999 6.23694 10.2145 6.38766 9.45678C6.53839 8.69905 6.91042 8.00302 7.45672 7.45672C8.00302 6.91042 8.69905 6.53839 9.45678 6.38766C10.2145 6.23694 10.9999 6.3143 11.7137 6.60995C12.4275 6.90561 13.0376 7.40628 13.4668 8.04866C13.896 8.69104 14.1251 9.44627 14.1251 10.2189C14.1251 11.2549 13.7136 12.2484 12.981 12.981C12.2484 13.7136 11.2549 14.1251 10.2189 14.1251Z" fill="#343330"/>
</svg>