<svg width="17" height="18" viewBox="0 0 17 18" fill="none" xmlns="http://www.w3.org/2000/svg">
<path d="M14.0002 0.00195312C15.656 0.00195312 16.9983 1.34424 16.9983 3.00003C16.9983 4.65582 15.656 5.9981 14.0002 5.9981C13.158 5.9981 12.3969 5.65085 11.8523 5.09171L6.39523 8.21132C6.46358 8.46263 6.50005 8.72707 6.50005 9.00003C6.50005 9.27299 6.46358 9.53743 6.39523 9.78874L11.8531 12.9076C12.3976 12.3489 13.1584 12.002 14.0002 12.002C15.656 12.002 16.9983 13.3442 16.9983 15C16.9983 16.6558 15.656 17.9981 14.0002 17.9981C12.3444 17.9981 11.0021 16.6558 11.0021 15C11.0021 14.7271 11.0386 14.4626 11.107 14.2113L5.64985 11.0917C5.10525 11.6508 4.34417 11.9981 3.50198 11.9981C1.84619 11.9981 0.503906 10.6558 0.503906 9.00003C0.503906 7.34424 1.84619 6.00195 3.50198 6.00195C4.34379 6.00195 5.10457 6.3489 5.64912 6.9076L11.107 3.78874C11.0386 3.53743 11.0021 3.27299 11.0021 3.00003C11.0021 1.34424 12.3444 0.00195312 14.0002 0.00195312Z" fill="#4E4E5C"/>
</svg>