<svg width="24" height="26" viewBox="0 0 24 26" fill="none" xmlns="http://www.w3.org/2000/svg">
<g clip-path="url(#clip0_3574_315)">
<mask id="mask0_3574_315" style="mask-type:luminance" maskUnits="userSpaceOnUse" x="0" y="0" width="24" height="26">
<path d="M0 0H24V26H0V0Z" fill="white"/>
</mask>
<g mask="url(#mask0_3574_315)">
<path fill-rule="evenodd" clip-rule="evenodd" d="M0 23.2917L4.5 23L10 21V47H24V48H0V23.2917ZM10 21L13 22L10 25.5V21ZM13 22L12 20L13 19L14 20L13 22ZM13 19H14V20L13 19ZM14 19L14.5 17.5L16 17V19H14ZM16 17L16.5 15.5L18 15V17H16ZM19 14V12H20V14H19ZM44 36H43V34H44V36ZM43 38H42V36H43V38ZM42 36H40V34H42V36ZM40 34H38V26H40V34ZM38 17H21V19H37V26H38V17ZM40 15V26H45V0H21V8H44V10H21V15H40ZM42 40H40V38H42V40ZM38 36H37V34H38V36ZM37 34H36V26H37V34ZM36 20H21V21H34V26H36V20ZM19 17V15H21V17H19ZM40 41H38V40H40V41ZM38 40H37V38H38V40ZM37 38H36V36H37V38ZM36 36H34V34H36V36ZM34 34H24V26H34V34ZM24 22H21V26H24V22ZM19 20V19H21V20H19ZM18 19V17H19V19H18ZM38 43H37V41H38V43ZM37 41H36V40H37V41ZM36 40H34V38H36V40ZM34 38H24V36H34V38ZM24 36H20V34H24V36ZM19 22V21H21V22H19ZM16 20V19H18V20H16ZM37 45H36V43H37V45ZM36 43H34V41H36V43ZM34 41H24V40H34V41ZM24 40H18V22H19V38H24V40ZM16 22V21H18V22H16ZM14 21V20H16V21H14ZM36 46H34V45H36V46ZM34 45H24V43H34V45ZM24 43H14L16 21V22V41H24V43ZM13 22L14 20V21H16L13 22ZM34 47H24V46H34V47ZM24 46H12L10 25.5L13 22V45H24V46ZM20 10L20.5 8.5L21 8V10H20Z" fill="#FAFAFA"/>
<path d="M21.4 0V2.2C21.4 14 11.8 23.5 0 23.5" stroke="#BEBEBE" stroke-width="0.8"/>
</g>
<mask id="mask1_3574_315" style="mask-type:luminance" maskUnits="userSpaceOnUse" x="0" y="0" width="24" height="26">
<path d="M0 0H24V26H0V0Z" fill="white"/>
</mask>
<g mask="url(#mask1_3574_315)">
<path d="M24 26V27H25V26H24ZM24 0H23V26H24H25V0H24ZM24 26V25H0V26V27H24V26Z" fill="#FAFAFA"/>
</g>
</g>
<defs>
<clipPath id="clip0_3574_315">
<path d="M0 0H24V2C24 15.2548 13.2548 26 0 26V26V0Z" fill="white"/>
</clipPath>
</defs>
</svg>
