<?xml version="1.0" standalone="no"?>
<!DOCTYPE svg PUBLIC "-//W3C//DTD SVG 20010904//EN"
 "http://www.w3.org/TR/2001/REC-SVG-20010904/DTD/svg10.dtd">
<svg version="1.0" xmlns="http://www.w3.org/2000/svg"
 width="512.000000pt" height="512.000000pt" viewBox="0 0 512.000000 512.000000"
 preserveAspectRatio="xMidYMid meet">

<g transform="translate(0.000000,512.000000) scale(0.100000,-0.100000)"
fill="#fff" stroke="none">
<path d="M3045 5109 c-413 -60 -777 -332 -955 -712 l-41 -87 -57 40 c-200 136
-441 194 -662 160 -363 -58 -653 -317 -767 -687 -25 -80 -27 -103 -27 -255
l-1 -167 -60 -34 c-221 -128 -393 -368 -452 -632 -25 -112 -23 -328 5 -440 27
-110 105 -268 172 -352 114 -142 298 -257 495 -310 l100 -27 573 -4 c429 -2
577 0 588 9 27 22 13 44 -58 89 -89 57 -228 195 -296 294 -73 104 -147 264
-179 383 -24 89 -27 115 -27 283 -1 207 12 280 77 445 151 378 508 659 917
721 528 79 1060 -226 1257 -721 65 -165 78 -238 77 -445 0 -168 -3 -194 -27
-283 -32 -119 -106 -279 -179 -383 -68 -99 -207 -237 -296 -294 -60 -38 -71
-49 -71 -73 l-1 -28 588 3 587 4 100 27 c197 53 381 168 495 310 68 84 145
242 172 352 29 120 32 332 5 450 -24 102 -78 231 -135 320 -55 85 -165 202
-249 261 -67 49 -204 116 -272 134 -49 13 -49 4 -15 150 26 109 25 385 0 495
-72 310 -232 565 -470 749 -106 82 -167 118 -279 165 -204 88 -428 119 -632
90z"/>
<path d="M2457 3619 c-502 -54 -882 -498 -853 -999 6 -120 23 -196 66 -310 77
-198 262 -400 458 -499 l62 -31 0 -118 0 -117 -157 -157 -158 -158 188 -188
187 -187 -85 -85 -85 -85 0 -131 0 -131 216 -213 216 -213 209 209 209 209 0
682 0 683 62 31 c35 17 94 55 133 84 385 285 503 789 284 1215 -80 156 -227
308 -382 394 -166 93 -378 136 -570 115z m188 -438 c157 -71 167 -296 17 -379
-32 -18 -59 -24 -102 -24 -183 0 -278 211 -157 349 40 45 99 73 157 73 25 0
63 -9 85 -19z"/>
</g>
</svg>
