<svg width="38" height="47" viewBox="0 0 38 47" fill="none" xmlns="http://www.w3.org/2000/svg">
<path d="M32.417 0.0078125C35.1956 0.0078125 37.4701 2.16652 37.6548 4.89837L37.667 5.25781V41.42C37.667 44.1987 35.5083 46.4731 32.7764 46.6579L32.417 46.67H5.58392C2.80524 46.67 0.530752 44.5113 0.346035 41.7794L0.333923 41.42V5.25781C0.333923 2.47913 2.49263 0.204641 5.22448 0.0199245L5.58392 0.0078125H32.417ZM9.08335 11.658C8.11686 11.658 7.33335 12.4415 7.33335 13.408C7.33335 14.3745 8.11685 15.158 9.08335 15.158H28.9167C29.8832 15.158 30.6667 14.3745 30.6667 13.408C30.6667 12.4415 29.8832 11.658 28.9167 11.658H9.08335ZM7.33335 22.7413C7.33335 23.7078 8.11685 24.4913 9.08335 24.4913H28.9167C29.8832 24.4913 30.6667 23.7078 30.6667 22.7413C30.6667 21.7748 29.8832 20.9913 28.9167 20.9913H9.08335C8.11686 20.9913 7.33335 21.7748 7.33335 22.7413ZM9.08335 30.3246C8.11686 30.3246 7.33335 31.1081 7.33335 32.0746C7.33335 33.0411 8.11685 33.8246 9.08335 33.8246H28.9167C29.8832 33.8246 30.6667 33.0411 30.6667 32.0746C30.6667 31.1081 29.8832 30.3246 28.9167 30.3246H9.08335Z" fill="url(#paint0_linear_8091_32568)"/>
<defs>
<linearGradient id="paint0_linear_8091_32568" x1="41.6955" y1="0.00781333" x2="-5.76039" y2="39.3116" gradientUnits="userSpaceOnUse">
<stop stop-color="#6E72EE"/>
<stop offset="1" stop-color="#595DDC"/>
</linearGradient>
</defs>
</svg>