<svg width="20" height="20" viewBox="0 0 20 20" fill="none" xmlns="http://www.w3.org/2000/svg">
<g clip-path="url(#clip0_2562_3126)">
<path d="M20 10C20 4.47715 15.5228 0 10 0C4.47715 0 0 4.47715 0 10C0 15.5228 4.47715 20 10 20C15.5228 20 20 15.5228 20 10Z" fill="white"/>
<path d="M13.9139 12.5601C12.9923 13.9122 11.4399 14.8001 9.68006 14.8001C6.85237 14.8001 4.56006 12.5078 4.56006 9.68006C4.56006 6.85236 6.85237 4.56006 9.68006 4.56006C12.5078 4.56006 14.8001 6.85236 14.8001 9.68006V10.3201" stroke="#4744D1" stroke-width="0.75"/>
<path d="M9.68018 6.80005V9.68005L11.6002 11.6" stroke="#4744D1" stroke-width="0.75"/>
<path d="M13.2002 8.71997L14.8002 10.32L16.4002 8.71997" stroke="#4744D1" stroke-width="0.75"/>
</g>
<defs>
<clipPath id="clip0_2562_3126">
<rect width="20" height="20" fill="white"/>
</clipPath>
</defs>
</svg>
