<svg width="20" height="21" viewBox="0 0 20 21" fill="none" xmlns="http://www.w3.org/2000/svg">
<path d="M5.40491 6.50024V0.75C5.40491 0.335786 5.74069 0 6.15491 0C6.56912 0 6.90491 0.335786 6.90491 0.75V6.50024C6.90491 6.77639 7.12876 7.00024 7.40491 7.00024C7.68105 7.00024 7.90491 6.77639 7.90491 6.50024V1.5C7.90491 1.08579 8.24069 0.75 8.65491 0.75C9.06912 0.75 9.40491 1.08579 9.40491 1.5V7.25C9.40491 7.27121 9.40403 7.29222 9.4023 7.31299C9.83454 7.14967 10.3758 6.9962 10.9049 6.9962C11.4047 6.9962 11.8322 7.12103 12.1491 7.28064C12.3056 7.35943 12.4511 7.45477 12.57 7.5629C12.6284 7.61604 12.6958 7.68624 12.7545 7.77348C12.8006 7.84205 12.9049 8.0131 12.9049 8.25C12.9049 8.50859 12.7717 8.74895 12.5524 8.886L10.6461 10.0775L8.98823 11.9685L7.61094 13.8656C7.09357 14.5782 6.2662 14.9999 5.38557 14.9999H4.24704C3.31606 14.9999 2.42341 14.5271 1.94215 13.6888C1.64 13.1626 1.26595 12.4711 0.965226 11.7868C0.679138 11.1357 0.404907 10.3739 0.404907 9.74995V2.75C0.404907 2.33579 0.740694 2 1.15491 2C1.56912 2 1.90491 2.33579 1.90491 2.75V6.99793C1.90491 7.27407 2.12876 7.49793 2.40491 7.49793C2.68105 7.49793 2.90491 7.27407 2.90491 6.99793V1.5C2.90491 1.08579 3.24069 0.75 3.65491 0.75C4.06912 0.75 4.40491 1.08579 4.40491 1.5V6.50024C4.40491 6.77639 4.62877 7.00024 4.90491 7.00024C5.18105 7.00024 5.40491 6.77639 5.40491 6.50024ZM12.9048 21C9.7035 21 7.00411 18.851 6.17053 15.9169C7.06636 15.7251 7.87117 15.2092 8.42008 14.4531L9.77038 12.5932L11.3008 10.8474L13.0823 9.73402C13.594 9.41423 13.9048 8.85341 13.9048 8.25002C13.9048 7.71872 13.672 7.34608 13.5843 7.21563C13.5353 7.14276 13.4844 7.07751 13.4347 7.01978C17.0532 7.29058 19.9048 10.3123 19.9048 14C19.9048 17.866 16.7708 21 12.9048 21ZM15.9048 13C15.9048 12.4477 15.4571 12 14.9048 12C14.3525 12 13.9048 12.4477 13.9048 13C13.9048 13.5523 14.3525 14 14.9048 14C15.4571 14 15.9048 13.5523 15.9048 13ZM10.0421 15.7122C9.74359 15.9993 9.73437 16.4741 10.0215 16.7726C10.7484 17.5283 11.772 18 12.9046 18C14.0372 18 15.0609 17.5283 15.7877 16.7726C16.0749 16.4741 16.0657 15.9993 15.7671 15.7122C15.4686 15.425 14.9938 15.4343 14.7067 15.7328C14.2509 16.2066 13.6127 16.5 12.9046 16.5C12.1966 16.5 11.5583 16.2066 11.1026 15.7328C10.8154 15.4343 10.3406 15.425 10.0421 15.7122ZM11.9048 13C11.9048 12.4477 11.4571 12 10.9048 12C10.3525 12 9.90482 12.4477 9.90482 13C9.90482 13.5523 10.3525 14 10.9048 14C11.4571 14 11.9048 13.5523 11.9048 13Z" fill="#00BA70"/>
</svg>