<?xml version="1.0" standalone="no"?>
<!DOCTYPE svg PUBLIC "-//W3C//DTD SVG 20010904//EN"
 "http://www.w3.org/TR/2001/REC-SVG-20010904/DTD/svg10.dtd">
<svg version="1.0" xmlns="http://www.w3.org/2000/svg"
 width="512.000000pt" height="512.000000pt" viewBox="0 0 512.000000 512.000000"
 preserveAspectRatio="xMidYMid meet">

<g transform="translate(0.000000,512.000000) scale(0.100000,-0.100000)"
fill="#000000" stroke="none">
<path d="M1695 4786 c-41 -18 -83 -69 -90 -109 -3 -18 -5 -262 -3 -544 3 -499
4 -512 24 -539 11 -15 33 -37 48 -48 26 -20 42 -21 377 -24 l349 -3 0 -239 0
-240 -589 -2 c-578 -3 -590 -3 -617 -24 -15 -11 -37 -33 -48 -48 -20 -26 -21
-42 -24 -376 l-3 -349 -349 -3 c-334 -3 -350 -4 -376 -24 -15 -11 -37 -33 -48
-48 -21 -27 -21 -38 -21 -566 0 -528 0 -539 21 -566 11 -15 33 -37 48 -48 26
-20 42 -21 376 -24 l349 -3 3 -269 c3 -253 4 -270 24 -296 39 -53 71 -69 134
-69 63 0 95 16 134 69 20 26 21 43 24 296 l3 269 349 3 c334 3 350 4 376 24
15 11 37 33 48 48 21 27 21 38 21 566 0 528 0 539 -21 566 -11 15 -33 37 -48
48 -26 20 -42 21 -377 24 l-349 3 0 239 0 240 1120 0 1120 0 0 -240 0 -239
-349 -3 c-335 -3 -351 -4 -377 -24 -15 -11 -37 -33 -48 -48 -21 -27 -21 -38
-21 -566 0 -528 0 -539 21 -566 11 -15 33 -37 48 -48 26 -20 42 -21 376 -24
l349 -3 3 -269 c3 -253 4 -270 24 -296 39 -53 71 -69 134 -69 63 0 95 16 134
69 20 26 21 43 24 296 l3 269 349 3 c334 3 350 4 376 24 15 11 37 33 48 48 21
27 21 38 21 566 0 528 0 539 -21 566 -11 15 -33 37 -48 48 -26 20 -42 21 -376
24 l-349 3 -3 349 c-3 334 -4 350 -24 376 -11 15 -33 37 -48 48 -27 21 -39 21
-617 24 l-589 2 0 240 0 239 349 3 c335 3 351 4 377 24 15 11 37 33 48 48 21
27 21 38 21 566 0 528 0 539 -21 566 -11 15 -33 37 -48 48 -27 21 -36 21 -874
23 -689 2 -853 0 -877 -11z"/>
</g>
</svg>
