<svg width="30" height="46" viewBox="0 0 30 46" fill="none" xmlns="http://www.w3.org/2000/svg">
<path d="M7 5.50019V7.50019H23V4.50019C23 4.23497 22.8946 3.98062 22.7071 3.79308C22.5196 3.60555 22.2652 3.50019 22 3.50019H20.1236C19.721 2.46889 19.0166 1.58307 18.1025 0.958582C17.1884 0.334092 16.1071 0 15 0C13.8929 0 12.8116 0.334092 11.8975 0.958582C10.9834 1.58307 10.279 2.46889 9.87645 3.50019H8C7.73478 3.50019 7.48043 3.60555 7.29289 3.79308C7.10536 3.98062 7 4.23497 7 4.50019V5.50019ZM15 2.00019C15.5615 2.00421 16.1139 2.14245 16.6111 2.40339C17.1084 2.66432 17.536 3.04038 17.8583 3.50019H12.1417C12.464 3.04038 12.8916 2.66432 13.3889 2.40339C13.8861 2.14245 14.4385 2.00421 15 2.00019ZM30 6.50019V45.0002C30 45.2654 29.8946 45.5198 29.7071 45.7073C29.5196 45.8948 29.2652 46.0002 29 46.0002H1C0.734784 46.0002 0.48043 45.8948 0.292893 45.7073C0.105357 45.5198 0 45.2654 0 45.0002V6.50019C0 6.23497 0.105357 5.98062 0.292893 5.79308C0.48043 5.60555 0.734784 5.50019 1 5.50019H5V8.50019C5 8.76541 5.10536 9.01976 5.29289 9.2073C5.48043 9.39483 5.73478 9.50019 6 9.50019H24C24.2652 9.50019 24.5196 9.39483 24.7071 9.2073C24.8946 9.01976 25 8.76541 25 8.50019V5.50019H29C29.2652 5.50019 29.5196 5.60555 29.7071 5.79308C29.8946 5.98062 30 6.23497 30 6.50019Z" fill="#0D2C36"/>
</svg>
