<svg width="19" height="21" viewBox="0 0 19 21" fill="none" xmlns="http://www.w3.org/2000/svg">
<path d="M17.6396 8.36241H16.1044C15.9152 7.71051 15.6627 7.10051 15.3473 6.5328L16.4409 5.43917C16.7144 5.16573 16.7144 4.74516 16.4409 4.47169L14.3589 2.38963C14.0854 2.11619 13.6649 2.11619 13.3914 2.38963L12.2978 3.48326C11.7299 3.16786 11.1201 2.9154 10.4682 2.72616V1.21211C10.4682 0.83364 10.1737 0.539062 9.79511 0.539062H6.85091C6.47244 0.539062 6.17786 0.833482 6.17786 1.21211V2.7473C5.52595 2.93654 4.91595 3.18902 4.34824 3.5044L3.25462 2.41078C2.98118 2.13734 2.56061 2.13734 2.28714 2.41078L0.205081 4.49284C-0.0683604 4.76628 -0.0683604 5.18684 0.205081 5.46031L1.29871 6.55394C0.983308 7.1218 0.730844 7.73161 0.541607 8.38356C0.499505 8.6149 0.457549 8.84623 0.436425 9.07756H6.53527V7.50027C6.53527 6.9955 7.10313 6.72218 7.50275 6.9955L11.7719 10.0239C12.1085 10.2763 12.1085 10.781 11.7719 11.0334L7.50313 14.0616C7.10351 14.3561 6.53565 14.0616 6.53565 13.5569V11.9796H0.4368C0.478902 12.2109 0.49988 12.4423 0.541983 12.6736V12.6946C0.731223 13.3465 0.983699 13.9565 1.29908 14.5242L0.205457 15.6178C-0.0679848 15.8913 -0.0679848 16.3118 0.205457 16.5853L2.28751 18.6673C2.56096 18.9408 2.98152 18.9408 3.25499 18.6673L4.34862 17.5737C4.91648 17.8891 5.52629 18.1416 6.17824 18.3308V19.866C6.17824 20.2445 6.47265 20.5391 6.85129 20.5391H9.79548C10.174 20.5391 10.4685 20.2446 10.4685 19.866V18.3308C11.1204 18.1416 11.7304 17.8891 12.2982 17.5737L13.3918 18.6673C13.6652 18.9408 14.0858 18.9408 14.3593 18.6673L16.4413 16.5853C16.7148 16.3118 16.7148 15.8913 16.4413 15.6178L15.3477 14.5242C15.6631 13.9563 15.9155 13.3465 16.1048 12.6946H17.64C18.0185 12.6946 18.313 12.4002 18.313 12.0215V9.07732C18.3127 8.67785 18.0182 8.36241 17.6396 8.36241Z" fill="white"/>
</svg>
