<svg width="32" height="32" viewBox="0 0 32 32" fill="none" xmlns="http://www.w3.org/2000/svg">
<path d="M13.5269 6.17578H3.02186C2.56726 6.17578 2.19873 6.54431 2.19873 6.99891V12.3727C2.19873 12.8273 2.56726 13.1958 3.02186 13.1958H13.5269C13.9815 13.1958 14.35 12.8273 14.35 12.3727V6.99891C14.35 6.54431 13.9815 6.17578 13.5269 6.17578Z" fill="#0D2C36"/>
<path d="M29.5713 20.0547V24.5747H19.9201V20.0547H29.5713ZM29.9982 18.8047H19.4926C19.0382 18.8047 18.6694 19.1734 18.6694 19.6278V25.0016C18.6694 25.4559 19.0382 25.8247 19.4926 25.8247H29.9982C30.4526 25.8247 30.8213 25.4559 30.8213 25.0016V19.6278C30.8213 19.1734 30.4526 18.8047 29.9982 18.8047Z" fill="#0D2C36"/>
<path d="M13.1 20.0547V24.5747H3.44873V20.0547H13.1ZM13.5269 18.8047H3.02186C2.56748 18.8047 2.19873 19.1734 2.19873 19.6278V25.0016C2.19873 25.4559 2.56748 25.8247 3.02186 25.8247H13.5275C13.9819 25.8247 14.3506 25.4559 14.3506 25.0016V19.6278C14.3506 19.1734 13.9819 18.8047 13.5275 18.8047H13.5269Z" fill="#0D2C36"/>
<path d="M25.3705 18.8016H24.1205C24.1205 17.6003 23.143 16.6234 21.9424 16.6234H11.078C9.1874 16.6234 7.6499 15.0853 7.6499 13.1953H8.8999C8.8999 14.3966 9.8774 15.3734 11.078 15.3734H21.9424C23.833 15.3734 25.3705 16.9116 25.3705 18.8016Z" fill="#D8DDDF"/>
<path d="M8.89941 13.1953H7.64941V18.8022H8.89941V13.1953Z" fill="#D8DDDF"/>
</svg>
