<svg width="32" height="32" viewBox="0 0 32 32" fill="none" xmlns="http://www.w3.org/2000/svg">
<path d="M21.7625 6.17578H11.2575C10.8029 6.17578 10.4343 6.54431 10.4343 6.99891V12.3727C10.4343 12.8273 10.8029 13.1958 11.2575 13.1958H21.7625C22.2171 13.1958 22.5856 12.8273 22.5856 12.3727V6.99891C22.5856 6.54431 22.2171 6.17578 21.7625 6.17578Z" fill="#0D2C36"/>
<path d="M29.5713 20.0547V24.5747H19.9201V20.0547H29.5713ZM29.9982 18.8047H19.4926C19.0382 18.8047 18.6694 19.1734 18.6694 19.6278V25.0016C18.6694 25.4559 19.0382 25.8247 19.4926 25.8247H29.9982C30.4526 25.8247 30.8213 25.4559 30.8213 25.0016V19.6278C30.8213 19.1734 30.4526 18.8047 29.9982 18.8047V18.8047Z" fill="#0D2C36"/>
<path d="M13.1 20.0547V24.5747H3.44873V20.0547H13.1ZM13.5269 18.8047H3.02186C2.56748 18.8047 2.19873 19.1734 2.19873 19.6278V25.0016C2.19873 25.4559 2.56748 25.8247 3.02186 25.8247H13.5275C13.9819 25.8247 14.3506 25.4559 14.3506 25.0016V19.6278C14.3506 19.1734 13.9819 18.8047 13.5275 18.8047H13.5269Z" fill="#0D2C36"/>
<path d="M25.3707 18.8016H24.1207C24.1207 17.6003 23.1432 16.6234 21.9426 16.6234H19.3139C17.4232 16.6234 15.8857 15.0853 15.8857 13.1953H17.1357C17.1357 14.3966 18.1132 15.3734 19.3139 15.3734H21.9426C23.8332 15.3734 25.3707 16.9116 25.3707 18.8016Z" fill="#D8DDDF"/>
<path d="M8.89941 18.8016H7.64941C7.64941 16.9109 9.18754 15.3734 11.0775 15.3734H13.7063C14.9075 15.3734 15.885 14.3959 15.885 13.1953H17.135C17.135 15.0859 15.5969 16.6234 13.7063 16.6234H11.0775C9.87629 16.6234 8.89941 17.6009 8.89941 18.8016V18.8016Z" fill="#D8DDDF"/>
</svg>
