<svg width="32" height="32" viewBox="0 0 32 32" fill="none" xmlns="http://www.w3.org/2000/svg">
<path d="M29.998 6.17578H19.493C19.0384 6.17578 18.6699 6.54431 18.6699 6.99891V12.3727C18.6699 12.8273 19.0384 13.1958 19.493 13.1958H29.998C30.4526 13.1958 30.8212 12.8273 30.8212 12.3727V6.99891C30.8212 6.54431 30.4526 6.17578 29.998 6.17578Z" fill="#0D2C36"/>
<path d="M13.1 20.0547V24.5747H3.44873V20.0547H13.1ZM13.5269 18.8047H3.02186C2.56748 18.8047 2.19873 19.1734 2.19873 19.6278V25.0016C2.19873 25.4559 2.56748 25.8247 3.02186 25.8247H13.5275C13.9819 25.8247 14.3506 25.4559 14.3506 25.0016V19.6278C14.3506 19.1734 13.9819 18.8047 13.5275 18.8047H13.5269Z" fill="#0D2C36"/>
<path d="M29.5713 20.0547V24.5747H19.9201V20.0547H29.5713ZM29.9982 18.8047H19.4926C19.0382 18.8047 18.6694 19.1734 18.6694 19.6278V25.0016C18.6694 25.4559 19.0382 25.8247 19.4926 25.8247H29.9982C30.4526 25.8247 30.8213 25.4559 30.8213 25.0016V19.6278C30.8213 19.1734 30.4526 18.8047 29.9982 18.8047Z" fill="#0D2C36"/>
<path d="M8.89941 18.8016H7.64941C7.64941 16.9109 9.18754 15.3734 11.0775 15.3734H21.9419C23.1432 15.3734 24.12 14.3959 24.12 13.1953H25.37C25.37 15.0859 23.8319 16.6234 21.9419 16.6234H11.0782C9.87691 16.6234 8.90004 17.6009 8.90004 18.8016H8.89941Z" fill="#D8DDDF"/>
<path d="M25.3706 13.1953H24.1206V18.8022H25.3706V13.1953Z" fill="#D8DDDF"/>
</svg>
