<svg width="20" height="20" viewBox="0 0 20 20" fill="none" xmlns="http://www.w3.org/2000/svg">
<g clip-path="url(#clip0_1569_19464)">
<mask id="mask0_1569_19464" style="mask-type:luminance" maskUnits="userSpaceOnUse" x="0" y="0" width="20" height="20">
<path d="M20 0H0V20H20V0Z" fill="white"/>
</mask>
<g mask="url(#mask0_1569_19464)">
<path d="M20 10C20 4.47715 15.5228 0 10 0C4.47715 0 0 4.47715 0 10C0 15.5228 4.47715 20 10 20C15.5228 20 20 15.5228 20 10Z" fill="white"/>
<g clip-path="url(#clip1_1569_19464)">
<path d="M6.51367 7.22516V3.4875C6.51367 3.21826 6.73193 3 7.00117 3C7.27041 3 7.48867 3.21826 7.48867 3.4875V7.22516C7.48867 7.40465 7.63418 7.55016 7.81367 7.55016C7.99316 7.55016 8.13867 7.40465 8.13867 7.22516V3.975C8.13867 3.70576 8.35693 3.4875 8.62617 3.4875C8.89541 3.4875 9.11367 3.70576 9.11367 3.975V7.7125C9.11367 7.72629 9.1131 7.73994 9.11198 7.75344C9.39293 7.64729 9.74475 7.54753 10.0887 7.54753C10.4135 7.54753 10.6914 7.62867 10.8974 7.73242C10.9991 7.78363 11.0937 7.8456 11.171 7.91589C11.2089 7.95043 11.2528 7.99606 11.2909 8.05276C11.3209 8.09733 11.3887 8.20852 11.3887 8.3625C11.3887 8.53058 11.3021 8.68682 11.1595 8.7759L9.92045 9.55038L8.84283 10.7795L7.94759 12.0126C7.6113 12.4758 7.07351 12.7499 6.5011 12.7499H5.76106C5.15592 12.7499 4.5757 12.4426 4.26288 11.8977C4.06648 11.5557 3.82335 11.1062 3.62788 10.6614C3.44192 10.2382 3.26367 9.74304 3.26367 9.33747V4.7875C3.26367 4.51826 3.48193 4.3 3.75117 4.3C4.02041 4.3 4.23867 4.51826 4.23867 4.7875V7.54866C4.23867 7.72815 4.38418 7.87366 4.56367 7.87366C4.74316 7.87366 4.88867 7.72815 4.88867 7.54866V3.975C4.88867 3.70576 5.10693 3.4875 5.37617 3.4875C5.64541 3.4875 5.86367 3.70576 5.86367 3.975V7.22516C5.86367 7.40465 6.00918 7.55016 6.18867 7.55016C6.36816 7.55016 6.51367 7.40465 6.51367 7.22516ZM11.3886 16.65C9.30776 16.65 7.55315 15.2532 7.01133 13.346C7.59362 13.2213 8.11674 12.886 8.47353 12.3945L9.35123 11.1856L10.346 10.0508L11.504 9.32711C11.8366 9.11925 12.0386 8.75472 12.0386 8.36251C12.0386 8.01717 11.8873 7.77495 11.8303 7.69016C11.7984 7.64279 11.7653 7.60038 11.733 7.56286C14.0851 7.73888 15.9386 9.703 15.9386 12.1C15.9386 14.6129 13.9015 16.65 11.3886 16.65ZM13.3386 11.45C13.3386 11.091 13.0476 10.8 12.6886 10.8C12.3296 10.8 12.0386 11.091 12.0386 11.45C12.0386 11.809 12.3296 12.1 12.6886 12.1C13.0476 12.1 13.3386 11.809 13.3386 11.45ZM9.52785 13.2129C9.33382 13.3995 9.32782 13.7082 9.51446 13.9022C9.98694 14.3934 10.6523 14.7 11.3885 14.7C12.1247 14.7 12.7901 14.3934 13.2625 13.9022C13.4492 13.7082 13.4432 13.3995 13.2491 13.2129C13.0551 13.0263 12.7465 13.0323 12.5598 13.2263C12.2636 13.5343 11.8487 13.725 11.3885 13.725C10.9283 13.725 10.5134 13.5343 10.2172 13.2263C10.0305 13.0323 9.72187 13.0263 9.52785 13.2129ZM10.7386 11.45C10.7386 11.091 10.4476 10.8 10.0886 10.8C9.72961 10.8 9.43862 11.091 9.43862 11.45C9.43862 11.809 9.72961 12.1 10.0886 12.1C10.4476 12.1 10.7386 11.809 10.7386 11.45Z" fill="#62539F"/>
</g>
</g>
</g>
<defs>
<clipPath id="clip0_1569_19464">
<rect width="20" height="20" fill="white"/>
</clipPath>
<clipPath id="clip1_1569_19464">
<rect width="13" height="13.65" fill="white" transform="translate(3 3)"/>
</clipPath>
</defs>
</svg>
