<svg width="20" height="20" viewBox="0 0 20 20" fill="none" xmlns="http://www.w3.org/2000/svg">
<rect width="20" height="20" rx="10" fill="white"/>
<g clip-path="url(#clip0_1500_20261)">
<path d="M10 4.00066C10.5522 4.00066 11.0836 4.07178 11.594 4.21403C12.1044 4.35627 12.5813 4.55708 13.0248 4.81647C13.4682 5.07586 13.8741 5.38963 14.2422 5.75779C14.6104 6.12595 14.9221 6.52967 15.1773 6.96895C15.4325 7.40824 15.6354 7.88726 15.786 8.40603C15.9366 8.9248 16.0077 9.45613 15.9993 10C15.9993 10.5522 15.9282 11.0836 15.786 11.594C15.6437 12.1044 15.4429 12.5813 15.1835 13.0248C14.9241 13.4682 14.6104 13.8741 14.2422 14.2422C13.8741 14.6104 13.4703 14.9221 13.031 15.1773C12.5918 15.4325 12.1127 15.6354 11.594 15.786C11.0752 15.9366 10.5439 16.0077 10 15.9993C9.44776 15.9993 8.91644 15.9282 8.40603 15.786C7.89563 15.6437 7.41869 15.4429 6.97523 15.1835C6.53176 14.9241 6.12595 14.6104 5.75779 14.2422C5.38963 13.8741 5.07795 13.4703 4.82275 13.031C4.56754 12.5918 4.36464 12.1127 4.21403 11.594C4.06342 11.0752 3.99229 10.5439 4.00066 10C4.00066 9.44776 4.07178 8.91644 4.21403 8.40603C4.35627 7.89563 4.55708 7.41869 4.81647 6.97523C5.07586 6.53176 5.38963 6.12595 5.75779 5.75779C6.12595 5.38963 6.52967 5.07795 6.96895 4.82275C7.40824 4.56754 7.88726 4.36464 8.40603 4.21403C8.9248 4.06342 9.45613 3.99229 10 4.00066ZM10 15.2463C10.4811 15.2463 10.9455 15.1835 11.3932 15.058C11.8408 14.9325 12.2592 14.7568 12.6482 14.5309C13.0373 14.305 13.3908 14.0309 13.7088 13.7088C14.0268 13.3867 14.2987 13.0331 14.5246 12.6482C14.7505 12.2633 14.9283 11.845 15.058 11.3932C15.1877 10.9413 15.2505 10.4769 15.2463 10C15.2463 9.51888 15.1835 9.0545 15.058 8.60685C14.9325 8.1592 14.7568 7.74083 14.5309 7.35176C14.305 6.96268 14.0309 6.60916 13.7088 6.2912C13.3867 5.97325 13.0331 5.70131 12.6482 5.47539C12.2633 5.24948 11.845 5.07167 11.3932 4.94198C10.9413 4.81229 10.4769 4.74953 10 4.75372C9.51888 4.75372 9.0545 4.81647 8.60685 4.94198C8.1592 5.06749 7.74083 5.2432 7.35176 5.46912C6.96268 5.69503 6.60916 5.96906 6.2912 6.2912C5.97325 6.61334 5.70131 6.96686 5.47539 7.35176C5.24948 7.73665 5.07167 8.15502 4.94198 8.60685C4.81229 9.05868 4.74953 9.52307 4.75372 10C4.75372 10.4811 4.81647 10.9455 4.94198 11.3932C5.06749 11.8408 5.2432 12.2592 5.46912 12.6482C5.69503 13.0373 5.96906 13.3908 6.2912 13.7088C6.61334 14.0268 6.96686 14.2987 7.35176 14.5246C7.73665 14.7505 8.15502 14.9283 8.60685 15.058C9.05868 15.1877 9.52307 15.2505 10 15.2463ZM9.59837 12.8114H10.4016V13.6147H9.59837V12.8114ZM10 6.78696C10.2761 6.78696 10.5355 6.83926 10.7782 6.94385C11.0208 7.04844 11.2321 7.19278 11.412 7.37686C11.5919 7.56094 11.7362 7.7743 11.845 8.01695C11.9538 8.25961 12.0081 8.51899 12.0081 8.79511C12.0081 9.04613 11.9684 9.26368 11.8889 9.44776C11.8094 9.63184 11.7111 9.80128 11.594 9.95607C11.4768 10.1109 11.3471 10.2468 11.2049 10.364C11.0626 10.4811 10.935 10.6045 10.8221 10.7342C10.7091 10.8639 10.6087 10.9957 10.5209 11.1296C10.433 11.2635 10.3933 11.4224 10.4016 11.6065V12.0081H9.59837V11.6065C9.59837 11.3555 9.63812 11.1379 9.7176 10.9539C9.79709 10.7698 9.89541 10.6004 10.0126 10.4456C10.1297 10.2908 10.2594 10.1548 10.4016 10.0377C10.5439 9.92051 10.6715 9.79709 10.7844 9.6674C10.8974 9.53771 10.9978 9.40592 11.0857 9.27205C11.1735 9.13817 11.2133 8.97919 11.2049 8.79511C11.2049 8.62777 11.1735 8.47088 11.1108 8.32445C11.048 8.17803 10.9622 8.05042 10.8535 7.94165C10.7447 7.83287 10.6171 7.74711 10.4707 7.68436C10.3242 7.6216 10.1673 7.59022 10 7.59022C9.83265 7.59022 9.67577 7.6216 9.52934 7.68436C9.38291 7.74711 9.25531 7.83287 9.14654 7.94165C9.03776 8.05042 8.952 8.17803 8.88924 8.32445C8.82649 8.47088 8.79511 8.62777 8.79511 8.79511H7.99185C7.99185 8.51899 8.04415 8.25961 8.14874 8.01695C8.25333 7.7743 8.39557 7.56303 8.57547 7.38313C8.75537 7.20324 8.96873 7.0589 9.21557 6.95013C9.4624 6.84135 9.72388 6.78696 10 6.78696Z" fill="#125DAF"/>
</g>
<defs>
<clipPath id="clip0_1500_20261">
<rect width="12" height="12" fill="white" transform="translate(4 4)"/>
</clipPath>
</defs>
</svg>
