<svg width="40" height="40" viewBox="0 0 40 40" fill="none" xmlns="http://www.w3.org/2000/svg">
<path fill-rule="evenodd" clip-rule="evenodd" d="M21.5625 6.85277L22.0201 7.31041C22.6303 7.92063 23.6196 7.92068 24.2298 7.31051C24.84 6.70034 24.8401 5.71102 24.2299 5.1008L23.3147 4.18549L23.3146 4.18544C21.484 2.35485 18.516 2.35485 16.6855 4.18544L15.7701 5.10075C15.16 5.71095 15.16 6.70027 15.7701 7.31046C16.3803 7.92065 17.3697 7.92065 17.9799 7.31046L18.4375 6.85281V20.0001C18.4375 20.863 19.1371 21.5626 20 21.5626C20.8629 21.5626 21.5625 20.863 21.5625 20.0001V6.85277ZM9.57897 14.5396C9.57897 14.5396 9.57896 14.5396 9.57896 14.5396L5.56584 21.5626H10.625C13.2138 21.5626 15.3125 23.6613 15.3125 26.2501C15.3125 27.113 16.0121 27.8126 16.875 27.8126H23.125C23.9879 27.8126 24.6875 27.113 24.6875 26.2501C24.6875 23.6613 26.7862 21.5626 29.375 21.5626H34.4342L30.421 14.5396C30.421 14.5396 30.421 14.5396 30.421 14.5396C30.1495 14.0645 29.6418 13.7501 29.0625 13.7501H26.25C25.3871 13.7501 24.6875 13.0505 24.6875 12.1876C24.6875 11.3246 25.3871 10.6251 26.25 10.6251H29.0625C30.8084 10.6251 32.3292 11.5803 33.1343 12.9891L33.1343 12.9891L39.361 23.8859C39.7672 24.58 40 25.3878 40 26.2501V32.5001C40 35.0889 37.9013 37.1876 35.3125 37.1876H4.6875C2.0987 37.1876 0 35.0889 0 32.5001V26.2501C0 25.3878 0.232813 24.5799 0.639006 23.8859L6.86571 12.9891L6.86573 12.9891C7.67081 11.5803 9.19163 10.6251 10.9375 10.6251H13.75C14.6129 10.6251 15.3125 11.3246 15.3125 12.1876C15.3125 13.0505 14.6129 13.7501 13.75 13.7501H10.9375C10.3582 13.7501 9.85045 14.0645 9.57897 14.5396ZM4.6875 24.6876C3.82459 24.6876 3.125 25.3871 3.125 26.2501V32.5001C3.125 33.363 3.82459 34.0626 4.6875 34.0626H35.3125C36.1754 34.0626 36.875 33.363 36.875 32.5001V26.2501C36.875 25.3871 36.1754 24.6876 35.3125 24.6876H29.375C28.5121 24.6876 27.8125 25.3871 27.8125 26.2501C27.8125 28.8389 25.7138 30.9376 23.125 30.9376H16.875C14.2862 30.9376 12.1875 28.8389 12.1875 26.2501C12.1875 25.3871 11.4879 24.6876 10.625 24.6876H4.6875Z" fill="black"/>
</svg>
