<svg width="21" height="21" viewBox="0 0 21 21" fill="none" xmlns="http://www.w3.org/2000/svg">
<rect x="0.5" y="0.5" width="20" height="20" rx="10" fill="white"/>
<path d="M15.375 10.9057C15.2953 11.832 14.9528 12.7162 14.3877 13.4544C13.8225 14.1925 13.0583 14.7539 12.185 15.0725C11.3116 15.3911 10.3654 15.4537 9.45772 15.2528C8.55003 15.0519 7.71858 14.596 7.06122 13.9386C6.40385 13.2812 5.9479 12.4498 5.74702 11.5421C5.54614 10.6344 5.60867 9.68822 5.92727 8.81486C6.24587 7.9415 6.80728 7.1773 7.54545 6.61216C8.28362 6.04703 9.16783 5.70448 10.0941 5.62481C10.1433 5.62075 10.1929 5.62642 10.2399 5.64152C10.287 5.65661 10.3306 5.68082 10.3683 5.71277C10.406 5.74472 10.437 5.78378 10.4596 5.82772C10.4822 5.87166 10.4959 5.91963 10.5 5.96887C10.5041 6.01812 10.4984 6.06768 10.4833 6.11473C10.4682 6.16178 10.444 6.2054 10.4121 6.2431C10.3801 6.28079 10.341 6.31183 10.2971 6.33442C10.2532 6.35702 10.2052 6.37075 10.1559 6.37481C9.372 6.44217 8.62361 6.73203 7.99881 7.21029C7.37402 7.68856 6.89882 8.33532 6.62913 9.07449C6.35944 9.81366 6.30648 10.6145 6.47649 11.3827C6.64649 12.151 7.03238 12.8547 7.58875 13.4111C8.14513 13.9674 8.84884 14.3533 9.61709 14.5233C10.3853 14.6933 11.1862 14.6404 11.9253 14.3707C12.6645 14.101 13.3113 13.6258 13.7895 13.001C14.2678 12.3762 14.5577 11.6278 14.625 10.8439C14.6332 10.7444 14.6806 10.6523 14.7567 10.5878C14.8328 10.5232 14.9315 10.4916 15.0309 10.4998C15.1304 10.508 15.2225 10.5554 15.2871 10.6315C15.3516 10.7076 15.3832 10.8063 15.375 10.9057ZM10.125 7.87481V10.4998C10.125 10.5993 10.1645 10.6946 10.2348 10.765C10.3052 10.8353 10.4006 10.8748 10.5 10.8748H13.125C13.2245 10.8748 13.3198 10.8353 13.3902 10.765C13.4605 10.6946 13.5 10.5993 13.5 10.4998C13.5 10.4004 13.4605 10.305 13.3902 10.2346C13.3198 10.1643 13.2245 10.1248 13.125 10.1248H10.875V7.87481C10.875 7.77535 10.8355 7.67997 10.7652 7.60964C10.6948 7.53932 10.5995 7.49981 10.5 7.49981C10.4006 7.49981 10.3052 7.53932 10.2348 7.60964C10.1645 7.67997 10.125 7.77535 10.125 7.87481ZM12 6.74981C12.1113 6.74981 12.22 6.71682 12.3125 6.65501C12.405 6.5932 12.4771 6.50535 12.5197 6.40257C12.5623 6.29979 12.5734 6.18669 12.5517 6.07757C12.53 5.96846 12.4764 5.86823 12.3978 5.78956C12.3191 5.71089 12.2189 5.65732 12.1097 5.63562C12.0006 5.61391 11.8875 5.62505 11.7847 5.66763C11.682 5.7102 11.5941 5.7823 11.5323 5.8748C11.4705 5.9673 11.4375 6.07606 11.4375 6.18731C11.4375 6.33649 11.4968 6.47957 11.6023 6.58506C11.7078 6.69055 11.8508 6.74981 12 6.74981ZM13.6875 7.87481C13.7988 7.87481 13.9075 7.84182 14 7.78001C14.0925 7.7182 14.1646 7.63035 14.2072 7.52757C14.2498 7.42479 14.2609 7.31169 14.2392 7.20257C14.2175 7.09346 14.1639 6.99323 14.0853 6.91456C14.0066 6.83589 13.9064 6.78232 13.7972 6.76062C13.6881 6.73891 13.575 6.75005 13.4722 6.79263C13.3695 6.8352 13.2816 6.9073 13.2198 6.9998C13.158 7.0923 13.125 7.20106 13.125 7.31231C13.125 7.46149 13.1843 7.60457 13.2898 7.71006C13.3953 7.81555 13.5383 7.87481 13.6875 7.87481ZM14.8125 9.56231C14.9238 9.56231 15.0325 9.52932 15.125 9.46751C15.2175 9.4057 15.2896 9.31785 15.3322 9.21507C15.3748 9.11229 15.3859 8.99918 15.3642 8.89007C15.3425 8.78096 15.2889 8.68073 15.2103 8.60206C15.1316 8.52339 15.0314 8.46982 14.9222 8.44812C14.8131 8.42641 14.7 8.43755 14.5972 8.48013C14.4945 8.5227 14.4066 8.5948 14.3448 8.6873C14.283 8.7798 14.25 8.88856 14.25 8.99981C14.25 9.14899 14.3093 9.29207 14.4148 9.39756C14.5203 9.50305 14.6633 9.56231 14.8125 9.56231Z" fill="#E6A000"/>
</svg>
