<svg width="39" height="40" viewBox="0 0 39 40" fill="none" xmlns="http://www.w3.org/2000/svg">
<g opacity="0.1">
<rect x="0.79248" y="0.126221" width="38" height="39" rx="19" fill="#FFB200"/>
</g>
<rect x="7.79248" y="7.62622" width="24" height="24" rx="12" fill="#FFB200"/>
<path d="M29.5423 20.4381C29.3829 22.2906 28.6978 24.059 27.5675 25.5353C26.4373 27.0117 24.9089 28.1345 23.1622 28.7717C21.4154 29.4089 19.5231 29.534 17.7077 29.1322C15.8923 28.7304 14.2294 27.8185 12.9147 26.5038C11.5999 25.1891 10.688 23.5262 10.2863 21.7108C9.88451 19.8954 10.0096 18.003 10.6468 16.2563C11.284 14.5096 12.4068 12.9812 13.8831 11.8509C15.3595 10.7207 17.1279 10.0355 18.9804 9.87621C19.0789 9.86808 19.178 9.87943 19.2721 9.90962C19.3662 9.9398 19.4534 9.98822 19.5288 10.0521C19.6042 10.116 19.6663 10.1941 19.7115 10.282C19.7567 10.3699 19.7841 10.4658 19.7923 10.5643C19.8004 10.6628 19.789 10.7619 19.7588 10.8561C19.7287 10.9502 19.6802 11.0374 19.6163 11.1128C19.5524 11.1882 19.4743 11.2502 19.3864 11.2954C19.2985 11.3406 19.2026 11.3681 19.1041 11.3762C17.5362 11.5109 16.0394 12.0906 14.7899 13.0472C13.5403 14.0037 12.5899 15.2972 12.0505 16.7756C11.5111 18.2539 11.4052 19.8556 11.7452 21.3921C12.0852 22.9285 12.857 24.336 13.9697 25.4487C15.0825 26.5615 16.4899 27.3332 18.0264 27.6732C19.5629 28.0133 21.1645 27.9073 22.6429 27.368C24.1212 26.8286 25.4148 25.8782 26.3713 24.6286C27.3278 23.379 27.9075 21.8822 28.0423 20.3143C28.0587 20.1154 28.1534 19.9312 28.3057 19.8021C28.4579 19.6731 28.6552 19.6098 28.8541 19.6262C29.053 19.6426 29.2373 19.7374 29.3663 19.8896C29.4954 20.0419 29.5587 20.2392 29.5423 20.4381ZM19.0423 14.3762V19.6262C19.0423 19.8251 19.1213 20.0159 19.2619 20.1565C19.4026 20.2972 19.5933 20.3762 19.7923 20.3762H25.0423C25.2412 20.3762 25.4319 20.2972 25.5726 20.1565C25.7132 20.0159 25.7923 19.8251 25.7923 19.6262C25.7923 19.4273 25.7132 19.2365 25.5726 19.0959C25.4319 18.9552 25.2412 18.8762 25.0423 18.8762H20.5423V14.3762C20.5423 14.1773 20.4632 13.9865 20.3226 13.8459C20.1819 13.7052 19.9912 13.6262 19.7923 13.6262C19.5933 13.6262 19.4026 13.7052 19.2619 13.8459C19.1213 13.9865 19.0423 14.1773 19.0423 14.3762ZM22.7923 12.1262C23.0148 12.1262 23.2323 12.0602 23.4173 11.9366C23.6023 11.813 23.7465 11.6373 23.8316 11.4317C23.9168 11.2262 23.939 11 23.8956 10.7817C23.8522 10.5635 23.7451 10.363 23.5877 10.2057C23.4304 10.0484 23.23 9.94123 23.0117 9.89782C22.7935 9.85441 22.5673 9.87669 22.3617 9.96184C22.1562 10.047 21.9805 10.1912 21.8569 10.3762C21.7332 10.5612 21.6673 10.7787 21.6673 11.0012C21.6673 11.2996 21.7858 11.5857 21.9968 11.7967C22.2077 12.0077 22.4939 12.1262 22.7923 12.1262ZM26.1673 14.3762C26.3898 14.3762 26.6073 14.3102 26.7923 14.1866C26.9773 14.063 27.1215 13.8873 27.2066 13.6817C27.2918 13.4762 27.314 13.25 27.2706 13.0317C27.2272 12.8135 27.1201 12.613 26.9627 12.4557C26.8054 12.2984 26.605 12.1912 26.3867 12.1478C26.1685 12.1044 25.9423 12.1267 25.7367 12.2118C25.5312 12.297 25.3555 12.4412 25.2319 12.6262C25.1082 12.8112 25.0423 13.0287 25.0423 13.2512C25.0423 13.5496 25.1608 13.8357 25.3718 14.0467C25.5827 14.2577 25.8689 14.3762 26.1673 14.3762ZM28.4173 17.7512C28.6398 17.7512 28.8573 17.6852 29.0423 17.5616C29.2273 17.438 29.3715 17.2623 29.4566 17.0567C29.5418 16.8512 29.564 16.625 29.5206 16.4067C29.4772 16.1885 29.3701 15.988 29.2127 15.8307C29.0554 15.6734 28.855 15.5662 28.6367 15.5228C28.4185 15.4794 28.1923 15.5017 27.9867 15.5868C27.7812 15.672 27.6055 15.8162 27.4819 16.0012C27.3582 16.1862 27.2923 16.4037 27.2923 16.6262C27.2923 16.9246 27.4108 17.2107 27.6218 17.4217C27.8327 17.6327 28.1189 17.7512 28.4173 17.7512Z" fill="white"/>
</svg>
