<svg xmlns="http://www.w3.org/2000/svg" width="19" height="18" viewBox="0 0 19 18" fill="none">
  <path d="M13.6 15.1H17.6C17.6 11.6 16.9416 10.7708 15.6 10.1C14.6 9.59998 12.6 9.09998 12.6 7.59998C12.6 6.09998 13.6 5.59998 13.6 3.59998C13.6 1.59998 12.6 0.599976 11.1 0.599976C9.7628 0.599976 8.82295 1.39469 8.6347 2.98412M0.599998 17.1C0.599998 13.6 1.6 12.6 2.6 12.1C3.6 11.6 5.6 11.1 5.6 9.59998C5.6 8.09998 4.59999 7.59998 4.59999 5.59998C4.59999 3.59998 5.59999 2.59998 7.09999 2.59998C8.59999 2.59998 9.59999 3.59998 9.59999 5.59998C9.6 7.59998 8.59999 8.09998 8.59999 9.59998C8.59999 11.1 10.6 11.6 11.6 12.1C12.9416 12.7708 13.6 13.6 13.6 17.1H0.599998Z" stroke="#595DDC" stroke-width="1.2"/>
</svg>