<svg width="19" height="22" viewBox="0 0 19 22" fill="none" xmlns="http://www.w3.org/2000/svg">
<mask id="mask0_6862_284354" style="mask-type:alpha" maskUnits="userSpaceOnUse" x="0" y="0" width="19" height="22">
<path d="M17.6602 18.9435L13.3282 16.7778C12.9394 16.5834 12.6979 16.1925 12.6979 15.7581V14.2453C12.7982 14.1215 12.9041 13.9813 13.0136 13.8273C13.5743 13.0353 14.024 12.1542 14.352 11.2062C15.0002 10.8982 15.4187 10.2525 15.4187 9.52345V7.70972C15.4187 7.26614 15.256 6.83587 14.9649 6.49768V4.62155C14.9915 4.3555 15.0857 2.85745 14.0015 1.62135C13.0586 0.544887 11.5324 0 9.46492 0C7.39743 0 5.87124 0.544883 4.92831 1.62084C3.84417 2.85693 3.93831 4.35601 3.96491 4.62103V6.49717C3.67431 6.83535 3.5111 7.26562 3.5111 7.70921V9.52293C3.5111 10.0862 3.76385 10.6117 4.19668 10.9662C4.6111 12.5896 5.46399 13.8186 5.77915 14.235V15.7157C5.77915 16.1332 5.55147 16.5169 5.18464 16.7175L1.1392 18.9241C0.44722 19.3003 0.285555 20.4565 0.129497 21.3629C0.073768 21.6866 0.32216 22 0.650618 22H18.1173C18.4148 22 18.6501 21.7417 18.6253 21.4453C18.5478 20.5195 18.4182 19.3238 17.6602 18.9435Z" fill="black"/>
</mask>
<g mask="url(#mask0_6862_284354)">
<rect x="-6.875" y="-5.5" width="33" height="33" fill="white"/>
</g>
</svg>