<svg width="20" height="20" viewBox="0 0 20 20" fill="none" xmlns="http://www.w3.org/2000/svg">
<path d="M8.68551 2.85232L2.12678 14.7773C1.57695 15.777 2.3002 17.0002 3.4411 17.0002H16.5586C17.6995 17.0002 18.4227 15.777 17.8729 14.7773L11.3142 2.85232C10.7443 1.81615 9.2554 1.81616 8.68551 2.85232ZM9.99982 6.75016C10.414 6.75016 10.7498 7.08595 10.7498 7.50016V11.5002C10.7498 11.9144 10.414 12.2502 9.99982 12.2502C9.5856 12.2502 9.24982 11.9144 9.24982 11.5002V7.50016C9.24982 7.08595 9.5856 6.75016 9.99982 6.75016ZM10.7498 13.7502C10.7498 14.1644 10.414 14.5002 9.99982 14.5002C9.5856 14.5002 9.24982 14.1644 9.24982 13.7502C9.24982 13.3359 9.5856 13.0002 9.99982 13.0002C10.414 13.0002 10.7498 13.3359 10.7498 13.7502Z" fill="white"/>
</svg>
