<svg width="18" height="12" viewBox="0 0 18 12" fill="none" xmlns="http://www.w3.org/2000/svg">
<path opacity="0.9" d="M3.78947 0H0.947368C0.426316 0 0 0.385714 0 0.857143V11.1429C0 11.6143 0.426316 12 0.947368 12H3.78947C4.31053 12 4.73684 11.6143 4.73684 11.1429V0.857143C4.73684 0.385714 4.31053 0 3.78947 0ZM17.0526 0H14.2105C13.6895 0 13.2632 0.385714 13.2632 0.857143V11.1429C13.2632 11.6143 13.6895 12 14.2105 12H17.0526C17.5737 12 18 11.6143 18 11.1429V0.857143C18 0.385714 17.5737 0 17.0526 0ZM10.4211 0H7.57895C7.05789 0 6.63158 0.385714 6.63158 0.857143V11.1429C6.63158 11.6143 7.05789 12 7.57895 12H10.4211C10.9421 12 11.3684 11.6143 11.3684 11.1429V0.857143C11.3684 0.385714 10.9421 0 10.4211 0Z" fill="white"/>
</svg>
