<svg width="25" height="24" viewBox="0 0 25 24" fill="none" xmlns="http://www.w3.org/2000/svg">
<path d="M6.35821 15.7452C10.2045 20.3995 19.5776 24.8598 21.84 23.8578C24.1025 22.8559 24.5875 20.6904 24.4905 19.6885C24.3935 18.6866 19.2545 15.6161 17.9616 15.0342C16.6689 14.4525 15.182 16.3269 14.4709 17.1349C13.7276 17.9107 10.8833 15.5511 9.65503 14.3553C9.65503 14.3553 6.42291 10.7354 7.16624 9.95964C7.90957 9.18388 9.75199 7.63252 9.10563 6.372C8.45949 5.1117 5.19511 0.0693727 4.16072 0.00473044C3.15882 -0.0599753 1.02557 0.521921 0.120578 2.81661C-0.784415 5.11153 3.54656 13.8704 8.36247 17.5227" fill="white"/>
</svg>
