<svg width="278" height="272" viewBox="0 0 278 272" fill="none" xmlns="http://www.w3.org/2000/svg">
<path d="M254.508 135.719C254.508 152.741 250.415 169.513 242.575 184.621C234.734 199.729 223.375 212.73 209.457 222.529C195.538 232.327 179.468 238.635 162.6 240.92C145.733 243.206 128.563 241.402 112.539 235.661C96.5148 229.919 82.106 220.409 70.5277 207.932C58.9494 195.455 50.5409 180.377 46.0114 163.97C41.4819 147.562 40.9641 130.305 44.5017 113.655C48.0393 97.0055 55.5285 81.4504 66.3379 68.3016L104.57 99.7316C98.7999 106.75 94.8021 115.054 92.9138 123.942C91.0254 132.829 91.3018 142.041 93.7197 150.799C96.1375 159.558 100.626 167.606 106.806 174.267C112.987 180.927 120.678 186.003 129.232 189.068C137.786 192.133 146.951 193.095 155.955 191.876C164.959 190.656 173.537 187.288 180.967 182.058C188.397 176.828 194.46 169.888 198.645 161.823C202.831 153.758 205.015 144.805 205.015 135.719H254.508Z" fill="#00BA70"/>
<path d="M61.5058 74.6511C73.374 57.7742 89.9028 44.7214 109.071 37.0886C128.239 29.4559 149.217 27.574 169.437 31.6731L159.593 80.2334C148.81 78.0475 137.623 79.0511 127.401 83.1215C117.179 87.1918 108.365 94.1527 102.036 103.153L61.5058 74.6511Z" fill="#E73B18"/>
<path d="M168.35 31.4586C193.272 36.2406 215.656 49.7911 231.447 69.6551C247.238 89.5191 255.392 114.382 254.431 139.74L204.97 137.865C205.483 124.33 201.131 111.059 192.702 100.456C184.273 89.8531 172.325 82.6202 159.023 80.0677L168.35 31.4586Z" fill="#165A8B"/>
</svg>