<?xml version="1.0" standalone="no"?>
<!DOCTYPE svg PUBLIC "-//W3C//DTD SVG 1.1//EN" "http://www.w3.org/Graphics/SVG/1.1/DTD/svg11.dtd" >
<svg xmlns="http://www.w3.org/2000/svg" xmlns:xlink="http://www.w3.org/1999/xlink" version="1.1">
<metadata>
Created by FontForge 20201107 at Thu May 19 02:19:13 2022
 By Unknown
Copyright 2017 The Roboto Flex Project Authors (https://github.com/TypeNetwork/Roboto-Flex)
</metadata>
<defs>
<font id="RobotoFlex-Regular" horiz-adv-x="1024" >
  <font-face 
    font-family="Roboto Flex"
    font-weight="400"
    font-stretch="normal"
    units-per-em="2048"
    panose-1="2 0 0 0 0 0 0 0 0 0"
    ascent="1638"
    descent="-410"
    x-height="1052"
    cap-height="1456"
    bbox="-345 -600 2580 2461"
    underline-thickness="166"
    underline-position="-266"
    unicode-range="U+000D-FFFD"
  />
<missing-glyph horiz-adv-x="908" 
d="M808 1456h-708v-1456h708v1456zM154 1402h600v-1348h-600v1348zM126 30h58l593 1396h-58zM126 1426l593 -1396h58l-593 1396h-58z" />
    <glyph glyph-name="uniFB00" unicode="ff" horiz-adv-x="1200" 
d="M196 0h186v970v22v208q0 100 49 150t139 50q26 0 51 -3t47 -7l10 150q-30 8 -63 12t-65 4q-164 0 -259 -91t-95 -265v-1200zM25 910h585v142h-298h-46h-241v-142zM796 0h186v970v22v208q0 100 49 150t139 50q26 0 51 -3t47 -7l10 150q-30 8 -63 12t-65 4q-164 0 -259 -91
t-95 -265v-1200zM625 910h585v142h-298h-46h-241v-142z" />
    <glyph glyph-name="uniFB01" unicode="fi" horiz-adv-x="1100" 
d="M196 0h186v970v22v208q0 100 49 150t139 50q26 0 51 -3t47 -7l10 150q-30 8 -63 12t-65 4q-164 0 -259 -91t-95 -265v-1200zM25 910h585v142h-298h-46h-241v-142zM757 0h186v1052h-186v-1052zM734 1370q0 -47 30 -79t86 -32t86 32t30 79t-30 79t-86 32t-86 -32t-30 -79z
" />
    <glyph glyph-name="uniFB02" unicode="fl" horiz-adv-x="1098" 
d="M196 0h186v970v22v208q0 100 49 150t139 50q26 0 51 -3t47 -7l10 150q-30 8 -63 12t-65 4q-164 0 -259 -91t-95 -265v-1200zM25 910h585v142h-298h-46h-241v-142zM756 0h186v1536h-186v-1536z" />
    <glyph glyph-name="uniFB03" unicode="ffi" horiz-adv-x="1700" 
d="M196 0h186v970v22v208q0 100 49 150t139 50q26 0 51 -3t47 -7l10 150q-30 8 -63 12t-65 4q-164 0 -259 -91t-95 -265v-1200zM25 910h585v142h-298h-46h-241v-142zM796 0h186v970v22v208q0 100 49 150t139 50q26 0 51 -3t47 -7l10 150q-30 8 -63 12t-65 4q-164 0 -259 -91
t-95 -265v-1200zM625 910h585v142h-298h-46h-241v-142zM1357 0h186v1052h-186v-1052zM1334 1370q0 -47 30 -79t86 -32t86 32t30 79t-30 79t-86 32t-86 -32t-30 -79z" />
    <glyph glyph-name="uniFB04" unicode="ffl" horiz-adv-x="1698" 
d="M196 0h186v970v22v208q0 100 49 150t139 50q26 0 51 -3t47 -7l10 150q-30 8 -63 12t-65 4q-164 0 -259 -91t-95 -265v-1200zM25 910h585v142h-298h-46h-241v-142zM796 0h186v970v22v208q0 100 49 150t139 50q26 0 51 -3t47 -7l10 150q-30 8 -63 12t-65 4q-164 0 -259 -91
t-95 -265v-1200zM625 910h585v142h-298h-46h-241v-142zM1356 0h186v1536h-186v-1536z" />
    <glyph glyph-name="uni006600660133" unicode="ffij" horiz-adv-x="2200" 
d="M196 0h186v970v22v208q0 100 49 150t139 50q26 0 51 -3t47 -7l10 150q-30 8 -63 12t-65 4q-164 0 -259 -91t-95 -265v-1200zM25 910h585v142h-298h-46h-241v-142zM796 0h186v970v22v208q0 100 49 150t139 50q26 0 51 -3t47 -7l10 150q-30 8 -63 12t-65 4q-164 0 -259 -91
t-95 -265v-1200zM625 910h585v142h-298h-46h-241v-142zM1357 0h186v1052h-186v-1052zM1334 1370q0 -47 30 -79t86 -32t86 32t30 79t-30 79t-86 32t-86 -32t-30 -79zM1606 -410q25 -9 74.5 -17.5t89.5 -8.5q134 0 203.5 83t69.5 263v1142h-186v-1182q0 -80 -33.5 -115
t-93.5 -35q-30 0 -67 7t-57 13v-150zM1834 1370q0 -47 30 -79t86 -32t86 32t30 79t-30 79t-86 32t-86 -32t-30 -79z" />
    <glyph glyph-name=".notdef" horiz-adv-x="908" 
d="M808 1456h-708v-1456h708v1456zM154 1402h600v-1348h-600v1348zM126 30h58l593 1396h-58zM126 1426l593 -1396h58l-593 1396h-58z" />
    <glyph glyph-name="uni000D" unicode="&#xd;" horiz-adv-x="508" 
 />
    <glyph glyph-name="uni00A0" unicode="&#xa0;" horiz-adv-x="500" 
 />
    <glyph glyph-name="uni0020" unicode=" " horiz-adv-x="500" 
 />
    <glyph glyph-name="uni0021" unicode="!" horiz-adv-x="620" 
d="M186 97q0 -49 32 -84t92 -35t92 35t32 84t-32 84t-92 35t-92 -35t-32 -84zM228 410h164l15 1046h-194z" />
    <glyph glyph-name="uni0022" unicode="&#x22;" horiz-adv-x="760" 
d="M115 966h150l15 354v136h-180v-136zM495 966h150l15 354v136h-180v-136z" />
    <glyph glyph-name="uni0023" unicode="#" horiz-adv-x="1544" 
d="M216 -20h144l437 1521h-144zM722 -20h144l437 1521h-144zM64 404h1341v138h-1341v-138zM115 939h1340v138h-1340v-138z" />
    <glyph glyph-name="uni0024" unicode="$" 
d="M21 381q0 -179 134 -283t356 -104q221 0 350.5 104t129.5 267q0 162 -98.5 274.5t-313.5 172.5q-216 61 -285.5 133.5t-69.5 153.5q0 100 67.5 154.5t209.5 54.5q143 0 215 -63.5t72 -168.5v-11h177v11q0 159 -125.5 270.5t-338.5 111.5q-212 0 -332 -102t-120 -257
q0 -153 91.5 -260.5t310.5 -168.5q220 -62 292.5 -138.5t72.5 -166.5q0 -100 -79 -161t-226 -61q-148 0 -230.5 59t-82.5 179v11h-177v-11zM436 -170h150v240l-14 10v678h-136v-928zM450 758h136v828h-150v-190l14 -10v-628z" />
    <glyph glyph-name="uni0025" unicode="%" horiz-adv-x="1848" 
d="M68 1036q0 -160 83 -258t243 -98t243.5 98t83.5 258v104q0 160 -83.5 258t-243.5 98t-243 -98t-83 -258v-104zM232 1036v104q0 90 36 148t126 58t126.5 -58t36.5 -148v-104q0 -90 -36.5 -148t-126.5 -58t-126 58t-36 148zM1448 1417l-125 87l-921 -1460l125 -87z
M1127 336q0 -160 83 -258t243 -98t243.5 98t83.5 258v104q0 160 -83.5 258t-243.5 98t-243 -98t-83 -258v-104zM1291 336v104q0 90 36 148t126 58t126.5 -58t36.5 -148v-104q0 -90 -36.5 -148t-126.5 -58t-126 58t-36 148z" />
    <glyph glyph-name="uni0026" unicode="&#x26;" horiz-adv-x="1280" 
d="M80 380q0 -175 125 -287.5t345 -112.5q260 0 436 200t176 494h-172q0 -254 -130 -398t-310 -144q-130 0 -208 69t-78 179t73 191t213 169l160 100q96 60 154 140t58 200q0 130 -96 218t-251 88t-260 -93t-105 -233q0 -100 57 -195t163 -225l604 -740h222l-686 840
q-98 120 -138 185t-40 135t49 122t134 52t130 -47t45 -117q0 -60 -30 -110t-110 -100l-160 -100q-150 -94 -260 -207t-110 -273z" />
    <glyph glyph-name="uni0027" unicode="'" horiz-adv-x="400" 
d="M125 966h150l25 354v136h-200v-136z" />
    <glyph glyph-name="uni0028" unicode="(" horiz-adv-x="700" 
d="M664 -436v180q-124 76 -234.5 262.5t-110.5 501.5v24q0 329 110.5 508.5t234.5 255.5v180q-204 -96 -372 -327.5t-168 -623.5v-10q0 -375 168 -615t372 -336z" />
    <glyph glyph-name="uni0029" unicode=")" horiz-adv-x="700" 
d="M36 -436q204 96 372 336t168 615v10q0 392 -168 623.5t-372 327.5v-180q124 -76 234.5 -255.5t110.5 -508.5v-24q0 -315 -110.5 -501.5t-234.5 -262.5v-180z" />
    <glyph glyph-name="uni002A" unicode="*" horiz-adv-x="1080" 
d="M58 1057l389 -88l-264 -298l154 -112l203 344l203 -344l154 112l-264 298l389 88l-59 180l-366 -158l38 397h-190l38 -397l-366 158z" />
    <glyph glyph-name="uni002B" unicode="+" 
d="M57 591h910v164h-910v-164zM422 188h180v972h-180v-972z" />
    <glyph glyph-name="uni002C" unicode="," horiz-adv-x="580" 
d="M110 -218l105 -73q79 67 127 159t48 202v150h-180v-150q0 -90 -26 -157t-74 -131z" />
    <glyph glyph-name="uni002D" unicode="-" horiz-adv-x="714" 
d="M75 544h564v172h-564v-172z" />
    <glyph glyph-name="uni002E" unicode="." horiz-adv-x="580" 
d="M160 103q0 -52 33.5 -88.5t96.5 -36.5t96.5 36.5t33.5 88.5t-33.5 88.5t-96.5 36.5t-96.5 -36.5t-33.5 -88.5z" />
    <glyph glyph-name="uni002F" unicode="/" horiz-adv-x="584" 
d="M-100 -125h176l608 1581h-176z" />
    <glyph glyph-name="uni0030" unicode="0" horiz-adv-x="1156" 
d="M110 460q0 -220 124 -355t344 -135q218 0 343 135t125 355v536q0 220 -125 355t-343 135q-220 0 -344 -135t-124 -355v-536zM304 450v556q0 140 67 231t207 91t207 -91t67 -231v-556q0 -140 -67 -231t-207 -91t-207 91t-67 231z" />
    <glyph glyph-name="uni0031" unicode="1" horiz-adv-x="1156" 
d="M540 0h192v1476h-30l-530 -200v-186l368 155v-1245z" />
    <glyph glyph-name="uni0032" unicode="2" horiz-adv-x="1156" 
d="M110 0h960v166h-722l407 429q115 121 195 237t80 258q0 160 -122.5 278t-322.5 118q-202 0 -338.5 -128t-136.5 -328v-10h190v10q0 140 82.5 219t202.5 79t187.5 -74t67.5 -174t-53 -185t-157 -195l-520 -560v-140z" />
    <glyph glyph-name="uni0033" unicode="3" horiz-adv-x="1156" 
d="M80 380q0 -180 128 -295t350 -115q210 0 347 115t137 316q0 139 -76 234t-202 127v4q116 50 171 142t55 192q0 170 -121 278t-311 108q-196 0 -317 -113t-121 -273v-10h186v10q0 110 68 169t184 59q110 0 175 -59t65 -179t-75 -187t-213 -67h-105v-154h115q150 0 239 -71
t89 -211t-79 -206t-211 -66t-212 66t-80 186v10h-186v-10z" />
    <glyph glyph-name="uni0034" unicode="4" horiz-adv-x="1156" 
d="M724 0h180v1456h-172l-682 -988v-126h1058v158h-256h-77h-506l443 649h12v-699v-52v-398z" />
    <glyph glyph-name="uni0035" unicode="5" horiz-adv-x="1156" 
d="M100 365q0 -170 123 -282.5t347 -112.5q210 0 348 132.5t138 362.5t-133 358.5t-323 128.5q-80 0 -147 -23t-117 -53l44 410h600v170h-756l-74 -726l132 -62q60 60 129 92.5t159 32.5q130 0 213 -84t83 -244t-83 -248.5t-213 -88.5t-208 63.5t-78 173.5v10h-184v-10z" />
    <glyph glyph-name="uni0036" unicode="6" horiz-adv-x="1156" 
d="M88 614q0 -340 151 -492t361 -152t347 137t137 357t-122 356t-322 136t-320 -136t-120 -356h70q0 160 100 247t230 87q140 0 217 -87t77 -247t-77 -248t-217 -88t-232 108t-92 368v50q0 350 162 512t442 162h20v158h-20q-380 0 -586 -231t-206 -611v-30z" />
    <glyph glyph-name="uni0037" unicode="7" horiz-adv-x="1156" 
d="M294 0h196l562 1352v104h-974v-161h774z" />
    <glyph glyph-name="uni0038" unicode="8" horiz-adv-x="1156" 
d="M104 386q0 -198 137.5 -307t337.5 -109t336.5 109t136.5 307q0 130 -71 222.5t-183 137.5v4q86 43 147 130t61 207q0 182 -123.5 290.5t-303.5 108.5t-304.5 -109.5t-124.5 -289.5q0 -120 61.5 -207t147.5 -130v-4q-112 -45 -183.5 -137.5t-71.5 -222.5zM292 396
q0 120 78.5 195t208.5 75t207.5 -75t77.5 -195t-77.5 -194t-207.5 -74t-208.5 74t-78.5 194zM334 1077q0 110 67.5 180.5t177.5 70.5t176.5 -70.5t66.5 -180.5t-66.5 -181.5t-176.5 -71.5t-177.5 71.5t-67.5 181.5z" />
    <glyph glyph-name="uni0039" unicode="9" horiz-adv-x="1156" 
d="M72 1002q0 -216 122.5 -349t321.5 -133q200 0 320 133t120 349h-70q0 -155 -100 -239.5t-230 -84.5q-140 0 -217 84.5t-77 239.5t77 240.5t217 85.5t232 -108t92 -368v-50q0 -323 -162 -483.5t-442 -160.5h-20v-158h21q380 0 585.5 229.5t205.5 582.5v30q0 340 -151 492
t-361 152t-347 -134t-137 -350z" />
    <glyph glyph-name="uni003A" unicode=":" horiz-adv-x="600" 
d="M176 97q0 -49 32 -84t92 -35t92 35t32 84t-32 84t-92 35t-92 -35t-32 -84zM176 949q0 -49 32 -84t92 -35t92 35t32 84t-32 84t-92 35t-92 -35t-32 -84z" />
    <glyph glyph-name="uni003B" unicode=";" horiz-adv-x="600" 
d="M120 -218l105 -73q79 67 127 159t48 202v150h-180v-150q0 -90 -26 -157t-74 -131zM176 949q0 -49 32 -84t92 -35t92 35t32 84t-32 84t-92 35t-92 -35t-32 -84z" />
    <glyph glyph-name="uni003C" unicode="&#x3c;" 
d="M918 221v203l-594 253l594 253v193l-818 -379v-144z" />
    <glyph glyph-name="uni003D" unicode="=" 
d="M57 381h910v169h-910v-169zM57 776h910v169h-910v-169z" />
    <glyph glyph-name="uni003E" unicode="&#x3e;" 
d="M106 221l818 379v144l-818 379v-203l594 -253l-594 -253v-193z" />
    <glyph glyph-name="uni003F" unicode="?" horiz-adv-x="968" 
d="M320 97q0 -49 32 -84t92 -35t92 35t32 84t-32 84t-92 35t-92 -35t-32 -84zM60 1095h185v20q0 95 57.5 147t167.5 52t164 -57t54 -157t-52 -168t-134 -149q-96 -94 -128 -166t-32 -197v-10h186v10q0 70 20.5 133.5t105.5 140.5q72 64 146 168t74 238q0 170 -107 273
t-297 103t-300 -98t-110 -263v-20z" />
    <glyph glyph-name="uni0040" unicode="@" horiz-adv-x="2110" 
d="M615 400q0 -180 82.5 -290t222.5 -110q80 0 150 50t120 130q40 -80 127 -130t203 -50q200 0 338 180t138 470q0 350 -248 593t-648 243t-693 -303t-293 -723t263 -663t623 -243q140 0 235 23t165 67v156q-66 -36 -163 -63t-237 -27q-300 0 -500 195t-200 555t230 615
t570 255t528 -205t188 -475q0 -230 -88 -372t-228 -142q-80 0 -122 47t-18 167l120 596h-90q-50 39 -125 72.5t-165 33.5q-190 0 -337.5 -186t-147.5 -466zM805 400q0 220 92 366t233 146q40 0 80 -11t70 -31l-100 -480q-27 -130 -83.5 -182t-126.5 -52q-80 0 -122.5 62
t-42.5 182z" />
    <glyph glyph-name="uni0041" unicode="A" horiz-adv-x="1280" 
d="M0 0h192l404 1100q12 33 21 64t16 64h10q7 -33 16 -64t21 -64l400 -1100h200l-554 1466h-172zM238 380h801l-58 158h-684z" />
    <glyph glyph-name="uni0042" unicode="B" horiz-adv-x="1260" 
d="M170 0h510q217 0 348.5 110t131.5 310q0 140 -70 226t-180 118v4q90 32 151 107t61 195q0 200 -126 293t-346 93h-480v-1456zM358 158v522h322q150 0 220 -70t70 -190t-70 -191t-220 -71h-322zM358 836v462h292q150 0 216 -59t66 -169t-66 -172t-216 -62h-292z" />
    <glyph glyph-name="uni0043" unicode="C" horiz-adv-x="1359" 
d="M115 682q0 -336 172.5 -524t432.5 -188t397 143t157 343l1 10h-192l-1 -10q-14 -136 -102 -229t-260 -93q-180 0 -295.5 146t-115.5 402v92q0 278 116 413t295 135q183 0 273 -91.5t90 -230.5v-10h192v10q0 201 -147.5 343.5t-407.5 142.5t-432.5 -188t-172.5 -524v-92z
" />
    <glyph glyph-name="uni0044" unicode="D" horiz-adv-x="1370" 
d="M170 0h432q280 0 466.5 185t186.5 497v92q0 312 -186.5 497t-466.5 185h-432v-1456zM362 158v1140h240q210 0 334.5 -139t124.5 -385v-92q0 -246 -124.5 -385t-334.5 -139h-240z" />
    <glyph glyph-name="uni0045" unicode="E" horiz-adv-x="1162" 
d="M170 0h924v158h-732v514h630v158h-630v468h722v158h-914v-1456z" />
    <glyph glyph-name="uni0046" unicode="F" horiz-adv-x="1130" 
d="M170 0h192v643h611v158h-611v497h710v158h-902v-1456z" />
    <glyph glyph-name="uni0047" unicode="G" horiz-adv-x="1407" 
d="M115 682q0 -336 172.5 -524t462.5 -188q190 0 325 60t203 130v568h-548v-158h362v-340q-72 -50 -152 -73t-190 -23q-210 0 -325.5 146t-115.5 402v92q0 256 115.5 402t306.5 146q169 0 262 -91t93 -191v-10h192l-1 11q-16 180 -156.5 312.5t-387.5 132.5
q-273 0 -445.5 -188t-172.5 -524v-92z" />
    <glyph glyph-name="uni0048" unicode="H" horiz-adv-x="1458" 
d="M170 0h192v672h734v-672h192v1456h-192v-626h-734v626h-192v-1456z" />
    <glyph glyph-name="uni0049" unicode="I" horiz-adv-x="542" 
d="M175 0h192v1456h-192v-1456z" />
    <glyph glyph-name="uni004A" unicode="J" horiz-adv-x="1100" 
d="M25 400q0 -200 127.5 -315t332.5 -115t332.5 122.5t127.5 332.5v1031h-192v-1031q0 -140 -71.5 -215.5t-196.5 -75.5t-196.5 68t-71.5 198v10h-192v-10z" />
    <glyph glyph-name="uni004B" unicode="K" horiz-adv-x="1266" 
d="M170 0h192v500l880 956h-232l-648 -716v716h-192v-1456zM1050 0h236l-676 890l-124 -134z" />
    <glyph glyph-name="uni004C" unicode="L" horiz-adv-x="1106" 
d="M170 0h882v158h-690v1298h-192v-1456z" />
    <glyph glyph-name="uni004D" unicode="M" horiz-adv-x="1790" 
d="M170 0h182v1050q0 30 -1 67.5t-5 67.5h8q6 -30 18 -67.5t24 -67.5l414 -1050h166l414 1050q12 30 24 67.5t18 67.5h8q-4 -30 -5 -67.5t-1 -67.5v-1050h186v1456h-248l-432 -1095q-12 -30 -22.5 -62.5t-18.5 -62.5h-8q-8 30 -18.5 62.5t-22.5 62.5l-432 1095h-248v-1456z
" />
    <glyph glyph-name="uni004E" unicode="N" horiz-adv-x="1460" 
d="M170 0h188v1000q0 30 -0.5 67.5t-1.5 67.5h7q14 -25 31 -55t37 -60l659 -1020h200v1456h-188v-1000q0 -30 0.5 -67.5t1.5 -67.5h-8q-12 25 -29.5 55t-37.5 60l-659 1020h-200v-1456z" />
    <glyph glyph-name="uni004F" unicode="O" horiz-adv-x="1460" 
d="M115 682q0 -336 172.5 -524t442.5 -188t442.5 188t172.5 524v92q0 336 -172.5 524t-442.5 188t-442.5 -188t-172.5 -524v-92zM309 682v92q0 256 115.5 402t305.5 146t305.5 -146t115.5 -402v-92q0 -256 -115.5 -402t-305.5 -146t-305.5 146t-115.5 402z" />
    <glyph glyph-name="uni0050" unicode="P" horiz-adv-x="1200" 
d="M170 0h192v570h290q240 0 369 122.5t129 322.5t-129 320.5t-369 120.5h-482v-1456zM362 728v570h290q170 0 238 -81.5t68 -201.5t-68 -203.5t-238 -83.5h-290z" />
    <glyph glyph-name="uni0051" unicode="Q" horiz-adv-x="1460" 
d="M115 682q0 -336 172.5 -524t442.5 -188t442.5 188t172.5 524v92q0 336 -172.5 524t-442.5 188t-442.5 -188t-172.5 -524v-92zM309 682v92q0 256 115.5 402t305.5 146t305.5 -146t115.5 -402v-92q0 -256 -115.5 -402t-305.5 -146t-305.5 146t-115.5 402zM1200 -250
l130 130l-355 275l-125 -125z" />
    <glyph glyph-name="uni0052" unicode="R" horiz-adv-x="1250" 
d="M170 0h192v594h282q234 0 361 120t127 314t-127 311t-361 117h-474v-1456zM362 750v550h282q166 0 231 -78t65 -194t-65 -197t-231 -81h-282zM996 0h214l-380 701l-190 -29z" />
    <glyph glyph-name="uni0053" unicode="S" horiz-adv-x="1220" 
d="M90 398q0 -198 145 -313t385 -115t380 115t140 295t-106 279t-340 165t-309 121t-75 150q0 105 73 166t227 61t232 -71t78 -187v-12h192v12q0 184 -136 303t-366 119t-360 -113t-130 -283t99 -262.5t337 -161.5q229 -66 311.5 -126t82.5 -160q0 -110 -85 -178t-245 -68
t-249 66t-89 198v12h-192v-12z" />
    <glyph glyph-name="uni0054" unicode="T" horiz-adv-x="1176" 
d="M24 1298h468v-1298h192v1298h468v158h-1128v-158z" />
    <glyph glyph-name="uni0055" unicode="U" horiz-adv-x="1364" 
d="M155 470q0 -250 153.5 -375t373.5 -125t373.5 125t153.5 375v986h-192v-986q0 -170 -92.5 -253t-242.5 -83t-242.5 83t-92.5 253v986h-192v-986z" />
    <glyph glyph-name="uni0056" unicode="V" horiz-adv-x="1260" 
d="M0 1456l544 -1466h172l544 1466h-196l-390 -1078q-12 -33 -20.5 -58.5t-17.5 -55.5h-9q-9 30 -17 55.5t-20 58.5l-386 1078h-204z" />
    <glyph glyph-name="uni0057" unicode="W" horiz-adv-x="1812" 
d="M408 -10h186l281 1080q9 34 15.5 64.5t11.5 63.5h8q5 -33 11.5 -63.5t15.5 -64.5l281 -1080h186l358 1466h-190l-238 -1078q-8 -34 -12 -54.5t-8 -53.5h-9q-4 33 -7.5 53.5t-12.5 54.5l-281 1078h-194l-271 -1078q-9 -34 -12.5 -54.5t-7.5 -53.5h-10q-4 33 -7.5 53.5
t-11.5 54.5l-248 1078h-192z" />
    <glyph glyph-name="uni0058" unicode="X" horiz-adv-x="1222" 
d="M25 0h212l422 670h14l499 786h-212l-397 -650h-14zM50 1456l499 -786h10l422 -670h216l-524 806h-10l-397 650h-216z" />
    <glyph glyph-name="uni0059" unicode="Y" horiz-adv-x="1228" 
d="M518 0h192v544l503 912h-208l-332 -616q-16 -30 -29.5 -55t-24.5 -52h-6q-11 27 -24.5 52t-29.5 55l-328 616h-216l503 -912v-544z" />
    <glyph glyph-name="uni005A" unicode="Z" horiz-adv-x="1190" 
d="M65 0h1059v158h-830l798 1158v140h-1015v-158h786l-798 -1158v-140z" />
    <glyph glyph-name="uni005B" unicode="[" horiz-adv-x="700" 
d="M144 -310h476v160h-291v1446h291v160h-476v-1766z" />
    <glyph glyph-name="uni005C" unicode="\" horiz-adv-x="584" 
d="M-100 1456l608 -1581h176l-608 1581h-176z" />
    <glyph glyph-name="uni005D" unicode="]" horiz-adv-x="700" 
d="M556 -310v1766h-476v-160h291v-1446h-291v-160h476z" />
    <glyph glyph-name="uni005E" unicode="^" horiz-adv-x="1170" 
d="M25 720h200l360 570l360 -570h200l-475 736h-170z" />
    <glyph glyph-name="uni005F" unicode="_" 
d="M0 -416h1024v172h-1024v-172z" />
    <glyph glyph-name="uni0060" unicode="`" 
d="M578 1219l105 79l-251 301l-153 -105z" />
    <glyph glyph-name="uni0061" unicode="a" horiz-adv-x="1106" 
d="M90 310q0 -160 105 -245t255 -85q130 0 212.5 50t119.5 115q3 -40 14.5 -80t25.5 -65h180v16q-18 44 -28 101.5t-10 122.5v480q0 180 -104.5 271t-294.5 91t-301.5 -93.5t-111.5 -218.5v-5h185v5q0 65 51.5 114.5t171.5 49.5t169 -59.5t49 -154.5v-72h-238
q-196 0 -323 -89t-127 -249zM276 320q0 90 72 143t212 53h218v-151q0 -85 -89 -161t-199 -76t-162 51t-52 141z" />
    <glyph glyph-name="uni0062" unicode="b" horiz-adv-x="1170" 
d="M148 0h168l8 137h6q40 -65 122.5 -111t192.5 -46q200 0 320 150t120 380v32q0 230 -120 380t-320 150q-110 0 -187.5 -39.5t-123.5 -104.5v608h-186v-1536zM334 312v428q31 70 101 125t170 55q150 0 220 -109t70 -269v-32q0 -160 -70 -269t-220 -109q-100 0 -170 55
t-101 125z" />
    <glyph glyph-name="uni0063" unicode="c" horiz-adv-x="1068" 
d="M85 510q0 -238 129.5 -389t356.5 -151q210 0 319 113.5t109 253.5v5h-180v-5q0 -85 -59 -150t-189 -65q-152 0 -224 112.5t-72 275.5v32q0 163 72 275.5t224 112.5q130 0 189 -65t59 -150v-5h180v5q0 140 -109 253.5t-319 113.5q-227 0 -356.5 -151t-129.5 -389v-32z" />
    <glyph glyph-name="uni0064" unicode="d" horiz-adv-x="1170" 
d="M85 510q0 -230 120 -380t320 -150q110 0 192.5 46t122.5 111h6l8 -137h168v1536h-186v-608q-46 65 -123.5 104.5t-187.5 39.5q-200 0 -320 -150t-120 -380v-32zM275 510v32q0 160 70 269t220 109q100 0 170 -55t101 -125v-428q-31 -70 -101 -125t-170 -55
q-150 0 -220 109t-70 269z" />
    <glyph glyph-name="uni0065" unicode="e" horiz-adv-x="1088" 
d="M85 510q0 -238 130.5 -389t375.5 -151q150 0 254.5 65t154.5 140l-120 95q-45 -60 -117 -104t-172 -44q-162 0 -239 112.5t-77 275.5v32q0 163 73 275.5t221 112.5q122 0 187 -80t65 -194v-24h-622v-148h809v76q0 240 -116 381t-331 141t-345.5 -151t-130.5 -389v-32z
" />
    <glyph glyph-name="uni0066" unicode="f" horiz-adv-x="600" 
d="M196 0h186v970v22v208q0 100 49 150t139 50q26 0 51 -3t47 -7l10 150q-30 8 -63 12t-65 4q-164 0 -259 -91t-95 -265v-1200zM25 910h585v142h-298h-46h-241v-142z" />
    <glyph glyph-name="uni0067" unicode="g" horiz-adv-x="1170" 
d="M124 -284q76 -66 186 -109t240 -43q210 0 341 118t131 338v1032h-168l-8 -137h-6q-40 65 -122.5 111t-192.5 46q-200 0 -320 -150t-120 -380v-32q0 -230 120 -380t320 -150q110 0 187.5 39.5t123.5 104.5v-104q0 -140 -78 -217t-213 -77q-100 0 -180 39.5t-124 90.5z
M275 510v32q0 160 70 269t220 109q100 0 170 -55t101 -125v-428q-31 -70 -101 -125t-170 -55q-150 0 -220 109t-70 269z" />
    <glyph glyph-name="uni0068" unicode="h" horiz-adv-x="1138" 
d="M148 0h186v744q38 76 106 124t157 48q104 0 160.5 -54.5t56.5 -180.5v-681h186v679q0 212 -94.5 302.5t-241.5 90.5q-102 0 -188 -41t-142 -109v614h-186v-1536z" />
    <glyph glyph-name="uni0069" unicode="i" horiz-adv-x="500" 
d="M157 0h186v1052h-186v-1052zM134 1370q0 -47 30 -79t86 -32t86 32t30 79t-30 79t-86 32t-86 -32t-30 -79z" />
    <glyph glyph-name="uni006A" unicode="j" horiz-adv-x="500" 
d="M-94 -410q25 -9 74.5 -17.5t89.5 -8.5q134 0 203.5 83t69.5 263v1142h-186v-1182q0 -80 -33.5 -115t-93.5 -35q-30 0 -67 7t-57 13v-150zM134 1370q0 -47 30 -79t86 -32t86 32t30 79t-30 79t-86 32t-86 -32t-30 -79z" />
    <glyph glyph-name="uni006B" unicode="k" horiz-adv-x="1028" 
d="M148 0h186v350l661 702h-211l-450 -484v968h-186v-1536zM826 0h218l-512 672l-116 -128z" />
    <glyph glyph-name="uni006C" unicode="l" horiz-adv-x="498" 
d="M156 0h186v1536h-186v-1536z" />
    <glyph glyph-name="uni006D" unicode="m" horiz-adv-x="1764" 
d="M148 0h186v744q38 76 102.5 124t150.5 48q99 0 153 -54.5t54 -180.5v-681h186v744q38 76 102.5 124t150.5 48q99 0 153 -54.5t54 -180.5v-681h186v679q0 212 -92 302.5t-256 90.5q-104 0 -184 -42t-146 -136h-6q-40 94 -117 136t-183 42q-97 0 -176.5 -42t-135.5 -113h-6
l-8 135h-168v-1052z" />
    <glyph glyph-name="uni006E" unicode="n" horiz-adv-x="1138" 
d="M148 0h186v744q38 76 106 124t157 48q104 0 160.5 -54.5t56.5 -180.5v-681h186v679q0 212 -94.5 302.5t-253.5 90.5q-100 0 -182.5 -41.5t-139.5 -113.5h-6l-8 135h-168v-1052z" />
    <glyph glyph-name="uni006F" unicode="o" horiz-adv-x="1162" 
d="M85 510q0 -238 135 -389t361 -151t361 151t135 389v32q0 238 -135 389t-361 151t-361 -151t-135 -389v-32zM275 542q0 163 77 275.5t229 112.5t229 -112.5t77 -275.5v-32q0 -163 -77 -275.5t-229 -112.5t-229 112.5t-77 275.5v32z" />
    <glyph glyph-name="uni0070" unicode="p" horiz-adv-x="1170" 
d="M148 -416h186v540q46 -65 123.5 -104.5t187.5 -39.5q200 0 320 150t120 380v32q0 230 -120 380t-320 150q-110 0 -192.5 -46t-122.5 -111h-6l-8 137h-168v-1468zM334 312v428q31 70 101 125t170 55q150 0 220 -109t70 -269v-32q0 -160 -70 -269t-220 -109q-100 0 -170 55
t-101 125z" />
    <glyph glyph-name="uni0071" unicode="q" horiz-adv-x="1170" 
d="M85 510q0 -230 120 -380t320 -150q110 0 187.5 39.5t123.5 104.5v0v-540h186v1468h-168l-8 -137h-6q-40 65 -122.5 111t-192.5 46q-200 0 -320 -150t-120 -380v-32zM275 510v32q0 160 70 269t220 109q100 0 170 -55t101 -125v-428q-31 -70 -101 -125t-170 -55
q-150 0 -220 109t-70 269z" />
    <glyph glyph-name="uni0072" unicode="r" horiz-adv-x="700" 
d="M148 0h186v740q30 70 93 117t153 47q26 0 48 -2t42 -6v172q-10 4 -34 9t-46 5q-90 0 -155 -49.5t-105 -115.5h-6l-8 135h-168v-1052z" />
    <glyph glyph-name="uni0073" unicode="s" horiz-adv-x="1010" 
d="M80 310v-5q0 -152 110 -243.5t320 -91.5t315 90t105 230t-92.5 215t-262.5 115t-228 75t-58 95t50.5 100t160.5 40t162.5 -43t52.5 -118v-9h185v5q0 146 -110 231.5t-290 85.5t-287.5 -86t-107.5 -216t100 -202.5t270 -112.5t221 -77.5t51 -107.5t-63.5 -114t-173.5 -44
t-177 46t-67 137v5h-186z" />
    <glyph glyph-name="uni0074" unicode="t" horiz-adv-x="650" 
d="M0 910h600v142h-600v-142zM188 260q0 -150 68.5 -220t183.5 -70q50 0 92 9t68 21v152q-28 -10 -55 -16t-55 -6q-60 0 -88 30t-28 100v1052h-186v-316v-30v-706z" />
    <glyph glyph-name="uni0075" unicode="u" horiz-adv-x="1138" 
d="M138 373q0 -212 94.5 -302.5t253.5 -90.5q100 0 182.5 41.5t139.5 113.5h6l8 -135h168v1052h-186v-744q-38 -76 -106 -124t-157 -48q-104 0 -160.5 54.5t-56.5 180.5v681h-186v-679z" />
    <glyph glyph-name="uni0076" unicode="v" horiz-adv-x="942" 
d="M0 1052l400 -1052h142l400 1052h-176l-252 -702q-14 -40 -23.5 -75t-13.5 -55h-6q-4 20 -13.5 55t-23.5 75l-254 702h-180z" />
    <glyph glyph-name="uni0077" unicode="w" horiz-adv-x="1546" 
d="M25 1052l325 -1052h145l229 680q13 40 24.5 80t21.5 80h6q10 -40 21.5 -80t24.5 -80l229 -680h145l325 1052h-170l-188 -692q-11 -40 -16.5 -65t-13.5 -65h-6q-8 40 -14.5 65t-20.5 65l-236 692h-156l-229 -692q-13 -40 -19.5 -65t-14.5 -65h-6q-8 40 -14.5 65t-17.5 65
l-194 692h-180z" />
    <glyph glyph-name="uni0078" unicode="x" horiz-adv-x="978" 
d="M20 0h210l317 484h11l380 568h-210l-297 -470h-11zM40 1052l380 -568h8l317 -484h213l-400 582h-8l-297 470h-213z" />
    <glyph glyph-name="uni0079" unicode="y" horiz-adv-x="942" 
d="M50 -416q28 -10 59 -15t71 -5q120 0 202.5 78t132.5 218l427 1192h-176l-232 -692q-13 -40 -24.5 -75t-20.5 -65h-6q-8 30 -19 65t-25 75l-249 692h-180l392 -1047v-1q-58 -175 -110 -227.5t-122 -52.5q-30 0 -62 5t-58 13v-158z" />
    <glyph glyph-name="uni007A" unicode="z" horiz-adv-x="992" 
d="M70 0h858v152h-636l606 767v133h-820v-152h596l-604 -764v-136z" />
    <glyph glyph-name="uni007B" unicode="{" horiz-adv-x="700" 
d="M670 -312v146q-148 0 -217.5 84t-40.5 205l50 211q20 84 -16 149t-134 91q98 26 134 91t16 149l-50 211q-29 121 40.5 205t217.5 84v146q-226 0 -353.5 -140t-90.5 -295l50 -211q25 -107 -37.5 -140.5t-174.5 -33.5v-132q112 0 174.5 -33.5t37.5 -140.5l-50 -211
q-37 -155 90.5 -295t353.5 -140z" />
    <glyph glyph-name="uni007C" unicode="|" horiz-adv-x="592" 
d="M210 -416h172v1952h-172v-1952z" />
    <glyph glyph-name="uni007D" unicode="}" horiz-adv-x="700" 
d="M30 -312q226 0 353.5 140t90.5 295l-50 211q-25 107 37.5 140.5t174.5 33.5v132q-112 0 -174.5 33.5t-37.5 140.5l50 211q37 155 -90.5 295t-353.5 140v-146q148 0 217.5 -84t40.5 -205l-50 -211q-20 -84 16 -149t134 -91q-98 -26 -134 -91t-16 -149l50 -211
q29 -121 -40.5 -205t-217.5 -84v-146z" />
    <glyph glyph-name="uni007E" unicode="~" 
d="M45 532q47 60 113 93.5t131 33.5q79 0 125.5 -21t109.5 -52q59 -30 101.5 -49.5t116.5 -19.5q65 0 127 29t109 80v203q-47 -60 -109.5 -94t-127.5 -34q-74 0 -116.5 19.5t-101.5 49.5q-63 31 -109 52.5t-125 20.5q-65 -1 -131 -29.5t-113 -79.5v-202z" />
    <glyph glyph-name="uni00A1" unicode="&#xa1;" horiz-adv-x="620" 
d="M434 1053q0 49 -32 84t-92 35t-92 -35t-32 -84t32 -84t92 -35t92 35t32 84zM392 740h-164l-15 -1046h194z" />
    <glyph glyph-name="uni00A2" unicode="&#xa2;" 
d="M547 282q-143 0 -219.5 100.5t-76.5 287.5v42q0 187 76.5 287.5t219.5 100.5q115 0 181 -62t74 -178h176q-8 189 -119.5 290.5t-311.5 101.5q-232 0 -357 -140t-125 -400v-42q0 -260 125 -400t357 -140q198 0 309.5 94t121.5 268h-176q-8 -101 -74 -155.5t-181 -54.5z
M469 0h150v200l-5 10v498h-140v-497l-5 -14v-197zM474 708h140v471l5 13v210h-150v-210l5 -10v-474z" />
    <glyph glyph-name="uni00A3" unicode="&#xa3;" 
d="M1028 0v166h-706q70 41 97.5 123.5t14.5 218.5l-51 531q-14 146 44.5 208t155.5 62q92 0 150.5 -45.5t58.5 -160.5v-16h192v16q0 167 -106.5 270t-296.5 103q-201 0 -302.5 -124t-83.5 -313l55 -572q14 -143 -26 -225t-132 -82h-56v-160h992zM824 625v155h-772v-155h772z
" />
    <glyph glyph-name="uni00A4" unicode="&#xa4;" horiz-adv-x="1158" 
d="M261 712q0 143 92 240t223 97q130 0 221.5 -97t91.5 -240q0 -145 -91.5 -242t-221.5 -97q-131 0 -223 97t-92 242zM78 718q0 -214 148 -361.5t349 -147.5t349 147.5t148 361.5q0 215 -148 361t-349 146t-349 -146t-148 -361zM1119 1176l-122 127l-202 -206l122 -127z
M335 354l-121 125l-202 -205l121 -126zM1023 155l123 127l-202 205l-123 -126zM231 984l121 126l-202 206l-121 -126z" />
    <glyph glyph-name="uni00A5" unicode="&#xa5;" 
d="M43 303h946v159h-946v-159zM43 628h946v160h-370l-48 -119h-109l-53 119h-366v-160zM420 0h184v548l455 908h-201l-280 -607q-14 -30 -29.5 -72t-24.5 -98h-20q-7 37 -23.5 88.5t-30.5 81.5l-276 607h-209l455 -908v-548z" />
    <glyph glyph-name="uni00A6" unicode="&#xa6;" horiz-adv-x="592" 
d="M387 -416v775h-182v-775h182zM387 1536h-182v-775h182v775z" />
    <glyph glyph-name="uni00A7" unicode="&#xa7;" horiz-adv-x="1256" 
d="M691 133q179 0 311.5 91t132.5 254q0 174 -133.5 267.5t-317.5 151.5q-200 64 -261.5 108t-61.5 135q0 99 61 148t201 49q121 0 186.5 -68.5t64.5 -168.5h165q1 194 -111 293t-305 98q-202 -1 -314.5 -93.5t-112.5 -268.5q0 -180 108.5 -257.5t301.5 -137.5
q181 -62 264.5 -120t83.5 -151q0 -87 -76.5 -149t-186.5 -62v-119zM537 894q-162 0 -290 -83.5t-128 -233.5q0 -157 118 -256t303 -160q202 -67 273 -131.5t71 -165.5q0 -108 -84 -163.5t-201 -55.5q-106 0 -205 62.5t-99 222.5l-164 -2q0 -231 136.5 -334t331.5 -103
t322 105.5t127 290.5q0 179 -118 272t-294 158q-189 70 -262 120t-73 130q0 82 62 135.5t173 53.5z" />
    <glyph glyph-name="uni00A8" unicode="&#xa8;" 
d="M187 1324q0 -43 28 -73.5t81 -30.5q54 0 82 30.5t28 73.5q0 45 -28 76t-82 31q-53 0 -81 -31t-28 -76zM618 1324q0 -43 27.5 -73.5t81.5 -30.5q53 0 81.5 30.5t28.5 73.5q0 45 -28.5 76t-81.5 31q-54 0 -81.5 -31t-27.5 -76z" />
    <glyph glyph-name="uni00A9" unicode="&#xa9;" horiz-adv-x="1654" 
d="M1030 546q0 -89 -46.5 -136.5t-145.5 -47.5q-107 0 -166.5 68.5t-59.5 190.5v126q0 121 55 190t162 69q99 0 150.5 -44.5t51.5 -132.5h182q0 154 -98 247.5t-285 93.5t-299 -119.5t-112 -347.5v-39q0 -227 111.5 -343t282.5 -116q164 0 281.5 85t117.5 256h-182zM186 687
q0 288 188.5 484t453.5 196q264 0 452.5 -196t188.5 -484q0 -287 -188.5 -485t-452.5 -198q-265 0 -453.5 198t-188.5 485zM38 687q0 -350 231.5 -592t557.5 -242q325 0 557 242t232 592q0 352 -232 592t-557 240q-326 0 -557.5 -240t-231.5 -592z" />
    <glyph glyph-name="uni00AA" unicode="&#xaa;" horiz-adv-x="916" 
d="M606 862v340q0 74 -36.5 109t-103.5 35q-71 0 -108.5 -27t-37.5 -72v-13h-155v27q0 95 86 155.5t213 60.5q135 0 214.5 -69.5t79.5 -206.5v-314q0 -49 6 -93.5t20 -87.5h-135q-23 30 -33 72.5t-10 83.5zM635 1149v-107h-157q-90 0 -135 -36.5t-45 -83.5q0 -43 32 -71.5
t96 -28.5t130.5 44.5t66.5 82.5l18 -112q-22 -49 -87.5 -97t-166.5 -48q-119 0 -182.5 62t-63.5 164q0 110 83.5 170.5t252.5 60.5h158z" />
    <glyph glyph-name="uni00AC" unicode="&#xac;" 
d="M928 801h-870v-164h692v-261h178v425z" />
    <glyph glyph-name="uni00AD" unicode="&#xad;" horiz-adv-x="0" 
 />
    <glyph glyph-name="uni00AE" unicode="&#xae;" horiz-adv-x="1654" 
d="M38 687q0 -350 231.5 -592t557.5 -242q325 0 557 242t232 592q0 352 -232 592t-557 240q-326 0 -557.5 -240t-231.5 -592zM186 687q0 288 188.5 484t453.5 196q264 0 452.5 -196t188.5 -484q0 -287 -188.5 -485t-452.5 -198q-265 0 -453.5 198t-188.5 485zM855 597
l187 -372h179v18l-169 287q-17 29 -29.5 47t-43.5 41q109 22 163.5 84t54.5 175q0 141 -102 211t-274 70h-322v-933h165v372h191zM822 1007q118 -1 156 -34t38 -114q0 -64 -48 -92.5t-121 -28.5h-183v269h158z" />
    <glyph glyph-name="uni00AF" unicode="&#xaf;" 
d="M826 1372h-628v-152h628v152z" />
    <glyph glyph-name="uni00B0" unicode="&#xb0;" horiz-adv-x="765" 
d="M131 1217q0 -107 75.5 -182t179.5 -75q103 0 177 75t74 182q0 106 -74 183t-177 77q-104 0 -179.5 -77t-75.5 -183zM255 1217q0 56 38.5 94t92.5 38t90.5 -38t36.5 -94q0 -55 -36.5 -92t-90.5 -37t-92.5 37t-38.5 92z" />
    <glyph glyph-name="uni00B1" unicode="&#xb1;" 
d="M57 611h910v164h-910v-164zM422 248h180v912h-180v-912zM57 1h910v164h-910v-164z" />
    <glyph glyph-name="uni00B2" unicode="&#xb2;" horiz-adv-x="751" 
d="M85 697h598v148h-360l145 126q88 77 136 138.5t48 141.5q0 108 -76 172t-210 64q-142 0 -221 -79t-78 -210h168q-1 75 34.5 112t100.5 37q59 0 85 -25t26 -73q0 -33 -20 -77.5t-88 -105.5l-288 -261v-108z" />
    <glyph glyph-name="uni00B3" unicode="&#xb3;" horiz-adv-x="751" 
d="M63 920q0 -118 82.5 -176t215.5 -58q130 0 218 60.5t88 170.5q0 66 -33 112t-101 69q60 22 91.5 68t31.5 97q0 109 -83 166.5t-213 57.5q-119 0 -202.5 -65t-83.5 -166h157q0 43 37.5 68t94.5 25q69 0 96 -25t27 -69q0 -48 -32 -76t-104 -28h-84v-122h84q73 -1 111 -26
t38 -78q0 -49 -32 -75t-101 -26q-66 0 -106 25.5t-40 70.5h-157z" />
    <glyph glyph-name="uni00B4" unicode="&#xb4;" 
d="M355 1306l95 -86l299 275l-153 105z" />
    <glyph glyph-name="uni00B5" unicode="&#xb5;" horiz-adv-x="1198" 
d="M242 1052l-284 -1468h186l88 458q29 -27 66.5 -44.5t83.5 -17.5q100 0 190.5 41.5t161.5 113.5h6l-18 -135h168l204 1052h-186l-144 -744q-53 -76 -130.5 -124t-166.5 -48q-104 0 -150 54.5t-21 180.5l132 681h-186z" />
    <glyph glyph-name="uni00B6" unicode="&#xb6;" horiz-adv-x="1261" 
d="M733 -146v1602h-273q-195 0 -299.5 -109t-104.5 -271q0 -164 104.5 -272t299.5 -108h87v-842h186zM875 1459v-1605h186v1605h-186z" />
    <glyph glyph-name="uni00B7" unicode="&#xb7;" horiz-adv-x="600" 
d="M176 749q0 -49 32 -84t92 -35t92 35t32 84t-32 84t-92 35t-92 -35t-32 -84z" />
    <glyph glyph-name="uni00B8" unicode="&#xb8;" 
d="M440 20l-41 -177q84 -7 113.5 -25.5t29.5 -67.5q0 -53 -39.5 -76.5t-161.5 -23.5l7 -107q202 0 289 58t87 151q0 87 -63 125t-120 48l28 95h-129z" />
    <glyph glyph-name="uni00B9" unicode="&#xb9;" horiz-adv-x="751" 
d="M123 1211l216 77v-591h162v789h-44l-334 -116v-159z" />
    <glyph glyph-name="uni00BA" unicode="&#xba;" horiz-adv-x="932" 
d="M123 1043q0 -154 93 -253t251 -99q157 0 248.5 99t91.5 253v81q0 154 -92 253.5t-250 99.5q-157 0 -249.5 -99.5t-92.5 -253.5v-81zM286 1124q0 89 44.5 150.5t134.5 61.5t135 -61.5t45 -150.5v-81q0 -91 -44.5 -152t-133.5 -61q-92 0 -136.5 61t-44.5 152v81z" />
    <glyph glyph-name="uni00BC" unicode="&#xbc;" horiz-adv-x="1536" 
d="M123 1211l216 77v-591h162v789h-44l-334 -116v-159zM1351 1417l-125 87l-921 -1460l125 -87zM861 183h639v130h-488l187 260l157 226h-124l-378 -514zM1392 799h-157v-799h157v799z" />
    <glyph glyph-name="uni00BD" unicode="&#xbd;" horiz-adv-x="1536" 
d="M123 1211l216 77v-591h162v789h-44l-334 -116v-159zM1259 1417l-125 87l-921 -1460l125 -87zM896 0h598v148h-360l145 126q88 77 136 138.5t48 141.5q0 108 -76 172t-210 64q-142 0 -221 -79t-78 -210h168q-1 75 34.5 112t100.5 37q59 0 85 -25t26 -73q0 -33 -20 -77.5
t-88 -105.5l-288 -261v-108z" />
    <glyph glyph-name="uni00BE" unicode="&#xbe;" horiz-adv-x="1536" 
d="M63 920q0 -118 82.5 -176t215.5 -58q130 0 218 60.5t88 170.5q0 66 -33 112t-101 69q60 22 91.5 68t31.5 97q0 109 -83 166.5t-213 57.5q-119 0 -202.5 -65t-83.5 -166h157q0 43 37.5 68t94.5 25q69 0 96 -25t27 -69q0 -48 -32 -76t-104 -28h-84v-122h84q73 -1 111 -26
t38 -78q0 -49 -32 -75t-101 -26q-66 0 -106 25.5t-40 70.5h-157zM1351 1417l-125 87l-921 -1460l125 -87zM861 183h639v130h-488l187 260l157 226h-124l-378 -514zM1392 799h-157v-799h157v799z" />
    <glyph glyph-name="uni00BF" unicode="&#xbf;" horiz-adv-x="968" 
d="M648 1051q0 49 -32 84t-92 35t-92 -35t-32 -84t32 -84t92 -35t92 35t32 84zM908 53h-185v-20q0 -95 -57.5 -147t-167.5 -52t-164 57t-54 157t52 168t134 149q96 94 128 166t32 197v10h-186v-10q0 -70 -20.5 -133.5t-105.5 -140.5q-72 -64 -146 -168t-74 -238
q0 -170 107 -273t297 -103t300 98t110 263v20z" />
    <glyph glyph-name="uni00C0" unicode="&#xc0;" horiz-adv-x="1280" 
d="M0 0h192l404 1100q12 33 21 64t16 64h10q7 -33 16 -64t21 -64l400 -1100h200l-554 1466h-172zM238 380h801l-58 158h-684zM596 1601l112 75l-192 299l-157 -98z" />
    <glyph glyph-name="uni00C1" unicode="&#xc1;" horiz-adv-x="1280" 
d="M0 0h192l404 1100q12 33 21 64t16 64h10q7 -33 16 -64t21 -64l400 -1100h200l-554 1466h-172zM238 380h801l-58 158h-684zM524 1659l127 -59l248 299l-162 99z" />
    <glyph glyph-name="uni00C2" unicode="&#xc2;" horiz-adv-x="1280" 
d="M0 0h192l404 1100q12 33 21 64t16 64h10q7 -33 16 -64t21 -64l400 -1100h200l-554 1466h-172zM238 380h801l-58 158h-684zM701 1975h-144l-257 -340h173l160 182l166 -184l167 2z" />
    <glyph glyph-name="uni00C3" unicode="&#xc3;" horiz-adv-x="1280" 
d="M0 0h192l404 1100q12 33 21 64t16 64h10q7 -33 16 -64t21 -64l400 -1100h200l-554 1466h-172zM238 380h801l-58 158h-684zM233 1710l75 -85q20 30 69 69.5t102 39.5q33 0 74.5 -19t77.5 -44q32 -22 85.5 -46.5t106.5 -24.5q63 0 132.5 44.5t111.5 126.5l-68 85
q-26 -39 -68.5 -67.5t-88.5 -28.5q-47 0 -95.5 28t-78.5 46q-42 28 -83 43t-87 15q-77 0 -152.5 -56.5t-112.5 -125.5z" />
    <glyph glyph-name="uni00C4" unicode="&#xc4;" horiz-adv-x="1280" 
d="M0 0h192l404 1100q12 33 21 64t16 64h10q7 -33 16 -64t21 -64l400 -1100h200l-554 1466h-172zM238 380h801l-58 158h-684zM294 1787q0 -51 31.5 -82t84.5 -31q57 0 86.5 29.5t29.5 83.5q0 51 -31.5 82.5t-84.5 31.5q-56 0 -86 -29.5t-30 -84.5zM754 1787q0 -51 31.5 -82
t84.5 -31q57 0 86.5 29.5t29.5 83.5q0 51 -31.5 82.5t-84.5 31.5q-56 0 -86 -29.5t-30 -84.5z" />
    <glyph glyph-name="uni00C5" unicode="&#xc5;" horiz-adv-x="1280" 
d="M0 0h192l404 1100q12 33 21 64t16 64h10q7 -33 16 -64t21 -64l400 -1100h200l-554 1466h-172zM238 380h801l-58 158h-684zM401 1829q0 -100 67.5 -164.5t171.5 -64.5t171.5 64.5t67.5 164.5t-67.5 164.5t-171.5 64.5t-171.5 -64.5t-67.5 -164.5zM527 1829q0 55 29 84
t84 29q52 0 82.5 -31t30.5 -82q0 -55 -29 -84t-84 -29q-52 0 -82.5 31t-30.5 82z" />
    <glyph glyph-name="uni00C6" unicode="&#xc6;" horiz-adv-x="1914" 
d="M302 353h733v175h-633zM-15 0h227l718 1238v-1238h916v158h-724v514h622v158h-622v468h714v158h-970z" />
    <glyph glyph-name="uni00C7" unicode="&#xc7;" horiz-adv-x="1359" 
d="M115 682q0 -336 172.5 -524t432.5 -188t397 143t157 343l1 10h-192l-1 -10q-14 -136 -102 -229t-260 -93q-180 0 -295.5 146t-115.5 402v92q0 278 116 413t295 135q183 0 273 -91.5t90 -230.5v-10h192v10q0 201 -147.5 343.5t-407.5 142.5t-432.5 -188t-172.5 -524v-92z
M628 20l-41 -217q84 -7 118.5 -25.5t34.5 -67.5q0 -53 -61.5 -72.5t-169.5 -18.5l7 -136q202 0 314 63t112 166q0 77 -62 123t-141 60l28 125h-139z" />
    <glyph glyph-name="uni00C8" unicode="&#xc8;" horiz-adv-x="1162" 
d="M170 0h924v158h-732v514h630v158h-630v468h722v158h-914v-1456zM590 1601l112 75l-192 299l-157 -98z" />
    <glyph glyph-name="uni00C9" unicode="&#xc9;" horiz-adv-x="1162" 
d="M170 0h924v158h-732v514h630v158h-630v468h722v158h-914v-1456zM518 1659l127 -59l248 299l-162 99z" />
    <glyph glyph-name="uni00CA" unicode="&#xca;" horiz-adv-x="1162" 
d="M170 0h924v158h-732v514h630v158h-630v468h722v158h-914v-1456zM695 1975h-144l-257 -340h173l160 182l166 -184l167 2z" />
    <glyph glyph-name="uni00CB" unicode="&#xcb;" horiz-adv-x="1162" 
d="M170 0h924v158h-732v514h630v158h-630v468h722v158h-914v-1456zM288 1787q0 -51 31.5 -82t84.5 -31q57 0 86.5 29.5t29.5 83.5q0 51 -31.5 82.5t-84.5 31.5q-56 0 -86 -29.5t-30 -84.5zM748 1787q0 -51 31.5 -82t84.5 -31q57 0 86.5 29.5t29.5 83.5q0 51 -31.5 82.5
t-84.5 31.5q-56 0 -86 -29.5t-30 -84.5z" />
    <glyph glyph-name="uni00CC" unicode="&#xcc;" horiz-adv-x="542" 
d="M175 0h192v1456h-192v-1456zM227 1601l112 75l-192 299l-157 -98z" />
    <glyph glyph-name="uni00CD" unicode="&#xcd;" horiz-adv-x="542" 
d="M175 0h192v1456h-192v-1456zM155 1659l127 -59l248 299l-162 99z" />
    <glyph glyph-name="uni00CE" unicode="&#xce;" horiz-adv-x="542" 
d="M175 0h192v1456h-192v-1456zM332 1975h-144l-257 -340h173l160 182l166 -184l167 2z" />
    <glyph glyph-name="uni00CF" unicode="&#xcf;" horiz-adv-x="542" 
d="M175 0h192v1456h-192v-1456zM-75 1787q0 -51 31.5 -82t84.5 -31q57 0 86.5 29.5t29.5 83.5q0 51 -31.5 82.5t-84.5 31.5q-56 0 -86 -29.5t-30 -84.5zM385 1787q0 -51 31.5 -82t84.5 -31q57 0 86.5 29.5t29.5 83.5q0 51 -31.5 82.5t-84.5 31.5q-56 0 -86 -29.5t-30 -84.5z
" />
    <glyph glyph-name="uni00D0" unicode="&#xd0;" horiz-adv-x="1370" 
d="M170 0h432q280 0 466.5 185t186.5 497v92q0 312 -186.5 497t-466.5 185h-432v-1456zM362 158v1140h240q210 0 334.5 -139t124.5 -385v-92q0 -246 -124.5 -385t-334.5 -139h-240zM20 626h605v166h-605v-166z" />
    <glyph glyph-name="uni00D1" unicode="&#xd1;" horiz-adv-x="1460" 
d="M170 0h188v1000q0 30 -0.5 67.5t-1.5 67.5h7q14 -25 31 -55t37 -60l659 -1020h200v1456h-188v-1000q0 -30 0.5 -67.5t1.5 -67.5h-8q-12 25 -29.5 55t-37.5 60l-659 1020h-200v-1456zM323 1710l75 -85q20 30 69 69.5t102 39.5q33 0 74.5 -19t77.5 -44q32 -22 85.5 -46.5
t106.5 -24.5q63 0 132.5 44.5t111.5 126.5l-68 85q-26 -39 -68.5 -67.5t-88.5 -28.5q-47 0 -95.5 28t-78.5 46q-42 28 -83 43t-87 15q-77 0 -152.5 -56.5t-112.5 -125.5z" />
    <glyph glyph-name="uni00D2" unicode="&#xd2;" horiz-adv-x="1460" 
d="M115 682q0 -336 172.5 -524t442.5 -188t442.5 188t172.5 524v92q0 336 -172.5 524t-442.5 188t-442.5 -188t-172.5 -524v-92zM309 682v92q0 256 115.5 402t305.5 146t305.5 -146t115.5 -402v-92q0 -256 -115.5 -402t-305.5 -146t-305.5 146t-115.5 402zM686 1601l112 75
l-192 299l-157 -98z" />
    <glyph glyph-name="uni00D3" unicode="&#xd3;" horiz-adv-x="1460" 
d="M115 682q0 -336 172.5 -524t442.5 -188t442.5 188t172.5 524v92q0 336 -172.5 524t-442.5 188t-442.5 -188t-172.5 -524v-92zM309 682v92q0 256 115.5 402t305.5 146t305.5 -146t115.5 -402v-92q0 -256 -115.5 -402t-305.5 -146t-305.5 146t-115.5 402zM614 1659l127 -59
l248 299l-162 99z" />
    <glyph glyph-name="uni00D4" unicode="&#xd4;" horiz-adv-x="1460" 
d="M115 682q0 -336 172.5 -524t442.5 -188t442.5 188t172.5 524v92q0 336 -172.5 524t-442.5 188t-442.5 -188t-172.5 -524v-92zM309 682v92q0 256 115.5 402t305.5 146t305.5 -146t115.5 -402v-92q0 -256 -115.5 -402t-305.5 -146t-305.5 146t-115.5 402zM791 1975h-144
l-257 -340h173l160 182l166 -184l167 2z" />
    <glyph glyph-name="uni00D5" unicode="&#xd5;" horiz-adv-x="1460" 
d="M115 682q0 -336 172.5 -524t442.5 -188t442.5 188t172.5 524v92q0 336 -172.5 524t-442.5 188t-442.5 -188t-172.5 -524v-92zM309 682v92q0 256 115.5 402t305.5 146t305.5 -146t115.5 -402v-92q0 -256 -115.5 -402t-305.5 -146t-305.5 146t-115.5 402zM323 1710l75 -85
q20 30 69 69.5t102 39.5q33 0 74.5 -19t77.5 -44q32 -22 85.5 -46.5t106.5 -24.5q63 0 132.5 44.5t111.5 126.5l-68 85q-26 -39 -68.5 -67.5t-88.5 -28.5q-47 0 -95.5 28t-78.5 46q-42 28 -83 43t-87 15q-77 0 -152.5 -56.5t-112.5 -125.5z" />
    <glyph glyph-name="uni00D6" unicode="&#xd6;" horiz-adv-x="1460" 
d="M115 682q0 -336 172.5 -524t442.5 -188t442.5 188t172.5 524v92q0 336 -172.5 524t-442.5 188t-442.5 -188t-172.5 -524v-92zM309 682v92q0 256 115.5 402t305.5 146t305.5 -146t115.5 -402v-92q0 -256 -115.5 -402t-305.5 -146t-305.5 146t-115.5 402zM384 1787
q0 -51 31.5 -82t84.5 -31q57 0 86.5 29.5t29.5 83.5q0 51 -31.5 82.5t-84.5 31.5q-56 0 -86 -29.5t-30 -84.5zM844 1787q0 -51 31.5 -82t84.5 -31q57 0 86.5 29.5t29.5 83.5q0 51 -31.5 82.5t-84.5 31.5q-56 0 -86 -29.5t-30 -84.5z" />
    <glyph glyph-name="uni00D7" unicode="&#xd7;" 
d="M190 237l738 754l-108 113l-738 -755zM812 237l119 123l-727 744l-119 -124z" />
    <glyph glyph-name="uni00D8" unicode="&#xd8;" horiz-adv-x="1460" 
d="M115 682q0 -336 172.5 -524t442.5 -188t442.5 188t172.5 524v92q0 336 -172.5 524t-442.5 188t-442.5 -188t-172.5 -524v-92zM309 682v92q0 256 115.5 402t305.5 146t305.5 -146t115.5 -402v-92q0 -256 -115.5 -402t-305.5 -146t-305.5 146t-115.5 402zM420 -135h170
l43 159l-20 4l193 749l-108 68l-206 -790l-18 5zM869 1592l-43 -158l20 -5l-148 -584l108 -68l160 625l21 -4l53 194h-171z" />
    <glyph glyph-name="uni00D9" unicode="&#xd9;" horiz-adv-x="1364" 
d="M155 470q0 -250 153.5 -375t373.5 -125t373.5 125t153.5 375v986h-192v-986q0 -170 -92.5 -253t-242.5 -83t-242.5 83t-92.5 253v986h-192v-986zM638 1601l112 75l-192 299l-157 -98z" />
    <glyph glyph-name="uni00DA" unicode="&#xda;" horiz-adv-x="1364" 
d="M155 470q0 -250 153.5 -375t373.5 -125t373.5 125t153.5 375v986h-192v-986q0 -170 -92.5 -253t-242.5 -83t-242.5 83t-92.5 253v986h-192v-986zM566 1659l127 -59l248 299l-162 99z" />
    <glyph glyph-name="uni00DB" unicode="&#xdb;" horiz-adv-x="1364" 
d="M155 470q0 -250 153.5 -375t373.5 -125t373.5 125t153.5 375v986h-192v-986q0 -170 -92.5 -253t-242.5 -83t-242.5 83t-92.5 253v986h-192v-986zM743 1975h-144l-257 -340h173l160 182l166 -184l167 2z" />
    <glyph glyph-name="uni00DC" unicode="&#xdc;" horiz-adv-x="1364" 
d="M155 470q0 -250 153.5 -375t373.5 -125t373.5 125t153.5 375v986h-192v-986q0 -170 -92.5 -253t-242.5 -83t-242.5 83t-92.5 253v986h-192v-986zM336 1787q0 -51 31.5 -82t84.5 -31q57 0 86.5 29.5t29.5 83.5q0 51 -31.5 82.5t-84.5 31.5q-56 0 -86 -29.5t-30 -84.5z
M796 1787q0 -51 31.5 -82t84.5 -31q57 0 86.5 29.5t29.5 83.5q0 51 -31.5 82.5t-84.5 31.5q-56 0 -86 -29.5t-30 -84.5z" />
    <glyph glyph-name="uni00DD" unicode="&#xdd;" horiz-adv-x="1228" 
d="M518 0h192v544l503 912h-208l-332 -616q-16 -30 -29.5 -55t-24.5 -52h-6q-11 27 -24.5 52t-29.5 55l-328 616h-216l503 -912v-544zM498 1659l127 -59l248 299l-162 99z" />
    <glyph glyph-name="uni00DE" unicode="&#xde;" horiz-adv-x="1170" 
d="M170 1456v-1456h185v314h278q235 0 361 113.5t126 310.5t-126 311t-361 114h-278v293h-185zM633 1012q160 0 231 -72t71 -204t-71 -201.5t-231 -69.5h-278v547h278z" />
    <glyph glyph-name="uni00DF" unicode="&#xdf;" horiz-adv-x="1186" 
d="M332 1092q0 149 58 220t161 71q82 0 136.5 -45t54.5 -134q0 -55 -17.5 -96.5t-46.5 -81.5q-32 -44 -73.5 -99.5t-41.5 -129.5q0 -91 86 -159.5t158 -125.5q57 -46 106.5 -93.5t49.5 -116.5q0 -84 -53.5 -127.5t-154.5 -43.5q-95 0 -147.5 40t-52.5 124v9h-163v-26
q0 -149 98.5 -223.5t262.5 -74.5q167 0 276 88.5t109 213.5q0 129 -53.5 203.5t-131.5 133.5q-81 62 -147.5 112.5t-66.5 98.5q0 29 29.5 67t61.5 76q37 43 62 98.5t25 143.5q0 146 -99 232.5t-263 86.5q-199 0 -303 -119.5t-104 -322.5v-1092h184v1092z" />
    <glyph glyph-name="uni00E0" unicode="&#xe0;" horiz-adv-x="1106" 
d="M90 310q0 -160 105 -245t255 -85q130 0 212.5 50t119.5 115q3 -40 14.5 -80t25.5 -65h180v16q-18 44 -28 101.5t-10 122.5v480q0 180 -104.5 271t-294.5 91t-301.5 -93.5t-111.5 -218.5v-5h185v5q0 65 51.5 114.5t171.5 49.5t169 -59.5t49 -154.5v-72h-238
q-196 0 -323 -89t-127 -249zM276 320q0 90 72 143t212 53h218v-151q0 -85 -89 -161t-199 -76t-162 51t-52 141zM619 1219l105 79l-251 301l-153 -105z" />
    <glyph glyph-name="uni00E1" unicode="&#xe1;" horiz-adv-x="1106" 
d="M90 310q0 -160 105 -245t255 -85q130 0 212.5 50t119.5 115q3 -40 14.5 -80t25.5 -65h180v16q-18 44 -28 101.5t-10 122.5v480q0 180 -104.5 271t-294.5 91t-301.5 -93.5t-111.5 -218.5v-5h185v5q0 65 51.5 114.5t171.5 49.5t169 -59.5t49 -154.5v-72h-238
q-196 0 -323 -89t-127 -249zM276 320q0 90 72 143t212 53h218v-151q0 -85 -89 -161t-199 -76t-162 51t-52 141zM396 1306l95 -86l299 275l-153 105z" />
    <glyph glyph-name="uni00E2" unicode="&#xe2;" horiz-adv-x="1106" 
d="M90 310q0 -160 105 -245t255 -85q130 0 212.5 50t119.5 115q3 -40 14.5 -80t25.5 -65h180v16q-18 44 -28 101.5t-10 122.5v480q0 180 -104.5 271t-294.5 91t-301.5 -93.5t-111.5 -218.5v-5h185v5q0 65 51.5 114.5t171.5 49.5t169 -59.5t49 -154.5v-72h-238
q-196 0 -323 -89t-127 -249zM276 320q0 90 72 143t212 53h218v-151q0 -85 -89 -161t-199 -76t-162 51t-52 141zM609 1533h-112l-245 -313h152l149 159l150 -159h154z" />
    <glyph glyph-name="uni00E3" unicode="&#xe3;" horiz-adv-x="1106" 
d="M90 310q0 -160 105 -245t255 -85q130 0 212.5 50t119.5 115q3 -40 14.5 -80t25.5 -65h180v16q-18 44 -28 101.5t-10 122.5v480q0 180 -104.5 271t-294.5 91t-301.5 -93.5t-111.5 -218.5v-5h185v5q0 65 51.5 114.5t171.5 49.5t169 -59.5t49 -154.5v-72h-238
q-196 0 -323 -89t-127 -249zM276 320q0 90 72 143t212 53h218v-151q0 -85 -89 -161t-199 -76t-162 51t-52 141zM197 1326l76 -92q18 27 58.5 63t87.5 36q29 0 63 -17t68 -36q31 -17 78 -38.5t96 -21.5q57 0 123.5 36t104.5 107l-81 98q-23 -36 -58 -62.5t-75 -26.5
q-38 0 -77 22t-73 44q-37 24 -74.5 36.5t-78.5 12.5q-67 0 -136 -49t-102 -112z" />
    <glyph glyph-name="uni00E4" unicode="&#xe4;" horiz-adv-x="1106" 
d="M90 310q0 -160 105 -245t255 -85q130 0 212.5 50t119.5 115q3 -40 14.5 -80t25.5 -65h180v16q-18 44 -28 101.5t-10 122.5v480q0 180 -104.5 271t-294.5 91t-301.5 -93.5t-111.5 -218.5v-5h185v5q0 65 51.5 114.5t171.5 49.5t169 -59.5t49 -154.5v-72h-238
q-196 0 -323 -89t-127 -249zM276 320q0 90 72 143t212 53h218v-151q0 -85 -89 -161t-199 -76t-162 51t-52 141zM228 1324q0 -43 28 -73.5t81 -30.5q54 0 82 30.5t28 73.5q0 45 -28 76t-82 31q-53 0 -81 -31t-28 -76zM659 1324q0 -43 27.5 -73.5t81.5 -30.5q53 0 81.5 30.5
t28.5 73.5q0 45 -28.5 76t-81.5 31q-54 0 -81.5 -31t-27.5 -76z" />
    <glyph glyph-name="uni00E5" unicode="&#xe5;" horiz-adv-x="1106" 
d="M90 310q0 -160 105 -245t255 -85q130 0 212.5 50t119.5 115q3 -40 14.5 -80t25.5 -65h180v16q-18 44 -28 101.5t-10 122.5v480q0 180 -104.5 271t-294.5 91t-301.5 -93.5t-111.5 -218.5v-5h185v5q0 65 51.5 114.5t171.5 49.5t169 -59.5t49 -154.5v-72h-238
q-196 0 -323 -89t-127 -249zM276 320q0 90 72 143t212 53h218v-151q0 -85 -89 -161t-199 -76t-162 51t-52 141zM327 1434q0 -91 65 -152.5t161 -61.5q94 0 160 61.5t66 152.5q0 90 -66 154t-160 64q-96 0 -161 -64t-65 -154zM437 1434q0 46 32.5 82t83.5 36t83.5 -36
t32.5 -82t-32.5 -80.5t-83.5 -34.5t-83.5 35.5t-32.5 79.5z" />
    <glyph glyph-name="uni00E6" unicode="&#xe6;" horiz-adv-x="1772" 
d="M276 320q0 90 72 143t212 53h218v-151q0 -85 -89 -161t-199 -76t-162 51t-52 141zM90 300q0 -150 105 -235t255 -85q152 0 252 59.5t141 173.5q54 -123 170 -183t262 -60q150 0 254.5 65t154.5 140l-120 95q-45 -60 -117 -104t-172 -44q-162 0 -239 112.5t-77 275.5v32
q0 163 73 275.5t210 112.5q133 0 197.5 -80t65.5 -194l-1 -24h-621v-148h809v76q0 240 -116 381t-331 141q-146 0 -230 -66t-104 -144q-10 77 -96 143.5t-250 66.5q-190 0 -301.5 -93.5t-111.5 -218.5v-5h185v5q0 65 51.5 114.5t171.5 49.5t169 -59.5t49 -154.5v-72h-238
q-196 0 -323 -89t-127 -259z" />
    <glyph glyph-name="uni00E7" unicode="&#xe7;" horiz-adv-x="1068" 
d="M85 510q0 -238 129.5 -389t356.5 -151q210 0 319 113.5t109 253.5v5h-180v-5q0 -85 -59 -150t-189 -65q-152 0 -224 112.5t-72 275.5v32q0 163 72 275.5t224 112.5q130 0 189 -65t59 -150v-5h180v5q0 140 -109 253.5t-319 113.5q-227 0 -356.5 -151t-129.5 -389v-32z
M499 20l-41 -177q84 -7 113.5 -25.5t29.5 -67.5q0 -53 -39.5 -76.5t-161.5 -23.5l7 -107q202 0 289 58t87 151q0 87 -63 125t-120 48l28 95h-129z" />
    <glyph glyph-name="uni00E8" unicode="&#xe8;" horiz-adv-x="1088" 
d="M85 510q0 -238 130.5 -389t375.5 -151q150 0 254.5 65t154.5 140l-120 95q-45 -60 -117 -104t-172 -44q-162 0 -239 112.5t-77 275.5v32q0 163 73 275.5t221 112.5q122 0 187 -80t65 -194v-24h-622v-148h809v76q0 240 -116 381t-331 141t-345.5 -151t-130.5 -389v-32z
M626 1219l105 79l-251 301l-153 -105z" />
    <glyph glyph-name="uni00E9" unicode="&#xe9;" horiz-adv-x="1088" 
d="M85 510q0 -238 130.5 -389t375.5 -151q150 0 254.5 65t154.5 140l-120 95q-45 -60 -117 -104t-172 -44q-162 0 -239 112.5t-77 275.5v32q0 163 73 275.5t221 112.5q122 0 187 -80t65 -194v-24h-622v-148h809v76q0 240 -116 381t-331 141t-345.5 -151t-130.5 -389v-32z
M403 1306l95 -86l299 275l-153 105z" />
    <glyph glyph-name="uni00EA" unicode="&#xea;" horiz-adv-x="1088" 
d="M85 510q0 -238 130.5 -389t375.5 -151q150 0 254.5 65t154.5 140l-120 95q-45 -60 -117 -104t-172 -44q-162 0 -239 112.5t-77 275.5v32q0 163 73 275.5t221 112.5q122 0 187 -80t65 -194v-24h-622v-148h809v76q0 240 -116 381t-331 141t-345.5 -151t-130.5 -389v-32z
M616 1533h-112l-245 -313h152l149 159l150 -159h154z" />
    <glyph glyph-name="uni00EB" unicode="&#xeb;" horiz-adv-x="1088" 
d="M85 510q0 -238 130.5 -389t375.5 -151q150 0 254.5 65t154.5 140l-120 95q-45 -60 -117 -104t-172 -44q-162 0 -239 112.5t-77 275.5v32q0 163 73 275.5t221 112.5q122 0 187 -80t65 -194v-24h-622v-148h809v76q0 240 -116 381t-331 141t-345.5 -151t-130.5 -389v-32z
M235 1324q0 -43 28 -73.5t81 -30.5q54 0 82 30.5t28 73.5q0 45 -28 76t-82 31q-53 0 -81 -31t-28 -76zM666 1324q0 -43 27.5 -73.5t81.5 -30.5q53 0 81.5 30.5t28.5 73.5q0 45 -28.5 76t-81.5 31q-54 0 -81.5 -31t-27.5 -76z" />
    <glyph glyph-name="uni00EC" unicode="&#xec;" horiz-adv-x="500" 
d="M157 0h186v1052h-186v-1052zM316 1219l105 79l-251 301l-153 -105z" />
    <glyph glyph-name="uni00ED" unicode="&#xed;" horiz-adv-x="500" 
d="M157 0h186v1052h-186v-1052zM93 1306l95 -86l299 275l-153 105z" />
    <glyph glyph-name="uni00EE" unicode="&#xee;" horiz-adv-x="500" 
d="M157 0h186v1052h-186v-1052zM306 1533h-112l-245 -313h152l149 159l150 -159h154z" />
    <glyph glyph-name="uni00EF" unicode="&#xef;" horiz-adv-x="500" 
d="M157 0h186v1052h-186v-1052zM-75 1324q0 -43 28 -73.5t81 -30.5q54 0 82 30.5t28 73.5q0 45 -28 76t-82 31q-53 0 -81 -31t-28 -76zM356 1324q0 -43 27.5 -73.5t81.5 -30.5q53 0 81.5 30.5t28.5 73.5q0 45 -28.5 76t-81.5 31q-54 0 -81.5 -31t-27.5 -76z" />
    <glyph glyph-name="uni00F0" unicode="&#xf0;" horiz-adv-x="1114" 
d="M214 1421q254 -66 441.5 -251.5t187.5 -534.5v-100q0 -172 -75 -287.5t-203 -115.5q-141 0 -217.5 106.5t-76.5 229.5q0 164 80 261t226 97q143 0 215 -73t72 -139l69 -1q0 135 -115.5 250t-284.5 115q-193 0 -320.5 -140t-127.5 -370q0 -203 133 -345.5t343 -142.5
q202 0 335 154.5t133 400.5v98q0 375 -210.5 624t-547.5 324zM937 1427l-83 119l-537 -365l83 -120z" />
    <glyph glyph-name="uni00F1" unicode="&#xf1;" horiz-adv-x="1138" 
d="M148 0h186v744q38 76 106 124t157 48q104 0 160.5 -54.5t56.5 -180.5v-681h186v679q0 212 -94.5 302.5t-253.5 90.5q-100 0 -182.5 -41.5t-139.5 -113.5h-6l-8 135h-168v-1052zM213 1326l76 -92q18 27 58.5 63t87.5 36q29 0 63 -17t68 -36q31 -17 78 -38.5t96 -21.5
q57 0 123.5 36t104.5 107l-81 98q-23 -36 -58 -62.5t-75 -26.5q-38 0 -77 22t-73 44q-37 24 -74.5 36.5t-78.5 12.5q-67 0 -136 -49t-102 -112z" />
    <glyph glyph-name="uni00F2" unicode="&#xf2;" horiz-adv-x="1162" 
d="M85 510q0 -238 135 -389t361 -151t361 151t135 389v32q0 238 -135 389t-361 151t-361 -151t-135 -389v-32zM275 542q0 163 77 275.5t229 112.5t229 -112.5t77 -275.5v-32q0 -163 -77 -275.5t-229 -112.5t-229 112.5t-77 275.5v32zM647 1219l105 79l-251 301l-153 -105z
" />
    <glyph glyph-name="uni00F3" unicode="&#xf3;" horiz-adv-x="1162" 
d="M85 510q0 -238 135 -389t361 -151t361 151t135 389v32q0 238 -135 389t-361 151t-361 -151t-135 -389v-32zM275 542q0 163 77 275.5t229 112.5t229 -112.5t77 -275.5v-32q0 -163 -77 -275.5t-229 -112.5t-229 112.5t-77 275.5v32zM424 1306l95 -86l299 275l-153 105z" />
    <glyph glyph-name="uni00F4" unicode="&#xf4;" horiz-adv-x="1162" 
d="M85 510q0 -238 135 -389t361 -151t361 151t135 389v32q0 238 -135 389t-361 151t-361 -151t-135 -389v-32zM275 542q0 163 77 275.5t229 112.5t229 -112.5t77 -275.5v-32q0 -163 -77 -275.5t-229 -112.5t-229 112.5t-77 275.5v32zM637 1533h-112l-245 -313h152l149 159
l150 -159h154z" />
    <glyph glyph-name="uni00F5" unicode="&#xf5;" horiz-adv-x="1162" 
d="M85 510q0 -238 135 -389t361 -151t361 151t135 389v32q0 238 -135 389t-361 151t-361 -151t-135 -389v-32zM275 542q0 163 77 275.5t229 112.5t229 -112.5t77 -275.5v-32q0 -163 -77 -275.5t-229 -112.5t-229 112.5t-77 275.5v32zM225 1326l76 -92q18 27 58.5 63t87.5 36
q29 0 63 -17t68 -36q31 -17 78 -38.5t96 -21.5q57 0 123.5 36t104.5 107l-81 98q-23 -36 -58 -62.5t-75 -26.5q-38 0 -77 22t-73 44q-37 24 -74.5 36.5t-78.5 12.5q-67 0 -136 -49t-102 -112z" />
    <glyph glyph-name="uni00F6" unicode="&#xf6;" horiz-adv-x="1162" 
d="M85 510q0 -238 135 -389t361 -151t361 151t135 389v32q0 238 -135 389t-361 151t-361 -151t-135 -389v-32zM275 542q0 163 77 275.5t229 112.5t229 -112.5t77 -275.5v-32q0 -163 -77 -275.5t-229 -112.5t-229 112.5t-77 275.5v32zM256 1324q0 -43 28 -73.5t81 -30.5
q54 0 82 30.5t28 73.5q0 45 -28 76t-82 31q-53 0 -81 -31t-28 -76zM687 1324q0 -43 27.5 -73.5t81.5 -30.5q53 0 81.5 30.5t28.5 73.5q0 45 -28.5 76t-81.5 31q-54 0 -81.5 -31t-27.5 -76z" />
    <glyph glyph-name="uni00F7" unicode="&#xf7;" 
d="M386 1065q0 -51 31.5 -85.5t93.5 -34.5q61 0 93.5 34.5t32.5 85.5q0 53 -32.5 88t-93.5 35q-62 0 -93.5 -35t-31.5 -88zM386 288q0 -51 31.5 -86t93.5 -35q61 0 93.5 35t32.5 86q0 52 -32.5 87.5t-93.5 35.5q-62 0 -93.5 -35.5t-31.5 -87.5zM57 588h910v172h-910v-172z
" />
    <glyph glyph-name="uni00F8" unicode="&#xf8;" horiz-adv-x="1162" 
d="M85 510q0 -238 135 -389t361 -151t361 151t135 389v32q0 238 -135 389t-361 151t-361 -151t-135 -389v-32zM275 542q0 163 77 275.5t229 112.5t229 -112.5t77 -275.5v-32q0 -163 -77 -275.5t-229 -112.5t-229 112.5t-77 275.5v32zM243 -102l165 -5l74 174l-20 4l183 459
l-99 70l-201 -500l-18 5zM749 1160l-64 -157l20 -6l-159 -397l99 -70l176 439l21 -5l78 193z" />
    <glyph glyph-name="uni00F9" unicode="&#xf9;" horiz-adv-x="1138" 
d="M138 373q0 -212 94.5 -302.5t253.5 -90.5q100 0 182.5 41.5t139.5 113.5h6l8 -135h168v1052h-186v-744q-38 -76 -106 -124t-157 -48q-104 0 -160.5 54.5t-56.5 180.5v681h-186v-679zM635 1219l105 79l-251 301l-153 -105z" />
    <glyph glyph-name="uni00FA" unicode="&#xfa;" horiz-adv-x="1138" 
d="M138 373q0 -212 94.5 -302.5t253.5 -90.5q100 0 182.5 41.5t139.5 113.5h6l8 -135h168v1052h-186v-744q-38 -76 -106 -124t-157 -48q-104 0 -160.5 54.5t-56.5 180.5v681h-186v-679zM412 1306l95 -86l299 275l-153 105z" />
    <glyph glyph-name="uni00FB" unicode="&#xfb;" horiz-adv-x="1138" 
d="M138 373q0 -212 94.5 -302.5t253.5 -90.5q100 0 182.5 41.5t139.5 113.5h6l8 -135h168v1052h-186v-744q-38 -76 -106 -124t-157 -48q-104 0 -160.5 54.5t-56.5 180.5v681h-186v-679zM625 1533h-112l-245 -313h152l149 159l150 -159h154z" />
    <glyph glyph-name="uni00FC" unicode="&#xfc;" horiz-adv-x="1138" 
d="M138 373q0 -212 94.5 -302.5t253.5 -90.5q100 0 182.5 41.5t139.5 113.5h6l8 -135h168v1052h-186v-744q-38 -76 -106 -124t-157 -48q-104 0 -160.5 54.5t-56.5 180.5v681h-186v-679zM244 1324q0 -43 28 -73.5t81 -30.5q54 0 82 30.5t28 73.5q0 45 -28 76t-82 31
q-53 0 -81 -31t-28 -76zM675 1324q0 -43 27.5 -73.5t81.5 -30.5q53 0 81.5 30.5t28.5 73.5q0 45 -28.5 76t-81.5 31q-54 0 -81.5 -31t-27.5 -76z" />
    <glyph glyph-name="uni00FD" unicode="&#xfd;" horiz-adv-x="942" 
d="M50 -416q28 -10 59 -15t71 -5q120 0 202.5 78t132.5 218l427 1192h-176l-232 -692q-13 -40 -24.5 -75t-20.5 -65h-6q-8 30 -19 65t-25 75l-249 692h-180l392 -1047v-1q-58 -175 -110 -227.5t-122 -52.5q-30 0 -62 5t-58 13v-158zM332 1306l95 -86l299 275l-153 105z" />
    <glyph glyph-name="uni00FE" unicode="&#xfe;" horiz-adv-x="1170" 
d="M148 -416h185l2 533h10q40 -60 115 -98.5t185 -38.5q200 0 320 150t120 380v32q0 230 -120 380t-320 150q-110 0 -187.5 -39.5t-123.5 -104.5v608h-186v-1952zM334 312v428q31 70 101 125t170 55q150 0 220 -109t70 -269v-32q0 -160 -70 -269t-220 -109q-100 0 -170 55
t-101 125z" />
    <glyph glyph-name="uni00FF" unicode="&#xff;" horiz-adv-x="942" 
d="M50 -416q28 -10 59 -15t71 -5q120 0 202.5 78t132.5 218l427 1192h-176l-232 -692q-13 -40 -24.5 -75t-20.5 -65h-6q-8 30 -19 65t-25 75l-249 692h-180l392 -1047v-1q-58 -175 -110 -227.5t-122 -52.5q-30 0 -62 5t-58 13v-158zM164 1324q0 -43 28 -73.5t81 -30.5
q54 0 82 30.5t28 73.5q0 45 -28 76t-82 31q-53 0 -81 -31t-28 -76zM595 1324q0 -43 27.5 -73.5t81.5 -30.5q53 0 81.5 30.5t28.5 73.5q0 45 -28.5 76t-81.5 31q-54 0 -81.5 -31t-27.5 -76z" />
    <glyph glyph-name="uni0100" unicode="&#x100;" horiz-adv-x="1280" 
d="M0 0h192l404 1100q12 33 21 64t16 64h10q7 -33 16 -64t21 -64l400 -1100h200l-554 1466h-172zM238 380h801l-58 158h-684zM344 1674h592v156h-592v-156z" />
    <glyph glyph-name="uni0101" unicode="&#x101;" horiz-adv-x="1106" 
d="M90 310q0 -160 105 -245t255 -85q130 0 212.5 50t119.5 115q3 -40 14.5 -80t25.5 -65h180v16q-18 44 -28 101.5t-10 122.5v480q0 180 -104.5 271t-294.5 91t-301.5 -93.5t-111.5 -218.5v-5h185v5q0 65 51.5 114.5t171.5 49.5t169 -59.5t49 -154.5v-72h-238
q-196 0 -323 -89t-127 -249zM276 320q0 90 72 143t212 53h218v-151q0 -85 -89 -161t-199 -76t-162 51t-52 141zM867 1372h-628v-152h628v152z" />
    <glyph glyph-name="uni0102" unicode="&#x102;" horiz-adv-x="1280" 
d="M0 0h192l404 1100q12 33 21 64t16 64h10q7 -33 16 -64t21 -64l400 -1100h200l-554 1466h-172zM238 380h801l-58 158h-684zM931 1936q-43 -68 -116 -117.5t-175 -49.5q-95 0 -167.5 52t-115.5 115l-100 -69q48 -114 151.5 -190.5t231.5 -76.5q144 0 244.5 83.5
t139.5 182.5z" />
    <glyph glyph-name="uni0103" unicode="&#x103;" horiz-adv-x="1106" 
d="M90 310q0 -160 105 -245t255 -85q130 0 212.5 50t119.5 115q3 -40 14.5 -80t25.5 -65h180v16q-18 44 -28 101.5t-10 122.5v480q0 180 -104.5 271t-294.5 91t-301.5 -93.5t-111.5 -218.5v-5h185v5q0 65 51.5 114.5t171.5 49.5t169 -59.5t49 -154.5v-72h-238
q-196 0 -323 -89t-127 -249zM276 320q0 90 72 143t212 53h218v-151q0 -85 -89 -161t-199 -76t-162 51t-52 141zM796 1518q-36 -61 -96 -108.5t-144 -47.5q-79 0 -138.5 49.5t-94.5 106.5l-104 -53q42 -114 132.5 -190.5t203.5 -76.5q126 0 213.5 83.5t122.5 182.5z" />
    <glyph glyph-name="uni0104" unicode="&#x104;" horiz-adv-x="1280" 
d="M0 0h192l404 1100q12 33 21 64t16 64h10q7 -33 16 -64t21 -64l400 -1100h200l-554 1466h-172zM238 380h801l-58 158h-684zM820 -306q0 -78 76 -134.5t181 -56.5q104 0 192 39.5t133 100.5l-57 103q-62 -47 -128 -70t-113 -23q-52 0 -82 27.5t-30 75.5q0 45 32.5 92
t137.5 152l-95 51q-119 -92 -183 -180t-64 -177z" />
    <glyph glyph-name="uni0105" unicode="&#x105;" horiz-adv-x="1106" 
d="M90 310q0 -160 105 -245t255 -85q130 0 212.5 50t119.5 115q3 -40 14.5 -80t25.5 -65h180v16q-18 44 -28 101.5t-10 122.5v480q0 180 -104.5 271t-294.5 91t-301.5 -93.5t-111.5 -218.5v-5h185v5q0 65 51.5 114.5t171.5 49.5t169 -59.5t49 -154.5v-72h-238
q-196 0 -323 -89t-127 -249zM276 320q0 90 72 143t212 53h218v-151q0 -85 -89 -161t-199 -76t-162 51t-52 141zM874 57q-136 -63 -197 -141.5t-61 -158.5q0 -93 55.5 -142t136.5 -49q59 0 97.5 14.5t63.5 29.5l-14 122q-15 -8 -41 -17.5t-59 -9.5q-43 0 -60.5 20t-17.5 53
q0 65 53.5 119.5t117.5 102.5z" />
    <glyph glyph-name="uni0106" unicode="&#x106;" horiz-adv-x="1359" 
d="M115 682q0 -336 172.5 -524t432.5 -188t397 143t157 343l1 10h-192l-1 -10q-14 -136 -102 -229t-260 -93q-180 0 -295.5 146t-115.5 402v92q0 278 116 413t295 135q183 0 273 -91.5t90 -230.5v-10h192v10q0 201 -147.5 343.5t-407.5 142.5t-432.5 -188t-172.5 -524v-92z
M604 1659l127 -59l248 299l-162 99z" />
    <glyph glyph-name="uni0107" unicode="&#x107;" horiz-adv-x="1068" 
d="M85 510q0 -238 129.5 -389t356.5 -151q210 0 319 113.5t109 253.5v5h-180v-5q0 -85 -59 -150t-189 -65q-152 0 -224 112.5t-72 275.5v32q0 163 72 275.5t224 112.5q130 0 189 -65t59 -150v-5h180v5q0 140 -109 253.5t-319 113.5q-227 0 -356.5 -151t-129.5 -389v-32z
M414 1306l95 -86l299 275l-153 105z" />
    <glyph glyph-name="uni0108" unicode="&#x108;" horiz-adv-x="1359" 
d="M115 682q0 -336 172.5 -524t432.5 -188t397 143t157 343l1 10h-192l-1 -10q-14 -136 -102 -229t-260 -93q-180 0 -295.5 146t-115.5 402v92q0 278 116 413t295 135q183 0 273 -91.5t90 -230.5v-10h192v10q0 201 -147.5 343.5t-407.5 142.5t-432.5 -188t-172.5 -524v-92z
M781 1975h-144l-257 -340h173l160 182l166 -184l167 2z" />
    <glyph glyph-name="uni0109" unicode="&#x109;" horiz-adv-x="1068" 
d="M85 510q0 -238 129.5 -389t356.5 -151q210 0 319 113.5t109 253.5v5h-180v-5q0 -85 -59 -150t-189 -65q-152 0 -224 112.5t-72 275.5v32q0 163 72 275.5t224 112.5q130 0 189 -65t59 -150v-5h180v5q0 140 -109 253.5t-319 113.5q-227 0 -356.5 -151t-129.5 -389v-32z
M627 1533h-112l-245 -313h152l149 159l150 -159h154z" />
    <glyph glyph-name="uni010A" unicode="&#x10a;" horiz-adv-x="1359" 
d="M115 682q0 -336 172.5 -524t432.5 -188t397 143t157 343l1 10h-192l-1 -10q-14 -136 -102 -229t-260 -93q-180 0 -295.5 146t-115.5 402v92q0 278 116 413t295 135q183 0 273 -91.5t90 -230.5v-10h192v10q0 201 -147.5 343.5t-407.5 142.5t-432.5 -188t-172.5 -524v-92z
M604 1725q0 -47 30 -79t86 -32t86 32t30 79t-30 79t-86 32t-86 -32t-30 -79z" />
    <glyph glyph-name="uni010B" unicode="&#x10b;" horiz-adv-x="1068" 
d="M85 510q0 -238 129.5 -389t356.5 -151q210 0 319 113.5t109 253.5v5h-180v-5q0 -85 -59 -150t-189 -65q-152 0 -224 112.5t-72 275.5v32q0 163 72 275.5t224 112.5q130 0 189 -65t59 -150v-5h180v5q0 140 -109 253.5t-319 113.5q-227 0 -356.5 -151t-129.5 -389v-32z
M455 1345q0 -47 30 -79t86 -32t86 32t30 79t-30 79t-86 32t-86 -32t-30 -79z" />
    <glyph glyph-name="uni010C" unicode="&#x10c;" horiz-adv-x="1359" 
d="M115 682q0 -336 172.5 -524t432.5 -188t397 143t157 343l1 10h-192l-1 -10q-14 -136 -102 -229t-260 -93q-180 0 -295.5 146t-115.5 402v92q0 278 116 413t295 135q183 0 273 -91.5t90 -230.5v-10h192v10q0 201 -147.5 343.5t-407.5 142.5t-432.5 -188t-172.5 -524v-92z
M645 1600h144l257 340h-173l-160 -182l-166 182h-167z" />
    <glyph glyph-name="uni010D" unicode="&#x10d;" horiz-adv-x="1068" 
d="M85 510q0 -238 129.5 -389t356.5 -151q210 0 319 113.5t109 253.5v5h-180v-5q0 -85 -59 -150t-189 -65q-152 0 -224 112.5t-72 275.5v32q0 163 72 275.5t224 112.5q130 0 189 -65t59 -150v-5h180v5q0 140 -109 253.5t-319 113.5q-227 0 -356.5 -151t-129.5 -389v-32z
M518 1220h112l245 313h-152l-149 -159l-150 159h-154z" />
    <glyph glyph-name="uni010E" unicode="&#x10e;" horiz-adv-x="1370" 
d="M170 0h432q280 0 466.5 185t186.5 497v92q0 312 -186.5 497t-466.5 185h-432v-1456zM362 158v1140h240q210 0 334.5 -139t124.5 -385v-92q0 -246 -124.5 -385t-334.5 -139h-240zM555 1600h144l257 340h-173l-160 -182l-166 182h-167z" />
    <glyph glyph-name="uni010F" unicode="&#x10f;" horiz-adv-x="1170" 
d="M85 510q0 -230 120 -380t320 -150q110 0 192.5 46t122.5 111h6l8 -137h168v1536h-186v-608q-46 65 -123.5 104.5t-187.5 39.5q-200 0 -320 -150t-120 -380v-32zM275 510v32q0 160 70 269t220 109q100 0 170 -55t101 -125v-428q-31 -70 -101 -125t-170 -55
q-150 0 -220 109t-70 269zM1192 1092l128 -35l164 370l-190 54z" />
    <glyph glyph-name="uni0110" unicode="&#x110;" horiz-adv-x="1370" 
d="M171 0h432q280 0 466.5 185t186.5 497v92q0 312 -186.5 497t-466.5 185h-432v-1456zM363 158v1140h240q210 0 334.5 -139t124.5 -385v-92q0 -246 -124.5 -385t-334.5 -139h-240zM20 645h605v166h-605v-166z" />
    <glyph glyph-name="uni0111" unicode="&#x111;" horiz-adv-x="1170" 
d="M85 510q0 -230 120 -380t320 -150q110 0 192.5 46t122.5 111h6l8 -137h168v1536h-186v-608q-46 65 -123.5 104.5t-187.5 39.5q-200 0 -320 -150t-120 -380v-32zM275 510v32q0 160 70 269t220 109q100 0 170 -55t101 -125v-428q-31 -70 -101 -125t-170 -55
q-150 0 -220 109t-70 269zM789 1240h325v146h-285h-311l-11 -146h282z" />
    <glyph glyph-name="uni0112" unicode="&#x112;" horiz-adv-x="1162" 
d="M170 0h924v158h-732v514h630v158h-630v468h722v158h-914v-1456zM338 1674h592v156h-592v-156z" />
    <glyph glyph-name="uni0113" unicode="&#x113;" horiz-adv-x="1088" 
d="M85 510q0 -238 130.5 -389t375.5 -151q150 0 254.5 65t154.5 140l-120 95q-45 -60 -117 -104t-172 -44q-162 0 -239 112.5t-77 275.5v32q0 163 73 275.5t221 112.5q122 0 187 -80t65 -194v-24h-622v-148h809v76q0 240 -116 381t-331 141t-345.5 -151t-130.5 -389v-32z
M874 1372h-628v-152h628v152z" />
    <glyph glyph-name="uni0114" unicode="&#x114;" horiz-adv-x="1162" 
d="M170 0h924v158h-732v514h630v158h-630v468h722v158h-914v-1456zM925 1936q-43 -68 -116 -117.5t-175 -49.5q-95 0 -167.5 52t-115.5 115l-100 -69q48 -114 151.5 -190.5t231.5 -76.5q144 0 244.5 83.5t139.5 182.5z" />
    <glyph glyph-name="uni0115" unicode="&#x115;" horiz-adv-x="1088" 
d="M85 510q0 -238 130.5 -389t375.5 -151q150 0 254.5 65t154.5 140l-120 95q-45 -60 -117 -104t-172 -44q-162 0 -239 112.5t-77 275.5v32q0 163 73 275.5t221 112.5q122 0 187 -80t65 -194v-24h-622v-148h809v76q0 240 -116 381t-331 141t-345.5 -151t-130.5 -389v-32z
M803 1518q-36 -61 -96 -108.5t-144 -47.5q-79 0 -138.5 49.5t-94.5 106.5l-104 -53q42 -114 132.5 -190.5t203.5 -76.5q126 0 213.5 83.5t122.5 182.5z" />
    <glyph glyph-name="uni0116" unicode="&#x116;" horiz-adv-x="1162" 
d="M170 0h924v158h-732v514h630v158h-630v468h722v158h-914v-1456zM518 1725q0 -47 30 -79t86 -32t86 32t30 79t-30 79t-86 32t-86 -32t-30 -79z" />
    <glyph glyph-name="uni0117" unicode="&#x117;" horiz-adv-x="1088" 
d="M85 510q0 -238 130.5 -389t375.5 -151q150 0 254.5 65t154.5 140l-120 95q-45 -60 -117 -104t-172 -44q-162 0 -239 112.5t-77 275.5v32q0 163 73 275.5t221 112.5q122 0 187 -80t65 -194v-24h-622v-148h809v76q0 240 -116 381t-331 141t-345.5 -151t-130.5 -389v-32z
M444 1345q0 -47 30 -79t86 -32t86 32t30 79t-30 79t-86 32t-86 -32t-30 -79z" />
    <glyph glyph-name="uni0118" unicode="&#x118;" horiz-adv-x="1162" 
d="M170 0h924v158h-732v514h630v158h-630v468h722v158h-914v-1456zM732 -306q0 -78 76 -134.5t181 -56.5q104 0 192 39.5t133 100.5l-57 103q-62 -47 -128 -70t-113 -23q-52 0 -82 27.5t-30 75.5q0 45 32.5 92t137.5 152l-95 51q-119 -92 -183 -180t-64 -177z" />
    <glyph glyph-name="uni0119" unicode="&#x119;" horiz-adv-x="1088" 
d="M85 510q0 -238 130.5 -389t375.5 -151q150 0 254.5 65t154.5 140l-120 95q-45 -60 -117 -104t-172 -44q-162 0 -239 112.5t-77 275.5v32q0 163 73 275.5t221 112.5q122 0 187 -80t65 -194v-24h-622v-148h809v76q0 240 -116 381t-331 141t-345.5 -151t-130.5 -389v-32z
M699 57q-136 -63 -197 -141.5t-61 -158.5q0 -93 55.5 -142t136.5 -49q59 0 97.5 14.5t63.5 29.5l-14 122q-15 -8 -41 -17.5t-59 -9.5q-43 0 -60.5 20t-17.5 53q0 65 53.5 119.5t117.5 102.5z" />
    <glyph glyph-name="uni011A" unicode="&#x11a;" horiz-adv-x="1162" 
d="M170 0h924v158h-732v514h630v158h-630v468h722v158h-914v-1456zM559 1600h144l257 340h-173l-160 -182l-166 182h-167z" />
    <glyph glyph-name="uni011B" unicode="&#x11b;" horiz-adv-x="1088" 
d="M85 510q0 -238 130.5 -389t375.5 -151q150 0 254.5 65t154.5 140l-120 95q-45 -60 -117 -104t-172 -44q-162 0 -239 112.5t-77 275.5v32q0 163 73 275.5t221 112.5q122 0 187 -80t65 -194v-24h-622v-148h809v76q0 240 -116 381t-331 141t-345.5 -151t-130.5 -389v-32z
M507 1220h112l245 313h-152l-149 -159l-150 159h-154z" />
    <glyph glyph-name="uni011C" unicode="&#x11c;" horiz-adv-x="1407" 
d="M115 682q0 -336 172.5 -524t462.5 -188q190 0 325 60t203 130v568h-548v-158h362v-340q-72 -50 -152 -73t-190 -23q-210 0 -325.5 146t-115.5 402v92q0 256 115.5 402t306.5 146q169 0 262 -91t93 -191v-10h192l-1 11q-16 180 -156.5 312.5t-387.5 132.5
q-273 0 -445.5 -188t-172.5 -524v-92zM792 1975h-144l-257 -340h173l160 182l166 -184l167 2z" />
    <glyph glyph-name="uni011D" unicode="&#x11d;" horiz-adv-x="1170" 
d="M124 -284q76 -66 186 -109t240 -43q210 0 341 118t131 338v1032h-168l-8 -137h-6q-40 65 -122.5 111t-192.5 46q-200 0 -320 -150t-120 -380v-32q0 -230 120 -380t320 -150q110 0 187.5 39.5t123.5 104.5v-104q0 -140 -78 -217t-213 -77q-100 0 -180 39.5t-124 90.5z
M275 510v32q0 160 70 269t220 109q100 0 170 -55t101 -125v-428q-31 -70 -101 -125t-170 -55q-150 0 -220 109t-70 269zM641 1533h-112l-245 -313h152l149 159l150 -159h154z" />
    <glyph glyph-name="uni011E" unicode="&#x11e;" horiz-adv-x="1407" 
d="M115 682q0 -336 172.5 -524t462.5 -188q190 0 325 60t203 130v568h-548v-158h362v-340q-72 -50 -152 -73t-190 -23q-210 0 -325.5 146t-115.5 402v92q0 256 115.5 402t306.5 146q169 0 262 -91t93 -191v-10h192l-1 11q-16 180 -156.5 312.5t-387.5 132.5
q-273 0 -445.5 -188t-172.5 -524v-92zM1022 1936q-43 -68 -116 -117.5t-175 -49.5q-95 0 -167.5 52t-115.5 115l-100 -69q48 -114 151.5 -190.5t231.5 -76.5q144 0 244.5 83.5t139.5 182.5z" />
    <glyph glyph-name="uni011F" unicode="&#x11f;" horiz-adv-x="1170" 
d="M124 -284q76 -66 186 -109t240 -43q210 0 341 118t131 338v1032h-168l-8 -137h-6q-40 65 -122.5 111t-192.5 46q-200 0 -320 -150t-120 -380v-32q0 -230 120 -380t320 -150q110 0 187.5 39.5t123.5 104.5v-104q0 -140 -78 -217t-213 -77q-100 0 -180 39.5t-124 90.5z
M275 510v32q0 160 70 269t220 109q100 0 170 -55t101 -125v-428q-31 -70 -101 -125t-170 -55q-150 0 -220 109t-70 269zM828 1518q-36 -61 -96 -108.5t-144 -47.5q-79 0 -138.5 49.5t-94.5 106.5l-104 -53q42 -114 132.5 -190.5t203.5 -76.5q126 0 213.5 83.5t122.5 182.5z
" />
    <glyph glyph-name="uni0120" unicode="&#x120;" horiz-adv-x="1407" 
d="M115 682q0 -336 172.5 -524t462.5 -188q190 0 325 60t203 130v568h-548v-158h362v-340q-72 -50 -152 -73t-190 -23q-210 0 -325.5 146t-115.5 402v92q0 256 115.5 402t306.5 146q169 0 262 -91t93 -191v-10h192l-1 11q-16 180 -156.5 312.5t-387.5 132.5
q-273 0 -445.5 -188t-172.5 -524v-92zM615 1725q0 -47 30 -79t86 -32t86 32t30 79t-30 79t-86 32t-86 -32t-30 -79z" />
    <glyph glyph-name="uni0121" unicode="&#x121;" horiz-adv-x="1170" 
d="M124 -284q76 -66 186 -109t240 -43q210 0 341 118t131 338v1032h-168l-8 -137h-6q-40 65 -122.5 111t-192.5 46q-200 0 -320 -150t-120 -380v-32q0 -230 120 -380t320 -150q110 0 187.5 39.5t123.5 104.5v-104q0 -140 -78 -217t-213 -77q-100 0 -180 39.5t-124 90.5z
M275 510v32q0 160 70 269t220 109q100 0 170 -55t101 -125v-428q-31 -70 -101 -125t-170 -55q-150 0 -220 109t-70 269zM469 1345q0 -47 30 -79t86 -32t86 32t30 79t-30 79t-86 32t-86 -32t-30 -79z" />
    <glyph glyph-name="uni0122" unicode="&#x122;" horiz-adv-x="1407" 
d="M115 682q0 -336 172.5 -524t462.5 -188q190 0 325 60t203 130v568h-548v-158h362v-340q-72 -50 -152 -73t-190 -23q-210 0 -325.5 146t-115.5 402v92q0 256 115.5 402t306.5 146q169 0 262 -91t93 -191v-10h192l-1 11q-16 180 -156.5 312.5t-387.5 132.5
q-273 0 -445.5 -188t-172.5 -524v-92zM552 -597l175 -3l137 417l-214 -2q-32 -139 -50.5 -223.5t-47.5 -188.5z" />
    <glyph glyph-name="uni0123" unicode="&#x123;" horiz-adv-x="1170" 
d="M124 -284q76 -66 186 -109t240 -43q210 0 341 118t131 338v1032h-168l-8 -137h-6q-40 65 -122.5 111t-192.5 46q-200 0 -320 -150t-120 -380v-32q0 -230 120 -380t320 -150q110 0 187.5 39.5t123.5 104.5v-104q0 -140 -78 -217t-213 -77q-100 0 -180 39.5t-124 90.5z
M275 510v32q0 160 70 269t220 109q100 0 170 -55t101 -125v-428q-31 -70 -101 -125t-170 -55q-150 0 -220 109t-70 269zM748 1663l-163 3l-127 -377l202 2q23 128 41 198t47 174z" />
    <glyph glyph-name="uni0124" unicode="&#x124;" horiz-adv-x="1458" 
d="M170 0h192v672h734v-672h192v1456h-192v-626h-734v626h-192v-1456zM790 1975h-144l-257 -340h173l160 182l166 -184l167 2z" />
    <glyph glyph-name="uni0125" unicode="&#x125;" horiz-adv-x="1138" 
d="M148 0h186v744q38 76 106 124t157 48q104 0 160.5 -54.5t56.5 -180.5v-681h186v679q0 212 -94.5 302.5t-241.5 90.5q-102 0 -188 -41t-142 -109v614h-186v-1536zM300 2017h-112l-245 -313h152l149 159l150 -159h154z" />
    <glyph glyph-name="uni0126" unicode="&#x126;" horiz-adv-x="1458" 
d="M170 0h192v672h734v-672h192v1456h-192v-626h-734v626h-192v-1456zM1442 1033l10 137l-232 -2v-137zM15 1031h230v137h-239zM245 1041h975v117h-975v-117z" />
    <glyph glyph-name="uni0127" unicode="&#x127;" horiz-adv-x="1139" 
d="M149 0h186v744q38 76 106 124t157 48q104 0 160.5 -54.5t56.5 -180.5v-681h186v679q0 212 -94.5 302.5t-241.5 90.5q-102 0 -188 -41t-142 -109v614h-186v-1536zM299 1254h325v146h-285h-311l-11 -146h282z" />
    <glyph glyph-name="uni0128" unicode="&#x128;" horiz-adv-x="542" 
d="M175 0h192v1456h-192v-1456zM-136 1710l75 -85q20 30 69 69.5t102 39.5q33 0 74.5 -19t77.5 -44q32 -22 85.5 -46.5t106.5 -24.5q63 0 132.5 44.5t111.5 126.5l-68 85q-26 -39 -68.5 -67.5t-88.5 -28.5q-47 0 -95.5 28t-78.5 46q-42 28 -83 43t-87 15q-77 0 -152.5 -56.5
t-112.5 -125.5z" />
    <glyph glyph-name="uni0129" unicode="&#x129;" horiz-adv-x="500" 
d="M157 0h186v1052h-186v-1052zM-106 1326l76 -92q18 27 58.5 63t87.5 36q29 0 63 -17t68 -36q31 -17 78 -38.5t96 -21.5q57 0 123.5 36t104.5 107l-81 98q-23 -36 -58 -62.5t-75 -26.5q-38 0 -77 22t-73 44q-37 24 -74.5 36.5t-78.5 12.5q-67 0 -136 -49t-102 -112z" />
    <glyph glyph-name="uni012A" unicode="&#x12a;" horiz-adv-x="542" 
d="M175 0h192v1456h-192v-1456zM-25 1674h592v156h-592v-156z" />
    <glyph glyph-name="uni012B" unicode="&#x12b;" horiz-adv-x="500" 
d="M157 0h186v1052h-186v-1052zM564 1372h-628v-152h628v152z" />
    <glyph glyph-name="uni012C" unicode="&#x12c;" horiz-adv-x="542" 
d="M175 0h192v1456h-192v-1456zM562 1936q-43 -68 -116 -117.5t-175 -49.5q-95 0 -167.5 52t-115.5 115l-100 -69q48 -114 151.5 -190.5t231.5 -76.5q144 0 244.5 83.5t139.5 182.5z" />
    <glyph glyph-name="uni012D" unicode="&#x12d;" horiz-adv-x="500" 
d="M157 0h186v1052h-186v-1052zM493 1518q-36 -61 -96 -108.5t-144 -47.5q-79 0 -138.5 49.5t-94.5 106.5l-104 -53q42 -114 132.5 -190.5t203.5 -76.5q126 0 213.5 83.5t122.5 182.5z" />
    <glyph glyph-name="uni012E" unicode="&#x12e;" horiz-adv-x="542" 
d="M175 0h192v1456h-192v-1456zM-29 -306q0 -78 76 -134.5t181 -56.5q104 0 192 39.5t133 100.5l-57 103q-62 -47 -128 -70t-113 -23q-52 0 -82 27.5t-30 75.5q0 45 32.5 92t137.5 152l-95 51q-119 -92 -183 -180t-64 -177z" />
    <glyph glyph-name="uni012F" unicode="&#x12f;" horiz-adv-x="500" 
d="M157 0h186v1052h-186v-1052zM134 1370q0 -47 30 -79t86 -32t86 32t30 79t-30 79t-86 32t-86 -32t-30 -79zM238 57q-136 -63 -197 -141.5t-61 -158.5q0 -93 55.5 -142t136.5 -49q59 0 97.5 14.5t63.5 29.5l-14 122q-15 -8 -41 -17.5t-59 -9.5q-43 0 -60.5 20t-17.5 53
q0 65 53.5 119.5t117.5 102.5z" />
    <glyph glyph-name="uni0130" unicode="&#x130;" horiz-adv-x="542" 
d="M175 0h192v1456h-192v-1456zM155 1725q0 -47 30 -79t86 -32t86 32t30 79t-30 79t-86 32t-86 -32t-30 -79z" />
    <glyph glyph-name="uni0132" unicode="&#x132;" horiz-adv-x="1642" 
d="M175 0h192v1456h-192v-1456zM567 400q0 -200 127.5 -315t332.5 -115t332.5 122.5t127.5 332.5v1031h-192v-1031q0 -140 -71.5 -215.5t-196.5 -75.5t-196.5 68t-71.5 198v10h-192v-10z" />
    <glyph glyph-name="uni0133" unicode="&#x133;" horiz-adv-x="1000" 
d="M157 0h186v1052h-186v-1052zM134 1370q0 -47 30 -79t86 -32t86 32t30 79t-30 79t-86 32t-86 -32t-30 -79zM406 -410q25 -9 74.5 -17.5t89.5 -8.5q134 0 203.5 83t69.5 263v1142h-186v-1182q0 -80 -33.5 -115t-93.5 -35q-30 0 -67 7t-57 13v-150zM634 1370q0 -47 30 -79
t86 -32t86 32t30 79t-30 79t-86 32t-86 -32t-30 -79z" />
    <glyph glyph-name="uni0134" unicode="&#x134;" horiz-adv-x="1100" 
d="M25 400q0 -200 127.5 -315t332.5 -115t332.5 122.5t127.5 332.5v1031h-192v-1031q0 -140 -71.5 -215.5t-196.5 -75.5t-196.5 68t-71.5 198v10h-192v-10zM915 1975h-144l-257 -340h173l160 182l166 -184l167 2z" />
    <glyph glyph-name="uni0136" unicode="&#x136;" horiz-adv-x="1266" 
d="M170 0h192v500l880 956h-232l-648 -716v716h-192v-1456zM1050 0h236l-676 890l-124 -134zM454 -597l175 -3l137 417l-214 -2q-32 -139 -50.5 -223.5t-47.5 -188.5z" />
    <glyph glyph-name="uni0137" unicode="&#x137;" horiz-adv-x="1028" 
d="M148 0h186v350l661 702h-211l-450 -484v968h-186v-1536zM826 0h218l-512 672l-116 -128zM377 -597l163 -3l127 377l-202 -2q-23 -128 -41 -198t-47 -174z" />
    <glyph glyph-name="uni0138" unicode="&#x138;" horiz-adv-x="1072" 
d="M340 1052h-185v-1052h185v1052zM1027 1052h-224l-371 -428h-182v-162h267zM854 0h234l-546 624l-119 -134z" />
    <glyph glyph-name="uni0139" unicode="&#x139;" horiz-adv-x="1106" 
d="M170 0h882v158h-690v1298h-192v-1456zM268 1659l127 -59l248 299l-162 99z" />
    <glyph glyph-name="uni013A" unicode="&#x13a;" horiz-adv-x="498" 
d="M156 0h186v1536h-186v-1536zM92 1790l95 -86l299 275l-153 105z" />
    <glyph glyph-name="uni013B" unicode="&#x13b;" horiz-adv-x="1106" 
d="M170 0h882v158h-690v1298h-192v-1456zM451 -597l175 -3l137 417l-214 -2q-32 -139 -50.5 -223.5t-47.5 -188.5z" />
    <glyph glyph-name="uni013C" unicode="&#x13c;" horiz-adv-x="498" 
d="M156 0h186v1536h-186v-1536zM112 -597l163 -3l127 377l-202 -2q-23 -128 -41 -198t-47 -174z" />
    <glyph glyph-name="uni013D" unicode="&#x13d;" horiz-adv-x="1106" 
d="M170 0h882v158h-690v1298h-192v-1456zM819 1092l128 -35l164 370l-190 54z" />
    <glyph glyph-name="uni013E" unicode="&#x13e;" horiz-adv-x="498" 
d="M156 0h186v1536h-186v-1536zM512 1092l128 -35l164 370l-190 54z" />
    <glyph glyph-name="uni013F" unicode="&#x13f;" horiz-adv-x="1106" 
d="M170 0h882v158h-690v1298h-192v-1456zM744 735q0 -47 30 -79t86 -32t86 32t30 79t-30 79t-86 32t-86 -32t-30 -79z" />
    <glyph glyph-name="uni0140" unicode="&#x140;" horiz-adv-x="951" 
d="M156 0h186v1536h-186v-1536zM559 801q0 -47 30 -79t86 -32t86 32t30 79t-30 79t-86 32t-86 -32t-30 -79z" />
    <glyph glyph-name="uni0141" unicode="&#x141;" horiz-adv-x="1106" 
d="M170 0h882v158h-690v1298h-192v-1456zM85 450l266 221l270 194l-80 142l-265 -219l-275 -193z" />
    <glyph glyph-name="uni0142" unicode="&#x142;" horiz-adv-x="498" 
d="M156 0h186v1536h-186v-1536zM23 513l266 221l270 194l-80 142l-265 -219l-275 -193z" />
    <glyph glyph-name="uni0143" unicode="&#x143;" horiz-adv-x="1460" 
d="M170 0h188v1000q0 30 -0.5 67.5t-1.5 67.5h7q14 -25 31 -55t37 -60l659 -1020h200v1456h-188v-1000q0 -30 0.5 -67.5t1.5 -67.5h-8q-12 25 -29.5 55t-37.5 60l-659 1020h-200v-1456zM614 1659l127 -59l248 299l-162 99z" />
    <glyph glyph-name="uni0144" unicode="&#x144;" horiz-adv-x="1138" 
d="M148 0h186v744q38 76 106 124t157 48q104 0 160.5 -54.5t56.5 -180.5v-681h186v679q0 212 -94.5 302.5t-253.5 90.5q-100 0 -182.5 -41.5t-139.5 -113.5h-6l-8 135h-168v-1052zM412 1306l95 -86l299 275l-153 105z" />
    <glyph glyph-name="uni0145" unicode="&#x145;" horiz-adv-x="1460" 
d="M170 0h188v1000q0 30 -0.5 67.5t-1.5 67.5h7q14 -25 31 -55t37 -60l659 -1020h200v1456h-188v-1000q0 -30 0.5 -67.5t1.5 -67.5h-8q-12 25 -29.5 55t-37.5 60l-659 1020h-200v-1456zM551 -597l175 -3l137 417l-214 -2q-32 -139 -50.5 -223.5t-47.5 -188.5z" />
    <glyph glyph-name="uni0146" unicode="&#x146;" horiz-adv-x="1138" 
d="M148 0h186v744q38 76 106 124t157 48q104 0 160.5 -54.5t56.5 -180.5v-681h186v679q0 212 -94.5 302.5t-253.5 90.5q-100 0 -182.5 -41.5t-139.5 -113.5h-6l-8 135h-168v-1052zM432 -597l163 -3l127 377l-202 -2q-23 -128 -41 -198t-47 -174z" />
    <glyph glyph-name="uni0147" unicode="&#x147;" horiz-adv-x="1460" 
d="M170 0h188v1000q0 30 -0.5 67.5t-1.5 67.5h7q14 -25 31 -55t37 -60l659 -1020h200v1456h-188v-1000q0 -30 0.5 -67.5t1.5 -67.5h-8q-12 25 -29.5 55t-37.5 60l-659 1020h-200v-1456zM655 1600h144l257 340h-173l-160 -182l-166 182h-167z" />
    <glyph glyph-name="uni0148" unicode="&#x148;" horiz-adv-x="1138" 
d="M148 0h186v744q38 76 106 124t157 48q104 0 160.5 -54.5t56.5 -180.5v-681h186v679q0 212 -94.5 302.5t-253.5 90.5q-100 0 -182.5 -41.5t-139.5 -113.5h-6l-8 135h-168v-1052zM516 1220h112l245 313h-152l-149 -159l-150 159h-154z" />
    <glyph glyph-name="uni0149" unicode="&#x149;" horiz-adv-x="1548" 
d="M148 0h186v744q38 76 106 124t157 48q104 0 160.5 -54.5t56.5 -180.5v-681h186v679q0 212 -94.5 302.5t-253.5 90.5q-100 0 -182.5 -41.5t-139.5 -113.5h-6l-8 135h-168v-1052zM1456 1458h-184v-131q0 -81 -24 -150.5t-71 -135.5l106 -73q82 68 127.5 170t45.5 192v128z
" />
    <glyph glyph-name="uni014A" unicode="&#x14a;" horiz-adv-x="1460" 
d="M170 0h188v1000q0 30 -0.5 67.5t-1.5 67.5h7q14 -25 31 -55t37 -60l659 -1020h200v1456h-188v-1000q0 -30 0.5 -67.5t1.5 -67.5h-8q-12 25 -29.5 55t-37.5 60l-659 1020h-200v-1456zM1167 190l-63 -40v-157.5v-157.5q0 -100 -32 -130t-76 -30q-41 0 -68.5 15t-69.5 56
l-63 -75q40 -52 105 -83t137 -31q132 0 192.5 74t60.5 174v385h-123z" />
    <glyph glyph-name="uni014B" unicode="&#x14b;" horiz-adv-x="1138" 
d="M148 0h186v744q38 76 106 124t157 48q104 0 160.5 -54.5t56.5 -180.5v-681h186v679q0 212 -94.5 302.5t-253.5 90.5q-100 0 -182.5 -41.5t-139.5 -113.5h-6l-8 135h-168v-1052zM877 190l-63 -40v-157.5v-157.5q0 -100 -32 -130t-76 -30q-41 0 -68.5 15t-69.5 56l-63 -75
q40 -52 105 -83t137 -31q132 0 192.5 74t60.5 174v385h-123z" />
    <glyph glyph-name="uni014C" unicode="&#x14c;" horiz-adv-x="1460" 
d="M115 682q0 -336 172.5 -524t442.5 -188t442.5 188t172.5 524v92q0 336 -172.5 524t-442.5 188t-442.5 -188t-172.5 -524v-92zM309 682v92q0 256 115.5 402t305.5 146t305.5 -146t115.5 -402v-92q0 -256 -115.5 -402t-305.5 -146t-305.5 146t-115.5 402zM434 1674h592v156
h-592v-156z" />
    <glyph glyph-name="uni014D" unicode="&#x14d;" horiz-adv-x="1162" 
d="M85 510q0 -238 135 -389t361 -151t361 151t135 389v32q0 238 -135 389t-361 151t-361 -151t-135 -389v-32zM275 542q0 163 77 275.5t229 112.5t229 -112.5t77 -275.5v-32q0 -163 -77 -275.5t-229 -112.5t-229 112.5t-77 275.5v32zM895 1372h-628v-152h628v152z" />
    <glyph glyph-name="uni014E" unicode="&#x14e;" horiz-adv-x="1460" 
d="M115 682q0 -336 172.5 -524t442.5 -188t442.5 188t172.5 524v92q0 336 -172.5 524t-442.5 188t-442.5 -188t-172.5 -524v-92zM309 682v92q0 256 115.5 402t305.5 146t305.5 -146t115.5 -402v-92q0 -256 -115.5 -402t-305.5 -146t-305.5 146t-115.5 402zM1021 1936
q-43 -68 -116 -117.5t-175 -49.5q-95 0 -167.5 52t-115.5 115l-100 -69q48 -114 151.5 -190.5t231.5 -76.5q144 0 244.5 83.5t139.5 182.5z" />
    <glyph glyph-name="uni014F" unicode="&#x14f;" horiz-adv-x="1162" 
d="M85 510q0 -238 135 -389t361 -151t361 151t135 389v32q0 238 -135 389t-361 151t-361 -151t-135 -389v-32zM275 542q0 163 77 275.5t229 112.5t229 -112.5t77 -275.5v-32q0 -163 -77 -275.5t-229 -112.5t-229 112.5t-77 275.5v32zM824 1518q-36 -61 -96 -108.5
t-144 -47.5q-79 0 -138.5 49.5t-94.5 106.5l-104 -53q42 -114 132.5 -190.5t203.5 -76.5q126 0 213.5 83.5t122.5 182.5z" />
    <glyph glyph-name="uni0150" unicode="&#x150;" horiz-adv-x="1460" 
d="M115 682q0 -336 172.5 -524t442.5 -188t442.5 188t172.5 524v92q0 336 -172.5 524t-442.5 188t-442.5 -188t-172.5 -524v-92zM309 682v92q0 256 115.5 402t305.5 146t305.5 -146t115.5 -402v-92q0 -256 -115.5 -402t-305.5 -146t-305.5 146t-115.5 402zM511 1659l127 -59
l248 299l-162 99zM845 1659l127 -59l248 299l-162 99z" />
    <glyph glyph-name="uni0151" unicode="&#x151;" horiz-adv-x="1162" 
d="M85 510q0 -238 135 -389t361 -151t361 151t135 389v32q0 238 -135 389t-361 151t-361 -151t-135 -389v-32zM275 542q0 163 77 275.5t229 112.5t229 -112.5t77 -275.5v-32q0 -163 -77 -275.5t-229 -112.5t-229 112.5t-77 275.5v32zM352 1290l85 -86l299 275l-143 105z
M662 1290l85 -86l299 275l-143 105z" />
    <glyph glyph-name="uni0152" unicode="&#x152;" horiz-adv-x="1879" 
d="M713 1477q-258 0 -428 -186t-170 -519v-90q0 -342 171.5 -522.5t385.5 -180.5q76 0 150.5 7t141.5 14h847v157h-732v516h630v157h-630v468h722v158h-837q-67 8 -142.5 14.5t-108.5 6.5zM310 682v92q0 256 115 403.5t292 147.5q22 0 69.5 -4t99.5 -11v-1167
q-38 -6 -78 -10.5t-93 -4.5q-172 0 -288.5 145t-116.5 409z" />
    <glyph glyph-name="uni0153" unicode="&#x153;" horiz-adv-x="1889" 
d="M275 542q0 163 77 275.5t229 112.5t229 -112t77 -276v-32q0 -164 -77 -276t-229 -112t-229 112.5t-77 275.5v32zM977 866q-20 55 -121 135t-287 80q-215 0 -349.5 -150.5t-134.5 -388.5v-32q0 -238 135 -389t331 -151q195 0 296.5 70.5t131.5 144.5q30 -75 133.5 -145
t300.5 -70q129 0 233.5 65t154.5 140l-120 95q-45 -60 -122 -104t-177 -44q-162 0 -234 112t-72 276v32q0 164 73 276t221 112q122 0 186.5 -80t65.5 -194l-1 -24h-621v-148h809v76q0 240 -116 381t-303 141q-178 0 -285.5 -78t-127.5 -138z" />
    <glyph glyph-name="uni0154" unicode="&#x154;" horiz-adv-x="1250" 
d="M170 0h192v594h282q234 0 361 120t127 314t-127 311t-361 117h-474v-1456zM362 750v550h282q166 0 231 -78t65 -194t-65 -197t-231 -81h-282zM996 0h214l-380 701l-190 -29zM489 1659l127 -59l248 299l-162 99z" />
    <glyph glyph-name="uni0155" unicode="&#x155;" horiz-adv-x="700" 
d="M148 0h186v740q30 70 93 117t153 47q26 0 48 -2t42 -6v172q-10 4 -34 9t-46 5q-90 0 -155 -49.5t-105 -115.5h-6l-8 135h-168v-1052zM260 1306l95 -86l299 275l-153 105z" />
    <glyph glyph-name="uni0156" unicode="&#x156;" horiz-adv-x="1250" 
d="M170 0h192v594h282q234 0 361 120t127 314t-127 311t-361 117h-474v-1456zM362 750v550h282q166 0 231 -78t65 -194t-65 -197t-231 -81h-282zM996 0h214l-380 701l-190 -29zM426 -597l175 -3l137 417l-214 -2q-32 -139 -50.5 -223.5t-47.5 -188.5z" />
    <glyph glyph-name="uni0157" unicode="&#x157;" horiz-adv-x="700" 
d="M148 0h186v740q30 70 93 117t153 47q26 0 48 -2t42 -6v172q-10 4 -34 9t-46 5q-90 0 -155 -49.5t-105 -115.5h-6l-8 135h-168v-1052zM213 -597l163 -3l127 377l-202 -2q-23 -128 -41 -198t-47 -174z" />
    <glyph glyph-name="uni0158" unicode="&#x158;" horiz-adv-x="1250" 
d="M170 0h192v594h282q234 0 361 120t127 314t-127 311t-361 117h-474v-1456zM362 750v550h282q166 0 231 -78t65 -194t-65 -197t-231 -81h-282zM996 0h214l-380 701l-190 -29zM530 1600h144l257 340h-173l-160 -182l-166 182h-167z" />
    <glyph glyph-name="uni0159" unicode="&#x159;" horiz-adv-x="700" 
d="M148 0h186v740q30 70 93 117t153 47q26 0 48 -2t42 -6v172q-10 4 -34 9t-46 5q-90 0 -155 -49.5t-105 -115.5h-6l-8 135h-168v-1052zM364 1220h112l245 313h-152l-149 -159l-150 159h-154z" />
    <glyph glyph-name="uni015A" unicode="&#x15a;" horiz-adv-x="1220" 
d="M90 398q0 -198 145 -313t385 -115t380 115t140 295t-106 279t-340 165t-309 121t-75 150q0 105 73 166t227 61t232 -71t78 -187v-12h192v12q0 184 -136 303t-366 119t-360 -113t-130 -283t99 -262.5t337 -161.5q229 -66 311.5 -126t82.5 -160q0 -110 -85 -178t-245 -68
t-249 66t-89 198v12h-192v-12zM494 1659l127 -59l248 299l-162 99z" />
    <glyph glyph-name="uni015B" unicode="&#x15b;" horiz-adv-x="1010" 
d="M80 310v-5q0 -152 110 -243.5t320 -91.5t315 90t105 230t-92.5 215t-262.5 115t-228 75t-58 95t50.5 100t160.5 40t162.5 -43t52.5 -118v-9h185v5q0 146 -110 231.5t-290 85.5t-287.5 -86t-107.5 -216t100 -202.5t270 -112.5t221 -77.5t51 -107.5t-63.5 -114t-173.5 -44
t-177 46t-67 137v5h-186zM348 1306l95 -86l299 275l-153 105z" />
    <glyph glyph-name="uni015C" unicode="&#x15c;" horiz-adv-x="1220" 
d="M90 398q0 -198 145 -313t385 -115t380 115t140 295t-106 279t-340 165t-309 121t-75 150q0 105 73 166t227 61t232 -71t78 -187v-12h192v12q0 184 -136 303t-366 119t-360 -113t-130 -283t99 -262.5t337 -161.5q229 -66 311.5 -126t82.5 -160q0 -110 -85 -178t-245 -68
t-249 66t-89 198v12h-192v-12zM671 1975h-144l-257 -340h173l160 182l166 -184l167 2z" />
    <glyph glyph-name="uni015D" unicode="&#x15d;" horiz-adv-x="1010" 
d="M80 310v-5q0 -152 110 -243.5t320 -91.5t315 90t105 230t-92.5 215t-262.5 115t-228 75t-58 95t50.5 100t160.5 40t162.5 -43t52.5 -118v-9h185v5q0 146 -110 231.5t-290 85.5t-287.5 -86t-107.5 -216t100 -202.5t270 -112.5t221 -77.5t51 -107.5t-63.5 -114t-173.5 -44
t-177 46t-67 137v5h-186zM561 1533h-112l-245 -313h152l149 159l150 -159h154z" />
    <glyph glyph-name="uni015E" unicode="&#x15e;" horiz-adv-x="1220" 
d="M90 398q0 -198 145 -313t385 -115t380 115t140 295t-106 279t-340 165t-309 121t-75 150q0 105 73 166t227 61t232 -71t78 -187v-12h192v12q0 184 -136 303t-366 119t-360 -113t-130 -283t99 -262.5t337 -161.5q229 -66 311.5 -126t82.5 -160q0 -110 -85 -178t-245 -68
t-249 66t-89 198v12h-192v-12zM528 20l-41 -217q84 -7 118.5 -25.5t34.5 -67.5q0 -53 -61.5 -72.5t-169.5 -18.5l7 -136q202 0 314 63t112 166q0 77 -62 123t-141 60l28 125h-139z" />
    <glyph glyph-name="uni015F" unicode="&#x15f;" horiz-adv-x="1010" 
d="M80 310v-5q0 -152 110 -243.5t320 -91.5t315 90t105 230t-92.5 215t-262.5 115t-228 75t-58 95t50.5 100t160.5 40t162.5 -43t52.5 -118v-9h185v5q0 146 -110 231.5t-290 85.5t-287.5 -86t-107.5 -216t100 -202.5t270 -112.5t221 -77.5t51 -107.5t-63.5 -114t-173.5 -44
t-177 46t-67 137v5h-186zM433 20l-41 -177q84 -7 113.5 -25.5t29.5 -67.5q0 -53 -39.5 -76.5t-161.5 -23.5l7 -107q202 0 289 58t87 151q0 87 -63 125t-120 48l28 95h-129z" />
    <glyph glyph-name="uni0160" unicode="&#x160;" horiz-adv-x="1220" 
d="M90 398q0 -198 145 -313t385 -115t380 115t140 295t-106 279t-340 165t-309 121t-75 150q0 105 73 166t227 61t232 -71t78 -187v-12h192v12q0 184 -136 303t-366 119t-360 -113t-130 -283t99 -262.5t337 -161.5q229 -66 311.5 -126t82.5 -160q0 -110 -85 -178t-245 -68
t-249 66t-89 198v12h-192v-12zM535 1600h144l257 340h-173l-160 -182l-166 182h-167z" />
    <glyph glyph-name="uni0161" unicode="&#x161;" horiz-adv-x="1010" 
d="M80 310v-5q0 -152 110 -243.5t320 -91.5t315 90t105 230t-92.5 215t-262.5 115t-228 75t-58 95t50.5 100t160.5 40t162.5 -43t52.5 -118v-9h185v5q0 146 -110 231.5t-290 85.5t-287.5 -86t-107.5 -216t100 -202.5t270 -112.5t221 -77.5t51 -107.5t-63.5 -114t-173.5 -44
t-177 46t-67 137v5h-186zM452 1220h112l245 313h-152l-149 -159l-150 159h-154z" />
    <glyph glyph-name="uni0162" unicode="&#x162;" horiz-adv-x="1176" 
d="M24 1298h468v-1298h192v1298h468v158h-1128v-158zM506 20l-41 -217q84 -7 118.5 -25.5t34.5 -67.5q0 -53 -61.5 -72.5t-169.5 -18.5l7 -136q202 0 314 63t112 166q0 77 -62 123t-141 60l28 125h-139z" />
    <glyph glyph-name="uni0163" unicode="&#x163;" horiz-adv-x="650" 
d="M0 910h600v142h-600v-142zM188 260q0 -150 68.5 -220t183.5 -70q50 0 92 9t68 21v152q-28 -10 -55 -16t-55 -6q-60 0 -88 30t-28 100v1052h-186v-316v-30v-706zM326 20l-41 -177q84 -7 113.5 -25.5t29.5 -67.5q0 -53 -39.5 -76.5t-161.5 -23.5l7 -107q202 0 289 58
t87 151q0 87 -63 125t-120 48l28 95h-129z" />
    <glyph glyph-name="uni0164" unicode="&#x164;" horiz-adv-x="1176" 
d="M24 1298h468v-1298h192v1298h468v158h-1128v-158zM513 1600h144l257 340h-173l-160 -182l-166 182h-167z" />
    <glyph glyph-name="uni0165" unicode="&#x165;" horiz-adv-x="1112" 
d="M0 910h600v142h-600v-142zM188 260q0 -150 68.5 -220t183.5 -70q50 0 92 9t68 21v152q-28 -10 -55 -16t-55 -6q-60 0 -88 30t-28 100v1052h-186v-316v-30v-706zM770 1092l128 -35l164 370l-190 54z" />
    <glyph glyph-name="uni0166" unicode="&#x166;" horiz-adv-x="1176" 
d="M24 1298h468v-1298h192v1298h468v158h-1128v-158zM286 645h605v166h-605v-166z" />
    <glyph glyph-name="uni0167" unicode="&#x167;" horiz-adv-x="651" 
d="M0 910h600v142h-600v-142zM188 260q0 -150 68.5 -220t183.5 -70q50 0 92 9t68 21v152q-28 -10 -55 -16t-55 -6q-60 0 -88 30t-28 100v1052h-186v-316v-30v-706zM304 546h325v146h-285h-311l-11 -146h282z" />
    <glyph glyph-name="uni0168" unicode="&#x168;" horiz-adv-x="1364" 
d="M155 470q0 -250 153.5 -375t373.5 -125t373.5 125t153.5 375v986h-192v-986q0 -170 -92.5 -253t-242.5 -83t-242.5 83t-92.5 253v986h-192v-986zM275 1710l75 -85q20 30 69 69.5t102 39.5q33 0 74.5 -19t77.5 -44q32 -22 85.5 -46.5t106.5 -24.5q63 0 132.5 44.5
t111.5 126.5l-68 85q-26 -39 -68.5 -67.5t-88.5 -28.5q-47 0 -95.5 28t-78.5 46q-42 28 -83 43t-87 15q-77 0 -152.5 -56.5t-112.5 -125.5z" />
    <glyph glyph-name="uni0169" unicode="&#x169;" horiz-adv-x="1138" 
d="M138 373q0 -212 94.5 -302.5t253.5 -90.5q100 0 182.5 41.5t139.5 113.5h6l8 -135h168v1052h-186v-744q-38 -76 -106 -124t-157 -48q-104 0 -160.5 54.5t-56.5 180.5v681h-186v-679zM213 1326l76 -92q18 27 58.5 63t87.5 36q29 0 63 -17t68 -36q31 -17 78 -38.5t96 -21.5
q57 0 123.5 36t104.5 107l-81 98q-23 -36 -58 -62.5t-75 -26.5q-38 0 -77 22t-73 44q-37 24 -74.5 36.5t-78.5 12.5q-67 0 -136 -49t-102 -112z" />
    <glyph glyph-name="uni016A" unicode="&#x16a;" horiz-adv-x="1364" 
d="M155 470q0 -250 153.5 -375t373.5 -125t373.5 125t153.5 375v986h-192v-986q0 -170 -92.5 -253t-242.5 -83t-242.5 83t-92.5 253v986h-192v-986zM386 1674h592v156h-592v-156z" />
    <glyph glyph-name="uni016B" unicode="&#x16b;" horiz-adv-x="1138" 
d="M138 373q0 -212 94.5 -302.5t253.5 -90.5q100 0 182.5 41.5t139.5 113.5h6l8 -135h168v1052h-186v-744q-38 -76 -106 -124t-157 -48q-104 0 -160.5 54.5t-56.5 180.5v681h-186v-679zM883 1372h-628v-152h628v152z" />
    <glyph glyph-name="uni016C" unicode="&#x16c;" horiz-adv-x="1364" 
d="M155 470q0 -250 153.5 -375t373.5 -125t373.5 125t153.5 375v986h-192v-986q0 -170 -92.5 -253t-242.5 -83t-242.5 83t-92.5 253v986h-192v-986zM973 1936q-43 -68 -116 -117.5t-175 -49.5q-95 0 -167.5 52t-115.5 115l-100 -69q48 -114 151.5 -190.5t231.5 -76.5
q144 0 244.5 83.5t139.5 182.5z" />
    <glyph glyph-name="uni016D" unicode="&#x16d;" horiz-adv-x="1138" 
d="M138 373q0 -212 94.5 -302.5t253.5 -90.5q100 0 182.5 41.5t139.5 113.5h6l8 -135h168v1052h-186v-744q-38 -76 -106 -124t-157 -48q-104 0 -160.5 54.5t-56.5 180.5v681h-186v-679zM812 1518q-36 -61 -96 -108.5t-144 -47.5q-79 0 -138.5 49.5t-94.5 106.5l-104 -53
q42 -114 132.5 -190.5t203.5 -76.5q126 0 213.5 83.5t122.5 182.5z" />
    <glyph glyph-name="uni016E" unicode="&#x16e;" horiz-adv-x="1364" 
d="M155 470q0 -250 153.5 -375t373.5 -125t373.5 125t153.5 375v986h-192v-986q0 -170 -92.5 -253t-242.5 -83t-242.5 83t-92.5 253v986h-192v-986zM443 1829q0 -100 67.5 -164.5t171.5 -64.5t171.5 64.5t67.5 164.5t-67.5 164.5t-171.5 64.5t-171.5 -64.5t-67.5 -164.5z
M569 1829q0 55 29 84t84 29q52 0 82.5 -31t30.5 -82q0 -55 -29 -84t-84 -29q-52 0 -82.5 31t-30.5 82z" />
    <glyph glyph-name="uni016F" unicode="&#x16f;" horiz-adv-x="1138" 
d="M138 373q0 -212 94.5 -302.5t253.5 -90.5q100 0 182.5 41.5t139.5 113.5h6l8 -135h168v1052h-186v-744q-38 -76 -106 -124t-157 -48q-104 0 -160.5 54.5t-56.5 180.5v681h-186v-679zM343 1434q0 -91 65 -152.5t161 -61.5q94 0 160 61.5t66 152.5q0 90 -66 154t-160 64
q-96 0 -161 -64t-65 -154zM453 1434q0 46 32.5 82t83.5 36t83.5 -36t32.5 -82t-32.5 -80.5t-83.5 -34.5t-83.5 35.5t-32.5 79.5z" />
    <glyph glyph-name="uni0170" unicode="&#x170;" horiz-adv-x="1364" 
d="M155 470q0 -250 153.5 -375t373.5 -125t373.5 125t153.5 375v986h-192v-986q0 -170 -92.5 -253t-242.5 -83t-242.5 83t-92.5 253v986h-192v-986zM419 1659l127 -59l248 299l-162 99zM753 1659l127 -59l248 299l-162 99z" />
    <glyph glyph-name="uni0171" unicode="&#x171;" horiz-adv-x="1138" 
d="M138 373q0 -212 94.5 -302.5t253.5 -90.5q100 0 182.5 41.5t139.5 113.5h6l8 -135h168v1052h-186v-744q-38 -76 -106 -124t-157 -48q-104 0 -160.5 54.5t-56.5 180.5v681h-186v-679zM322 1290l85 -86l299 275l-143 105zM632 1290l85 -86l299 275l-143 105z" />
    <glyph glyph-name="uni0172" unicode="&#x172;" horiz-adv-x="1364" 
d="M155 470q0 -250 153.5 -375t373.5 -125t373.5 125t153.5 375v986h-192v-986q0 -170 -92.5 -253t-242.5 -83t-242.5 83t-92.5 253v986h-192v-986zM541 -306q0 -78 76 -134.5t181 -56.5q104 0 192 39.5t133 100.5l-57 103q-62 -47 -128 -70t-113 -23q-52 0 -82 27.5
t-30 75.5q0 45 32.5 92t137.5 152l-95 51q-119 -92 -183 -180t-64 -177z" />
    <glyph glyph-name="uni0173" unicode="&#x173;" horiz-adv-x="1138" 
d="M138 373q0 -212 94.5 -302.5t253.5 -90.5q100 0 182.5 41.5t139.5 113.5h6l8 -135h168v1052h-186v-744q-38 -76 -106 -124t-157 -48q-104 0 -160.5 54.5t-56.5 180.5v681h-186v-679zM916 57q-136 -63 -197 -141.5t-61 -158.5q0 -93 55.5 -142t136.5 -49q59 0 97.5 14.5
t63.5 29.5l-14 122q-15 -8 -41 -17.5t-59 -9.5q-43 0 -60.5 20t-17.5 53q0 65 53.5 119.5t117.5 102.5z" />
    <glyph glyph-name="uni0174" unicode="&#x174;" horiz-adv-x="1812" 
d="M408 -10h186l281 1080q9 34 15.5 64.5t11.5 63.5h8q5 -33 11.5 -63.5t15.5 -64.5l281 -1080h186l358 1466h-190l-238 -1078q-8 -34 -12 -54.5t-8 -53.5h-9q-4 33 -7.5 53.5t-12.5 54.5l-281 1078h-194l-271 -1078q-9 -34 -12.5 -54.5t-7.5 -53.5h-10q-4 33 -7.5 53.5
t-11.5 54.5l-248 1078h-192zM967 1975h-144l-257 -340h173l160 182l166 -184l167 2z" />
    <glyph glyph-name="uni0175" unicode="&#x175;" horiz-adv-x="1546" 
d="M25 1052l325 -1052h145l229 680q13 40 24.5 80t21.5 80h6q10 -40 21.5 -80t24.5 -80l229 -680h145l325 1052h-170l-188 -692q-11 -40 -16.5 -65t-13.5 -65h-6q-8 40 -14.5 65t-20.5 65l-236 692h-156l-229 -692q-13 -40 -19.5 -65t-14.5 -65h-6q-8 40 -14.5 65t-17.5 65
l-194 692h-180zM829 1533h-112l-245 -313h152l149 159l150 -159h154z" />
    <glyph glyph-name="uni0176" unicode="&#x176;" horiz-adv-x="1228" 
d="M518 0h192v544l503 912h-208l-332 -616q-16 -30 -29.5 -55t-24.5 -52h-6q-11 27 -24.5 52t-29.5 55l-328 616h-216l503 -912v-544zM675 1975h-144l-257 -340h173l160 182l166 -184l167 2z" />
    <glyph glyph-name="uni0177" unicode="&#x177;" horiz-adv-x="942" 
d="M50 -416q28 -10 59 -15t71 -5q120 0 202.5 78t132.5 218l427 1192h-176l-232 -692q-13 -40 -24.5 -75t-20.5 -65h-6q-8 30 -19 65t-25 75l-249 692h-180l392 -1047v-1q-58 -175 -110 -227.5t-122 -52.5q-30 0 -62 5t-58 13v-158zM545 1533h-112l-245 -313h152l149 159
l150 -159h154z" />
    <glyph glyph-name="uni0178" unicode="&#x178;" horiz-adv-x="1228" 
d="M518 0h192v544l503 912h-208l-332 -616q-16 -30 -29.5 -55t-24.5 -52h-6q-11 27 -24.5 52t-29.5 55l-328 616h-216l503 -912v-544zM268 1787q0 -51 31.5 -82t84.5 -31q57 0 86.5 29.5t29.5 83.5q0 51 -31.5 82.5t-84.5 31.5q-56 0 -86 -29.5t-30 -84.5zM728 1787
q0 -51 31.5 -82t84.5 -31q57 0 86.5 29.5t29.5 83.5q0 51 -31.5 82.5t-84.5 31.5q-56 0 -86 -29.5t-30 -84.5z" />
    <glyph glyph-name="uni0179" unicode="&#x179;" horiz-adv-x="1190" 
d="M65 0h1059v158h-830l798 1158v140h-1015v-158h786l-798 -1158v-140zM479 1659l127 -59l248 299l-162 99z" />
    <glyph glyph-name="uni017A" unicode="&#x17a;" horiz-adv-x="992" 
d="M70 0h858v152h-636l606 767v133h-820v-152h596l-604 -764v-136zM339 1306l95 -86l299 275l-153 105z" />
    <glyph glyph-name="uni017B" unicode="&#x17b;" horiz-adv-x="1190" 
d="M65 0h1059v158h-830l798 1158v140h-1015v-158h786l-798 -1158v-140zM479 1725q0 -47 30 -79t86 -32t86 32t30 79t-30 79t-86 32t-86 -32t-30 -79z" />
    <glyph glyph-name="uni017C" unicode="&#x17c;" horiz-adv-x="992" 
d="M70 0h858v152h-636l606 767v133h-820v-152h596l-604 -764v-136zM380 1345q0 -47 30 -79t86 -32t86 32t30 79t-30 79t-86 32t-86 -32t-30 -79z" />
    <glyph glyph-name="uni017D" unicode="&#x17d;" horiz-adv-x="1190" 
d="M65 0h1059v158h-830l798 1158v140h-1015v-158h786l-798 -1158v-140zM520 1600h144l257 340h-173l-160 -182l-166 182h-167z" />
    <glyph glyph-name="uni017E" unicode="&#x17e;" horiz-adv-x="992" 
d="M70 0h858v152h-636l606 767v133h-820v-152h596l-604 -764v-136zM443 1220h112l245 313h-152l-149 -159l-150 159h-154z" />
    <glyph glyph-name="uni018F" unicode="&#x18f;" horiz-adv-x="1446" 
d="M64 1199l93 -73q61 108 186.5 178.5t307.5 70.5q209 0 365.5 -164t158.5 -462q2 -287 -130.5 -469.5t-342.5 -182.5q-199 0 -301.5 109t-102.5 275v75l367 6l563 -8v132h-1126v-108q0 -297 157 -452.5t433 -155.5q290 0 482 237.5t192 581.5q0 305 -182 517.5t-515 212.5
q-217 0 -362 -81.5t-243 -238.5z" />
    <glyph glyph-name="uni0192" unicode="&#x192;" 
d="M868 882h-313v244q0 98 43.5 146t113.5 48q47 0 89 -15t81 -46l81 145q-40 30 -104.5 56.5t-150.5 26.5q-157 0 -247.5 -93t-90.5 -268v-244h-241v-142h241v-629q0 -233 -73 -314t-194 -81q-14 0 -48.5 3.5t-49.5 9.5l-14 -149q28 -10 54.5 -13.5t57.5 -3.5
q246 0 349 132t103 416v629h313v142z" />
    <glyph glyph-name="uni01A0" unicode="&#x1a0;" horiz-adv-x="1460" 
d="M115 682q0 -336 172.5 -524t442.5 -188t442.5 188t172.5 524v92q0 336 -172.5 524t-442.5 188t-442.5 -188t-172.5 -524v-92zM309 682v92q0 256 115.5 402t305.5 146t305.5 -146t115.5 -402v-92q0 -256 -115.5 -402t-305.5 -146t-305.5 146t-115.5 402zM924 1456v-111
q26 -9 62 -15t82 -6q96 0 166 42.5t70 130.5q0 64 -16.5 114t-36.5 83h-146q10 -36 16.5 -71t6.5 -81q0 -52 -36 -69t-84 -17h-84z" />
    <glyph glyph-name="uni01A1" unicode="&#x1a1;" horiz-adv-x="1162" 
d="M85 510q0 -238 135 -389t361 -151t361 151t135 389v32q0 238 -135 389t-361 151t-361 -151t-135 -389v-32zM275 542q0 163 77 275.5t229 112.5t229 -112.5t77 -275.5v-32q0 -163 -77 -275.5t-229 -112.5t-229 112.5t-77 275.5v32zM734 1052v-111q26 -9 62 -15t82 -6
q96 0 166 42.5t70 130.5q0 64 -16.5 115.5t-36.5 84.5h-146q10 -36 16.5 -72.5t6.5 -82.5q0 -52 -36 -69t-84 -17h-84z" />
    <glyph glyph-name="uni01AF" unicode="&#x1af;" horiz-adv-x="1364" 
d="M155 470q0 -250 153.5 -375t373.5 -125t373.5 125t153.5 375v986h-192v-986q0 -170 -92.5 -253t-242.5 -83t-242.5 83t-92.5 253v986h-192v-986zM1113 1456v-111q26 -9 62 -15t82 -6q96 0 166 42.5t70 130.5q0 64 -16.5 114t-36.5 83h-146q10 -36 16.5 -71t6.5 -81
q0 -52 -36 -69t-84 -17h-84z" />
    <glyph glyph-name="uni01B0" unicode="&#x1b0;" horiz-adv-x="1138" 
d="M138 373q0 -212 94.5 -302.5t253.5 -90.5q100 0 182.5 41.5t139.5 113.5h6l8 -135h168v1052h-186v-744q-38 -76 -106 -124t-157 -48q-104 0 -160.5 54.5t-56.5 180.5v681h-186v-679zM870 1052v-111q26 -9 62 -15t82 -6q96 0 166 42.5t70 130.5q0 64 -16.5 115.5
t-36.5 84.5h-146q10 -36 16.5 -72.5t6.5 -82.5q0 -52 -36 -69t-84 -17h-84z" />
    <glyph glyph-name="uni01C4" unicode="&#x1c4;" horiz-adv-x="2537" 
d="M170 0h432q280 0 466.5 185t186.5 497v92q0 312 -186.5 497t-466.5 185h-432v-1456zM362 158v1140h240q210 0 334.5 -139t124.5 -385v-92q0 -246 -124.5 -385t-334.5 -139h-240zM1412 0h1059v158h-830l798 1158v140h-1015v-158h786l-798 -1158v-140zM1867 1600h144
l257 340h-173l-160 -182l-166 182h-167z" />
    <glyph glyph-name="uni01C5" unicode="&#x1c5;" horiz-adv-x="2362" 
d="M170 0h432q280 0 466.5 185t186.5 497v92q0 312 -186.5 497t-466.5 185h-432v-1456zM362 158v1140h240q210 0 334.5 -139t124.5 -385v-92q0 -246 -124.5 -385t-334.5 -139h-240zM1440 0h858v152h-636l606 767v133h-820v-152h596l-604 -764v-136zM1813 1220h112l245 313
h-152l-149 -159l-150 159h-154z" />
    <glyph glyph-name="uni01C6" unicode="&#x1c6;" horiz-adv-x="2162" 
d="M85 510q0 -230 120 -380t320 -150q110 0 192.5 46t122.5 111h6l8 -137h168v1536h-186v-608q-46 65 -123.5 104.5t-187.5 39.5q-200 0 -320 -150t-120 -380v-32zM275 510v32q0 160 70 269t220 109q100 0 170 -55t101 -125v-428q-31 -70 -101 -125t-170 -55
q-150 0 -220 109t-70 269zM1240 0h858v152h-636l606 767v133h-820v-152h596l-604 -764v-136zM1613 1220h112l245 313h-152l-149 -159l-150 159h-154z" />
    <glyph glyph-name="uni01C7" unicode="&#x1c7;" horiz-adv-x="2206" 
d="M170 0h882v158h-690v1298h-192v-1456zM1131 400q0 -200 127.5 -315t332.5 -115t332.5 122.5t127.5 332.5v1031h-192v-1031q0 -140 -71.5 -215.5t-196.5 -75.5t-196.5 68t-71.5 198v10h-192v-10z" />
    <glyph glyph-name="uni01C8" unicode="&#x1c8;" horiz-adv-x="1606" 
d="M170 0h882v158h-690v1298h-192v-1456zM1012 -410q25 -9 74.5 -17.5t89.5 -8.5q134 0 203.5 83t69.5 263v1142h-186v-1182q0 -80 -33.5 -115t-93.5 -35q-30 0 -67 7t-57 13v-150zM1240 1370q0 -47 30 -79t86 -32t86 32t30 79t-30 79t-86 32t-86 -32t-30 -79z" />
    <glyph glyph-name="uni01C9" unicode="&#x1c9;" horiz-adv-x="998" 
d="M156 0h186v1536h-186v-1536zM404 -410q25 -9 74.5 -17.5t89.5 -8.5q134 0 203.5 83t69.5 263v1142h-186v-1182q0 -80 -33.5 -115t-93.5 -35q-30 0 -67 7t-57 13v-150zM632 1370q0 -47 30 -79t86 -32t86 32t30 79t-30 79t-86 32t-86 -32t-30 -79z" />
    <glyph glyph-name="uni01CA" unicode="&#x1ca;" horiz-adv-x="2560" 
d="M170 0h188v1000q0 30 -0.5 67.5t-1.5 67.5h7q14 -25 31 -55t37 -60l659 -1020h200v1456h-188v-1000q0 -30 0.5 -67.5t1.5 -67.5h-8q-12 25 -29.5 55t-37.5 60l-659 1020h-200v-1456zM1485 400q0 -200 127.5 -315t332.5 -115t332.5 122.5t127.5 332.5v1031h-192v-1031
q0 -140 -71.5 -215.5t-196.5 -75.5t-196.5 68t-71.5 198v10h-192v-10z" />
    <glyph glyph-name="uni01CB" unicode="&#x1cb;" horiz-adv-x="1960" 
d="M170 0h188v1000q0 30 -0.5 67.5t-1.5 67.5h7q14 -25 31 -55t37 -60l659 -1020h200v1456h-188v-1000q0 -30 0.5 -67.5t1.5 -67.5h-8q-12 25 -29.5 55t-37.5 60l-659 1020h-200v-1456zM1366 -410q25 -9 74.5 -17.5t89.5 -8.5q134 0 203.5 83t69.5 263v1142h-186v-1182
q0 -80 -33.5 -115t-93.5 -35q-30 0 -67 7t-57 13v-150zM1594 1370q0 -47 30 -79t86 -32t86 32t30 79t-30 79t-86 32t-86 -32t-30 -79z" />
    <glyph glyph-name="uni01CC" unicode="&#x1cc;" horiz-adv-x="1638" 
d="M148 0h186v744q38 76 106 124t157 48q104 0 160.5 -54.5t56.5 -180.5v-681h186v679q0 212 -94.5 302.5t-253.5 90.5q-100 0 -182.5 -41.5t-139.5 -113.5h-6l-8 135h-168v-1052zM1044 -410q25 -9 74.5 -17.5t89.5 -8.5q134 0 203.5 83t69.5 263v1142h-186v-1182
q0 -80 -33.5 -115t-93.5 -35q-30 0 -67 7t-57 13v-150zM1272 1370q0 -47 30 -79t86 -32t86 32t30 79t-30 79t-86 32t-86 -32t-30 -79z" />
    <glyph glyph-name="uni01E6" unicode="&#x1e6;" horiz-adv-x="1407" 
d="M115 682q0 -336 172.5 -524t462.5 -188q190 0 325 60t203 130v568h-548v-158h362v-340q-72 -50 -152 -73t-190 -23q-210 0 -325.5 146t-115.5 402v92q0 256 115.5 402t306.5 146q169 0 262 -91t93 -191v-10h192l-1 11q-16 180 -156.5 312.5t-387.5 132.5
q-273 0 -445.5 -188t-172.5 -524v-92zM656 1600h144l257 340h-173l-160 -182l-166 182h-167z" />
    <glyph glyph-name="uni01E7" unicode="&#x1e7;" horiz-adv-x="1170" 
d="M124 -284q76 -66 186 -109t240 -43q210 0 341 118t131 338v1032h-168l-8 -137h-6q-40 65 -122.5 111t-192.5 46q-200 0 -320 -150t-120 -380v-32q0 -230 120 -380t320 -150q110 0 187.5 39.5t123.5 104.5v-104q0 -140 -78 -217t-213 -77q-100 0 -180 39.5t-124 90.5z
M275 510v32q0 160 70 269t220 109q100 0 170 -55t101 -125v-428q-31 -70 -101 -125t-170 -55q-150 0 -220 109t-70 269zM532 1220h112l245 313h-152l-149 -159l-150 159h-154z" />
    <glyph glyph-name="uni01EA" unicode="&#x1ea;" horiz-adv-x="1460" 
d="M115 682q0 -336 172.5 -524t442.5 -188t442.5 188t172.5 524v92q0 336 -172.5 524t-442.5 188t-442.5 -188t-172.5 -524v-92zM309 682v92q0 256 115.5 402t305.5 146t305.5 -146t115.5 -402v-92q0 -256 -115.5 -402t-305.5 -146t-305.5 146t-115.5 402zM582 -306
q0 -78 76 -134.5t181 -56.5q104 0 192 39.5t133 100.5l-57 103q-62 -47 -128 -70t-113 -23q-52 0 -82 27.5t-30 75.5q0 45 32.5 92t137.5 152l-95 51q-119 -92 -183 -180t-64 -177z" />
    <glyph glyph-name="uni01EB" unicode="&#x1eb;" horiz-adv-x="1162" 
d="M85 510q0 -238 135 -389t361 -151t361 151t135 389v32q0 238 -135 389t-361 151t-361 -151t-135 -389v-32zM275 542q0 163 77 275.5t229 112.5t229 -112.5t77 -275.5v-32q0 -163 -77 -275.5t-229 -112.5t-229 112.5t-77 275.5v32zM717 57q-136 -63 -197 -141.5
t-61 -158.5q0 -93 55.5 -142t136.5 -49q59 0 97.5 14.5t63.5 29.5l-14 122q-15 -8 -41 -17.5t-59 -9.5q-43 0 -60.5 20t-17.5 53q0 65 53.5 119.5t117.5 102.5z" />
    <glyph glyph-name="uni01FA" unicode="&#x1fa;" horiz-adv-x="1280" 
d="M0 0h192l404 1100q12 33 21 64t16 64h10q7 -33 16 -64t21 -64l400 -1100h200l-554 1466h-172zM238 380h801l-58 158h-684zM414 1838q0 -91 65 -152.5t161 -61.5q94 0 160 61.5t66 152.5q0 90 -66 154t-160 64q-96 0 -161 -64t-65 -154zM524 1838q0 46 32.5 82t83.5 36
t83.5 -36t32.5 -82t-32.5 -80.5t-83.5 -34.5t-83.5 35.5t-32.5 79.5zM430 2235l82 -110l337 172l-116 164z" />
    <glyph glyph-name="uni01FB" unicode="&#x1fb;" horiz-adv-x="1106" 
d="M90 310q0 -160 105 -245t255 -85q130 0 212.5 50t119.5 115q3 -40 14.5 -80t25.5 -65h180v16q-18 44 -28 101.5t-10 122.5v480q0 180 -104.5 271t-294.5 91t-301.5 -93.5t-111.5 -218.5v-5h185v5q0 65 51.5 114.5t171.5 49.5t169 -59.5t49 -154.5v-72h-238
q-196 0 -323 -89t-127 -249zM276 320q0 90 72 143t212 53h218v-151q0 -85 -89 -161t-199 -76t-162 51t-52 141zM327 1434q0 -91 65 -152.5t161 -61.5q94 0 160 61.5t66 152.5q0 90 -66 154t-160 64q-96 0 -161 -64t-65 -154zM437 1434q0 46 32.5 82t83.5 36t83.5 -36
t32.5 -82t-32.5 -80.5t-83.5 -34.5t-83.5 35.5t-32.5 79.5zM396 1906l95 -86l299 275l-153 105z" />
    <glyph glyph-name="uni01FC" unicode="&#x1fc;" horiz-adv-x="1914" 
d="M302 353h733v175h-633zM-15 0h227l718 1238v-1238h916v158h-724v514h622v158h-622v468h714v158h-970zM877 1659l127 -59l248 299l-162 99z" />
    <glyph glyph-name="uni01FD" unicode="&#x1fd;" horiz-adv-x="1772" 
d="M276 320q0 90 72 143t212 53h218v-151q0 -85 -89 -161t-199 -76t-162 51t-52 141zM90 300q0 -150 105 -235t255 -85q152 0 252 59.5t141 173.5q54 -123 170 -183t262 -60q150 0 254.5 65t154.5 140l-120 95q-45 -60 -117 -104t-172 -44q-162 0 -239 112.5t-77 275.5v32
q0 163 73 275.5t210 112.5q133 0 197.5 -80t65.5 -194l-1 -24h-621v-148h809v76q0 240 -116 381t-331 141q-146 0 -230 -66t-104 -144q-10 77 -96 143.5t-250 66.5q-190 0 -301.5 -93.5t-111.5 -218.5v-5h185v5q0 65 51.5 114.5t171.5 49.5t169 -59.5t49 -154.5v-72h-238
q-196 0 -323 -89t-127 -259zM743 1306l95 -86l299 275l-153 105z" />
    <glyph glyph-name="uni01FE" unicode="&#x1fe;" horiz-adv-x="1460" 
d="M115 682q0 -336 172.5 -524t442.5 -188t442.5 188t172.5 524v92q0 336 -172.5 524t-442.5 188t-442.5 -188t-172.5 -524v-92zM309 682v92q0 256 115.5 402t305.5 146t305.5 -146t115.5 -402v-92q0 -256 -115.5 -402t-305.5 -146t-305.5 146t-115.5 402zM420 -135h170
l43 159l-20 4l193 749l-108 68l-206 -790l-18 5zM869 1592l-43 -158l20 -5l-148 -584l108 -68l160 625l21 -4l53 194h-171zM614 1659l127 -59l248 299l-162 99z" />
    <glyph glyph-name="uni01FF" unicode="&#x1ff;" horiz-adv-x="1162" 
d="M85 510q0 -238 135 -389t361 -151t361 151t135 389v32q0 238 -135 389t-361 151t-361 -151t-135 -389v-32zM275 542q0 163 77 275.5t229 112.5t229 -112.5t77 -275.5v-32q0 -163 -77 -275.5t-229 -112.5t-229 112.5t-77 275.5v32zM243 -102l165 -5l74 174l-20 4l183 459
l-99 70l-201 -500l-18 5zM749 1160l-64 -157l20 -6l-159 -397l99 -70l176 439l21 -5l78 193zM424 1306l95 -86l299 275l-153 105z" />
    <glyph glyph-name="uni0200" unicode="&#x200;" horiz-adv-x="1280" 
d="M0 0h192l404 1100q12 33 21 64t16 64h10q7 -33 16 -64t21 -64l400 -1100h200l-554 1466h-172zM238 380h801l-58 158h-684zM496 1600l112 75l-192 299l-157 -98zM796 1600l112 75l-192 299l-157 -98z" />
    <glyph glyph-name="uni0201" unicode="&#x201;" horiz-adv-x="1106" 
d="M90 310q0 -160 105 -245t255 -85q130 0 212.5 50t119.5 115q3 -40 14.5 -80t25.5 -65h180v16q-18 44 -28 101.5t-10 122.5v480q0 180 -104.5 271t-294.5 91t-301.5 -93.5t-111.5 -218.5v-5h185v5q0 65 51.5 114.5t171.5 49.5t169 -59.5t49 -154.5v-72h-238
q-196 0 -323 -89t-127 -249zM276 320q0 90 72 143t212 53h218v-151q0 -85 -89 -161t-199 -76t-162 51t-52 141zM386 1219l105 79l-251 301l-153 -105zM724 1219l105 79l-251 301l-153 -105z" />
    <glyph glyph-name="uni0202" unicode="&#x202;" horiz-adv-x="1280" 
d="M0 0h192l404 1100q12 33 21 64t16 64h10q7 -33 16 -64t21 -64l400 -1100h200l-554 1466h-172zM238 380h801l-58 158h-684zM350 1600q43 68 116 117.5t175 49.5q95 0 167.5 -52t115.5 -115l100 69q-48 114 -151.5 190.5t-231.5 76.5q-144 0 -244.5 -83.5t-139.5 -182.5z
" />
    <glyph glyph-name="uni0203" unicode="&#x203;" horiz-adv-x="1106" 
d="M90 310q0 -160 105 -245t255 -85q130 0 212.5 50t119.5 115q3 -40 14.5 -80t25.5 -65h180v16q-18 44 -28 101.5t-10 122.5v480q0 180 -104.5 271t-294.5 91t-301.5 -93.5t-111.5 -218.5v-5h185v5q0 65 51.5 114.5t171.5 49.5t169 -59.5t49 -154.5v-72h-238
q-196 0 -323 -89t-127 -249zM276 320q0 90 72 143t212 53h218v-151q0 -85 -89 -161t-199 -76t-162 51t-52 141zM313 1220q36 61 96 108.5t144 47.5q79 0 138.5 -49.5t94.5 -106.5l104 53q-42 114 -132.5 190.5t-203.5 76.5q-126 0 -213.5 -83.5t-122.5 -182.5z" />
    <glyph glyph-name="uni0204" unicode="&#x204;" horiz-adv-x="1162" 
d="M170 0h924v158h-732v514h630v158h-630v468h722v158h-914v-1456zM490 1600l112 75l-192 299l-157 -98zM790 1600l112 75l-192 299l-157 -98z" />
    <glyph glyph-name="uni0205" unicode="&#x205;" horiz-adv-x="1088" 
d="M85 510q0 -238 130.5 -389t375.5 -151q150 0 254.5 65t154.5 140l-120 95q-45 -60 -117 -104t-172 -44q-162 0 -239 112.5t-77 275.5v32q0 163 73 275.5t221 112.5q122 0 187 -80t65 -194v-24h-622v-148h809v76q0 240 -116 381t-331 141t-345.5 -151t-130.5 -389v-32z
M393 1219l105 79l-251 301l-153 -105zM731 1219l105 79l-251 301l-153 -105z" />
    <glyph glyph-name="uni0206" unicode="&#x206;" horiz-adv-x="1162" 
d="M170 0h924v158h-732v514h630v158h-630v468h722v158h-914v-1456zM344 1600q43 68 116 117.5t175 49.5q95 0 167.5 -52t115.5 -115l100 69q-48 114 -151.5 190.5t-231.5 76.5q-144 0 -244.5 -83.5t-139.5 -182.5z" />
    <glyph glyph-name="uni0207" unicode="&#x207;" horiz-adv-x="1088" 
d="M85 510q0 -238 130.5 -389t375.5 -151q150 0 254.5 65t154.5 140l-120 95q-45 -60 -117 -104t-172 -44q-162 0 -239 112.5t-77 275.5v32q0 163 73 275.5t221 112.5q122 0 187 -80t65 -194v-24h-622v-148h809v76q0 240 -116 381t-331 141t-345.5 -151t-130.5 -389v-32z
M320 1220q36 61 96 108.5t144 47.5q79 0 138.5 -49.5t94.5 -106.5l104 53q-42 114 -132.5 190.5t-203.5 76.5q-126 0 -213.5 -83.5t-122.5 -182.5z" />
    <glyph glyph-name="uni0208" unicode="&#x208;" horiz-adv-x="542" 
d="M175 0h192v1456h-192v-1456zM127 1600l112 75l-192 299l-157 -98zM427 1600l112 75l-192 299l-157 -98z" />
    <glyph glyph-name="uni0209" unicode="&#x209;" horiz-adv-x="500" 
d="M157 0h186v1052h-186v-1052zM83 1219l105 79l-251 301l-153 -105zM421 1219l105 79l-251 301l-153 -105z" />
    <glyph glyph-name="uni020A" unicode="&#x20a;" horiz-adv-x="542" 
d="M175 0h192v1456h-192v-1456zM-19 1600q43 68 116 117.5t175 49.5q95 0 167.5 -52t115.5 -115l100 69q-48 114 -151.5 190.5t-231.5 76.5q-144 0 -244.5 -83.5t-139.5 -182.5z" />
    <glyph glyph-name="uni020B" unicode="&#x20b;" horiz-adv-x="500" 
d="M157 0h186v1052h-186v-1052zM10 1220q36 61 96 108.5t144 47.5q79 0 138.5 -49.5t94.5 -106.5l104 53q-42 114 -132.5 190.5t-203.5 76.5q-126 0 -213.5 -83.5t-122.5 -182.5z" />
    <glyph glyph-name="uni020C" unicode="&#x20c;" horiz-adv-x="1460" 
d="M115 682q0 -336 172.5 -524t442.5 -188t442.5 188t172.5 524v92q0 336 -172.5 524t-442.5 188t-442.5 -188t-172.5 -524v-92zM309 682v92q0 256 115.5 402t305.5 146t305.5 -146t115.5 -402v-92q0 -256 -115.5 -402t-305.5 -146t-305.5 146t-115.5 402zM586 1600l112 75
l-192 299l-157 -98zM886 1600l112 75l-192 299l-157 -98z" />
    <glyph glyph-name="uni020D" unicode="&#x20d;" horiz-adv-x="1162" 
d="M85 510q0 -238 135 -389t361 -151t361 151t135 389v32q0 238 -135 389t-361 151t-361 -151t-135 -389v-32zM275 542q0 163 77 275.5t229 112.5t229 -112.5t77 -275.5v-32q0 -163 -77 -275.5t-229 -112.5t-229 112.5t-77 275.5v32zM414 1219l105 79l-251 301l-153 -105z
M752 1219l105 79l-251 301l-153 -105z" />
    <glyph glyph-name="uni020E" unicode="&#x20e;" horiz-adv-x="1460" 
d="M115 682q0 -336 172.5 -524t442.5 -188t442.5 188t172.5 524v92q0 336 -172.5 524t-442.5 188t-442.5 -188t-172.5 -524v-92zM309 682v92q0 256 115.5 402t305.5 146t305.5 -146t115.5 -402v-92q0 -256 -115.5 -402t-305.5 -146t-305.5 146t-115.5 402zM440 1600
q43 68 116 117.5t175 49.5q95 0 167.5 -52t115.5 -115l100 69q-48 114 -151.5 190.5t-231.5 76.5q-144 0 -244.5 -83.5t-139.5 -182.5z" />
    <glyph glyph-name="uni020F" unicode="&#x20f;" horiz-adv-x="1162" 
d="M85 510q0 -238 135 -389t361 -151t361 151t135 389v32q0 238 -135 389t-361 151t-361 -151t-135 -389v-32zM275 542q0 163 77 275.5t229 112.5t229 -112.5t77 -275.5v-32q0 -163 -77 -275.5t-229 -112.5t-229 112.5t-77 275.5v32zM341 1220q36 61 96 108.5t144 47.5
q79 0 138.5 -49.5t94.5 -106.5l104 53q-42 114 -132.5 190.5t-203.5 76.5q-126 0 -213.5 -83.5t-122.5 -182.5z" />
    <glyph glyph-name="uni0210" unicode="&#x210;" horiz-adv-x="1250" 
d="M170 0h192v594h282q234 0 361 120t127 314t-127 311t-361 117h-474v-1456zM362 750v550h282q166 0 231 -78t65 -194t-65 -197t-231 -81h-282zM996 0h214l-380 701l-190 -29zM461 1600l112 75l-192 299l-157 -98zM761 1600l112 75l-192 299l-157 -98z" />
    <glyph glyph-name="uni0211" unicode="&#x211;" horiz-adv-x="700" 
d="M148 0h186v740q30 70 93 117t153 47q26 0 48 -2t42 -6v172q-10 4 -34 9t-46 5q-90 0 -155 -49.5t-105 -115.5h-6l-8 135h-168v-1052zM250 1219l105 79l-251 301l-153 -105zM588 1219l105 79l-251 301l-153 -105z" />
    <glyph glyph-name="uni0212" unicode="&#x212;" horiz-adv-x="1250" 
d="M170 0h192v594h282q234 0 361 120t127 314t-127 311t-361 117h-474v-1456zM362 750v550h282q166 0 231 -78t65 -194t-65 -197t-231 -81h-282zM996 0h214l-380 701l-190 -29zM315 1600q43 68 116 117.5t175 49.5q95 0 167.5 -52t115.5 -115l100 69q-48 114 -151.5 190.5
t-231.5 76.5q-144 0 -244.5 -83.5t-139.5 -182.5z" />
    <glyph glyph-name="uni0213" unicode="&#x213;" horiz-adv-x="700" 
d="M148 0h186v740q30 70 93 117t153 47q26 0 48 -2t42 -6v172q-10 4 -34 9t-46 5q-90 0 -155 -49.5t-105 -115.5h-6l-8 135h-168v-1052zM177 1220q36 61 96 108.5t144 47.5q79 0 138.5 -49.5t94.5 -106.5l104 53q-42 114 -132.5 190.5t-203.5 76.5q-126 0 -213.5 -83.5
t-122.5 -182.5z" />
    <glyph glyph-name="uni0214" unicode="&#x214;" horiz-adv-x="1364" 
d="M155 470q0 -250 153.5 -375t373.5 -125t373.5 125t153.5 375v986h-192v-986q0 -170 -92.5 -253t-242.5 -83t-242.5 83t-92.5 253v986h-192v-986zM538 1600l112 75l-192 299l-157 -98zM838 1600l112 75l-192 299l-157 -98z" />
    <glyph glyph-name="uni0215" unicode="&#x215;" horiz-adv-x="1138" 
d="M138 373q0 -212 94.5 -302.5t253.5 -90.5q100 0 182.5 41.5t139.5 113.5h6l8 -135h168v1052h-186v-744q-38 -76 -106 -124t-157 -48q-104 0 -160.5 54.5t-56.5 180.5v681h-186v-679zM402 1219l105 79l-251 301l-153 -105zM740 1219l105 79l-251 301l-153 -105z" />
    <glyph glyph-name="uni0216" unicode="&#x216;" horiz-adv-x="1364" 
d="M155 470q0 -250 153.5 -375t373.5 -125t373.5 125t153.5 375v986h-192v-986q0 -170 -92.5 -253t-242.5 -83t-242.5 83t-92.5 253v986h-192v-986zM392 1600q43 68 116 117.5t175 49.5q95 0 167.5 -52t115.5 -115l100 69q-48 114 -151.5 190.5t-231.5 76.5
q-144 0 -244.5 -83.5t-139.5 -182.5z" />
    <glyph glyph-name="uni0217" unicode="&#x217;" horiz-adv-x="1138" 
d="M138 373q0 -212 94.5 -302.5t253.5 -90.5q100 0 182.5 41.5t139.5 113.5h6l8 -135h168v1052h-186v-744q-38 -76 -106 -124t-157 -48q-104 0 -160.5 54.5t-56.5 180.5v681h-186v-679zM329 1220q36 61 96 108.5t144 47.5q79 0 138.5 -49.5t94.5 -106.5l104 53
q-42 114 -132.5 190.5t-203.5 76.5q-126 0 -213.5 -83.5t-122.5 -182.5z" />
    <glyph glyph-name="uni0218" unicode="&#x218;" horiz-adv-x="1220" 
d="M90 398q0 -198 145 -313t385 -115t380 115t140 295t-106 279t-340 165t-309 121t-75 150q0 105 73 166t227 61t232 -71t78 -187v-12h192v12q0 184 -136 303t-366 119t-360 -113t-130 -283t99 -262.5t337 -161.5q229 -66 311.5 -126t82.5 -160q0 -110 -85 -178t-245 -68
t-249 66t-89 198v12h-192v-12zM431 -597l175 -3l137 417l-214 -2q-32 -139 -50.5 -223.5t-47.5 -188.5z" />
    <glyph glyph-name="uni0219" unicode="&#x219;" horiz-adv-x="1010" 
d="M80 310v-5q0 -152 110 -243.5t320 -91.5t315 90t105 230t-92.5 215t-262.5 115t-228 75t-58 95t50.5 100t160.5 40t162.5 -43t52.5 -118v-9h185v5q0 146 -110 231.5t-290 85.5t-287.5 -86t-107.5 -216t100 -202.5t270 -112.5t221 -77.5t51 -107.5t-63.5 -114t-173.5 -44
t-177 46t-67 137v5h-186zM368 -597l163 -3l127 377l-202 -2q-23 -128 -41 -198t-47 -174z" />
    <glyph glyph-name="uni021A" unicode="&#x21a;" horiz-adv-x="1176" 
d="M24 1298h468v-1298h192v1298h468v158h-1128v-158zM409 -597l175 -3l137 417l-214 -2q-32 -139 -50.5 -223.5t-47.5 -188.5z" />
    <glyph glyph-name="uni021B" unicode="&#x21b;" horiz-adv-x="650" 
d="M0 910h600v142h-600v-142zM188 260q0 -150 68.5 -220t183.5 -70q50 0 92 9t68 21v152q-28 -10 -55 -16t-55 -6q-60 0 -88 30t-28 100v1052h-186v-316v-30v-706zM261 -597l163 -3l127 377l-202 -2q-23 -128 -41 -198t-47 -174z" />
    <glyph glyph-name="uni022A" unicode="&#x22a;" horiz-adv-x="1460" 
d="M115 682q0 -336 172.5 -524t442.5 -188t442.5 188t172.5 524v92q0 336 -172.5 524t-442.5 188t-442.5 -188t-172.5 -524v-92zM309 682v92q0 256 115.5 402t305.5 146t305.5 -146t115.5 -402v-92q0 -256 -115.5 -402t-305.5 -146t-305.5 146t-115.5 402zM384 1647
q0 -51 31.5 -82t84.5 -31q57 0 86.5 29.5t29.5 83.5q0 51 -31.5 82.5t-84.5 31.5q-56 0 -86 -29.5t-30 -84.5zM844 1647q0 -51 31.5 -82t84.5 -31q57 0 86.5 29.5t29.5 83.5q0 51 -31.5 82.5t-84.5 31.5q-56 0 -86 -29.5t-30 -84.5zM434 1899h592v156h-592v-156z" />
    <glyph glyph-name="uni022B" unicode="&#x22b;" horiz-adv-x="1162" 
d="M85 510q0 -238 135 -389t361 -151t361 151t135 389v32q0 238 -135 389t-361 151t-361 -151t-135 -389v-32zM275 542q0 163 77 275.5t229 112.5t229 -112.5t77 -275.5v-32q0 -163 -77 -275.5t-229 -112.5t-229 112.5t-77 275.5v32zM256 1324q0 -43 28 -73.5t81 -30.5
q54 0 82 30.5t28 73.5q0 45 -28 76t-82 31q-53 0 -81 -31t-28 -76zM687 1324q0 -43 27.5 -73.5t81.5 -30.5q53 0 81.5 30.5t28.5 73.5q0 45 -28.5 76t-81.5 31q-54 0 -81.5 -31t-27.5 -76zM895 1751h-628v-152h628v152z" />
    <glyph glyph-name="uni022C" unicode="&#x22c;" horiz-adv-x="1460" 
d="M115 682q0 -336 172.5 -524t442.5 -188t442.5 188t172.5 524v92q0 336 -172.5 524t-442.5 188t-442.5 -188t-172.5 -524v-92zM309 682v92q0 256 115.5 402t305.5 146t305.5 -146t115.5 -402v-92q0 -256 -115.5 -402t-305.5 -146t-305.5 146t-115.5 402zM391 1696l98 -91
q19 30 49.5 57.5t66.5 27.5q24 0 56 -18.5t63 -39.5q30 -20 71 -37.5t90 -17.5q65 0 122 37t89 111l-94 91q-21 -39 -44.5 -59t-63.5 -20q-32 0 -65 17.5t-63 39.5q-36 26 -72.5 37t-71.5 11q-67 0 -129 -37t-102 -109zM434 1980h592v156h-592v-156z" />
    <glyph glyph-name="uni022D" unicode="&#x22d;" horiz-adv-x="1162" 
d="M85 510q0 -238 135 -389t361 -151t361 151t135 389v32q0 238 -135 389t-361 151t-361 -151t-135 -389v-32zM275 542q0 163 77 275.5t229 112.5t229 -112.5t77 -275.5v-32q0 -163 -77 -275.5t-229 -112.5t-229 112.5t-77 275.5v32zM225 1326l76 -92q18 27 58.5 63t87.5 36
q29 0 63 -17t68 -36q31 -17 78 -38.5t96 -21.5q57 0 123.5 36t104.5 107l-81 98q-23 -36 -58 -62.5t-75 -26.5q-38 0 -77 22t-73 44q-37 24 -74.5 36.5t-78.5 12.5q-67 0 -136 -49t-102 -112zM895 1807h-628v-152h628v152z" />
    <glyph glyph-name="uni0230" unicode="&#x230;" horiz-adv-x="1460" 
d="M115 682q0 -336 172.5 -524t442.5 -188t442.5 188t172.5 524v92q0 336 -172.5 524t-442.5 188t-442.5 -188t-172.5 -524v-92zM309 682v92q0 256 115.5 402t305.5 146t305.5 -146t115.5 -402v-92q0 -256 -115.5 -402t-305.5 -146t-305.5 146t-115.5 402zM614 1725
q0 -47 30 -79t86 -32t86 32t30 79t-30 79t-86 32t-86 -32t-30 -79zM434 1968h592v156h-592v-156z" />
    <glyph glyph-name="uni0231" unicode="&#x231;" horiz-adv-x="1162" 
d="M85 510q0 -238 135 -389t361 -151t361 151t135 389v32q0 238 -135 389t-361 151t-361 -151t-135 -389v-32zM275 542q0 163 77 275.5t229 112.5t229 -112.5t77 -275.5v-32q0 -163 -77 -275.5t-229 -112.5t-229 112.5t-77 275.5v32zM465 1345q0 -47 30 -79t86 -32t86 32
t30 79t-30 79t-86 32t-86 -32t-30 -79zM895 1771h-628v-152h628v152z" />
    <glyph glyph-name="uni0232" unicode="&#x232;" horiz-adv-x="1228" 
d="M518 0h192v544l503 912h-208l-332 -616q-16 -30 -29.5 -55t-24.5 -52h-6q-11 27 -24.5 52t-29.5 55l-328 616h-216l503 -912v-544zM318 1674h592v156h-592v-156z" />
    <glyph glyph-name="uni0233" unicode="&#x233;" horiz-adv-x="942" 
d="M50 -416q28 -10 59 -15t71 -5q120 0 202.5 78t132.5 218l427 1192h-176l-232 -692q-13 -40 -24.5 -75t-20.5 -65h-6q-8 30 -19 65t-25 75l-249 692h-180l392 -1047v-1q-58 -175 -110 -227.5t-122 -52.5q-30 0 -62 5t-58 13v-158zM803 1372h-628v-152h628v152z" />
    <glyph glyph-name="uni0259" unicode="&#x259;" horiz-adv-x="1088" 
d="M1003 542q0 238 -130.5 389t-375.5 151q-150 0 -254.5 -65t-154.5 -140l120 -95q45 60 117 104t172 44q162 0 239 -112.5t77 -275.5v-32q0 -163 -73 -275.5t-221 -112.5q-122 0 -186.5 80t-65.5 194l1 24h621v148h-809v-76q0 -240 116 -381t331 -141t345.5 151t130.5 389
v32z" />
    <glyph glyph-name="uni02B9" unicode="&#x2b9;" horiz-adv-x="600" 
d="M224 1502l-52 -506l122 -5l119 511h-189z" />
    <glyph glyph-name="uni02BA" unicode="&#x2ba;" horiz-adv-x="788" 
d="M224 1502l-51 -493l122 -5l118 498h-189zM524 1502l-51 -493l122 -5l118 498h-189z" />
    <glyph glyph-name="uni02BC" unicode="&#x2bc;" horiz-adv-x="600" 
d="M155 1062l43 -49q105 50 184.5 144t79.5 216q0 77 -48 125t-107 48q-63 0 -103.5 -38.5t-40.5 -96.5q0 -59 40 -96.5t111 -37.5q-15 -67 -67 -126t-92 -89z" />
    <glyph glyph-name="uni02C6" unicode="&#x2c6;" 
d="M568 1533h-112l-245 -313h152l149 159l150 -159h154z" />
    <glyph glyph-name="uni02C7" unicode="&#x2c7;" 
d="M459 1220h112l245 313h-152l-149 -159l-150 159h-154z" />
    <glyph glyph-name="uni02C9" unicode="&#x2c9;" 
d="M826 1372h-628v-152h628v152z" />
    <glyph glyph-name="uni02D8" unicode="&#x2d8;" horiz-adv-x="1022" 
d="M754 1518q-36 -61 -96 -108.5t-144 -47.5q-79 0 -138.5 49.5t-94.5 106.5l-104 -53q42 -114 132.5 -190.5t203.5 -76.5q126 0 213.5 83.5t122.5 182.5z" />
    <glyph glyph-name="uni02D9" unicode="&#x2d9;" 
d="M396 1345q0 -47 30 -79t86 -32t86 32t30 79t-30 79t-86 32t-86 -32t-30 -79z" />
    <glyph glyph-name="uni02DA" unicode="&#x2da;" 
d="M286 1434q0 -91 65 -152.5t161 -61.5q94 0 160 61.5t66 152.5q0 90 -66 154t-160 64q-96 0 -161 -64t-65 -154zM396 1434q0 46 32.5 82t83.5 36t83.5 -36t32.5 -82t-32.5 -80.5t-83.5 -34.5t-83.5 35.5t-32.5 79.5z" />
    <glyph glyph-name="uni02DB" unicode="&#x2db;" 
d="M533 57q-136 -63 -197 -141.5t-61 -158.5q0 -93 55.5 -142t136.5 -49q59 0 97.5 14.5t63.5 29.5l-14 122q-15 -8 -41 -17.5t-59 -9.5q-43 0 -60.5 20t-17.5 53q0 65 53.5 119.5t117.5 102.5z" />
    <glyph glyph-name="uni02DC" unicode="&#x2dc;" 
d="M156 1326l76 -92q18 27 58.5 63t87.5 36q29 0 63 -17t68 -36q31 -17 78 -38.5t96 -21.5q57 0 123.5 36t104.5 107l-81 98q-23 -36 -58 -62.5t-75 -26.5q-38 0 -77 22t-73 44q-37 24 -74.5 36.5t-78.5 12.5q-67 0 -136 -49t-102 -112z" />
    <glyph glyph-name="uni02DD" unicode="&#x2dd;" 
d="M265 1290l85 -86l299 275l-143 105zM575 1290l85 -86l299 275l-143 105z" />
    <glyph glyph-name="uni0300" unicode="&#x300;" 
d="M578 1219l105 79l-251 301l-153 -105z" />
    <glyph glyph-name="uni0301" unicode="&#x301;" 
d="M355 1306l95 -86l299 275l-153 105z" />
    <glyph glyph-name="uni0302" unicode="&#x302;" 
d="M568 1533h-112l-245 -313h152l149 159l150 -159h154z" />
    <glyph glyph-name="uni0303" unicode="&#x303;" 
d="M156 1326l76 -92q18 27 58.5 63t87.5 36q29 0 63 -17t68 -36q31 -17 78 -38.5t96 -21.5q57 0 123.5 36t104.5 107l-81 98q-23 -36 -58 -62.5t-75 -26.5q-38 0 -77 22t-73 44q-37 24 -74.5 36.5t-78.5 12.5q-67 0 -136 -49t-102 -112z" />
    <glyph glyph-name="uni0304" unicode="&#x304;" 
d="M826 1372h-628v-152h628v152z" />
    <glyph glyph-name="uni0306" unicode="&#x306;" horiz-adv-x="1022" 
d="M754 1518q-36 -61 -96 -108.5t-144 -47.5q-79 0 -138.5 49.5t-94.5 106.5l-104 -53q42 -114 132.5 -190.5t203.5 -76.5q126 0 213.5 83.5t122.5 182.5z" />
    <glyph glyph-name="uni0307" unicode="&#x307;" 
d="M396 1345q0 -47 30 -79t86 -32t86 32t30 79t-30 79t-86 32t-86 -32t-30 -79z" />
    <glyph glyph-name="uni0308" unicode="&#x308;" 
d="M187 1324q0 -43 28 -73.5t81 -30.5q54 0 82 30.5t28 73.5q0 45 -28 76t-82 31q-53 0 -81 -31t-28 -76zM618 1324q0 -43 27.5 -73.5t81.5 -30.5q53 0 81.5 30.5t28.5 73.5q0 45 -28.5 76t-81.5 31q-54 0 -81.5 -31t-27.5 -76z" />
    <glyph glyph-name="uni0309" unicode="&#x309;" 
d="M454 1220h123v31q143 11 207 70.5t64 160.5q0 96 -62.5 153t-182.5 57q-82 0 -159 -20.5t-112 -39.5l54 -125q10 8 66 24.5t120 16.5q54 0 83.5 -18t29.5 -57q0 -41 -20 -57t-76 -24q-76 -11 -105.5 -46t-29.5 -87v-39z" />
    <glyph glyph-name="uni030A" unicode="&#x30a;" 
d="M286 1434q0 -91 65 -152.5t161 -61.5q94 0 160 61.5t66 152.5q0 90 -66 154t-160 64q-96 0 -161 -64t-65 -154zM396 1434q0 46 32.5 82t83.5 36t83.5 -36t32.5 -82t-32.5 -80.5t-83.5 -34.5t-83.5 35.5t-32.5 79.5z" />
    <glyph glyph-name="uni030B" unicode="&#x30b;" 
d="M265 1290l85 -86l299 275l-143 105zM575 1290l85 -86l299 275l-143 105z" />
    <glyph glyph-name="uni030C" unicode="&#x30c;" 
d="M459 1220h112l245 313h-152l-149 -159l-150 159h-154z" />
    <glyph glyph-name="uni030F" unicode="&#x30f;" 
d="M272 1220q36 61 96 108.5t144 47.5q79 0 138.5 -49.5t94.5 -106.5l104 53q-42 114 -132.5 190.5t-203.5 76.5q-126 0 -213.5 -83.5t-122.5 -182.5z" />
    <glyph glyph-name="uni0311" unicode="&#x311;" 
d="M345 1219l105 79l-251 301l-153 -105zM683 1219l105 79l-251 301l-153 -105z" />
    <glyph glyph-name="uni031B" unicode="&#x31b;" 
d="M0 1052v-111q26 -9 62 -15t82 -6q96 0 166 42.5t70 130.5q0 64 -16.5 115.5t-36.5 84.5h-146q10 -36 16.5 -72.5t6.5 -82.5q0 -52 -36 -69t-84 -17h-84z" />
    <glyph glyph-name="uni0323" unicode="&#x323;" 
d="M396 -296q0 -47 30 -79t86 -32t86 32t30 79t-30 79t-86 32t-86 -32t-30 -79z" />
    <glyph glyph-name="uni0324" unicode="&#x324;" 
d="M166 -328q0 -51 31.5 -82t84.5 -31q57 0 86.5 29.5t29.5 83.5q0 51 -31.5 82.5t-84.5 31.5q-56 0 -86 -29.5t-30 -84.5zM626 -328q0 -51 31.5 -82t84.5 -31q57 0 86.5 29.5t29.5 83.5q0 51 -31.5 82.5t-84.5 31.5q-56 0 -86 -29.5t-30 -84.5z" />
    <glyph glyph-name="uni0326" unicode="&#x326;" 
d="M375 -597l163 -3l127 377l-202 -2q-23 -128 -41 -198t-47 -174z" />
    <glyph glyph-name="uni0327" unicode="&#x327;" 
d="M440 20l-41 -177q84 -7 113.5 -25.5t29.5 -67.5q0 -53 -39.5 -76.5t-161.5 -23.5l7 -107q202 0 289 58t87 151q0 87 -63 125t-120 48l28 95h-129z" />
    <glyph glyph-name="uni0328" unicode="&#x328;" 
d="M533 57q-136 -63 -197 -141.5t-61 -158.5q0 -93 55.5 -142t136.5 -49q59 0 97.5 14.5t63.5 29.5l-14 122q-15 -8 -41 -17.5t-59 -9.5q-43 0 -60.5 20t-17.5 53q0 65 53.5 119.5t117.5 102.5z" />
    <glyph glyph-name="uni032E" unicode="&#x32e;" 
d="M803 -127q-43 -68 -116 -117.5t-175 -49.5q-95 0 -167.5 52t-115.5 115l-100 -69q48 -114 151.5 -190.5t231.5 -76.5q144 0 244.5 83.5t139.5 182.5z" />
    <glyph glyph-name="uni0331" unicode="&#x331;" 
d="M216 -259h592v156h-592v-156z" />
    <glyph glyph-name="uni1E80" unicode="&#x1e80;" horiz-adv-x="1812" 
d="M408 -10h186l281 1080q9 34 15.5 64.5t11.5 63.5h8q5 -33 11.5 -63.5t15.5 -64.5l281 -1080h186l358 1466h-190l-238 -1078q-8 -34 -12 -54.5t-8 -53.5h-9q-4 33 -7.5 53.5t-12.5 54.5l-281 1078h-194l-271 -1078q-9 -34 -12.5 -54.5t-7.5 -53.5h-10q-4 33 -7.5 53.5
t-11.5 54.5l-248 1078h-192zM862 1601l112 75l-192 299l-157 -98z" />
    <glyph glyph-name="uni1E81" unicode="&#x1e81;" horiz-adv-x="1546" 
d="M25 1052l325 -1052h145l229 680q13 40 24.5 80t21.5 80h6q10 -40 21.5 -80t24.5 -80l229 -680h145l325 1052h-170l-188 -692q-11 -40 -16.5 -65t-13.5 -65h-6q-8 40 -14.5 65t-20.5 65l-236 692h-156l-229 -692q-13 -40 -19.5 -65t-14.5 -65h-6q-8 40 -14.5 65t-17.5 65
l-194 692h-180zM839 1219l105 79l-251 301l-153 -105z" />
    <glyph glyph-name="uni1E82" unicode="&#x1e82;" horiz-adv-x="1812" 
d="M408 -10h186l281 1080q9 34 15.5 64.5t11.5 63.5h8q5 -33 11.5 -63.5t15.5 -64.5l281 -1080h186l358 1466h-190l-238 -1078q-8 -34 -12 -54.5t-8 -53.5h-9q-4 33 -7.5 53.5t-12.5 54.5l-281 1078h-194l-271 -1078q-9 -34 -12.5 -54.5t-7.5 -53.5h-10q-4 33 -7.5 53.5
t-11.5 54.5l-248 1078h-192zM790 1659l127 -59l248 299l-162 99z" />
    <glyph glyph-name="uni1E83" unicode="&#x1e83;" horiz-adv-x="1546" 
d="M25 1052l325 -1052h145l229 680q13 40 24.5 80t21.5 80h6q10 -40 21.5 -80t24.5 -80l229 -680h145l325 1052h-170l-188 -692q-11 -40 -16.5 -65t-13.5 -65h-6q-8 40 -14.5 65t-20.5 65l-236 692h-156l-229 -692q-13 -40 -19.5 -65t-14.5 -65h-6q-8 40 -14.5 65t-17.5 65
l-194 692h-180zM616 1306l95 -86l299 275l-153 105z" />
    <glyph glyph-name="uni1E84" unicode="&#x1e84;" horiz-adv-x="1812" 
d="M408 -10h186l281 1080q9 34 15.5 64.5t11.5 63.5h8q5 -33 11.5 -63.5t15.5 -64.5l281 -1080h186l358 1466h-190l-238 -1078q-8 -34 -12 -54.5t-8 -53.5h-9q-4 33 -7.5 53.5t-12.5 54.5l-281 1078h-194l-271 -1078q-9 -34 -12.5 -54.5t-7.5 -53.5h-10q-4 33 -7.5 53.5
t-11.5 54.5l-248 1078h-192zM560 1787q0 -51 31.5 -82t84.5 -31q57 0 86.5 29.5t29.5 83.5q0 51 -31.5 82.5t-84.5 31.5q-56 0 -86 -29.5t-30 -84.5zM1020 1787q0 -51 31.5 -82t84.5 -31q57 0 86.5 29.5t29.5 83.5q0 51 -31.5 82.5t-84.5 31.5q-56 0 -86 -29.5t-30 -84.5z
" />
    <glyph glyph-name="uni1E85" unicode="&#x1e85;" horiz-adv-x="1546" 
d="M25 1052l325 -1052h145l229 680q13 40 24.5 80t21.5 80h6q10 -40 21.5 -80t24.5 -80l229 -680h145l325 1052h-170l-188 -692q-11 -40 -16.5 -65t-13.5 -65h-6q-8 40 -14.5 65t-20.5 65l-236 692h-156l-229 -692q-13 -40 -19.5 -65t-14.5 -65h-6q-8 40 -14.5 65t-17.5 65
l-194 692h-180zM448 1324q0 -43 28 -73.5t81 -30.5q54 0 82 30.5t28 73.5q0 45 -28 76t-82 31q-53 0 -81 -31t-28 -76zM879 1324q0 -43 27.5 -73.5t81.5 -30.5q53 0 81.5 30.5t28.5 73.5q0 45 -28.5 76t-81.5 31q-54 0 -81.5 -31t-27.5 -76z" />
    <glyph glyph-name="uni1E9E" unicode="&#x1e9e;" horiz-adv-x="1449" 
d="M178 1066v-711q0 -91 -34 -139.5t-94 -48.5q-9 0 -18.5 1t-18.5 4l2 -184q13 -2 26.5 -3t26.5 -1q135 0 218.5 100t83.5 271v681q0 162 63 237t184 75q105 0 156 -32t51 -87q0 -57 -31 -90t-101 -83q-94 -67 -131 -109.5t-37 -115.5q0 -71 58.5 -117t286.5 -130
q171 -63 237 -110t66 -144q0 -89 -69 -142t-174 -53q-136 0 -198.5 51.5t-62.5 151.5v12h-203v-12q0 -186 117.5 -277t357.5 -91q186 0 307.5 110t121.5 256q0 150 -85 240t-278 160q-190 69 -223 87t-33 38t27.5 44t78.5 61q60 44 111.5 110t51.5 168q0 103 -91 184.5
t-317 81.5q-212 0 -322.5 -121.5t-110.5 -322.5z" />
    <glyph glyph-name="uni1EA0" unicode="&#x1ea0;" horiz-adv-x="1280" 
d="M0 0h192l404 1100q12 33 21 64t16 64h10q7 -33 16 -64t21 -64l400 -1100h200l-554 1466h-172zM238 380h801l-58 158h-684zM524 -296q0 -47 30 -79t86 -32t86 32t30 79t-30 79t-86 32t-86 -32t-30 -79z" />
    <glyph glyph-name="uni1EA1" unicode="&#x1ea1;" horiz-adv-x="1106" 
d="M90 310q0 -160 105 -245t255 -85q130 0 212.5 50t119.5 115q3 -40 14.5 -80t25.5 -65h180v16q-18 44 -28 101.5t-10 122.5v480q0 180 -104.5 271t-294.5 91t-301.5 -93.5t-111.5 -218.5v-5h185v5q0 65 51.5 114.5t171.5 49.5t169 -59.5t49 -154.5v-72h-238
q-196 0 -323 -89t-127 -249zM276 320q0 90 72 143t212 53h218v-151q0 -85 -89 -161t-199 -76t-162 51t-52 141zM437 -296q0 -47 30 -79t86 -32t86 32t30 79t-30 79t-86 32t-86 -32t-30 -79z" />
    <glyph glyph-name="uni1EA2" unicode="&#x1ea2;" horiz-adv-x="1280" 
d="M0 0h192l404 1100q12 33 21 64t16 64h10q7 -33 16 -64t21 -64l400 -1100h200l-554 1466h-172zM238 380h801l-58 158h-684zM502 1600h123v31q143 11 207 70.5t64 160.5q0 96 -62.5 153t-182.5 57q-82 0 -159 -20.5t-112 -39.5l54 -125q10 8 66 24.5t120 16.5
q54 0 83.5 -18t29.5 -57q0 -41 -20 -57t-76 -24q-76 -11 -105.5 -46t-29.5 -87v-39z" />
    <glyph glyph-name="uni1EA3" unicode="&#x1ea3;" horiz-adv-x="1106" 
d="M90 310q0 -160 105 -245t255 -85q130 0 212.5 50t119.5 115q3 -40 14.5 -80t25.5 -65h180v16q-18 44 -28 101.5t-10 122.5v480q0 180 -104.5 271t-294.5 91t-301.5 -93.5t-111.5 -218.5v-5h185v5q0 65 51.5 114.5t171.5 49.5t169 -59.5t49 -154.5v-72h-238
q-196 0 -323 -89t-127 -249zM276 320q0 90 72 143t212 53h218v-151q0 -85 -89 -161t-199 -76t-162 51t-52 141zM495 1220h123v31q143 11 207 70.5t64 160.5q0 96 -62.5 153t-182.5 57q-82 0 -159 -20.5t-112 -39.5l54 -125q10 8 66 24.5t120 16.5q54 0 83.5 -18t29.5 -57
q0 -41 -20 -57t-76 -24q-76 -11 -105.5 -46t-29.5 -87v-39z" />
    <glyph glyph-name="uni1EA4" unicode="&#x1ea4;" horiz-adv-x="1280" 
d="M0 0h192l404 1100q12 33 21 64t16 64h10q7 -33 16 -64t21 -64l400 -1100h200l-554 1466h-172zM238 380h801l-58 158h-684zM707 1892h-144l-257 -290h168l165 137l169 -137h164zM930 1902l82 -110l337 172l-116 164z" />
    <glyph glyph-name="uni1EA5" unicode="&#x1ea5;" horiz-adv-x="1106" 
d="M90 310q0 -160 105 -245t255 -85q130 0 212.5 50t119.5 115q3 -40 14.5 -80t25.5 -65h180v16q-18 44 -28 101.5t-10 122.5v480q0 180 -104.5 271t-294.5 91t-301.5 -93.5t-111.5 -218.5v-5h185v5q0 65 51.5 114.5t171.5 49.5t169 -59.5t49 -154.5v-72h-238
q-196 0 -323 -89t-127 -249zM276 320q0 90 72 143t212 53h218v-151q0 -85 -89 -161t-199 -76t-162 51t-52 141zM609 1533h-112l-245 -313h152l149 159l150 -159h154zM837 1519l95 -86l299 275l-153 105z" />
    <glyph glyph-name="uni1EA6" unicode="&#x1ea6;" horiz-adv-x="1280" 
d="M0 0h192l404 1100q12 33 21 64t16 64h10q7 -33 16 -64t21 -64l400 -1100h200l-554 1466h-172zM238 380h801l-58 158h-684zM707 1892h-144l-257 -290h168l165 137l169 -137h164zM1115 1792l78 116l-354 233l-107 -163z" />
    <glyph glyph-name="uni1EA7" unicode="&#x1ea7;" horiz-adv-x="1106" 
d="M90 310q0 -160 105 -245t255 -85q130 0 212.5 50t119.5 115q3 -40 14.5 -80t25.5 -65h180v16q-18 44 -28 101.5t-10 122.5v480q0 180 -104.5 271t-294.5 91t-301.5 -93.5t-111.5 -218.5v-5h185v5q0 65 51.5 114.5t171.5 49.5t169 -59.5t49 -154.5v-72h-238
q-196 0 -323 -89t-127 -249zM276 320q0 90 72 143t212 53h218v-151q0 -85 -89 -161t-199 -76t-162 51t-52 141zM608 1533h-112l-245 -313h152l149 159l150 -159h154zM907 1433l105 79l-251 301l-153 -105z" />
    <glyph glyph-name="uni1EA8" unicode="&#x1ea8;" horiz-adv-x="1280" 
d="M0 0h192l404 1100q12 33 21 64t16 64h10q7 -33 16 -64t21 -64l400 -1100h200l-554 1466h-172zM238 380h801l-58 158h-684zM707 1892h-144l-257 -290h168l165 137l169 -137h164zM889 1819h149v43q107 10 153.5 55.5t46.5 132.5q0 84 -55 133.5t-161 49.5q-74 0 -142 -17.5
t-99 -34.5l48 -119q9 7 58.5 21.5t105.5 14.5q49 0 70 -13t21 -42q0 -36 -16 -50t-60 -21q-67 -11 -93 -36t-26 -70v-47z" />
    <glyph glyph-name="uni1EA9" unicode="&#x1ea9;" horiz-adv-x="1106" 
d="M90 310q0 -160 105 -245t255 -85q130 0 212.5 50t119.5 115q3 -40 14.5 -80t25.5 -65h180v16q-18 44 -28 101.5t-10 122.5v480q0 180 -104.5 271t-294.5 91t-301.5 -93.5t-111.5 -218.5v-5h185v5q0 65 51.5 114.5t171.5 49.5t169 -59.5t49 -154.5v-72h-238
q-196 0 -323 -89t-127 -249zM276 320q0 90 72 143t212 53h218v-151q0 -85 -89 -161t-199 -76t-162 51t-52 141zM608 1533h-112l-245 -313h152l149 159l150 -159h154zM817 1433h123v31q143 11 207 70.5t64 160.5q0 96 -62.5 153t-182.5 57q-82 0 -159 -20.5t-112 -39.5
l54 -125q10 8 66 24.5t120 16.5q54 0 83.5 -18t29.5 -57q0 -41 -20 -57t-76 -24q-76 -11 -105.5 -46t-29.5 -87v-39z" />
    <glyph glyph-name="uni1EAA" unicode="&#x1eaa;" horiz-adv-x="1280" 
d="M0 0h192l404 1100q12 33 21 64t16 64h10q7 -33 16 -64t21 -64l400 -1100h200l-554 1466h-172zM238 380h801l-58 158h-684zM707 1892h-144l-257 -290h168l165 137l169 -137h164zM287 2111l98 -91q19 30 49.5 57.5t66.5 27.5q24 0 56 -18.5t63 -39.5q30 -20 71 -37.5
t90 -17.5q65 0 122 37t89 111l-94 91q-21 -39 -44.5 -59t-63.5 -20q-32 0 -65 17.5t-63 39.5q-36 26 -72.5 37t-71.5 11q-67 0 -129 -37t-102 -109z" />
    <glyph glyph-name="uni1EAB" unicode="&#x1eab;" horiz-adv-x="1106" 
d="M90 310q0 -160 105 -245t255 -85q130 0 212.5 50t119.5 115q3 -40 14.5 -80t25.5 -65h180v16q-18 44 -28 101.5t-10 122.5v480q0 180 -104.5 271t-294.5 91t-301.5 -93.5t-111.5 -218.5v-5h185v5q0 65 51.5 114.5t171.5 49.5t169 -59.5t49 -154.5v-72h-238
q-196 0 -323 -89t-127 -249zM276 320q0 90 72 143t212 53h218v-151q0 -85 -89 -161t-199 -76t-162 51t-52 141zM608 1533h-112l-245 -313h152l149 159l150 -159h154zM176 1739l76 -92q18 27 58.5 63t87.5 36q29 0 63 -17t68 -36q31 -17 78 -38.5t96 -21.5q57 0 123.5 36
t104.5 107l-81 98q-23 -36 -58 -62.5t-75 -26.5q-38 0 -77 22t-73 44q-37 24 -74.5 36.5t-78.5 12.5q-67 0 -136 -49t-102 -112z" />
    <glyph glyph-name="uni1EAC" unicode="&#x1eac;" horiz-adv-x="1280" 
d="M0 0h192l404 1100q12 33 21 64t16 64h10q7 -33 16 -64t21 -64l400 -1100h200l-554 1466h-172zM238 380h801l-58 158h-684zM701 1975h-144l-257 -340h173l160 182l166 -184l167 2zM524 -296q0 -47 30 -79t86 -32t86 32t30 79t-30 79t-86 32t-86 -32t-30 -79z" />
    <glyph glyph-name="uni1EAD" unicode="&#x1ead;" horiz-adv-x="1106" 
d="M90 310q0 -160 105 -245t255 -85q130 0 212.5 50t119.5 115q3 -40 14.5 -80t25.5 -65h180v16q-18 44 -28 101.5t-10 122.5v480q0 180 -104.5 271t-294.5 91t-301.5 -93.5t-111.5 -218.5v-5h185v5q0 65 51.5 114.5t171.5 49.5t169 -59.5t49 -154.5v-72h-238
q-196 0 -323 -89t-127 -249zM276 320q0 90 72 143t212 53h218v-151q0 -85 -89 -161t-199 -76t-162 51t-52 141zM609 1533h-112l-245 -313h152l149 159l150 -159h154zM437 -296q0 -47 30 -79t86 -32t86 32t30 79t-30 79t-86 32t-86 -32t-30 -79z" />
    <glyph glyph-name="uni1EAE" unicode="&#x1eae;" horiz-adv-x="1280" 
d="M0 0h192l404 1100q12 33 21 64t16 64h10q7 -33 16 -64t21 -64l400 -1100h200l-554 1466h-172zM238 380h801l-58 158h-684zM902 1900q-39 -58 -104.5 -99.5t-157.5 -41.5q-85 0 -150 43.5t-104 97.5l-110 -65q46 -100 144 -167.5t220 -67.5q137 0 232.5 73.5t132.5 160.5z
M531 2060l82 -110l337 172l-116 164z" />
    <glyph glyph-name="uni1EAF" unicode="&#x1eaf;" horiz-adv-x="1106" 
d="M90 310q0 -160 105 -245t255 -85q130 0 212.5 50t119.5 115q3 -40 14.5 -80t25.5 -65h180v16q-18 44 -28 101.5t-10 122.5v480q0 180 -104.5 271t-294.5 91t-301.5 -93.5t-111.5 -218.5v-5h185v5q0 65 51.5 114.5t171.5 49.5t169 -59.5t49 -154.5v-72h-238
q-196 0 -323 -89t-127 -249zM276 320q0 90 72 143t212 53h218v-151q0 -85 -89 -161t-199 -76t-162 51t-52 141zM793 1540q-36 -61 -96 -108.5t-144 -47.5q-79 0 -138.5 49.5t-94.5 106.5l-104 -53q42 -114 132.5 -190.5t203.5 -76.5q126 0 213.5 83.5t122.5 182.5zM455 1676
l95 -86l299 275l-153 105z" />
    <glyph glyph-name="uni1EB0" unicode="&#x1eb0;" horiz-adv-x="1280" 
d="M0 0h192l404 1100q12 33 21 64t16 64h10q7 -33 16 -64t21 -64l400 -1100h200l-554 1466h-172zM238 380h801l-58 158h-684zM902 1900q-39 -58 -104.5 -99.5t-157.5 -41.5q-85 0 -150 43.5t-104 97.5l-110 -65q46 -100 144 -167.5t220 -67.5q137 0 232.5 73.5t132.5 160.5z
M693 1950l78 116l-354 233l-107 -163z" />
    <glyph glyph-name="uni1EB1" unicode="&#x1eb1;" horiz-adv-x="1106" 
d="M90 310q0 -160 105 -245t255 -85q130 0 212.5 50t119.5 115q3 -40 14.5 -80t25.5 -65h180v16q-18 44 -28 101.5t-10 122.5v480q0 180 -104.5 271t-294.5 91t-301.5 -93.5t-111.5 -218.5v-5h185v5q0 65 51.5 114.5t171.5 49.5t169 -59.5t49 -154.5v-72h-238
q-196 0 -323 -89t-127 -249zM276 320q0 90 72 143t212 53h218v-151q0 -85 -89 -161t-199 -76t-162 51t-52 141zM794 1540q-36 -61 -96 -108.5t-144 -47.5q-79 0 -138.5 49.5t-94.5 106.5l-104 -53q42 -114 132.5 -190.5t203.5 -76.5q126 0 213.5 83.5t122.5 182.5zM550 1590
l105 79l-251 301l-153 -105z" />
    <glyph glyph-name="uni1EB2" unicode="&#x1eb2;" horiz-adv-x="1280" 
d="M0 0h192l404 1100q12 33 21 64t16 64h10q7 -33 16 -64t21 -64l400 -1100h200l-554 1466h-172zM238 380h801l-58 158h-684zM902 1900q-39 -58 -104.5 -99.5t-157.5 -41.5q-85 0 -150 43.5t-104 97.5l-110 -65q46 -100 144 -167.5t220 -67.5q137 0 232.5 73.5t132.5 160.5z
M570 1950h149v43q107 10 153.5 55.5t46.5 132.5q0 84 -55 133.5t-161 49.5q-74 0 -142 -17.5t-99 -34.5l48 -119q9 7 58.5 21.5t105.5 14.5q49 0 70 -13t21 -42q0 -36 -16 -50t-60 -21q-67 -11 -93 -36t-26 -70v-47z" />
    <glyph glyph-name="uni1EB3" unicode="&#x1eb3;" horiz-adv-x="1106" 
d="M90 310q0 -160 105 -245t255 -85q130 0 212.5 50t119.5 115q3 -40 14.5 -80t25.5 -65h180v16q-18 44 -28 101.5t-10 122.5v480q0 180 -104.5 271t-294.5 91t-301.5 -93.5t-111.5 -218.5v-5h185v5q0 65 51.5 114.5t171.5 49.5t169 -59.5t49 -154.5v-72h-238
q-196 0 -323 -89t-127 -249zM276 320q0 90 72 143t212 53h218v-151q0 -85 -89 -161t-199 -76t-162 51t-52 141zM794 1540q-36 -61 -96 -108.5t-144 -47.5q-79 0 -138.5 49.5t-94.5 106.5l-104 -53q42 -114 132.5 -190.5t203.5 -76.5q126 0 213.5 83.5t122.5 182.5zM467 1590
h123v31q143 11 207 70.5t64 160.5q0 96 -62.5 153t-182.5 57q-82 0 -159 -20.5t-112 -39.5l54 -125q10 8 66 24.5t120 16.5q54 0 83.5 -18t29.5 -57q0 -41 -20 -57t-76 -24q-76 -11 -105.5 -46t-29.5 -87v-39z" />
    <glyph glyph-name="uni1EB4" unicode="&#x1eb4;" horiz-adv-x="1280" 
d="M0 0h192l404 1100q12 33 21 64t16 64h10q7 -33 16 -64t21 -64l400 -1100h200l-554 1466h-172zM238 380h801l-58 158h-684zM903 1900q-39 -58 -104.5 -99.5t-157.5 -41.5q-85 0 -150 43.5t-104 97.5l-110 -65q46 -100 144 -167.5t220 -67.5q137 0 232.5 73.5t132.5 160.5z
M289 2119l98 -91q19 30 49.5 57.5t66.5 27.5q24 0 56 -18.5t63 -39.5q30 -20 71 -37.5t90 -17.5q65 0 122 37t89 111l-94 91q-21 -39 -44.5 -59t-63.5 -20q-32 0 -65 17.5t-63 39.5q-36 26 -72.5 37t-71.5 11q-67 0 -129 -37t-102 -109z" />
    <glyph glyph-name="uni1EB5" unicode="&#x1eb5;" horiz-adv-x="1106" 
d="M90 310q0 -160 105 -245t255 -85q130 0 212.5 50t119.5 115q3 -40 14.5 -80t25.5 -65h180v16q-18 44 -28 101.5t-10 122.5v480q0 180 -104.5 271t-294.5 91t-301.5 -93.5t-111.5 -218.5v-5h185v5q0 65 51.5 114.5t171.5 49.5t169 -59.5t49 -154.5v-72h-238
q-196 0 -323 -89t-127 -249zM276 320q0 90 72 143t212 53h218v-151q0 -85 -89 -161t-199 -76t-162 51t-52 141zM794 1540q-36 -61 -96 -108.5t-144 -47.5q-79 0 -138.5 49.5t-94.5 106.5l-104 -53q42 -114 132.5 -190.5t203.5 -76.5q126 0 213.5 83.5t122.5 182.5zM167 1746
l76 -92q18 27 58.5 63t87.5 36q29 0 63 -17t68 -36q31 -17 78 -38.5t96 -21.5q57 0 123.5 36t104.5 107l-81 98q-23 -36 -58 -62.5t-75 -26.5q-38 0 -77 22t-73 44q-37 24 -74.5 36.5t-78.5 12.5q-67 0 -136 -49t-102 -112z" />
    <glyph glyph-name="uni1EB6" unicode="&#x1eb6;" horiz-adv-x="1280" 
d="M0 0h192l404 1100q12 33 21 64t16 64h10q7 -33 16 -64t21 -64l400 -1100h200l-554 1466h-172zM238 380h801l-58 158h-684zM931 1936q-43 -68 -116 -117.5t-175 -49.5q-95 0 -167.5 52t-115.5 115l-100 -69q48 -114 151.5 -190.5t231.5 -76.5q144 0 244.5 83.5
t139.5 182.5zM524 -296q0 -47 30 -79t86 -32t86 32t30 79t-30 79t-86 32t-86 -32t-30 -79z" />
    <glyph glyph-name="uni1EB7" unicode="&#x1eb7;" horiz-adv-x="1106" 
d="M90 310q0 -160 105 -245t255 -85q130 0 212.5 50t119.5 115q3 -40 14.5 -80t25.5 -65h180v16q-18 44 -28 101.5t-10 122.5v480q0 180 -104.5 271t-294.5 91t-301.5 -93.5t-111.5 -218.5v-5h185v5q0 65 51.5 114.5t171.5 49.5t169 -59.5t49 -154.5v-72h-238
q-196 0 -323 -89t-127 -249zM276 320q0 90 72 143t212 53h218v-151q0 -85 -89 -161t-199 -76t-162 51t-52 141zM796 1518q-36 -61 -96 -108.5t-144 -47.5q-79 0 -138.5 49.5t-94.5 106.5l-104 -53q42 -114 132.5 -190.5t203.5 -76.5q126 0 213.5 83.5t122.5 182.5zM437 -296
q0 -47 30 -79t86 -32t86 32t30 79t-30 79t-86 32t-86 -32t-30 -79z" />
    <glyph glyph-name="uni1EB8" unicode="&#x1eb8;" horiz-adv-x="1162" 
d="M170 0h924v158h-732v514h630v158h-630v468h722v158h-914v-1456zM514 -296q0 -47 30 -79t86 -32t86 32t30 79t-30 79t-86 32t-86 -32t-30 -79z" />
    <glyph glyph-name="uni1EB9" unicode="&#x1eb9;" horiz-adv-x="1088" 
d="M85 510q0 -238 130.5 -389t375.5 -151q150 0 254.5 65t154.5 140l-120 95q-45 -60 -117 -104t-172 -44q-162 0 -239 112.5t-77 275.5v32q0 163 73 275.5t221 112.5q122 0 187 -80t65 -194v-24h-622v-148h809v76q0 240 -116 381t-331 141t-345.5 -151t-130.5 -389v-32z
M474 -296q0 -47 30 -79t86 -32t86 32t30 79t-30 79t-86 32t-86 -32t-30 -79z" />
    <glyph glyph-name="uni1EBA" unicode="&#x1eba;" horiz-adv-x="1162" 
d="M170 0h924v158h-732v514h630v158h-630v468h722v158h-914v-1456zM496 1600h123v31q143 11 207 70.5t64 160.5q0 96 -62.5 153t-182.5 57q-82 0 -159 -20.5t-112 -39.5l54 -125q10 8 66 24.5t120 16.5q54 0 83.5 -18t29.5 -57q0 -41 -20 -57t-76 -24q-76 -11 -105.5 -46
t-29.5 -87v-39z" />
    <glyph glyph-name="uni1EBB" unicode="&#x1ebb;" horiz-adv-x="1088" 
d="M85 510q0 -238 130.5 -389t375.5 -151q150 0 254.5 65t154.5 140l-120 95q-45 -60 -117 -104t-172 -44q-162 0 -239 112.5t-77 275.5v32q0 163 73 275.5t221 112.5q122 0 187 -80t65 -194v-24h-622v-148h809v76q0 240 -116 381t-331 141t-345.5 -151t-130.5 -389v-32z
M502 1220h123v31q143 11 207 70.5t64 160.5q0 96 -62.5 153t-182.5 57q-82 0 -159 -20.5t-112 -39.5l54 -125q10 8 66 24.5t120 16.5q54 0 83.5 -18t29.5 -57q0 -41 -20 -57t-76 -24q-76 -11 -105.5 -46t-29.5 -87v-39z" />
    <glyph glyph-name="uni1EBC" unicode="&#x1ebc;" horiz-adv-x="1162" 
d="M170 0h924v158h-732v514h630v158h-630v468h722v158h-914v-1456zM227 1710l75 -85q20 30 69 69.5t102 39.5q33 0 74.5 -19t77.5 -44q32 -22 85.5 -46.5t106.5 -24.5q63 0 132.5 44.5t111.5 126.5l-68 85q-26 -39 -68.5 -67.5t-88.5 -28.5q-47 0 -95.5 28t-78.5 46
q-42 28 -83 43t-87 15q-77 0 -152.5 -56.5t-112.5 -125.5z" />
    <glyph glyph-name="uni1EBD" unicode="&#x1ebd;" horiz-adv-x="1088" 
d="M85 510q0 -238 130.5 -389t375.5 -151q150 0 254.5 65t154.5 140l-120 95q-45 -60 -117 -104t-172 -44q-162 0 -239 112.5t-77 275.5v32q0 163 73 275.5t221 112.5q122 0 187 -80t65 -194v-24h-622v-148h809v76q0 240 -116 381t-331 141t-345.5 -151t-130.5 -389v-32z
M204 1326l76 -92q18 27 58.5 63t87.5 36q29 0 63 -17t68 -36q31 -17 78 -38.5t96 -21.5q57 0 123.5 36t104.5 107l-81 98q-23 -36 -58 -62.5t-75 -26.5q-38 0 -77 22t-73 44q-37 24 -74.5 36.5t-78.5 12.5q-67 0 -136 -49t-102 -112z" />
    <glyph glyph-name="uni1EBE" unicode="&#x1ebe;" horiz-adv-x="1162" 
d="M170 0h924v158h-732v514h630v158h-630v468h722v158h-914v-1456zM701 1892h-144l-257 -290h168l165 137l169 -137h164zM924 1902l82 -110l337 172l-116 164z" />
    <glyph glyph-name="uni1EBF" unicode="&#x1ebf;" horiz-adv-x="1088" 
d="M85 510q0 -238 130.5 -389t375.5 -151q150 0 254.5 65t154.5 140l-120 95q-45 -60 -117 -104t-172 -44q-162 0 -239 112.5t-77 275.5v32q0 163 73 275.5t221 112.5q122 0 187 -80t65 -194v-24h-622v-148h809v76q0 240 -116 381t-331 141t-345.5 -151t-130.5 -389v-32z
M616 1533h-112l-245 -313h152l149 159l150 -159h154zM844 1519l95 -86l299 275l-153 105z" />
    <glyph glyph-name="uni1EC0" unicode="&#x1ec0;" horiz-adv-x="1162" 
d="M170 0h924v158h-732v514h630v158h-630v468h722v158h-914v-1456zM701 1892h-144l-257 -290h168l165 137l169 -137h164zM1109 1792l78 116l-354 233l-107 -163z" />
    <glyph glyph-name="uni1EC1" unicode="&#x1ec1;" horiz-adv-x="1088" 
d="M85 510q0 -238 130.5 -389t375.5 -151q150 0 254.5 65t154.5 140l-120 95q-45 -60 -117 -104t-172 -44q-162 0 -239 112.5t-77 275.5v32q0 163 73 275.5t221 112.5q122 0 187 -80t65 -194v-24h-622v-148h809v76q0 240 -116 381t-331 141t-345.5 -151t-130.5 -389v-32z
M615 1533h-112l-245 -313h152l149 159l150 -159h154zM914 1433l105 79l-251 301l-153 -105z" />
    <glyph glyph-name="uni1EC2" unicode="&#x1ec2;" horiz-adv-x="1162" 
d="M170 0h924v158h-732v514h630v158h-630v468h722v158h-914v-1456zM701 1892h-144l-257 -290h168l165 137l169 -137h164zM883 1819h149v43q107 10 153.5 55.5t46.5 132.5q0 84 -55 133.5t-161 49.5q-74 0 -142 -17.5t-99 -34.5l48 -119q9 7 58.5 21.5t105.5 14.5
q49 0 70 -13t21 -42q0 -36 -16 -50t-60 -21q-67 -11 -93 -36t-26 -70v-47z" />
    <glyph glyph-name="uni1EC3" unicode="&#x1ec3;" horiz-adv-x="1088" 
d="M85 510q0 -238 130.5 -389t375.5 -151q150 0 254.5 65t154.5 140l-120 95q-45 -60 -117 -104t-172 -44q-162 0 -239 112.5t-77 275.5v32q0 163 73 275.5t221 112.5q122 0 187 -80t65 -194v-24h-622v-148h809v76q0 240 -116 381t-331 141t-345.5 -151t-130.5 -389v-32z
M615 1533h-112l-245 -313h152l149 159l150 -159h154zM824 1433h123v31q143 11 207 70.5t64 160.5q0 96 -62.5 153t-182.5 57q-82 0 -159 -20.5t-112 -39.5l54 -125q10 8 66 24.5t120 16.5q54 0 83.5 -18t29.5 -57q0 -41 -20 -57t-76 -24q-76 -11 -105.5 -46t-29.5 -87v-39z
" />
    <glyph glyph-name="uni1EC4" unicode="&#x1ec4;" horiz-adv-x="1162" 
d="M170 0h924v158h-732v514h630v158h-630v468h722v158h-914v-1456zM701 1892h-144l-257 -290h168l165 137l169 -137h164zM281 2111l98 -91q19 30 49.5 57.5t66.5 27.5q24 0 56 -18.5t63 -39.5q30 -20 71 -37.5t90 -17.5q65 0 122 37t89 111l-94 91q-21 -39 -44.5 -59
t-63.5 -20q-32 0 -65 17.5t-63 39.5q-36 26 -72.5 37t-71.5 11q-67 0 -129 -37t-102 -109z" />
    <glyph glyph-name="uni1EC5" unicode="&#x1ec5;" horiz-adv-x="1088" 
d="M85 510q0 -238 130.5 -389t375.5 -151q150 0 254.5 65t154.5 140l-120 95q-45 -60 -117 -104t-172 -44q-162 0 -239 112.5t-77 275.5v32q0 163 73 275.5t221 112.5q122 0 187 -80t65 -194v-24h-622v-148h809v76q0 240 -116 381t-331 141t-345.5 -151t-130.5 -389v-32z
M615 1533h-112l-245 -313h152l149 159l150 -159h154zM183 1739l76 -92q18 27 58.5 63t87.5 36q29 0 63 -17t68 -36q31 -17 78 -38.5t96 -21.5q57 0 123.5 36t104.5 107l-81 98q-23 -36 -58 -62.5t-75 -26.5q-38 0 -77 22t-73 44q-37 24 -74.5 36.5t-78.5 12.5
q-67 0 -136 -49t-102 -112z" />
    <glyph glyph-name="uni1EC6" unicode="&#x1ec6;" horiz-adv-x="1162" 
d="M170 0h924v158h-732v514h630v158h-630v468h722v158h-914v-1456zM695 1975h-144l-257 -340h173l160 182l166 -184l167 2zM514 -296q0 -47 30 -79t86 -32t86 32t30 79t-30 79t-86 32t-86 -32t-30 -79z" />
    <glyph glyph-name="uni1EC7" unicode="&#x1ec7;" horiz-adv-x="1088" 
d="M85 510q0 -238 130.5 -389t375.5 -151q150 0 254.5 65t154.5 140l-120 95q-45 -60 -117 -104t-172 -44q-162 0 -239 112.5t-77 275.5v32q0 163 73 275.5t221 112.5q122 0 187 -80t65 -194v-24h-622v-148h809v76q0 240 -116 381t-331 141t-345.5 -151t-130.5 -389v-32z
M616 1533h-112l-245 -313h152l149 159l150 -159h154zM474 -296q0 -47 30 -79t86 -32t86 32t30 79t-30 79t-86 32t-86 -32t-30 -79z" />
    <glyph glyph-name="uni1EC8" unicode="&#x1ec8;" horiz-adv-x="542" 
d="M175 0h192v1456h-192v-1456zM133 1600h123v31q143 11 207 70.5t64 160.5q0 96 -62.5 153t-182.5 57q-82 0 -159 -20.5t-112 -39.5l54 -125q10 8 66 24.5t120 16.5q54 0 83.5 -18t29.5 -57q0 -41 -20 -57t-76 -24q-76 -11 -105.5 -46t-29.5 -87v-39z" />
    <glyph glyph-name="uni1EC9" unicode="&#x1ec9;" horiz-adv-x="500" 
d="M157 0h186v1052h-186v-1052zM192 1220h123v31q143 11 207 70.5t64 160.5q0 96 -62.5 153t-182.5 57q-82 0 -159 -20.5t-112 -39.5l54 -125q10 8 66 24.5t120 16.5q54 0 83.5 -18t29.5 -57q0 -41 -20 -57t-76 -24q-76 -11 -105.5 -46t-29.5 -87v-39z" />
    <glyph glyph-name="uni1ECA" unicode="&#x1eca;" horiz-adv-x="542" 
d="M175 0h192v1456h-192v-1456zM155 -296q0 -47 30 -79t86 -32t86 32t30 79t-30 79t-86 32t-86 -32t-30 -79z" />
    <glyph glyph-name="uni1ECB" unicode="&#x1ecb;" horiz-adv-x="500" 
d="M157 0h186v1052h-186v-1052zM134 1370q0 -47 30 -79t86 -32t86 32t30 79t-30 79t-86 32t-86 -32t-30 -79zM134 -296q0 -47 30 -79t86 -32t86 32t30 79t-30 79t-86 32t-86 -32t-30 -79z" />
    <glyph glyph-name="uni1ECC" unicode="&#x1ecc;" horiz-adv-x="1460" 
d="M115 682q0 -336 172.5 -524t442.5 -188t442.5 188t172.5 524v92q0 336 -172.5 524t-442.5 188t-442.5 -188t-172.5 -524v-92zM309 682v92q0 256 115.5 402t305.5 146t305.5 -146t115.5 -402v-92q0 -256 -115.5 -402t-305.5 -146t-305.5 146t-115.5 402zM614 -296
q0 -47 30 -79t86 -32t86 32t30 79t-30 79t-86 32t-86 -32t-30 -79z" />
    <glyph glyph-name="uni1ECD" unicode="&#x1ecd;" horiz-adv-x="1162" 
d="M85 510q0 -238 135 -389t361 -151t361 151t135 389v32q0 238 -135 389t-361 151t-361 -151t-135 -389v-32zM275 542q0 163 77 275.5t229 112.5t229 -112.5t77 -275.5v-32q0 -163 -77 -275.5t-229 -112.5t-229 112.5t-77 275.5v32zM465 -296q0 -47 30 -79t86 -32t86 32
t30 79t-30 79t-86 32t-86 -32t-30 -79z" />
    <glyph glyph-name="uni1ECE" unicode="&#x1ece;" horiz-adv-x="1460" 
d="M115 682q0 -336 172.5 -524t442.5 -188t442.5 188t172.5 524v92q0 336 -172.5 524t-442.5 188t-442.5 -188t-172.5 -524v-92zM309 682v92q0 256 115.5 402t305.5 146t305.5 -146t115.5 -402v-92q0 -256 -115.5 -402t-305.5 -146t-305.5 146t-115.5 402zM592 1600h123v31
q143 11 207 70.5t64 160.5q0 96 -62.5 153t-182.5 57q-82 0 -159 -20.5t-112 -39.5l54 -125q10 8 66 24.5t120 16.5q54 0 83.5 -18t29.5 -57q0 -41 -20 -57t-76 -24q-76 -11 -105.5 -46t-29.5 -87v-39z" />
    <glyph glyph-name="uni1ECF" unicode="&#x1ecf;" horiz-adv-x="1162" 
d="M85 510q0 -238 135 -389t361 -151t361 151t135 389v32q0 238 -135 389t-361 151t-361 -151t-135 -389v-32zM275 542q0 163 77 275.5t229 112.5t229 -112.5t77 -275.5v-32q0 -163 -77 -275.5t-229 -112.5t-229 112.5t-77 275.5v32zM523 1220h123v31q143 11 207 70.5
t64 160.5q0 96 -62.5 153t-182.5 57q-82 0 -159 -20.5t-112 -39.5l54 -125q10 8 66 24.5t120 16.5q54 0 83.5 -18t29.5 -57q0 -41 -20 -57t-76 -24q-76 -11 -105.5 -46t-29.5 -87v-39z" />
    <glyph glyph-name="uni1ED0" unicode="&#x1ed0;" horiz-adv-x="1460" 
d="M115 682q0 -336 172.5 -524t442.5 -188t442.5 188t172.5 524v92q0 336 -172.5 524t-442.5 188t-442.5 -188t-172.5 -524v-92zM309 682v92q0 256 115.5 402t305.5 146t305.5 -146t115.5 -402v-92q0 -256 -115.5 -402t-305.5 -146t-305.5 146t-115.5 402zM797 1892h-144
l-257 -290h168l165 137l169 -137h164zM1020 1902l82 -110l337 172l-116 164z" />
    <glyph glyph-name="uni1ED1" unicode="&#x1ed1;" horiz-adv-x="1162" 
d="M85 510q0 -238 135 -389t361 -151t361 151t135 389v32q0 238 -135 389t-361 151t-361 -151t-135 -389v-32zM275 542q0 163 77 275.5t229 112.5t229 -112.5t77 -275.5v-32q0 -163 -77 -275.5t-229 -112.5t-229 112.5t-77 275.5v32zM637 1533h-112l-245 -313h152l149 159
l150 -159h154zM865 1519l95 -86l299 275l-153 105z" />
    <glyph glyph-name="uni1ED2" unicode="&#x1ed2;" horiz-adv-x="1460" 
d="M115 682q0 -336 172.5 -524t442.5 -188t442.5 188t172.5 524v92q0 336 -172.5 524t-442.5 188t-442.5 -188t-172.5 -524v-92zM309 682v92q0 256 115.5 402t305.5 146t305.5 -146t115.5 -402v-92q0 -256 -115.5 -402t-305.5 -146t-305.5 146t-115.5 402zM797 1892h-144
l-257 -290h168l165 137l169 -137h164zM1205 1792l78 116l-354 233l-107 -163z" />
    <glyph glyph-name="uni1ED3" unicode="&#x1ed3;" horiz-adv-x="1162" 
d="M85 510q0 -238 135 -389t361 -151t361 151t135 389v32q0 238 -135 389t-361 151t-361 -151t-135 -389v-32zM275 542q0 163 77 275.5t229 112.5t229 -112.5t77 -275.5v-32q0 -163 -77 -275.5t-229 -112.5t-229 112.5t-77 275.5v32zM636 1533h-112l-245 -313h152l149 159
l150 -159h154zM935 1433l105 79l-251 301l-153 -105z" />
    <glyph glyph-name="uni1ED4" unicode="&#x1ed4;" horiz-adv-x="1460" 
d="M115 682q0 -336 172.5 -524t442.5 -188t442.5 188t172.5 524v92q0 336 -172.5 524t-442.5 188t-442.5 -188t-172.5 -524v-92zM309 682v92q0 256 115.5 402t305.5 146t305.5 -146t115.5 -402v-92q0 -256 -115.5 -402t-305.5 -146t-305.5 146t-115.5 402zM797 1892h-144
l-257 -290h168l165 137l169 -137h164zM979 1819h149v43q107 10 153.5 55.5t46.5 132.5q0 84 -55 133.5t-161 49.5q-74 0 -142 -17.5t-99 -34.5l48 -119q9 7 58.5 21.5t105.5 14.5q49 0 70 -13t21 -42q0 -36 -16 -50t-60 -21q-67 -11 -93 -36t-26 -70v-47z" />
    <glyph glyph-name="uni1ED5" unicode="&#x1ed5;" horiz-adv-x="1162" 
d="M85 510q0 -238 135 -389t361 -151t361 151t135 389v32q0 238 -135 389t-361 151t-361 -151t-135 -389v-32zM275 542q0 163 77 275.5t229 112.5t229 -112.5t77 -275.5v-32q0 -163 -77 -275.5t-229 -112.5t-229 112.5t-77 275.5v32zM636 1533h-112l-245 -313h152l149 159
l150 -159h154zM845 1433h123v31q143 11 207 70.5t64 160.5q0 96 -62.5 153t-182.5 57q-82 0 -159 -20.5t-112 -39.5l54 -125q10 8 66 24.5t120 16.5q54 0 83.5 -18t29.5 -57q0 -41 -20 -57t-76 -24q-76 -11 -105.5 -46t-29.5 -87v-39z" />
    <glyph glyph-name="uni1ED6" unicode="&#x1ed6;" horiz-adv-x="1460" 
d="M115 682q0 -336 172.5 -524t442.5 -188t442.5 188t172.5 524v92q0 336 -172.5 524t-442.5 188t-442.5 -188t-172.5 -524v-92zM309 682v92q0 256 115.5 402t305.5 146t305.5 -146t115.5 -402v-92q0 -256 -115.5 -402t-305.5 -146t-305.5 146t-115.5 402zM797 1892h-144
l-257 -290h168l165 137l169 -137h164zM377 2111l98 -91q19 30 49.5 57.5t66.5 27.5q24 0 56 -18.5t63 -39.5q30 -20 71 -37.5t90 -17.5q65 0 122 37t89 111l-94 91q-21 -39 -44.5 -59t-63.5 -20q-32 0 -65 17.5t-63 39.5q-36 26 -72.5 37t-71.5 11q-67 0 -129 -37t-102 -109
z" />
    <glyph glyph-name="uni1ED7" unicode="&#x1ed7;" horiz-adv-x="1162" 
d="M85 510q0 -238 135 -389t361 -151t361 151t135 389v32q0 238 -135 389t-361 151t-361 -151t-135 -389v-32zM275 542q0 163 77 275.5t229 112.5t229 -112.5t77 -275.5v-32q0 -163 -77 -275.5t-229 -112.5t-229 112.5t-77 275.5v32zM636 1533h-112l-245 -313h152l149 159
l150 -159h154zM204 1739l76 -92q18 27 58.5 63t87.5 36q29 0 63 -17t68 -36q31 -17 78 -38.5t96 -21.5q57 0 123.5 36t104.5 107l-81 98q-23 -36 -58 -62.5t-75 -26.5q-38 0 -77 22t-73 44q-37 24 -74.5 36.5t-78.5 12.5q-67 0 -136 -49t-102 -112z" />
    <glyph glyph-name="uni1ED8" unicode="&#x1ed8;" horiz-adv-x="1460" 
d="M115 682q0 -336 172.5 -524t442.5 -188t442.5 188t172.5 524v92q0 336 -172.5 524t-442.5 188t-442.5 -188t-172.5 -524v-92zM309 682v92q0 256 115.5 402t305.5 146t305.5 -146t115.5 -402v-92q0 -256 -115.5 -402t-305.5 -146t-305.5 146t-115.5 402zM791 1975h-144
l-257 -340h173l160 182l166 -184l167 2zM614 -296q0 -47 30 -79t86 -32t86 32t30 79t-30 79t-86 32t-86 -32t-30 -79z" />
    <glyph glyph-name="uni1ED9" unicode="&#x1ed9;" horiz-adv-x="1162" 
d="M85 510q0 -238 135 -389t361 -151t361 151t135 389v32q0 238 -135 389t-361 151t-361 -151t-135 -389v-32zM275 542q0 163 77 275.5t229 112.5t229 -112.5t77 -275.5v-32q0 -163 -77 -275.5t-229 -112.5t-229 112.5t-77 275.5v32zM637 1533h-112l-245 -313h152l149 159
l150 -159h154zM465 -296q0 -47 30 -79t86 -32t86 32t30 79t-30 79t-86 32t-86 -32t-30 -79z" />
    <glyph glyph-name="uni1EDA" unicode="&#x1eda;" horiz-adv-x="1460" 
d="M115 682q0 -336 172.5 -524t442.5 -188t442.5 188t172.5 524v92q0 336 -172.5 524t-442.5 188t-442.5 -188t-172.5 -524v-92zM309 682v92q0 256 115.5 402t305.5 146t305.5 -146t115.5 -402v-92q0 -256 -115.5 -402t-305.5 -146t-305.5 146t-115.5 402zM924 1456v-111
q26 -9 62 -15t82 -6q96 0 166 42.5t70 130.5q0 64 -16.5 114t-36.5 83h-146q10 -36 16.5 -71t6.5 -81q0 -52 -36 -69t-84 -17h-84zM614 1659l127 -59l248 299l-162 99z" />
    <glyph glyph-name="uni1EDB" unicode="&#x1edb;" horiz-adv-x="1162" 
d="M85 510q0 -238 135 -389t361 -151t361 151t135 389v32q0 238 -135 389t-361 151t-361 -151t-135 -389v-32zM275 542q0 163 77 275.5t229 112.5t229 -112.5t77 -275.5v-32q0 -163 -77 -275.5t-229 -112.5t-229 112.5t-77 275.5v32zM734 1052v-111q26 -9 62 -15t82 -6
q96 0 166 42.5t70 130.5q0 64 -16.5 115.5t-36.5 84.5h-146q10 -36 16.5 -72.5t6.5 -82.5q0 -52 -36 -69t-84 -17h-84zM424 1306l95 -86l299 275l-153 105z" />
    <glyph glyph-name="uni1EDC" unicode="&#x1edc;" horiz-adv-x="1460" 
d="M115 682q0 -336 172.5 -524t442.5 -188t442.5 188t172.5 524v92q0 336 -172.5 524t-442.5 188t-442.5 -188t-172.5 -524v-92zM309 682v92q0 256 115.5 402t305.5 146t305.5 -146t115.5 -402v-92q0 -256 -115.5 -402t-305.5 -146t-305.5 146t-115.5 402zM924 1456v-111
q26 -9 62 -15t82 -6q96 0 166 42.5t70 130.5q0 64 -16.5 114t-36.5 83h-146q10 -36 16.5 -71t6.5 -81q0 -52 -36 -69t-84 -17h-84zM686 1601l112 75l-192 299l-157 -98z" />
    <glyph glyph-name="uni1EDD" unicode="&#x1edd;" horiz-adv-x="1162" 
d="M85 510q0 -238 135 -389t361 -151t361 151t135 389v32q0 238 -135 389t-361 151t-361 -151t-135 -389v-32zM275 542q0 163 77 275.5t229 112.5t229 -112.5t77 -275.5v-32q0 -163 -77 -275.5t-229 -112.5t-229 112.5t-77 275.5v32zM734 1052v-111q26 -9 62 -15t82 -6
q96 0 166 42.5t70 130.5q0 64 -16.5 115.5t-36.5 84.5h-146q10 -36 16.5 -72.5t6.5 -82.5q0 -52 -36 -69t-84 -17h-84zM647 1219l105 79l-251 301l-153 -105z" />
    <glyph glyph-name="uni1EDE" unicode="&#x1ede;" horiz-adv-x="1460" 
d="M115 682q0 -336 172.5 -524t442.5 -188t442.5 188t172.5 524v92q0 336 -172.5 524t-442.5 188t-442.5 -188t-172.5 -524v-92zM309 682v92q0 256 115.5 402t305.5 146t305.5 -146t115.5 -402v-92q0 -256 -115.5 -402t-305.5 -146t-305.5 146t-115.5 402zM924 1456v-111
q26 -9 62 -15t82 -6q96 0 166 42.5t70 130.5q0 64 -16.5 114t-36.5 83h-146q10 -36 16.5 -71t6.5 -81q0 -52 -36 -69t-84 -17h-84zM592 1600h123v31q143 11 207 70.5t64 160.5q0 96 -62.5 153t-182.5 57q-82 0 -159 -20.5t-112 -39.5l54 -125q10 8 66 24.5t120 16.5
q54 0 83.5 -18t29.5 -57q0 -41 -20 -57t-76 -24q-76 -11 -105.5 -46t-29.5 -87v-39z" />
    <glyph glyph-name="uni1EDF" unicode="&#x1edf;" horiz-adv-x="1162" 
d="M85 510q0 -238 135 -389t361 -151t361 151t135 389v32q0 238 -135 389t-361 151t-361 -151t-135 -389v-32zM275 542q0 163 77 275.5t229 112.5t229 -112.5t77 -275.5v-32q0 -163 -77 -275.5t-229 -112.5t-229 112.5t-77 275.5v32zM734 1052v-111q26 -9 62 -15t82 -6
q96 0 166 42.5t70 130.5q0 64 -16.5 115.5t-36.5 84.5h-146q10 -36 16.5 -72.5t6.5 -82.5q0 -52 -36 -69t-84 -17h-84zM523 1220h123v31q143 11 207 70.5t64 160.5q0 96 -62.5 153t-182.5 57q-82 0 -159 -20.5t-112 -39.5l54 -125q10 8 66 24.5t120 16.5q54 0 83.5 -18
t29.5 -57q0 -41 -20 -57t-76 -24q-76 -11 -105.5 -46t-29.5 -87v-39z" />
    <glyph glyph-name="uni1EE0" unicode="&#x1ee0;" horiz-adv-x="1460" 
d="M115 682q0 -336 172.5 -524t442.5 -188t442.5 188t172.5 524v92q0 336 -172.5 524t-442.5 188t-442.5 -188t-172.5 -524v-92zM309 682v92q0 256 115.5 402t305.5 146t305.5 -146t115.5 -402v-92q0 -256 -115.5 -402t-305.5 -146t-305.5 146t-115.5 402zM924 1456v-111
q26 -9 62 -15t82 -6q96 0 166 42.5t70 130.5q0 64 -16.5 114t-36.5 83h-146q10 -36 16.5 -71t6.5 -81q0 -52 -36 -69t-84 -17h-84zM323 1710l75 -85q20 30 69 69.5t102 39.5q33 0 74.5 -19t77.5 -44q32 -22 85.5 -46.5t106.5 -24.5q63 0 132.5 44.5t111.5 126.5l-68 85
q-26 -39 -68.5 -67.5t-88.5 -28.5q-47 0 -95.5 28t-78.5 46q-42 28 -83 43t-87 15q-77 0 -152.5 -56.5t-112.5 -125.5z" />
    <glyph glyph-name="uni1EE1" unicode="&#x1ee1;" horiz-adv-x="1162" 
d="M85 510q0 -238 135 -389t361 -151t361 151t135 389v32q0 238 -135 389t-361 151t-361 -151t-135 -389v-32zM275 542q0 163 77 275.5t229 112.5t229 -112.5t77 -275.5v-32q0 -163 -77 -275.5t-229 -112.5t-229 112.5t-77 275.5v32zM734 1052v-111q26 -9 62 -15t82 -6
q96 0 166 42.5t70 130.5q0 64 -16.5 115.5t-36.5 84.5h-146q10 -36 16.5 -72.5t6.5 -82.5q0 -52 -36 -69t-84 -17h-84zM225 1326l76 -92q18 27 58.5 63t87.5 36q29 0 63 -17t68 -36q31 -17 78 -38.5t96 -21.5q57 0 123.5 36t104.5 107l-81 98q-23 -36 -58 -62.5t-75 -26.5
q-38 0 -77 22t-73 44q-37 24 -74.5 36.5t-78.5 12.5q-67 0 -136 -49t-102 -112z" />
    <glyph glyph-name="uni1EE2" unicode="&#x1ee2;" horiz-adv-x="1460" 
d="M115 682q0 -336 172.5 -524t442.5 -188t442.5 188t172.5 524v92q0 336 -172.5 524t-442.5 188t-442.5 -188t-172.5 -524v-92zM309 682v92q0 256 115.5 402t305.5 146t305.5 -146t115.5 -402v-92q0 -256 -115.5 -402t-305.5 -146t-305.5 146t-115.5 402zM924 1456v-111
q26 -9 62 -15t82 -6q96 0 166 42.5t70 130.5q0 64 -16.5 114t-36.5 83h-146q10 -36 16.5 -71t6.5 -81q0 -52 -36 -69t-84 -17h-84zM614 -296q0 -47 30 -79t86 -32t86 32t30 79t-30 79t-86 32t-86 -32t-30 -79z" />
    <glyph glyph-name="uni1EE3" unicode="&#x1ee3;" horiz-adv-x="1162" 
d="M85 510q0 -238 135 -389t361 -151t361 151t135 389v32q0 238 -135 389t-361 151t-361 -151t-135 -389v-32zM275 542q0 163 77 275.5t229 112.5t229 -112.5t77 -275.5v-32q0 -163 -77 -275.5t-229 -112.5t-229 112.5t-77 275.5v32zM734 1052v-111q26 -9 62 -15t82 -6
q96 0 166 42.5t70 130.5q0 64 -16.5 115.5t-36.5 84.5h-146q10 -36 16.5 -72.5t6.5 -82.5q0 -52 -36 -69t-84 -17h-84zM465 -296q0 -47 30 -79t86 -32t86 32t30 79t-30 79t-86 32t-86 -32t-30 -79z" />
    <glyph glyph-name="uni1EE4" unicode="&#x1ee4;" horiz-adv-x="1364" 
d="M155 470q0 -250 153.5 -375t373.5 -125t373.5 125t153.5 375v986h-192v-986q0 -170 -92.5 -253t-242.5 -83t-242.5 83t-92.5 253v986h-192v-986zM566 -296q0 -47 30 -79t86 -32t86 32t30 79t-30 79t-86 32t-86 -32t-30 -79z" />
    <glyph glyph-name="uni1EE5" unicode="&#x1ee5;" horiz-adv-x="1138" 
d="M138 373q0 -212 94.5 -302.5t253.5 -90.5q100 0 182.5 41.5t139.5 113.5h6l8 -135h168v1052h-186v-744q-38 -76 -106 -124t-157 -48q-104 0 -160.5 54.5t-56.5 180.5v681h-186v-679zM453 -296q0 -47 30 -79t86 -32t86 32t30 79t-30 79t-86 32t-86 -32t-30 -79z" />
    <glyph glyph-name="uni1EE6" unicode="&#x1ee6;" horiz-adv-x="1364" 
d="M155 470q0 -250 153.5 -375t373.5 -125t373.5 125t153.5 375v986h-192v-986q0 -170 -92.5 -253t-242.5 -83t-242.5 83t-92.5 253v986h-192v-986zM544 1600h123v31q143 11 207 70.5t64 160.5q0 96 -62.5 153t-182.5 57q-82 0 -159 -20.5t-112 -39.5l54 -125q10 8 66 24.5
t120 16.5q54 0 83.5 -18t29.5 -57q0 -41 -20 -57t-76 -24q-76 -11 -105.5 -46t-29.5 -87v-39z" />
    <glyph glyph-name="uni1EE7" unicode="&#x1ee7;" horiz-adv-x="1138" 
d="M138 373q0 -212 94.5 -302.5t253.5 -90.5q100 0 182.5 41.5t139.5 113.5h6l8 -135h168v1052h-186v-744q-38 -76 -106 -124t-157 -48q-104 0 -160.5 54.5t-56.5 180.5v681h-186v-679zM511 1220h123v31q143 11 207 70.5t64 160.5q0 96 -62.5 153t-182.5 57
q-82 0 -159 -20.5t-112 -39.5l54 -125q10 8 66 24.5t120 16.5q54 0 83.5 -18t29.5 -57q0 -41 -20 -57t-76 -24q-76 -11 -105.5 -46t-29.5 -87v-39z" />
    <glyph glyph-name="uni1EE8" unicode="&#x1ee8;" horiz-adv-x="1364" 
d="M155 470q0 -250 153.5 -375t373.5 -125t373.5 125t153.5 375v986h-192v-986q0 -170 -92.5 -253t-242.5 -83t-242.5 83t-92.5 253v986h-192v-986zM1113 1456v-111q26 -9 62 -15t82 -6q96 0 166 42.5t70 130.5q0 64 -16.5 114t-36.5 83h-146q10 -36 16.5 -71t6.5 -81
q0 -52 -36 -69t-84 -17h-84zM566 1659l127 -59l248 299l-162 99z" />
    <glyph glyph-name="uni1EE9" unicode="&#x1ee9;" horiz-adv-x="1138" 
d="M138 373q0 -212 94.5 -302.5t253.5 -90.5q100 0 182.5 41.5t139.5 113.5h6l8 -135h168v1052h-186v-744q-38 -76 -106 -124t-157 -48q-104 0 -160.5 54.5t-56.5 180.5v681h-186v-679zM870 1052v-111q26 -9 62 -15t82 -6q96 0 166 42.5t70 130.5q0 64 -16.5 115.5
t-36.5 84.5h-146q10 -36 16.5 -72.5t6.5 -82.5q0 -52 -36 -69t-84 -17h-84zM412 1306l95 -86l299 275l-153 105z" />
    <glyph glyph-name="uni1EEA" unicode="&#x1eea;" horiz-adv-x="1364" 
d="M155 470q0 -250 153.5 -375t373.5 -125t373.5 125t153.5 375v986h-192v-986q0 -170 -92.5 -253t-242.5 -83t-242.5 83t-92.5 253v986h-192v-986zM1113 1456v-111q26 -9 62 -15t82 -6q96 0 166 42.5t70 130.5q0 64 -16.5 114t-36.5 83h-146q10 -36 16.5 -71t6.5 -81
q0 -52 -36 -69t-84 -17h-84zM638 1601l112 75l-192 299l-157 -98z" />
    <glyph glyph-name="uni1EEB" unicode="&#x1eeb;" horiz-adv-x="1138" 
d="M138 373q0 -212 94.5 -302.5t253.5 -90.5q100 0 182.5 41.5t139.5 113.5h6l8 -135h168v1052h-186v-744q-38 -76 -106 -124t-157 -48q-104 0 -160.5 54.5t-56.5 180.5v681h-186v-679zM870 1052v-111q26 -9 62 -15t82 -6q96 0 166 42.5t70 130.5q0 64 -16.5 115.5
t-36.5 84.5h-146q10 -36 16.5 -72.5t6.5 -82.5q0 -52 -36 -69t-84 -17h-84zM635 1219l105 79l-251 301l-153 -105z" />
    <glyph glyph-name="uni1EEC" unicode="&#x1eec;" horiz-adv-x="1364" 
d="M155 470q0 -250 153.5 -375t373.5 -125t373.5 125t153.5 375v986h-192v-986q0 -170 -92.5 -253t-242.5 -83t-242.5 83t-92.5 253v986h-192v-986zM1113 1456v-111q26 -9 62 -15t82 -6q96 0 166 42.5t70 130.5q0 64 -16.5 114t-36.5 83h-146q10 -36 16.5 -71t6.5 -81
q0 -52 -36 -69t-84 -17h-84zM544 1600h123v31q143 11 207 70.5t64 160.5q0 96 -62.5 153t-182.5 57q-82 0 -159 -20.5t-112 -39.5l54 -125q10 8 66 24.5t120 16.5q54 0 83.5 -18t29.5 -57q0 -41 -20 -57t-76 -24q-76 -11 -105.5 -46t-29.5 -87v-39z" />
    <glyph glyph-name="uni1EED" unicode="&#x1eed;" horiz-adv-x="1138" 
d="M138 373q0 -212 94.5 -302.5t253.5 -90.5q100 0 182.5 41.5t139.5 113.5h6l8 -135h168v1052h-186v-744q-38 -76 -106 -124t-157 -48q-104 0 -160.5 54.5t-56.5 180.5v681h-186v-679zM870 1052v-111q26 -9 62 -15t82 -6q96 0 166 42.5t70 130.5q0 64 -16.5 115.5
t-36.5 84.5h-146q10 -36 16.5 -72.5t6.5 -82.5q0 -52 -36 -69t-84 -17h-84zM511 1220h123v31q143 11 207 70.5t64 160.5q0 96 -62.5 153t-182.5 57q-82 0 -159 -20.5t-112 -39.5l54 -125q10 8 66 24.5t120 16.5q54 0 83.5 -18t29.5 -57q0 -41 -20 -57t-76 -24
q-76 -11 -105.5 -46t-29.5 -87v-39z" />
    <glyph glyph-name="uni1EEE" unicode="&#x1eee;" horiz-adv-x="1364" 
d="M155 470q0 -250 153.5 -375t373.5 -125t373.5 125t153.5 375v986h-192v-986q0 -170 -92.5 -253t-242.5 -83t-242.5 83t-92.5 253v986h-192v-986zM1113 1456v-111q26 -9 62 -15t82 -6q96 0 166 42.5t70 130.5q0 64 -16.5 114t-36.5 83h-146q10 -36 16.5 -71t6.5 -81
q0 -52 -36 -69t-84 -17h-84zM275 1710l75 -85q20 30 69 69.5t102 39.5q33 0 74.5 -19t77.5 -44q32 -22 85.5 -46.5t106.5 -24.5q63 0 132.5 44.5t111.5 126.5l-68 85q-26 -39 -68.5 -67.5t-88.5 -28.5q-47 0 -95.5 28t-78.5 46q-42 28 -83 43t-87 15q-77 0 -152.5 -56.5
t-112.5 -125.5z" />
    <glyph glyph-name="uni1EEF" unicode="&#x1eef;" horiz-adv-x="1138" 
d="M138 373q0 -212 94.5 -302.5t253.5 -90.5q100 0 182.5 41.5t139.5 113.5h6l8 -135h168v1052h-186v-744q-38 -76 -106 -124t-157 -48q-104 0 -160.5 54.5t-56.5 180.5v681h-186v-679zM870 1052v-111q26 -9 62 -15t82 -6q96 0 166 42.5t70 130.5q0 64 -16.5 115.5
t-36.5 84.5h-146q10 -36 16.5 -72.5t6.5 -82.5q0 -52 -36 -69t-84 -17h-84zM213 1326l76 -92q18 27 58.5 63t87.5 36q29 0 63 -17t68 -36q31 -17 78 -38.5t96 -21.5q57 0 123.5 36t104.5 107l-81 98q-23 -36 -58 -62.5t-75 -26.5q-38 0 -77 22t-73 44q-37 24 -74.5 36.5
t-78.5 12.5q-67 0 -136 -49t-102 -112z" />
    <glyph glyph-name="uni1EF0" unicode="&#x1ef0;" horiz-adv-x="1364" 
d="M155 470q0 -250 153.5 -375t373.5 -125t373.5 125t153.5 375v986h-192v-986q0 -170 -92.5 -253t-242.5 -83t-242.5 83t-92.5 253v986h-192v-986zM1113 1456v-111q26 -9 62 -15t82 -6q96 0 166 42.5t70 130.5q0 64 -16.5 114t-36.5 83h-146q10 -36 16.5 -71t6.5 -81
q0 -52 -36 -69t-84 -17h-84zM566 -296q0 -47 30 -79t86 -32t86 32t30 79t-30 79t-86 32t-86 -32t-30 -79z" />
    <glyph glyph-name="uni1EF1" unicode="&#x1ef1;" horiz-adv-x="1138" 
d="M138 373q0 -212 94.5 -302.5t253.5 -90.5q100 0 182.5 41.5t139.5 113.5h6l8 -135h168v1052h-186v-744q-38 -76 -106 -124t-157 -48q-104 0 -160.5 54.5t-56.5 180.5v681h-186v-679zM870 1052v-111q26 -9 62 -15t82 -6q96 0 166 42.5t70 130.5q0 64 -16.5 115.5
t-36.5 84.5h-146q10 -36 16.5 -72.5t6.5 -82.5q0 -52 -36 -69t-84 -17h-84zM453 -296q0 -47 30 -79t86 -32t86 32t30 79t-30 79t-86 32t-86 -32t-30 -79z" />
    <glyph glyph-name="uni1EF2" unicode="&#x1ef2;" horiz-adv-x="1228" 
d="M518 0h192v544l503 912h-208l-332 -616q-16 -30 -29.5 -55t-24.5 -52h-6q-11 27 -24.5 52t-29.5 55l-328 616h-216l503 -912v-544zM570 1601l112 75l-192 299l-157 -98z" />
    <glyph glyph-name="uni1EF3" unicode="&#x1ef3;" horiz-adv-x="942" 
d="M50 -416q28 -10 59 -15t71 -5q120 0 202.5 78t132.5 218l427 1192h-176l-232 -692q-13 -40 -24.5 -75t-20.5 -65h-6q-8 30 -19 65t-25 75l-249 692h-180l392 -1047v-1q-58 -175 -110 -227.5t-122 -52.5q-30 0 -62 5t-58 13v-158zM555 1219l105 79l-251 301l-153 -105z
" />
    <glyph glyph-name="uni1EF4" unicode="&#x1ef4;" horiz-adv-x="1228" 
d="M518 0h192v544l503 912h-208l-332 -616q-16 -30 -29.5 -55t-24.5 -52h-6q-11 27 -24.5 52t-29.5 55l-328 616h-216l503 -912v-544zM498 -296q0 -47 30 -79t86 -32t86 32t30 79t-30 79t-86 32t-86 -32t-30 -79z" />
    <glyph glyph-name="uni1EF5" unicode="&#x1ef5;" horiz-adv-x="942" 
d="M50 -416q28 -10 59 -15t71 -5q120 0 202.5 78t132.5 218l427 1192h-176l-232 -692q-13 -40 -24.5 -75t-20.5 -65h-6q-8 30 -19 65t-25 75l-249 692h-180l392 -1047v-1q-58 -175 -110 -227.5t-122 -52.5q-30 0 -62 5t-58 13v-158zM662 -296q0 -47 30 -79t86 -32t86 32
t30 79t-30 79t-86 32t-86 -32t-30 -79z" />
    <glyph glyph-name="uni1EF6" unicode="&#x1ef6;" horiz-adv-x="1228" 
d="M518 0h192v544l503 912h-208l-332 -616q-16 -30 -29.5 -55t-24.5 -52h-6q-11 27 -24.5 52t-29.5 55l-328 616h-216l503 -912v-544zM476 1600h123v31q143 11 207 70.5t64 160.5q0 96 -62.5 153t-182.5 57q-82 0 -159 -20.5t-112 -39.5l54 -125q10 8 66 24.5t120 16.5
q54 0 83.5 -18t29.5 -57q0 -41 -20 -57t-76 -24q-76 -11 -105.5 -46t-29.5 -87v-39z" />
    <glyph glyph-name="uni1EF7" unicode="&#x1ef7;" horiz-adv-x="942" 
d="M50 -416q28 -10 59 -15t71 -5q120 0 202.5 78t132.5 218l427 1192h-176l-232 -692q-13 -40 -24.5 -75t-20.5 -65h-6q-8 30 -19 65t-25 75l-249 692h-180l392 -1047v-1q-58 -175 -110 -227.5t-122 -52.5q-30 0 -62 5t-58 13v-158zM431 1220h123v31q143 11 207 70.5
t64 160.5q0 96 -62.5 153t-182.5 57q-82 0 -159 -20.5t-112 -39.5l54 -125q10 8 66 24.5t120 16.5q54 0 83.5 -18t29.5 -57q0 -41 -20 -57t-76 -24q-76 -11 -105.5 -46t-29.5 -87v-39z" />
    <glyph glyph-name="uni1EF8" unicode="&#x1ef8;" horiz-adv-x="1228" 
d="M518 0h192v544l503 912h-208l-332 -616q-16 -30 -29.5 -55t-24.5 -52h-6q-11 27 -24.5 52t-29.5 55l-328 616h-216l503 -912v-544zM207 1710l75 -85q20 30 69 69.5t102 39.5q33 0 74.5 -19t77.5 -44q32 -22 85.5 -46.5t106.5 -24.5q63 0 132.5 44.5t111.5 126.5l-68 85
q-26 -39 -68.5 -67.5t-88.5 -28.5q-47 0 -95.5 28t-78.5 46q-42 28 -83 43t-87 15q-77 0 -152.5 -56.5t-112.5 -125.5z" />
    <glyph glyph-name="uni1EF9" unicode="&#x1ef9;" horiz-adv-x="942" 
d="M50 -416q28 -10 59 -15t71 -5q120 0 202.5 78t132.5 218l427 1192h-176l-232 -692q-13 -40 -24.5 -75t-20.5 -65h-6q-8 30 -19 65t-25 75l-249 692h-180l392 -1047v-1q-58 -175 -110 -227.5t-122 -52.5q-30 0 -62 5t-58 13v-158zM133 1326l76 -92q18 27 58.5 63t87.5 36
q29 0 63 -17t68 -36q31 -17 78 -38.5t96 -21.5q57 0 123.5 36t104.5 107l-81 98q-23 -36 -58 -62.5t-75 -26.5q-38 0 -77 22t-73 44q-37 24 -74.5 36.5t-78.5 12.5q-67 0 -136 -49t-102 -112z" />
    <glyph glyph-name="uni2010" unicode="&#x2010;" horiz-adv-x="644" 
d="M75 544h564v172h-564v-172z" />
    <glyph glyph-name="uni2013" unicode="&#x2013;" 
d="M0 532h1024v168h-1024v-168z" />
    <glyph glyph-name="uni2014" unicode="&#x2014;" horiz-adv-x="2048" 
d="M260 532h1528v168h-1528v-168z" />
    <glyph glyph-name="uni2015" unicode="&#x2015;" horiz-adv-x="656" 
d="M20 626h605v166h-605v-166z" />
    <glyph glyph-name="uni2018" unicode="&#x2018;" horiz-adv-x="410" 
d="M92 1073h183v124q0 81 25 150.5t71 135.5l-105 73q-83 -68 -128.5 -170t-45.5 -192v-121z" />
    <glyph glyph-name="uni2019" unicode="&#x2019;" horiz-adv-x="410" 
d="M318 1458h-184v-131q0 -81 -24 -150.5t-71 -135.5l106 -73q82 68 127.5 170t45.5 192v128z" />
    <glyph glyph-name="uni201A" unicode="&#x201a;" horiz-adv-x="410" 
d="M318 220h-184v-131q0 -81 -24 -150.5t-71 -135.5l106 -73q82 68 127.5 170t45.5 192v128z" />
    <glyph glyph-name="uni201C" unicode="&#x201c;" horiz-adv-x="830" 
d="M92 1073h183v124q0 81 25 150.5t71 135.5l-105 73q-83 -68 -128.5 -170t-45.5 -192v-121zM512 1073h183v124q0 81 25 150.5t71 135.5l-105 73q-83 -68 -128.5 -170t-45.5 -192v-121z" />
    <glyph glyph-name="uni201D" unicode="&#x201d;" horiz-adv-x="830" 
d="M318 1458h-184v-131q0 -81 -24 -150.5t-71 -135.5l106 -73q82 68 127.5 170t45.5 192v128zM738 1458h-184v-131q0 -81 -24 -150.5t-71 -135.5l106 -73q82 68 127.5 170t45.5 192v128z" />
    <glyph glyph-name="uni201E" unicode="&#x201e;" horiz-adv-x="830" 
d="M318 220h-184v-131q0 -81 -24 -150.5t-71 -135.5l106 -73q82 68 127.5 170t45.5 192v128zM738 220h-184v-131q0 -81 -24 -150.5t-71 -135.5l106 -73q82 68 127.5 170t45.5 192v128z" />
    <glyph glyph-name="uni2020" unicode="&#x2020;" horiz-adv-x="1008" 
d="M406 -274q74 -142 96 -141.5t95 141.5l4 282l-21 740v104h351v173h-347l13 483h-191l13 -483h-347v-173h351v-104l-21 -740z" />
    <glyph glyph-name="uni2021" unicode="&#x2021;" horiz-adv-x="1008" 
d="M77 38h337l-3 -490h181l-3 490h337v166h-351l20 330l-15 321h346v167h-332l3 486h-191l3 -486h-332v-167h346l-15 -321l20 -330h-351v-166z" />
    <glyph glyph-name="uni2022" unicode="&#x2022;" horiz-adv-x="784" 
d="M104 773q0 -114 81 -200t207 -86t207 86t81 200q0 116 -81 202t-207 86t-207 -86t-81 -202z" />
    <glyph glyph-name="uni2026" unicode="&#x2026;" horiz-adv-x="1740" 
d="M160 103q0 -52 33.5 -88.5t96.5 -36.5t96.5 36.5t33.5 88.5t-33.5 88.5t-96.5 36.5t-96.5 -36.5t-33.5 -88.5zM740 103q0 -52 33.5 -88.5t96.5 -36.5t96.5 36.5t33.5 88.5t-33.5 88.5t-96.5 36.5t-96.5 -36.5t-33.5 -88.5zM1320 103q0 -52 33.5 -88.5t96.5 -36.5
t96.5 36.5t33.5 88.5t-33.5 88.5t-96.5 36.5t-96.5 -36.5t-33.5 -88.5z" />
    <glyph glyph-name="uni2030" unicode="&#x2030;" horiz-adv-x="2648" 
d="M68 1036q0 -160 83 -258t243 -98t243.5 98t83.5 258v104q0 160 -83.5 258t-243.5 98t-243 -98t-83 -258v-104zM232 1036v104q0 90 36 148t126 58t126.5 -58t36.5 -148v-104q0 -90 -36.5 -148t-126.5 -58t-126 58t-36 148zM1456 1417l-125 87l-921 -1460l125 -87z
M1127 336q0 -160 83 -258t243 -98t243.5 98t83.5 258v104q0 160 -83.5 258t-243.5 98t-243 -98t-83 -258v-104zM1291 336v104q0 90 36 148t126 58t126.5 -58t36.5 -148v-104q0 -90 -36.5 -148t-126.5 -58t-126 58t-36 148zM1927 336q0 -160 83 -258t243 -98t243.5 98
t83.5 258v104q0 160 -83.5 258t-243.5 98t-243 -98t-83 -258v-104zM2091 336v104q0 90 36 148t126 58t126.5 -58t36.5 -148v-104q0 -90 -36.5 -148t-126.5 -58t-126 58t-36 148z" />
    <glyph glyph-name="uni2032" unicode="&#x2032;" horiz-adv-x="654" 
d="M100 964l131 -80l357 568l-193 107z" />
    <glyph glyph-name="uni2033" unicode="&#x2033;" horiz-adv-x="1054" 
d="M100 964l131 -80l357 568l-193 107zM501 964l131 -80l357 568l-193 107z" />
    <glyph glyph-name="uni2039" unicode="&#x2039;" horiz-adv-x="652" 
d="M108 522l295 -369h162l-258 398l258 398h-162l-295 -368v-59z" />
    <glyph glyph-name="uni203A" unicode="&#x203a;" horiz-adv-x="652" 
d="M87 153h162l295 369v59l-295 368h-162l258 -398z" />
    <glyph glyph-name="uni2044" unicode="&#x2044;" horiz-adv-x="342" 
d="M701 1417l-125 87l-921 -1460l125 -87z" />
    <glyph glyph-name="uni2052" unicode="&#x2052;" horiz-adv-x="889" 
d="M61 -2l168 -43l585 1503l-168 43zM505 148q0 -64 45.5 -112.5t116.5 -48.5t116.5 48.5t45.5 112.5q0 65 -45.5 113.5t-116.5 48.5t-116.5 -48.5t-45.5 -113.5zM60 1304q0 -64 45.5 -112.5t116.5 -48.5t116.5 48.5t45.5 112.5q0 65 -45.5 113.5t-116.5 48.5t-116.5 -48.5
t-45.5 -113.5z" />
    <glyph glyph-name="uni2074" unicode="&#x2074;" horiz-adv-x="751" 
d="M61 880h639v130h-488l187 260l157 226h-124l-378 -514zM592 1496h-157v-799h157v799z" />
    <glyph glyph-name="uni20A3" unicode="&#x20a3;" 
d="M180 0h192v703h541v158h-541v437h630v158h-822v-1456zM20 296h705v158h-705v-158z" />
    <glyph glyph-name="uni20A4" unicode="&#x20a4;" 
d="M1028 0v166h-706q70 41 96 123.5t13 218.5l-51 531q-12 123 44.5 201.5t158.5 78.5q92 0 147 -50.5t62 -165.5v-16h192v16q0 167 -106.5 270t-296.5 103q-201 0 -301 -124t-82 -313l55 -572q14 -143 -27.5 -225t-133.5 -82h-56v-160h992zM804 431v159h-762v-159h762z
M804 756v160h-762v-160h762z" />
    <glyph glyph-name="uni20A6" unicode="&#x20a6;" 
d="M-8 850h182v5h666v-5l192 2v137l-192 -2v-10h-666v10h-182v-137zM-8 540h182v10h666v-10l192 2v137l-192 -2v-5h-666v5h-182v-137zM919 1456h-150v-1105l10 -121l-14 -3l-29 120l-454 1109h-186v-1456h150v1125l-13 128h12l22 -111l471 -1142h181v1456z" />
    <glyph glyph-name="uni20A7" unicode="&#x20a7;" horiz-adv-x="1681" 
d="M545 565q246 0 354.5 127t108.5 319q0 191 -108.5 318t-354.5 127h-378v-1456h185v1304h193q173 0 225 -91.5t52 -203.5q0 -110 -52 -201t-225 -91h-234v-152h234zM1554 1026h-604v-142h604v142zM1147 1345v-1076q0 -162 74 -225.5t176 -63.5q49 0 103 7t103 25v151
q-59 -22 -94 -23t-58 -1q-46 0 -82.5 23t-36.5 106v1077h-185z" />
    <glyph glyph-name="uni20A9" unicode="&#x20a9;" horiz-adv-x="1796" 
d="M48 880h265v5h1182v-5l253 2v137l-253 -2v-10h-1182v10h-265v-137zM79 520h325v10h1012v-10l293 2v137l-293 -2v-5h-1012v5h-325v-137zM473 -10h178l226 1110l21 128h6l21 -128l246 -1110h178l318 1466h-162l-219 -1078l-18 -128h-6l-18 128l-248 1078h-198l-218 -1078
l-18 -128h-6l-18 128l-249 1078h-174z" />
    <glyph glyph-name="uni20AB" unicode="&#x20ab;" 
d="M15 480q0 -229 110 -364.5t309 -135.5q91 0 168.5 46t117.5 111h6l8 -137h158v1456h-176v-588q-47 57 -119 90.5t-182 33.5q-180 0 -290 -139t-110 -361v-12zM205 480v12q0 180 60 264t190 84q100 0 165 -45t96 -115v-368q-31 -70 -96 -125t-175 -55q-120 0 -180 89
t-60 259zM1021 1156v146h-716v-146h716zM971 -266v138h-924v-138h924z" />
    <glyph glyph-name="uni20B9" unicode="&#x20b9;" 
d="M19 934h971v155h-971v-155zM806 0h203l-170 317q-77 144 -173.5 223t-190.5 102q186 21 274.5 105t88.5 272q0 93 -46 173t-103 108l-2 8l77 -8h235v156h-980v-157h302q171 0 251.5 -77t80.5 -203q0 -134 -77.5 -210.5t-268.5 -76.5h-288v-153l113 -5q190 -8 312 -71.5
t216 -235.5z" />
    <glyph glyph-name="uni20BA" unicode="&#x20ba;" 
d="M6 334l844 375l6 167l-850 -374v-168zM180 0h222q325 0 469 149t144 374v35h-180v-37q4 -158 -92 -263t-304 -105h-77v1303h-182v-1456zM6 694l844 375l6 167l-850 -374v-168z" />
    <glyph glyph-name="uni20BC" unicode="&#x20bc;" 
d="M959 916q-3 241 -119 370.5t-328 129.5q-215 0 -331 -129.5t-116 -370.5v-916h182v916q2 162 70.5 249t194.5 87q128 0 196.5 -87t68.5 -249v-916h182v916zM592 0v1582h-160v-1582h160z" />
    <glyph glyph-name="uni20BD" unicode="&#x20bd;" 
d="M526 611q246 0 377 112t131 312q0 182 -131 301.5t-377 119.5h-338v-1456h179v1298h159q169 0 242.5 -80t73.5 -185q0 -120 -76.5 -192.5t-239.5 -72.5h-496v-157h496zM754 445h-724v-159h724v159z" />
    <glyph glyph-name="uni2116" unicode="&#x2116;" horiz-adv-x="2331" 
d="M170 0h180v1010q0 30 -0.5 67.5t-4.5 67.5h10q7 -27 20 -56.5t32 -60.5l610 -1028h197v1456h-177v-1020q0 -30 1 -67.5t5 -67.5h-10q-12 25 -30 55l-36 60l-602 1040h-195v-1456zM1353 992q0 -200 114 -326.5t322 -126.5t322.5 126.5t114.5 326.5v27q0 200 -120.5 327
t-316.5 127t-316 -127t-120 -327v-27zM1551 1016q0 127 59 209.5t179 82.5t179.5 -82.5t59.5 -209.5v-25q0 -127 -59 -209.5t-180 -82.5t-179.5 82.5t-58.5 209.5v25zM1393 232h793v182h-793v-182z" />
    <glyph glyph-name="uni2122" unicode="&#x2122;" horiz-adv-x="1881" 
d="M24 1288h268v-598h172v598h268v158h-708v-158zM850 690h155v475h12l196 -475h136l206 475h12v-475h149v756h-171l-260 -580h-8l-256 580h-171v-756z" />
    <glyph glyph-name="uni2212" unicode="&#x2212;" 
d="M57 586h910v173h-910v-173z" />
    <glyph glyph-name="uni2215" unicode="&#x2215;" horiz-adv-x="656" 
d="M-62 -118l141 -43l616 1673l-141 43z" />
    <glyph glyph-name="uni2219" unicode="&#x2219;" 
d="M368 674q0 -57 40.5 -100t103.5 -43t103.5 43t40.5 100q0 58 -40.5 101t-103.5 43t-103.5 -43t-40.5 -101z" />
    <glyph glyph-name="uni2248" unicode="&#x2248;" 
d="M46 704q47 60 113 94t131 34q79 0 125.5 -21t109.5 -52q59 -30 101.5 -49.5t116.5 -19.5q65 0 127 29t109 80v197q-47 -60 -109.5 -94t-127.5 -34q-74 0 -116.5 20t-101.5 50q-63 31 -109 52.5t-125 20.5q-65 -1 -131 -30t-113 -80v-197zM45 287q47 60 113 93.5t131 33.5
q79 0 125.5 -21t109.5 -52q59 -30 101.5 -49.5t116.5 -19.5q65 0 127 29t109 80v198q-47 -60 -109.5 -94t-127.5 -34q-74 0 -116.5 19.5t-101.5 49.5q-63 31 -109 52.5t-125 20.5q-65 -1 -131 -29.5t-113 -79.5v-197z" />
    <glyph glyph-name="uni2260" unicode="&#x2260;" 
d="M880 1181l-132 80l-225 -397l-14 -36l-207 -359l-20 -22l-160 -278l132 -80l201 348l7 24l214 371l24 29zM57 384h910v163h-910v-163zM57 779h910v163h-910v-163z" />
    <glyph glyph-name="uni2264" unicode="&#x2264;" 
d="M913 253v203l-587 223l587 223v193l-818 -349v-144zM52 1h910v169h-910v-169z" />
    <glyph glyph-name="uni2265" unicode="&#x2265;" 
d="M111 253l818 349v144l-818 349v-193l587 -223l-587 -223v-203zM972 1v169h-910v-169h910z" />
    <glyph glyph-name="uni27E8" unicode="&#x27e8;" horiz-adv-x="700" 
d="M-16 536l602 -840l112 85l-523 823l524 809l-113 86l-602 -834v-129z" />
    <glyph glyph-name="uni27E9" unicode="&#x27e9;" horiz-adv-x="700" 
d="M1 -218l113 -86l602 834v129l-602 840l-112 -85l523 -823z" />
    <glyph glyph-name="IJacute" horiz-adv-x="1642" 
d="M175 0h192v1456h-192v-1456zM567 400q0 -200 127.5 -315t332.5 -115t332.5 122.5t127.5 332.5v1031h-192v-1031q0 -140 -71.5 -215.5t-196.5 -75.5t-196.5 68t-71.5 198v10h-192v-10zM1280 1659l127 -59l248 299l-162 99z" />
    <glyph glyph-name="diagonalbarO" horiz-adv-x="623" 
d="M3 -109h170l43 159l-20 4l193 749l-108 68l-206 -790l-18 5zM452 1618l-43 -158l20 -5l-148 -584l108 -68l160 625l21 -4l53 194h-171z" />
    <glyph glyph-name="diagonalbarl" horiz-adv-x="629" 
d="M84 469l266 221l270 194l-80 142l-265 -219l-275 -193z" />
    <glyph glyph-name="diagonalbaro" horiz-adv-x="512" 
d="M-88 -118l165 -5l74 174l-20 4l183 459l-99 70l-201 -500l-18 5zM418 1144l-64 -157l20 -6l-159 -397l99 -70l176 439l21 -5l78 193z" />
    <glyph glyph-name="engtail" horiz-adv-x="629" 
d="M399 190l-63 -40v-157.5v-157.5q0 -100 -32 -130t-76 -30q-41 0 -68.5 15t-69.5 56l-63 -75q40 -52 105 -83t137 -31q132 0 192.5 74t60.5 174v385h-123z" />
    <glyph glyph-name="horizontalbarH" horiz-adv-x="1458" 
d="M1442 1027l10 137l-232 -2v-137zM15 1025h230v137h-239zM245 1035h975v117h-975v-117z" />
    <glyph glyph-name="horizontalbarlc" horiz-adv-x="636" 
d="M311 656h325v146h-285h-311l-11 -146h282z" />
    <glyph glyph-name="idotaccent" horiz-adv-x="500" 
d="M157 0h186v1052h-186v-1052zM134 1345q0 -47 30 -79t86 -32t86 32t30 79t-30 79t-86 32t-86 -32t-30 -79z" />
    <glyph glyph-name="uni0131" unicode="&#x131;" horiz-adv-x="500" 
d="M157 0h186v1052h-186v-1052z" />
    <glyph glyph-name="ijacute" horiz-adv-x="1000" 
d="M157 0h186v1052h-186v-1052zM134 1370q0 -47 30 -79t86 -32t86 32t30 79t-30 79t-86 32t-86 -32t-30 -79zM406 -410q25 -9 74.5 -17.5t89.5 -8.5q134 0 203.5 83t69.5 263v1142h-186v-1182q0 -80 -33.5 -115t-93.5 -35q-30 0 -67 7t-57 13v-150zM593 1306l95 -86l299 275
l-153 105z" />
    <glyph glyph-name="jdotless" horiz-adv-x="500" 
d="M-94 -410q25 -9 74.5 -17.5t89.5 -8.5q134 0 203.5 83t69.5 263v1142h-186v-1182q0 -80 -33.5 -115t-93.5 -35q-30 0 -67 7t-57 13v-150z" />
    <glyph glyph-name="uni0300.case" 
d="M468 1600l112 75l-192 299l-157 -98z" />
    <glyph glyph-name="uni0301.case" 
d="M396 1659l127 -59l248 299l-162 99z" />
    <glyph glyph-name="uni0302.case" 
d="M573 1975h-144l-257 -340h173l160 182l166 -184l167 2z" />
    <glyph glyph-name="uni0303.case" 
d="M105 1710l75 -85q20 30 69 69.5t102 39.5q33 0 74.5 -19t77.5 -44q32 -22 85.5 -46.5t106.5 -24.5q63 0 132.5 44.5t111.5 126.5l-68 85q-26 -39 -68.5 -67.5t-88.5 -28.5q-47 0 -95.5 28t-78.5 46q-42 28 -83 43t-87 15q-77 0 -152.5 -56.5t-112.5 -125.5z" />
    <glyph glyph-name="uni0304.case" 
d="M216 1674h592v156h-592v-156z" />
    <glyph glyph-name="uni0306.case" 
d="M803 1936q-43 -68 -116 -117.5t-175 -49.5q-95 0 -167.5 52t-115.5 115l-100 -69q48 -114 151.5 -190.5t231.5 -76.5q144 0 244.5 83.5t139.5 182.5z" />
    <glyph glyph-name="uni0307.case" 
d="M396 1725q0 -47 30 -79t86 -32t86 32t30 79t-30 79t-86 32t-86 -32t-30 -79z" />
    <glyph glyph-name="uni0308.case" 
d="M166 1787q0 -51 31.5 -82t84.5 -31q57 0 86.5 29.5t29.5 83.5q0 51 -31.5 82.5t-84.5 31.5q-56 0 -86 -29.5t-30 -84.5zM626 1787q0 -51 31.5 -82t84.5 -31q57 0 86.5 29.5t29.5 83.5q0 51 -31.5 82.5t-84.5 31.5q-56 0 -86 -29.5t-30 -84.5z" />
    <glyph glyph-name="uni0309.case" 
d="M374 1600h123v31q143 11 207 70.5t64 160.5q0 96 -62.5 153t-182.5 57q-82 0 -159 -20.5t-112 -39.5l54 -125q10 8 66 24.5t120 16.5q54 0 83.5 -18t29.5 -57q0 -41 -20 -57t-76 -24q-76 -11 -105.5 -46t-29.5 -87v-39z" />
    <glyph glyph-name="uni030A.case" 
d="M273 1829q0 -100 67.5 -164.5t171.5 -64.5t171.5 64.5t67.5 164.5t-67.5 164.5t-171.5 64.5t-171.5 -64.5t-67.5 -164.5zM399 1829q0 55 29 84t84 29q52 0 82.5 -31t30.5 -82q0 -55 -29 -84t-84 -29q-52 0 -82.5 31t-30.5 82z" />
    <glyph glyph-name="uni030B.case" 
d="M249 1659l127 -59l248 299l-162 99zM583 1659l127 -59l248 299l-162 99z" />
    <glyph glyph-name="uni030C.case" 
d="M437 1600h144l257 340h-173l-160 -182l-166 182h-167z" />
    <glyph glyph-name="uni030F.case" 
d="M222 1600q43 68 116 117.5t175 49.5q95 0 167.5 -52t115.5 -115l100 69q-48 114 -151.5 190.5t-231.5 76.5q-144 0 -244.5 -83.5t-139.5 -182.5z" />
    <glyph glyph-name="uni0311.case" 
d="M368 1600l112 75l-192 299l-157 -98zM668 1600l112 75l-192 299l-157 -98z" />
    <glyph glyph-name="uni031B.case" 
d="M382 1456v-111q26 -9 62 -15t82 -6q96 0 166 42.5t70 130.5q0 64 -16.5 114t-36.5 83h-146q10 -36 16.5 -71t6.5 -81q0 -52 -36 -69t-84 -17h-84z" />
    <glyph glyph-name="uni0323.case" 
d="M396 -296q0 -47 30 -79t86 -32t86 32t30 79t-30 79t-86 32t-86 -32t-30 -79z" />
    <glyph glyph-name="uni0324.case" 
d="M166 -185q0 -51 31.5 -82t84.5 -31q57 0 86.5 29.5t29.5 83.5q0 51 -31.5 82.5t-84.5 31.5q-56 0 -86 -29.5t-30 -84.5zM626 -185q0 -51 31.5 -82t84.5 -31q57 0 86.5 29.5t29.5 83.5q0 51 -31.5 82.5t-84.5 31.5q-56 0 -86 -29.5t-30 -84.5z" />
    <glyph glyph-name="uni0326.case" 
d="M333 -597l175 -3l137 417l-214 -2q-32 -139 -50.5 -223.5t-47.5 -188.5z" />
    <glyph glyph-name="uni0327.case" 
d="M430 20l-41 -217q84 -7 118.5 -25.5t34.5 -67.5q0 -53 -61.5 -72.5t-169.5 -18.5l7 -136q202 0 314 63t112 166q0 77 -62 123t-141 60l28 125h-139z" />
    <glyph glyph-name="uni0328.case" 
d="M221 -306q0 -78 76 -134.5t181 -56.5q104 0 192 39.5t133 100.5l-57 103q-62 -47 -128 -70t-113 -23q-52 0 -82 27.5t-30 75.5q0 45 32.5 92t137.5 152l-95 51q-119 -92 -183 -180t-64 -177z" />
    <glyph glyph-name="uni032E.case" 
d="M803 -132q-43 -68 -116 -117.5t-175 -49.5q-95 0 -167.5 52t-115.5 115l-100 -69q48 -114 151.5 -190.5t231.5 -76.5q144 0 244.5 83.5t139.5 182.5z" />
    <glyph glyph-name="uni0331.case" 
d="M216 -294h592v156h-592v-156z" />
    <glyph glyph-name="acutecombstack.case" 
d="M302 1715l82 -110l337 172l-116 164z" />
    <glyph glyph-name="brevecombstack.case" 
d="M774 1910q-39 -58 -104.5 -99.5t-157.5 -41.5q-85 0 -150 43.5t-104 97.5l-110 -65q46 -100 144 -167.5t220 -67.5q137 0 232.5 73.5t132.5 160.5z" />
    <glyph glyph-name="circumflexcombstack.case" 
d="M573 1875h-144l-257 -290h168l165 137l171 -139l162 2z" />
    <glyph glyph-name="dieresiscombstack.case" 
d="M166 1727q0 -51 31.5 -82t84.5 -31q57 0 86.5 29.5t29.5 83.5q0 51 -31.5 82.5t-84.5 31.5q-56 0 -86 -29.5t-30 -84.5zM626 1727q0 -51 31.5 -82t84.5 -31q57 0 86.5 29.5t29.5 83.5q0 51 -31.5 82.5t-84.5 31.5q-56 0 -86 -29.5t-30 -84.5z" />
    <glyph glyph-name="dotaccentcombstack.case" 
d="M396 1725q0 -47 30 -79t86 -32t86 32t30 79t-30 79t-86 32t-86 -32t-30 -79z" />
    <glyph glyph-name="gravecombstack.case" 
d="M640 1570l78 116l-354 233l-107 -163z" />
    <glyph glyph-name="hookabovecombstack.case" 
d="M360 1554h149v43q107 10 153.5 55.5t46.5 132.5q0 84 -55 133.5t-161 49.5q-74 0 -142 -17.5t-99 -34.5l48 -119q9 7 58.5 21.5t105.5 14.5q49 0 70 -13t21 -42q0 -36 -16 -50t-60 -21q-67 -11 -93 -36t-26 -70v-47z" />
    <glyph glyph-name="macroncombstack.case" 
d="M216 1674h592v156h-592v-156z" />
    <glyph glyph-name="tildecombstack.case" 
d="M173 1776l98 -91q19 30 49.5 57.5t66.5 27.5q24 0 56 -18.5t63 -39.5q30 -20 71 -37.5t90 -17.5q65 0 122 37t89 111l-94 91q-21 -39 -44.5 -59t-63.5 -20q-32 0 -65 17.5t-63 39.5q-36 26 -72.5 37t-71.5 11q-67 0 -129 -37t-102 -109z" />
    <glyph glyph-name="uni030C.alt" 
d="M386 1092l128 -35l164 370l-190 54z" />
    <glyph glyph-name="uni00B7.loclCAT" horiz-adv-x="600" 
d="M176 749q0 -49 32 -84t92 -35t92 35t32 84t-32 84t-92 35t-92 -35t-32 -84z" />
    <glyph glyph-name="uni00B7.loclCAT.case" horiz-adv-x="600" 
d="M176 749q0 -49 32 -84t92 -35t92 35t32 84t-32 84t-92 35t-92 -35t-32 -84z" />
    <glyph glyph-name="uni0024.rvrn" 
d="M21 381q0 -179 134 -283t356 -104q221 0 350.5 104t129.5 267q0 162 -98.5 274.5t-313.5 172.5q-216 61 -285.5 133.5t-69.5 153.5q0 100 67.5 154.5t209.5 54.5q143 0 215 -63.5t72 -168.5v-11h177v11q0 159 -125.5 270.5t-338.5 111.5q-212 0 -332 -102t-120 -257
q0 -153 91.5 -260.5t310.5 -168.5q220 -62 292.5 -138.5t72.5 -166.5q0 -100 -79 -161t-226 -61q-148 0 -230.5 59t-82.5 179v11h-177v-11zM436 -170h150v240l-14 10v18h-136v-268zM450 1368h136v218h-150v-190l14 -10v-18z" />
    <glyph glyph-name="uni0135" unicode="&#x135;" horiz-adv-x="500" 
d="M-94 -410q25 -9 74.5 -17.5t89.5 -8.5q134 0 203.5 83t69.5 263v1142h-186v-1182q0 -80 -33.5 -115t-93.5 -35q-30 0 -67 7t-57 13v-150zM306 1533h-112l-245 -313h152l149 159l150 -159h154z" />
    <glyph glyph-name="Jacute.loclNLD" horiz-adv-x="1100" 
d="M25 400q0 -200 127.5 -315t332.5 -115t332.5 122.5t127.5 332.5v1031h-192v-1031q0 -140 -71.5 -215.5t-196.5 -75.5t-196.5 68t-71.5 198v10h-192v-10zM738 1659l127 -59l248 299l-162 99z" />
    <glyph glyph-name="jacute.loclNLD" horiz-adv-x="500" 
d="M-94 -410q25 -9 74.5 -17.5t89.5 -8.5q134 0 203.5 83t69.5 263v1142h-186v-1182q0 -80 -33.5 -115t-93.5 -35q-30 0 -67 7t-57 13v-150zM93 1306l95 -86l299 275l-153 105z" />
    <glyph glyph-name="uni00AB" unicode="&#xab;" horiz-adv-x="1092" 
d="M108 522l295 -369h162l-258 398l258 398h-162l-295 -368v-59zM548 522l295 -369h162l-258 398l258 398h-162l-295 -368v-59z" />
    <glyph glyph-name="uni00BB" unicode="&#xbb;" horiz-adv-x="1092" 
d="M87 153h162l295 369v59l-295 368h-162l258 -398zM527 153h162l295 369v59l-295 368h-162l258 -398z" />
    <glyph glyph-name="uni20A1" unicode="&#x20a1;" horiz-adv-x="1154" 
d="M962 1570h-158l-21 -139l7 -20l-196 -1373l-14 -26l-19 -137h159l20 140l-6 25l183 1311l13 23zM690 1570h-158l-21 -140l7 -23l-183 -1280l-14 -26l-32 -226h159l20 143l-6 27l194 1360l13 21zM85 612q0 -304 153.5 -473t392.5 -169q235 0 368.5 135.5t133.5 320.5v40
h-187v-54q0 -121 -76 -209.5t-239 -88.5q-162 0 -261 127.5t-99 350.5v252q0 241 94 364.5t256 123.5q163 0 241.5 -85.5t78.5 -205.5v-51h182v50q0 193 -133.5 319.5t-368.5 126.5q-234 0 -385 -166t-151 -476v-232z" />
    <glyph glyph-name="uni20AC" unicode="&#x20ac;" 
d="M804 987h-782v-160h785zM807 661h-785v-159h785v159zM203 544q0 -277 117.5 -425.5t335.5 -148.5q120 0 217 40.5t158 115.5l-103 116q-60 -55 -122 -84.5t-117 -29.5q-141 0 -216.5 107t-75.5 306v365q0 203 70 312.5t201 109.5q58 0 118.5 -31.5t114.5 -90.5l117 131
q-64 71 -158 109t-206 38q-217 0 -334 -150.5t-117 -430.5v-359z" />
    <glyph glyph-name="uni20AD" unicode="&#x20ad;" 
d="M130 0h187v500l720 956h-202l-518 -687v687h-187v-1456zM845 0h216l-504 901l-116 -145zM267 661v148h-276v-148h276zM1021 809h-466v-148h466v148z" />
    <glyph glyph-name="uni20B1" unicode="&#x20b1;" 
d="M465 421q235 0 342.5 152t107.5 382q0 248 -107 374.5t-342 126.5h-356v-1456h188v1300h165q154 0 210 -84.5t56 -270.5t-56 -277t-210 -91h-255v-156h257zM-1 980h202v15h639v-15l179 2v157l-199 -2v-25h-619v25h-202v-157zM-1 710h202v24h599v-24l219 2v157l-179 -2
v-15h-639v15h-202v-157z" />
    <glyph glyph-name="uni20B2" unicode="&#x20b2;" 
d="M479 -190h170v250l-22 10v638h-130v-637l-18 -14v-247zM497 708h130v631l15 13v230h-160v-230l15 -10v-634zM995 725h-299v-156h127v-136q0 -135 -61.5 -207.5t-176.5 -72.5q-143 0 -220 101.5t-77 289.5v355q0 207 69.5 318t199.5 111q86 0 168 -51t148 -146l116 134
q-62 106 -173 163t-255 57q-225 0 -346 -152.5t-121 -435.5v-355q0 -264 123.5 -405.5t353.5 -141.5q204 0 314 118.5t110 338.5v273z" />
    <glyph glyph-name="uni20B5" unicode="&#x20b5;" 
d="M473 -190h170v230l-12 10v658h-145v-657l-13 -14v-227zM486 708h145v651l5 13v210h-160v-210l10 -10v-654zM821 436q0 -134 -62 -224t-180 -90q-150 0 -216.5 88t-66.5 254v540q0 159 61.5 242t205.5 83q145 0 199 -92.5t54 -206.5v-24l194 2l-1 22q-9 206 -119 330.5
t-327 124.5q-219 0 -340 -134.5t-121 -348.5v-540q0 -225 121 -356t342 -131q214 0 329.5 130t115.5 328v25l-189 2v-24z" />
    <glyph glyph-name="diagonalbarL" horiz-adv-x="741" 
d="M80 446l665 414l-81 135l-664 -411z" />
    <glyph glyph-name="zerosuperior" horiz-adv-x="787" 
d="M67 1036q0 -160 83 -258t243 -98t243.5 98t83.5 258v104q0 160 -83.5 258t-243.5 98t-243 -98t-83 -258v-104zM231 1036v104q0 90 36 148t126 58t126.5 -58t36.5 -148v-104q0 -90 -36.5 -148t-126.5 -58t-126 58t-36 148z" />
    <glyph glyph-name="uni00660133" horiz-adv-x="1600" 
d="M196 0h186v970v22v208q0 100 49 150t139 50q26 0 51 -3t47 -7l10 150q-30 8 -63 12t-65 4q-164 0 -259 -91t-95 -265v-1200zM25 910h585v142h-298h-46h-241v-142zM757 0h186v1052h-186v-1052zM734 1370q0 -47 30 -79t86 -32t86 32t30 79t-30 79t-86 32t-86 -32t-30 -79z
M1006 -410q25 -9 74.5 -17.5t89.5 -8.5q134 0 203.5 83t69.5 263v1142h-186v-1182q0 -80 -33.5 -115t-93.5 -35q-30 0 -67 7t-57 13v-150zM1234 1370q0 -47 30 -79t86 -32t86 32t30 79t-30 79t-86 32t-86 -32t-30 -79z" />
    <glyph glyph-name="uni0030.prop" horiz-adv-x="1156" 
d="M110 460q0 -220 124 -355t344 -135q218 0 343 135t125 355v536q0 220 -125 355t-343 135q-220 0 -344 -135t-124 -355v-536zM304 450v556q0 140 67 231t207 91t207 -91t67 -231v-556q0 -140 -67 -231t-207 -91t-207 91t-67 231z" />
    <glyph glyph-name="uni0031.prop" horiz-adv-x="736" 
d="M393 0h192v1476h-30l-530 -200v-186l368 155v-1245z" />
    <glyph glyph-name="uni0032.prop" horiz-adv-x="988" 
d="M26 0h960v156h-730l415 439q115 121 195 237t80 258q0 160 -122.5 278t-322.5 118t-337.5 -128t-137.5 -328v-10h190v10q0 140 82.5 219t202.5 79t187.5 -74t67.5 -174t-53 -185t-157 -195l-520 -560v-140z" />
    <glyph glyph-name="uni0033.prop" horiz-adv-x="1051" 
d="M17 380q0 -180 134 -295t344 -115t347 115t137 316q0 139 -76 234t-202 127v4q116 50 171 142t55 192q0 170 -121 278t-311 108t-314 -113t-124 -273v-10h186v10q0 110 71 169t181 59t175 -59t65 -179t-75 -187t-213 -67h-105v-154h115q150 0 239 -71t89 -211t-79 -206
t-211 -66t-212 66t-80 186v10h-186v-10z" />
    <glyph glyph-name="uni0034.prop" horiz-adv-x="1011" 
d="M623 0h180v1456h-172l-644 -988v-126h1020v158h-256h-77h-468l405 649h12v-699v-52v-398z" />
    <glyph glyph-name="uni0035.prop" horiz-adv-x="1072" 
d="M58 365q0 -170 130 -282.5t340 -112.5t348 132.5t138 362.5t-133 358.5t-323 128.5q-80 0 -147 -23t-117 -53l44 410h600v170h-756l-74 -726l132 -62q60 60 129 92.5t159 32.5q130 0 213 -84t83 -244t-83 -248.5t-213 -88.5t-208 63.5t-78 173.5v10h-184v-10z" />
    <glyph glyph-name="uni0036.prop" horiz-adv-x="1136" 
d="M80 614q0 -340 151 -492t361 -152t347 137t137 357t-122 356t-322 136t-320 -136t-120 -356h70q0 160 100 247t230 87q140 0 217 -87t77 -247t-77 -248t-217 -88t-232 108t-92 368v50q0 350 162 512t442 162h20v158h-20q-380 0 -586 -231t-206 -611v-30z" />
    <glyph glyph-name="uni0037.prop" horiz-adv-x="882" 
d="M213 0h196l462 1352v104h-874v-156h676z" />
    <glyph glyph-name="uni0038.prop" horiz-adv-x="1156" 
d="M104 386q0 -198 137 -307t337 -109t337 109t137 307q0 130 -71 221t-183 136v4q86 43 147 131.5t61 208.5q0 180 -124 289.5t-304 109.5t-304 -109.5t-124 -289.5q0 -120 61 -208.5t147 -131.5v-4q-112 -45 -183 -136t-71 -221zM292 396q0 120 78 195t208 75t208 -75
t78 -195t-78 -194t-208 -74t-208 74t-78 194zM334 1077q0 110 67 180.5t177 70.5t177 -70.5t67 -180.5t-67 -181.5t-177 -71.5t-177 71.5t-67 181.5z" />
    <glyph glyph-name="uni0039.prop" horiz-adv-x="1136" 
d="M60 1002q0 -216 122.5 -349t321.5 -133q200 0 320 133t120 349h-70q0 -155 -100 -239.5t-230 -84.5q-140 0 -217 84.5t-77 239.5t77 240.5t217 85.5t232 -108t92 -368v-50q0 -350 -162 -512t-442 -162h-20v-158h20q380 0 586 231t206 611v30q0 340 -151 492t-361 152
t-347 -134t-137 -350z" />
    <glyph glyph-name="uni0391" unicode="&#x391;" horiz-adv-x="1280" 
d="M0 0h192l404 1100q12 33 21 64t16 64h10q7 -33 16 -64t21 -64l400 -1100h200l-554 1466h-172zM238 380h801l-58 158h-684z" />
    <glyph glyph-name="uni0386" unicode="&#x386;" horiz-adv-x="1280" 
d="M0 0h192l404 1100q12 33 21 64t16 64h10q7 -33 16 -64t21 -64l400 -1100h200l-554 1466h-172zM238 380h801l-58 158h-684zM203 1074l135 383l-185 19l-73 -372z" />
    <glyph glyph-name="uni0392" unicode="&#x392;" horiz-adv-x="1260" 
d="M170 0h510q217 0 348.5 110t131.5 310q0 140 -70 226t-180 118v4q90 32 151 107t61 195q0 200 -126 293t-346 93h-480v-1456zM358 158v522h322q150 0 220 -70t70 -190t-70 -191t-220 -71h-322zM358 836v462h292q150 0 216 -59t66 -169t-66 -172t-216 -62h-292z" />
    <glyph glyph-name="uni0393" unicode="&#x393;" horiz-adv-x="1077" 
d="M170 0h192v1298h690v158h-882v-1456z" />
    <glyph glyph-name="uni0394" unicode="&#x394;" horiz-adv-x="1294" 
d="M29 0h1237v107l-533 1359h-172l-532 -1359v-107zM240 158l363 942q12 33 21 64t16 64h10q7 -33 15.5 -64t21.5 -64l360 -942h-807z" />
    <glyph glyph-name="uni0395" unicode="&#x395;" horiz-adv-x="1162" 
d="M170 0h924v158h-732v514h630v158h-630v468h722v158h-914v-1456z" />
    <glyph glyph-name="uni0388" unicode="&#x388;" horiz-adv-x="1410" 
d="M418 0h924v158h-732v514h630v158h-630v468h722v158h-914v-1456zM113 1074l135 383l-185 19l-73 -372z" />
    <glyph glyph-name="uni0396" unicode="&#x396;" horiz-adv-x="1190" 
d="M65 0h1059v158h-830l798 1158v140h-1015v-158h786l-798 -1158v-140z" />
    <glyph glyph-name="uni0397" unicode="&#x397;" horiz-adv-x="1458" 
d="M170 0h192v672h734v-672h192v1456h-192v-626h-734v626h-192v-1456z" />
    <glyph glyph-name="uni0389" unicode="&#x389;" horiz-adv-x="1706" 
d="M418 0h192v672h734v-672h192v1456h-192v-626h-734v626h-192v-1456zM113 1074l135 383l-185 19l-73 -372z" />
    <glyph glyph-name="uni0398" unicode="&#x398;" horiz-adv-x="1460" 
d="M730 -30q270 0 442.5 188t172.5 524v92q0 336 -172.5 524t-442.5 188t-442.5 -188t-172.5 -524v-92q0 -336 172.5 -524t442.5 -188zM730 134q-190 0 -305.5 146t-115.5 402v92q0 256 115.5 402t305.5 146t305.5 -146t115.5 -402v-92q0 -256 -115.5 -402t-305.5 -146z
M468 659h524v168h-524v-168z" />
    <glyph glyph-name="uni0399" unicode="&#x399;" horiz-adv-x="542" 
d="M175 0h192v1456h-192v-1456z" />
    <glyph glyph-name="uni038A" unicode="&#x38a;" horiz-adv-x="790" 
d="M423 0h192v1456h-192v-1456zM113 1074l135 383l-185 19l-73 -372z" />
    <glyph glyph-name="uni03AA" unicode="&#x3aa;" horiz-adv-x="542" 
d="M175 0h192v1456h-192v-1456zM-75 1787q0 -51 31.5 -82t84.5 -31q57 0 86.5 29.5t29.5 83.5q0 51 -31.5 82.5t-84.5 31.5q-56 0 -86 -29.5t-30 -84.5zM385 1787q0 -51 31.5 -82t84.5 -31q57 0 86.5 29.5t29.5 83.5q0 51 -31.5 82.5t-84.5 31.5q-56 0 -86 -29.5t-30 -84.5z
" />
    <glyph glyph-name="uni039A" unicode="&#x39a;" horiz-adv-x="1266" 
d="M170 0h192v500l880 956h-232l-648 -716v716h-192v-1456zM1050 0h236l-676 890l-124 -134z" />
    <glyph glyph-name="uni039B" unicode="&#x39b;" horiz-adv-x="1240" 
d="M0 0h192l384 1100q12 33 21 64t16 64h10q7 -33 16.5 -64t20.5 -64l380 -1100h200l-534 1466h-172z" />
    <glyph glyph-name="uni039C" unicode="&#x39c;" horiz-adv-x="1790" 
d="M170 0h182v1050q0 30 -1 67.5t-5 67.5h8q6 -30 18 -67.5t24 -67.5l414 -1050h166l414 1050q12 30 24 67.5t18 67.5h8q-4 -30 -5 -67.5t-1 -67.5v-1050h186v1456h-248l-432 -1095q-12 -30 -22.5 -62.5t-18.5 -62.5h-8q-8 30 -18.5 62.5t-22.5 62.5l-432 1095h-248v-1456z
" />
    <glyph glyph-name="uni039D" unicode="&#x39d;" horiz-adv-x="1460" 
d="M170 0h188v1000q0 30 -0.5 67.5t-1.5 67.5h7q14 -25 31 -55t37 -60l659 -1020h200v1456h-188v-1000q0 -30 0.5 -67.5t1.5 -67.5h-8q-12 25 -29.5 55t-37.5 60l-659 1020h-200v-1456z" />
    <glyph glyph-name="uni039E" unicode="&#x39e;" horiz-adv-x="1140" 
d="M68 0h1004v178h-1004v-178zM170 662h800v178h-800v-178zM68 1278h1004v178h-1004v-178z" />
    <glyph glyph-name="uni039F" unicode="&#x39f;" horiz-adv-x="1460" 
d="M115 682q0 -336 172.5 -524t442.5 -188t442.5 188t172.5 524v92q0 336 -172.5 524t-442.5 188t-442.5 -188t-172.5 -524v-92zM309 682v92q0 256 115.5 402t305.5 146t305.5 -146t115.5 -402v-92q0 -256 -115.5 -402t-305.5 -146t-305.5 146t-115.5 402z" />
    </font>
</defs>
</svg>
